<svg width="242" height="222" viewBox="0 0 242 222" fill="none" xmlns="http://www.w3.org/2000/svg">
<path fill-rule="evenodd" clip-rule="evenodd" d="M11.1925 108.352C12.0522 109.35 14.3728 110.604 17.615 111.756C23.4525 113.778 25.6573 115.37 27.7232 118.821C28.2456 119.704 28.6927 120.479 28.7959 120.535C28.899 120.591 29.2448 120.444 29.5154 120.19C29.8654 119.912 30.2864 119.873 30.9847 120.184C32.2782 120.75 33.1015 122.062 33.4826 124.069C34.4298 128.85 36.1828 133.867 37.8336 136.36C38.5344 137.406 38.947 137.629 39.2818 137.01C39.6446 136.339 37.5798 130.419 35.5782 126.603C31.0568 117.955 29.987 112.907 31.9015 108.872C32.8909 106.671 33.8015 106.096 35.9498 106.19L37.3634 106.287L38.1126 105.024C40.1927 101.546 41.0517 100.943 42.5109 102.065C43.2801 102.614 43.3833 102.67 44.107 102.194C44.5366 101.892 46.0805 100.392 47.5213 98.836C52.2495 93.7868 53.0291 93.2075 59.1934 90.8024C60.974 90.0971 63.1604 89.0108 64.2063 88.3087C65.7375 87.2017 66.1992 86.7175 67.4422 84.7876C68.522 83.0365 68.9042 82.576 69.162 82.7153C69.4199 82.8547 69.3792 83.2997 69.1475 83.975C68.2164 86.8072 68.7261 88.0833 74.425 97.6345C78.6041 104.696 79.6683 106.673 80.5633 109.825C81.4389 112.766 81.5561 115.631 80.9489 117.371C80.1379 119.735 80.1379 119.735 81.6691 118.628C82.8223 117.85 83.2197 117.731 83.6044 118.006C84.1674 118.444 83.9508 119.461 82.6721 123.306C81.6294 126.345 79.9915 129.128 77.9816 131.244C77.301 132.01 74.9302 133.931 72.7547 135.49C70.5792 137.049 68.539 138.481 68.2684 138.735C67.9184 139.013 69.2652 138.74 71.6215 138.079C79.3778 135.934 82.177 136.18 89.0399 139.756C92.2651 141.433 93.5586 141.998 95.3805 142.449C98.3217 143.172 100.363 143.341 100.796 142.909C100.959 142.73 102.138 141.166 103.48 139.423C106.853 134.908 109.349 129.92 110.522 125.284C111.94 119.58 112.466 114.661 112.243 109.403C112.174 108.299 112.279 107.488 112.465 107.389C112.863 107.27 111.194 102.099 109.344 97.6302C107.349 92.8158 106.602 89.1433 106.8 85.448L106.898 84.0335L105.565 85.5141C102.898 88.4755 98.1902 91.2677 94.7855 91.8956C92.7277 92.2509 90.2379 92.1726 88.2055 91.7412C86.693 91.4573 86.693 91.4573 86.5079 90.6902C86.4691 90.269 86.5097 89.8239 86.645 89.6969C86.8877 89.4946 86.8124 89.3872 86.3957 89.2953C84.2128 88.6491 79.2689 86.5772 76.742 85.2114C73.2869 83.3439 71.1658 81.597 68.8919 78.9003C65.7861 75.1536 64.2317 72.112 64.4973 70.3877C64.6453 69.8673 64.5871 69.2354 64.385 68.9928C64.2625 68.7264 63.9287 66.8783 63.7582 64.8515C63.3697 60.639 62.593 57.8843 61.2 55.5303C60.6539 54.5681 60.08 53.6575 59.9574 53.3911C59.5339 52.6952 60.3718 52.7478 62.5267 53.4457C64.1381 53.9164 65.6784 54.1486 69.165 54.232C71.6548 54.3103 74.1683 54.4681 74.8193 54.6198C75.9386 54.8913 75.9386 54.8913 75.9362 54.1562C75.8973 53.7349 75.9895 53.3178 76.1527 53.1392C76.5028 52.8614 83.3025 54.3354 86.2868 55.348L88.0249 55.954L84.8549 52.5728C83.0797 50.6793 80.9046 48.1695 80.0018 46.881C78.5445 44.8925 78.2284 44.1212 77.3765 41.2592C76.8838 39.4586 76.419 37.6063 76.4596 37.1613C76.7518 32.1826 77.0605 30.7485 78.4339 27.2214C78.8652 26.0536 79.7945 24.0877 80.4922 22.7971C81.7479 20.4739 82.1817 20.0412 83.0068 20.4872C83.3162 20.6545 83.4278 20.4479 83.9149 19.1769C84.5779 17.3339 85.9605 15.1459 89.0264 11.1996C90.392 9.53613 91.7102 7.7137 91.9614 7.24906C92.5753 6.11328 93.3743 5.74463 94.0125 6.28974L94.4445 6.72336L95.8804 3.69704C96.7218 2.01712 97.471 0.754326 97.5741 0.810073C97.6772 0.865821 98.1565 1.45845 98.6079 2.1027C99.5065 3.52232 100.022 3.80106 103.189 4.84572C106.745 6.03389 108.541 7.27174 110.759 10.0717C114.693 14.9995 116.305 18.673 116.696 23.6207C116.837 24.964 116.951 25.4926 117.165 25.3418C117.758 24.8617 118.368 25.4584 119.171 27.4263C120.586 30.7261 119.994 34.409 116.561 43.2267C114.413 48.8033 114.117 49.8441 115.452 47.4972C116.955 44.8405 119.683 40.7785 121.045 39.2462C122.243 37.8925 123.471 37.2223 123.796 37.7313C123.843 37.8903 124.571 37.2832 125.387 36.39C128.973 32.5913 131.06 31.3181 142.091 26.0733C143.825 25.209 145.904 24.1981 146.707 23.6983C148.926 22.4292 149.095 22.8546 147.711 25.9088C146.076 29.4276 145.973 30.9733 146.865 35.8579C147.383 38.4732 147.703 41.581 147.652 43.1545C147.622 44.0724 147.646 44.1519 148.254 44.0135C149.259 43.7563 149.588 44.1342 150.218 46.543C150.986 49.5598 150.859 51.8923 149.739 55.6898C149.211 57.4059 148.819 58.9949 148.81 59.2572C148.83 59.4678 149.105 60.684 149.432 61.9282L150.043 64.1263L150.838 63.8888C153.933 63.0936 152.506 67.459 148.12 72.4927C145.56 75.3787 143.329 77.0411 139.978 78.4321C132.716 81.5115 124.502 82.4082 115.148 81.2214C113.58 81.0409 112.274 80.8685 112.194 80.8923C111.984 80.9119 111.294 86.0094 111.278 88.1353C111.217 90.8373 112.754 98.4725 113.896 101.291C114.283 102.301 114.674 103.179 114.777 103.235C114.829 103.263 115.597 102.211 116.43 100.793C119.558 95.7463 124.141 91.9526 129.614 89.8408C130.862 89.3813 132.46 88.6439 133.259 88.2753C135.716 86.935 139.567 85.481 142.209 84.9078C146.782 83.844 149.229 83.6322 158.311 83.4716C167.838 83.3512 171.552 82.8904 177.068 81.0688C182.477 79.3225 185.245 77.2831 187.735 73.2924C189.118 71.1045 190.032 68.7968 190.478 66.3694L190.731 65.0385L189.48 64.7629C185.622 64.0115 182.314 60.0221 182.564 56.3547C182.666 54.8091 183.192 53.9593 184.401 53.0785C186.362 51.6701 189.121 52.3606 191.244 54.8426C192.484 56.2467 193.669 59.3555 193.855 61.724C194.03 63.6196 194.264 63.6795 196.955 62.399C199.277 61.1857 200.028 60.658 205.709 56.1901C212.252 50.988 215.699 49.0487 219.871 48.2349C223.565 47.5635 227.587 48.1363 229.946 49.8119L231.203 50.6914L232.954 49.3026C236.43 46.4455 237.506 44.8255 239.136 39.8364C240.068 37.0042 240.207 36.7461 240.77 37.1838C241.385 37.6494 241.288 38.1977 239.612 42.1615C237.94 45.9942 236.622 47.8167 233.747 49.9314L232.024 51.2686L232.502 52.7274C233.074 54.5043 232.866 55.2591 231.543 55.6113C230.43 55.9438 229.319 55.4101 228.988 54.2971C228.771 53.7127 228.887 53.3751 229.52 52.4499L230.237 51.3699L228.896 50.6451C224.977 48.5267 219.377 48.9019 214.355 51.6579C211.23 53.371 206.119 57.2793 201.393 61.4623C199.527 63.1887 199.181 63.3353 196.689 64.1233L193.908 64.9546L193.586 66.7822C193.108 69.3923 190.792 73.6773 188.675 75.8684C185.312 79.2542 179.086 82.7599 173.738 84.2718C166.299 86.3217 158.549 87.4694 143.583 88.6525C139.139 88.9853 134.84 89.6639 133.195 90.2422C132.583 90.5117 131.06 91.3564 129.851 92.2372C125.29 95.3752 121.918 99.0232 121.397 101.343C121.269 102.074 120.657 103.945 120.082 105.502C118.964 108.434 118.02 111.659 116.948 115.616C116.671 116.867 116.352 119.43 116.28 121.659C116.152 123.991 115.857 126.633 115.492 128.171C114.828 130.88 113.07 135.734 112.038 137.644L111.396 138.832L112.436 139.127C112.956 139.274 115.511 140.589 118.113 142.062C120.949 143.595 123.091 144.686 123.536 144.726C124.215 144.826 124.243 144.775 123.154 141.118C121.341 134.734 120.945 129.917 121.906 124.566C122.356 122.007 122.838 120.868 123.298 121.25C123.477 121.413 123.588 121.206 123.792 120.583C123.912 120.114 124.865 118.227 125.842 116.42C128.572 111.492 130.55 109.559 137.04 105.196C138.488 104.243 139.514 103.331 140.362 102.255C142.003 100.206 142.479 100.064 142.774 101.491C142.936 102.178 143.26 102.687 143.673 102.91C144.343 103.273 146.744 106.105 147.539 107.468C148.184 108.618 148.716 110.839 148.669 112.282C148.64 114.801 148.037 116.41 145.773 120.723C143.731 124.622 143.643 124.908 143.541 126.454C143.511 127.372 143.604 128.556 143.742 129.164L143.97 130.222L144.457 128.951C144.768 128.252 145.893 125.924 146.962 123.7C148.533 120.547 149.254 119.336 150.485 117.799C153.272 114.369 155.857 112.298 161.491 109.272C164.457 107.607 165.43 107.532 165.181 108.732C165.057 109.332 165.057 109.332 166.062 109.075C167.254 108.718 170.999 108.941 173.003 109.424C173.86 109.688 175.729 110.298 177.126 110.919C178.499 111.461 180.158 112.091 180.729 112.266C182.083 112.598 182.253 113.023 181.361 113.809C180.769 114.289 180.713 114.392 181.13 114.484C186.552 115.547 188.005 116.065 190.603 117.67C192.994 119.163 195.182 121.279 198.866 125.805C202.094 129.818 202.836 130.419 206.196 131.969C209.556 133.518 209.58 133.598 206.627 134.87C203.702 136.091 201.013 138.106 197.749 141.679C196.173 143.362 194.657 144.811 194.414 145.013C194.12 145.187 194.056 145.553 194.372 146.324C194.628 147.33 194.596 147.513 193.967 148.307C188.925 154.921 180.889 160.05 174.784 160.619L173.521 160.737L175.223 161.657C176.718 162.465 176.897 162.628 176.701 162.99C176.478 163.403 173.737 163.789 171.116 163.707C167.499 163.619 162.974 162.374 159.364 160.423L156.912 159.165L158.387 160.629C160.218 162.419 160.712 163.353 160.622 164.505C160.55 165.133 160.791 165.797 161.595 166.899C162.173 167.678 163.157 169.678 163.841 171.248C165.2 174.651 165.822 175.721 167.019 176.835C168.446 178.14 167.857 178.489 164.244 178.27C161.389 178.128 160.65 178.262 157.368 179.157C154.217 180.055 153.736 180.329 153.933 180.703C154.183 181.104 154.155 181.156 153.65 181.35C152.772 181.742 147.401 182.309 144.884 182.282C137.827 182.27 131.538 179.604 127.544 174.911C127.065 174.318 127.691 176.858 128.388 178.035C128.934 178.998 128.861 179.625 128.182 179.525C127.555 179.453 124.984 176.196 123.972 174.247C121.998 170.379 121.706 165.618 123.017 157.521C123.435 155.145 123.823 152.086 123.921 150.671C124.053 148.208 124.034 147.997 123.383 147.846C123.045 147.73 121.101 147.012 119.081 146.188C114.109 144.167 111.731 143.883 108.496 144.936C107.515 145.273 107.137 145.602 106.01 147.194C105.241 148.246 104.155 149.393 103.59 149.822C101.947 151.135 101.556 150.257 103.076 148.677C103.538 148.193 104.334 147.089 104.832 146.291C105.693 144.821 107.134 143.265 107.443 143.433C107.546 143.488 108.496 143.335 109.525 143.157C112.667 142.521 116.296 143.081 119.446 144.65C120.196 144.989 119.759 144.686 118.371 143.803C115.698 142.091 110.045 139.235 109.259 139.211C108.445 139.238 108.509 138.872 109.327 138.714C109.856 138.599 110.075 138.318 110.442 137.515C113.946 128.936 114.343 127.216 114.734 118.355C114.987 111.354 114.708 107.801 113.832 107.327C113.574 107.188 113.494 107.211 113.585 107.661C113.656 107.899 113.568 108.185 113.46 108.26C113.301 108.308 113.328 109.123 113.377 110.017C114.425 118.188 111.633 129.887 107 136.856C105.431 139.143 103.376 141.835 102.266 142.902C101.967 143.208 102.019 143.236 102.595 143.28C102.936 143.265 103.404 143.384 103.606 143.627C104.09 144.089 103.556 145.201 101.333 148.202L99.9594 150.128L101.074 150.53C103.126 151.172 104.36 151.973 104.394 152.525C104.461 152.895 104.083 153.224 102.827 153.946C101.463 154.743 101.3 154.922 101.227 155.549C101.206 156.205 100.907 156.511 99.1377 157.689C96.3737 159.597 95.6609 160.546 92.9093 166.13C90.2177 171.479 89.5607 172.325 86.3951 174.483C84.3828 175.864 79.5028 177.495 77.4856 177.406C76.7509 177.409 76.0119 177.543 75.7972 177.694C74.4959 178.992 72.1936 180.416 69.5304 181.645C67.7734 182.429 66.3065 183.171 66.2786 183.222C66.2507 183.274 66.588 183.39 67.0606 183.378C69.4473 183.401 72.0191 184.19 74.7522 185.668C78.6436 187.838 80.3005 189.334 87.4123 197.381C93.716 204.457 98.0527 208.269 102.436 210.638C108.367 213.843 114.339 214.136 118.28 211.53C120.773 209.876 121.892 208.546 123.379 205.547C124.787 202.573 125.688 199.057 125.06 198.985C121.11 198.65 120.979 198.646 118.297 197.197C115.925 195.915 115.592 195.668 114.586 194.324C113.43 192.765 112.589 190.376 112.738 188.989C113.122 186.061 116.092 184.264 119.164 184.991C120.986 185.442 124.834 187.322 125.956 188.328C127.435 189.661 128.791 192.329 129.041 194.332L129.304 195.942L130.954 195.232C131.884 194.868 133.772 194.087 135.234 193.477C138.001 192.304 141.04 191.612 143.109 191.729C144.106 191.734 144.911 191.97 146.097 192.611C147.541 193.391 147.692 193.606 147.825 194.345C148.021 195.585 147.746 195.97 147.085 195.346C145.559 193.854 144.368 193.344 142.744 193.267C140.989 193.185 140.087 193.498 136.354 195.35C134.887 196.091 132.677 197.098 131.401 197.609C129.037 198.532 129.037 198.532 128.792 199.601C128.644 200.121 127.818 202.143 126.865 204.029C123.997 209.951 121.077 212.642 116.014 214.241C110.531 215.88 105.525 214.909 99.6715 210.945C95.7692 208.302 93.6287 206.344 87.9742 200.286C81.7373 193.579 80.0761 192.214 76.1247 190.279C72.7922 188.678 70.6566 188.19 66.9359 188.047C63.7629 188 62.0788 188.157 59.2735 188.909C56.4683 189.661 54.763 190.473 54.3723 191.196C54.1677 191.575 53.9106 191.68 53.6012 191.513C53.2402 191.318 52.6754 191.746 50.7256 193.628C46.1454 198.157 44.007 201.003 39.0138 209.378C35.6585 214.969 32.9577 218.98 31.4375 220.56C30.5141 221.528 29.1673 221.801 28.1875 221.271C26.6404 220.435 24.3658 216.137 24.0381 213.291C23.8421 212.051 23.9385 211.503 24.5051 210.208C25.4065 208.294 25.8403 207.861 30.0433 205.263C36.2543 201.416 37.6951 199.86 41.3743 193.176C43.3834 189.459 45.3852 183.537 45.4937 180.994C45.493 179.392 45.0148 176.332 44.1283 172.917C43.7109 171.224 43.2394 168.768 43.0476 167.397C42.7308 165.024 42.7337 161.69 43.0685 161.071C43.515 160.245 42.2908 160.784 39.4194 162.767C35.6654 165.274 33.8248 166.214 31.0754 166.863C25.9459 168.093 21.559 167.456 13.8456 164.221C11.7743 163.368 11.235 163.01 10.9619 162.529C10.7362 162.206 10.0743 161.582 9.3566 161.061C7.40546 159.739 5.60233 157.897 5.82557 157.484C5.96509 157.226 7.31191 156.953 8.97238 156.717C13.028 156.241 13.1354 156.165 11.382 155.218C10.5569 154.772 9.25254 153.733 8.21021 152.703C3.07385 147.658 0.355628 140.852 0.324338 132.897C0.269633 130.532 0.767682 129.734 1.94283 129.902C2.57014 129.975 2.70542 129.848 2.82552 129.379C3.10635 127.996 5.0318 124.434 7.15504 121.246C8.4217 119.395 9.82789 117.287 10.2465 116.513C10.7767 115.532 11.103 115.174 11.4167 115.211C11.9924 115.255 11.9536 114.834 11.1466 111.395C10.5009 108.645 10.5349 107.596 11.1925 108.352ZM12.1172 110.586C12.0377 110.61 12.2465 111.456 12.5025 112.462C12.7865 113.416 13.0062 114.735 12.9892 115.26C12.9832 116.257 12.9553 116.309 12.2164 116.443C11.6364 116.53 11.31 116.887 9.89532 119.258C8.84341 120.958 8.33688 122.018 8.49159 122.102C8.59473 122.157 8.91932 122.666 9.16445 123.199C9.38166 123.783 10.9616 126.038 12.593 128.321C15.757 132.7 15.757 132.7 15.467 132.743C14.9107 132.909 9.39752 125.727 8.4965 123.572L7.9826 122.427L7.21398 123.479C5.89575 125.301 4.49626 128.014 4.18752 129.448C3.7714 130.958 3.33341 131.521 2.49982 131.338C2.21407 131.25 1.89618 131.345 1.81246 131.5C1.53341 132.016 2.18887 137.707 2.79565 140.036C3.63483 143.292 4.91201 145.983 6.82074 148.616C8.7768 151.408 10.3821 152.876 13.5194 154.838L16.0657 156.415L19.8422 156.455C24.4051 156.52 25.3224 156.549 25.1828 156.807C25.0154 157.116 19.0221 157.479 15.7975 157.404C14.9597 157.351 12.9856 157.552 11.4046 157.765C9.84727 158.057 8.29418 158.218 8.00419 158.262C7.08688 158.233 7.39206 158.531 9.73208 159.996C10.9139 160.768 12.0163 161.564 12.242 161.886C12.745 162.558 17.8952 164.742 20.7569 165.488C25.0001 166.514 29.5756 166.186 33.1926 164.672C34.071 164.279 36.2101 163.034 37.9003 161.879C39.6699 160.701 41.5663 159.658 42.2021 159.468C43.2074 159.211 43.2632 159.108 43.3681 158.297C43.4367 157.801 43.6338 156.573 43.7708 155.58C44.0128 153.776 44.0171 153.645 42.8649 151.955C41.515 149.891 40.6231 149.075 39.9078 149.289C39.5899 149.384 38.0715 150.098 36.4972 150.915C32.4185 152.913 27.9164 154.215 25.3751 154.109C23.5404 154.051 18.9557 153.041 18.889 152.671C18.7943 152.353 19.3185 152.369 22.0061 152.821C26.913 153.606 29.5271 153.084 36.1616 149.933C38.8249 148.704 39.4134 148.355 39.1877 148.033C39.0093 147.87 36.3277 146.42 33.2057 144.799C29.1511 142.808 27.0131 141.586 25.6293 140.571L23.7339 139.146L21.4462 139.31C17.6611 139.533 15.7792 139.316 13.8153 138.388C12.8076 137.91 11.7525 137.273 11.3485 136.788C10.001 135.459 7.57165 131.077 8.34518 131.495C8.39675 131.523 9.20065 132.625 10.1313 133.862C12.9429 137.783 14.8315 138.603 20.5027 138.467L22.9452 138.386L21.9308 137.304C20.2545 135.598 19.5021 134.524 18.4143 132.468C17.3501 130.492 14.7816 122.299 15.179 122.181C15.338 122.133 15.9702 123.676 16.6649 125.719C18.6418 131.924 20.3788 134.998 23.3122 137.584L24.5608 138.726L24.4164 137.514C23.6602 132.502 23.0729 130.383 21.2235 125.915C20.5676 124.293 20.0343 122.937 20.0664 122.754C20.1113 122.178 20.6379 122.93 21.741 125.327C23.3106 128.711 24.2183 131.469 24.6923 134.661C24.9077 136.111 25.2178 137.88 25.3792 138.568L25.6547 139.784L29.6019 141.851C31.7162 142.994 34.9693 144.619 36.7784 145.463L40.0873 146.985L39.4939 145.863C39.1736 145.223 38.505 143.995 37.9589 143.032C36.9184 141.136 37.4231 140.942 38.6784 142.687C39.6049 144.055 41.254 147.415 41.1144 147.673C41.0586 147.776 41.4348 148.313 41.942 148.854C42.4492 149.395 43.1779 150.39 43.5777 151.006C43.9775 151.622 44.3537 152.159 44.4332 152.135C44.4332 152.135 44.8323 151.15 45.2357 150.034C45.6155 148.839 46.4417 146.817 47.0362 145.471C48.0814 143.167 48.1651 143.012 47.9708 140.906C47.7268 137.905 46.7414 134.304 44.9394 129.995C44.0341 127.971 43.1459 125.423 42.8146 124.31C42.2636 121.877 41.4181 113.949 41.736 113.854C41.895 113.806 42.026 113.811 42.0497 113.89C42.0734 113.97 42.375 116 42.7433 118.401C43.5383 123.834 43.8417 124.999 45.7426 129.495C47.4221 133.538 48.4439 136.825 48.7243 139.512C48.8772 140.462 49.0107 141.201 49.0623 141.229C49.1976 141.102 54.3381 130.605 56.0294 126.983C57.9202 122.869 57.8881 123.051 56.3001 116.99C54.8778 111.485 54.4554 108.321 54.6039 103.732C54.6717 101.634 54.8106 99.774 54.8664 99.6708C55.2012 99.0513 55.3347 99.7905 55.3852 102.286C55.4303 107.38 55.6525 109.435 56.3369 112.607C57.1312 116.438 58.3515 121.701 58.431 121.677C58.431 121.677 59.0813 120.227 59.7959 118.412C63.8626 108.669 66.4702 97.8043 65.9999 92.8804C65.7971 91.0364 65.8809 90.8815 66.345 91.1324C66.4997 91.216 66.7127 91.9315 66.8183 92.7224C67.3335 97.0702 66.0113 104.694 63.426 112.436L62.2953 115.761L63.9077 113.764C65.7629 111.564 67.3492 108.753 69.3517 104.432C70.9355 100.885 71.1012 101.442 69.6314 105.517C68.2817 109.123 66.7833 111.649 63.8138 115.047C61.6881 117.5 61.6043 117.655 60.1042 121.047C58.692 124.153 55.1657 131.786 53.3154 135.456L52.6136 136.878L53.9537 136.001C54.7054 135.473 56.8724 134.177 58.8762 133.058C65.3214 129.271 67.37 127.576 71.5462 122.562C73.4292 120.311 74.1615 119.573 74.2798 119.97C74.3035 120.05 73.3674 121.412 72.1887 122.976C68.5925 127.903 66.0585 130.003 59.2954 133.885C54.1624 136.848 52.1975 138.387 51.0103 140.214C50.0657 141.838 46.5437 149.34 46.6341 149.789C46.602 149.972 47.3172 149.758 48.2236 149.314C49.13 148.87 50.35 148.463 51.0094 148.352C51.8278 148.194 52.8416 147.675 54.4007 146.516C56.4967 144.981 60.2016 143.181 62.3711 142.619C64.2226 142.152 63.3078 142.858 60.2708 144.285C57.6075 145.514 54.4505 147.41 54.1993 147.875C54.1714 147.926 54.9298 148.003 55.8471 148.032C58.2574 148.134 61.0761 148.59 67.7405 150.191L73.4961 151.501L76.5416 149.811C79.9886 147.872 83.5304 146.251 86.8209 145.094C90.5605 143.847 89.534 144.76 85.146 146.59C81.5011 148.156 76.1145 150.848 75.2512 151.582C74.7659 151.987 79.0218 152.62 83.3699 152.835C86.6181 152.99 86.9359 152.895 90.9375 151.655C93.1907 150.939 95.0939 150.5 95.1412 150.659C95.2358 150.977 90.3151 153.053 87.9867 153.663C85.7657 154.197 81.3855 154.164 77.2843 153.615C75.6924 153.355 74.2551 153.178 74.021 153.119C72.8974 152.978 78.0811 158.182 80.1954 159.324C80.8658 159.687 83.3775 160.711 85.8419 161.576C90.1196 163.154 91.0479 163.656 90.0232 163.703C89.6022 163.742 85.3396 162.505 82.7442 161.636C79.2678 160.424 76.7858 158.482 73.8864 154.847C73.0546 153.797 72.167 152.85 71.9091 152.711C71.1871 152.321 60.5052 150.016 57.9444 149.699C56.6898 149.554 54.8831 149.445 53.9895 149.496L52.3096 149.522L53.4896 151.16C54.1946 152.075 55.6629 154.536 56.7787 156.54C59.0576 160.707 60.1666 162.107 64.942 166.957C68.0411 170.099 68.4967 170.612 68.0993 170.731C67.8609 170.802 63.6789 167.074 61.4438 164.799C58.7015 161.982 57.8976 160.881 55.6703 156.742C53.6129 153.028 51.8352 150.399 51.1648 150.037C50.7007 149.786 48.4196 150.554 47.3458 151.308C46.0852 152.161 45.3681 153.241 45.1067 154.834C44.9502 155.617 44.869 156.507 44.9121 156.797C45.0067 157.115 44.9618 157.691 44.8696 158.108C44.7174 158.76 44.7647 158.919 45.3641 159.043C45.7809 159.135 47.0507 159.621 48.2411 160.131L50.3596 161.143L48.8956 158.55C47.5541 156.224 47.1907 155.294 47.8095 155.628C47.9642 155.712 48.938 157.239 49.9549 159.056C52.0165 162.639 51.7629 162.368 59.0397 169.37C61.5843 171.813 65.8306 175.175 67.6355 176.151L68.9247 176.848L68.716 176.001C68.2985 174.308 69.0416 174.042 71.4502 175.011C74.1961 176.095 77.8374 176.262 80.9884 175.363L82.5779 174.888L80.1863 173.395C78.8498 172.539 76.8792 171.007 75.7574 170.001C73.0303 167.526 67.2684 161.543 67.0985 161.118C66.9092 160.482 67.7022 161.11 70.1156 163.549C75.886 169.27 77.8523 170.933 80.7596 172.704L83.5638 174.42L84.7128 173.774C85.3528 173.453 86.3471 172.723 86.9677 172.191L88.1016 171.203L86.7802 170.689C85.8714 170.398 85.5899 170.179 85.7767 170.08C85.912 169.953 86.6145 170.132 87.2892 170.363C88.559 170.85 88.559 170.85 89.1923 169.924C89.5508 169.384 89.802 168.92 89.8299 168.868C89.8062 168.789 89.1553 168.637 88.4248 168.509C86.1024 168.121 82.222 166.424 79.7873 164.641C77.1185 162.798 71.5095 157.765 71.7049 157.404C71.7607 157.3 71.9948 157.36 72.2764 157.579C74.1116 159.238 79.6108 163.611 80.9989 164.495C82.9264 165.737 86.3426 167.183 88.7123 167.73L90.2764 168.042L92.4851 163.833C93.7214 161.299 94.9407 159.289 95.3229 158.829L96.0552 158.091L94.6374 158.125C93.8232 158.152 92.878 158.174 92.5364 158.19C91.2497 158.228 84.706 157.76 84.3966 157.593C83.8293 157.286 84.8024 157.212 89.6789 157.313C96.1043 157.383 96.8948 157.277 98.338 156.456C99.3281 155.857 99.5471 155.575 99.5641 155.051C99.5531 154.578 99.8237 154.324 100.603 153.745C101.22 153.344 101.943 152.868 102.261 152.773C103.004 152.508 102.85 152.424 100.592 151.67C98.2541 150.94 98.1594 150.622 99.7051 148.256C100.366 147.279 101.219 146.072 101.521 145.635L102.178 144.79L101.182 144.785C100.709 144.796 100.209 144.859 100.125 145.014C100.069 145.117 99.8585 145.137 99.708 144.922C99.5046 144.723 98.9669 144.855 98.0949 145.318C95.2126 146.828 86.0798 150.164 85.9615 149.766C85.8905 149.528 87.0353 149.013 92.0591 146.992C94.2649 146.116 96.4987 145.189 97.0313 144.943L97.9377 144.499L95.6711 144.007C93.7419 143.632 92.7063 143.205 88.7549 141.27L84.1094 138.892L82.3847 139.494C77.9772 141.115 75.3334 142.554 69.1697 146.56C65.6862 148.814 64.752 149.309 65.0868 148.69C65.3659 148.173 72.9813 143.084 75.7841 141.597C77.2273 140.776 79.4374 139.769 80.6295 139.413C83.018 138.569 82.9986 138.359 80.5409 138.097C78.4764 137.849 76.6569 138.133 71.0786 139.454C68.4602 140.106 66.2155 140.561 66.0608 140.477C65.8545 140.366 66.0025 139.845 66.5048 138.916C67.2024 137.625 67.6083 137.244 70.8812 135.011C76.4091 131.194 79.3702 128.059 80.5203 124.945L80.9795 123.725L79.2402 125.587C75.9249 129.132 72.3492 131.802 64.2376 136.823C58.8019 140.223 57.6807 140.817 57.6097 140.579C57.5903 140.368 58.7994 139.488 63.9409 136.263C70.0208 132.411 74.5071 129.166 76.6995 127.082C79.4052 124.542 81.7778 121.755 81.9901 120.869L82.1703 120.166L81.0255 120.681C80.2265 121.05 79.7539 121.061 79.2382 120.783C78.4647 120.365 78.4647 120.365 79.3358 117.767C79.6233 116.988 79.8956 115.868 79.9642 115.371C80.1224 113.722 79.4938 110.447 78.5649 108.344C77.7391 106.297 76.2125 103.204 75.9547 103.064C75.9031 103.036 75.2376 104.144 74.5637 105.514C73.4111 107.893 69.6584 113.603 69.1816 113.746C68.7048 113.888 68.8764 113.447 70.45 111.029C72.3264 108.174 74.9494 103.321 75.1854 102.515C75.2497 102.15 74.4349 100.575 73.0182 98.1415C69.757 92.7098 68.3488 90.0141 67.8519 88.3445L67.4301 86.7824L66.4231 87.9058C65.9056 88.4934 64.9865 89.3308 64.3938 89.8109L63.2685 90.5368L63.4737 93.116C63.586 94.5109 63.5654 96.7679 63.4435 98.1029C63.1507 101.48 62.2166 107.646 61.9461 107.9C61.596 108.178 61.6621 106.946 62.1563 102.21C62.6979 97.6332 62.7463 95.3245 62.5648 92.8249L62.4653 91.0366L61.7973 91.4094C61.4236 91.6076 59.5872 92.4162 57.7509 93.2248C53.816 94.8336 52.1774 96.016 48.5399 99.7868C47.1549 101.24 45.7742 102.561 45.5315 102.764C45.1536 103.093 45.0293 103.693 45.1161 105.875C45.3608 110.476 45.9252 114.117 47.3778 120.306C48.1849 123.744 48.6285 126.252 48.3943 126.192C48.029 126.128 45.983 118.818 45.2208 114.804C44.6158 111.608 44.2468 107.606 44.2952 105.298C44.3461 103.724 44.3461 103.724 43.6588 103.886C43.2098 103.977 42.6104 103.853 42.0947 103.574C41.6306 103.324 41.0591 103.148 40.8723 103.247C40.6854 103.346 40.1316 104.248 39.6014 105.229C38.4852 107.294 37.7851 107.849 36.3952 107.832C33.8259 107.777 32.7351 109.055 32.5217 112.409C32.3666 116.394 33.7518 120.612 38.1075 128.703C39.4684 131.24 40.6704 133.824 40.7802 134.484C41.043 136.094 40.5894 140.385 40.1125 140.527C39.6357 140.67 36.9965 137.909 36.1301 136.307C34.7692 133.77 33.1261 129.413 32.6783 127.036C32.1722 124.028 31.8603 123.125 31.1037 122.183C30.3987 121.268 30.3472 121.24 30.0681 121.756C29.7612 122.324 29.0738 122.486 28.4034 122.124C28.094 121.957 27.2859 120.986 26.6367 119.968C25.1362 117.69 23.662 116.226 21.9602 115.306L20.6194 114.581L21.0107 115.46C22.4815 118.656 24.6494 124.631 24.3831 124.754C24.2241 124.802 24.0221 124.559 23.848 124.265C23.6544 123.76 23.6544 123.76 23.8158 124.447C24.0727 125.698 23.5906 125.193 22.3694 122.932C19.3983 117.457 17.1607 114.446 14.6981 112.715C14.032 112.221 13.239 111.593 12.8586 111.187C12.5019 110.861 12.1172 110.586 12.1172 110.586ZM17.6393 113.437L16.5479 113.114L17.8911 114.574C19.3139 116.01 21.3367 119.172 22.788 122.157C23.9147 124.634 23.0222 122.217 21.2159 118.039C20.4095 116.202 19.4958 114.441 19.2143 114.222C18.9607 113.951 18.2108 113.613 17.6393 113.437ZM63.3889 55.1792L61.4639 54.6723L62.3345 56.1436C62.8053 56.9984 63.4891 58.5688 63.8483 59.6302C64.571 61.6218 64.571 61.6218 66.3953 62.808C68.759 64.3525 69.6035 65.0091 69.4361 65.3189C69.3245 65.5254 66.8018 64.0284 65.4222 62.8824C64.8592 62.4447 64.8592 62.4447 64.8422 62.9692C64.8253 63.4937 65.182 63.82 67.883 65.48C71.9485 67.9443 72.0862 68.5525 68.1154 66.4062L65.1244 64.7895L65.1463 65.7352C65.1293 66.2597 65.3811 67.3965 65.6135 68.3226C65.8223 69.1693 65.9236 70.0913 65.7562 70.401C65.1144 71.5884 67.548 75.839 70.9243 79.3317C73.7182 82.1761 76.3913 83.8878 81.8509 86.2384C84.4657 87.3182 87.0011 88.4218 87.5683 88.7284C88.4213 89.1228 88.7113 89.0794 90.6551 88.1954C91.7999 87.6802 94.6627 85.9588 97.0251 84.3005C101.694 81.0871 101.507 81.1862 101.578 81.4247C101.673 81.7427 96.1279 86.0836 93.8535 87.456C92.756 88.1303 91.1817 88.9471 90.2517 89.3116C88.3401 90.0128 87.9342 90.3938 88.871 90.6333C92.5469 91.3527 97.0963 90.2094 100.616 87.6424C104.752 84.6748 107.035 81.4388 107.076 78.5261C107.078 77.6599 106.977 76.7379 106.854 76.4715C106.704 76.2567 105.855 75.7313 104.716 75.2492C102.982 74.5121 102.669 74.476 101.214 74.824C100.316 75.0058 98.1106 75.8815 96.2464 76.7417C88.8687 80.1586 84.244 81.1945 79.7861 80.3193C76.9953 79.8115 76.658 79.6958 76.8255 79.3861C76.8534 79.3345 78.0843 79.3994 79.5452 79.6554C81.0061 79.9114 82.8644 80.0485 83.7064 79.97C85.9942 79.8057 91.6411 77.9882 95.6918 76.0417C97.6077 75.2094 99.6825 74.3295 100.239 74.1633L101.244 73.9061L99.5532 73.4592C95.1596 72.2184 89.1207 71.5559 85.4624 71.9134C79.278 72.5064 74.891 71.8697 71.2812 69.9185C68.8575 68.6084 69.5169 68.4979 72.3101 69.7408C75.1549 71.0117 77.9457 71.5195 81.4644 71.4201C83.0132 71.3901 84.2484 71.3239 84.2763 71.2723C84.3042 71.2207 83.4191 71.0091 82.2997 70.7376C79.5132 70.0987 73.9117 67.271 71.9732 65.5562C70.6215 64.3586 67.028 60.2815 66.5056 59.3987C65.9595 58.4365 66.8083 58.962 68.1515 60.4218C71.9987 64.7694 72.4586 65.1514 75.9653 67.0468C79.7814 69.1095 81.9363 69.8073 86.7443 70.4048C89.5908 70.8094 89.5908 70.8094 88.8773 70.1569C88.4969 69.7512 86.9711 68.2593 85.5247 66.7437C84.0783 65.2281 81.9378 63.2706 80.8118 62.3951C78.5124 60.4852 77.8547 59.7294 79.1719 60.3747C80.6674 61.183 83.474 63.634 86.0379 66.2873C89.6163 70.0226 90.6713 70.6596 94.7167 71.3119C96.4397 71.5761 98.6031 72.0117 99.4088 72.247L100.969 72.6899L99.1199 69.8227C97.9246 67.8425 96.7124 66.3868 95.3134 65.0302C94.2474 63.9203 93.3082 62.9457 93.2888 62.7351C93.2499 62.3138 93.7614 62.7237 95.9534 64.709C97.4556 66.1214 98.4658 67.3345 99.9383 69.6647C100.959 71.3507 102.144 72.8581 102.402 72.9974C102.711 73.1647 103.742 73.7222 104.802 74.228L106.634 75.152L106.217 73.4587C105.63 71.3401 103.965 66.0373 102.571 62.0819C101.296 58.5241 101.197 58.3372 95.504 53.459C91.5477 50.0531 90.2797 48.7006 88.906 46.5572C87.7345 44.6565 85.2165 38.9594 85.4118 38.598C85.5793 38.2882 85.6781 38.4751 87.3746 41.9937C89.1936 45.7787 90.2663 47.4926 91.9426 49.1992C93.3137 50.6074 100.584 57.0053 100.794 56.9857C100.874 56.9619 100.732 56.4849 100.543 55.8489C100.282 54.9744 100.207 54.867 100.012 55.2284C99.8442 55.5382 99.7132 55.5341 99.5906 55.2677C99.5197 55.0292 98.3074 53.5734 97.02 52.0103C93.9142 48.2636 91.5584 44.8555 87.1408 37.8648C83.5745 32.1347 82.6329 30.425 83.097 30.6758C83.3548 30.8152 84.0556 31.8611 90.4765 41.8025C92.0479 44.3196 94.6853 47.9466 96.1706 49.8835C97.7353 51.7966 99.2205 53.7334 99.4699 54.135C99.9728 54.8072 100.001 54.7555 99.579 53.1934C98.1804 47.7677 97.6683 45.7565 97.1452 43.2723C96.65 40.7366 96.4092 40.0727 94.3196 36.5417C92.2816 33.0386 91.7914 31.9731 92.4102 32.3076C92.5133 32.3633 93.3882 33.7035 94.4093 35.3895C95.4068 36.9959 96.3096 38.2844 96.3138 38.1533C96.3696 38.0501 96.2446 37.0486 96.1238 35.9159C95.8459 33.9645 95.5771 33.3523 93.4875 29.8213C90.6778 25.0338 90.1487 23.547 89.9648 20.3123C89.8324 17.1054 90.3219 16.5695 90.6454 19.5461C91.0314 23.0235 91.8487 25.3332 93.7921 28.5183C94.7616 30.1764 95.6128 31.437 95.6644 31.4649C95.7439 31.4411 95.7693 30.6544 95.7195 29.7602C95.7055 26.9508 96.996 15.4405 97.4983 14.5112C97.9168 13.7368 97.9302 14.9449 97.6137 18.2427C97.017 24.5244 96.7545 28.5852 96.8371 30.898C96.9391 33.4214 97.3986 37.8724 97.6091 37.8528C97.6886 37.829 98.465 34.9132 99.3894 31.477C100.262 28.013 101.09 25.125 101.17 25.1013C101.488 25.0063 101.327 25.92 99.7807 32.3557C98.8715 36.1336 98.1018 39.6534 98.0612 40.0984C97.9562 40.9089 98.2826 40.5517 101.273 36.4979C106.817 28.9542 107.276 27.7348 107.329 21.2259C107.313 19.2828 107.467 17.765 107.598 17.7692C107.94 17.7536 108.126 21.7236 107.969 24.9738C107.845 27.1751 107.781 27.5406 106.577 29.8917C105.679 31.6749 104.436 33.6047 102.322 36.5309C98.0127 42.4071 98.1565 42.0178 98.8925 45.2174C99.7469 48.8146 101.537 55.1189 101.747 55.0992C101.827 55.0755 102.091 54.2175 102.335 53.1488C102.981 50.2289 105.883 40.7907 106.122 40.7195C106.201 40.6957 106.332 40.6998 106.356 40.7793C106.379 40.8588 105.579 43.6951 104.631 47.0518C103.735 50.4364 102.814 53.7415 102.714 54.4208L102.437 55.6722L103.302 54.0718C103.828 53.222 104.116 52.4435 104.013 52.3878C103.703 52.2205 103.939 51.4141 105.229 48.0419C106.491 44.7214 106.941 43.7642 106.972 44.4477C107.015 44.7379 106.408 46.4776 105.689 48.4239C104.918 50.3424 104.395 51.9273 104.474 51.9035C104.502 51.8519 105.653 50.3392 106.999 48.4652C109.715 44.7965 110.166 43.8394 111.68 39.1879C112.5 36.5622 113.002 35.6329 113.168 36.1895C113.258 36.6386 112.025 41.5089 111.334 43.4036C110.675 45.1155 110.122 46.0169 107.923 49.098C105.04 53.0764 103.481 55.8363 103.085 57.5565C102.896 58.5219 103.152 59.5275 104.372 63.1886C105.185 65.6294 106.03 67.8874 106.176 68.2333C106.421 68.766 106.449 68.7144 106.563 67.6416C106.712 66.255 110.024 53.1019 110.262 53.0306C110.58 52.9356 110.451 53.6666 109.15 59.0336C107.428 66.0412 106.821 69.3824 107.041 70.7019L107.245 71.6797L108.209 70.2661C108.707 69.468 110.12 67.9636 111.389 66.8484C113.418 64.9433 113.745 64.586 115.005 62.1317C116.205 59.9118 116.552 58.8989 117.593 55.1251C119.066 49.3172 119.21 48.9279 119.468 49.0673C119.932 49.3182 117.525 58.8245 116.336 61.5173L115.51 63.539L118.004 61.8848C123.495 58.3822 123.98 57.9774 124.607 56.4483C124.946 55.6976 125.444 53.2981 125.782 50.9461C126.589 44.6447 126.765 44.0727 129.285 39.1641C130.745 36.2172 131.56 34.7903 131.732 34.8832C131.887 34.9668 131.4 36.2379 130.475 38.0727C128.305 42.7035 127.61 44.7293 127.115 47.864C126.881 49.4055 126.506 52.0714 126.217 53.7162L125.699 56.7714L128.074 54.7197C133.687 49.8821 134.619 48.6513 138.319 41.3121C139.946 38.0555 141.393 35.5021 141.496 35.5578C141.702 35.6693 139.818 40.3879 137.848 44.5263L136.496 47.3977L139.291 43.7053C141.02 41.3708 142.593 38.9526 143.57 37.1457L145.105 34.3062L144.981 32.4384C144.84 30.3163 145.131 28.3391 145.855 26.5067L146.342 25.2357L145.062 25.878L143.731 26.4924L142.379 29.3638C141.621 30.8889 140.732 32.4098 140.434 32.7154C139.916 33.303 139.916 33.303 140.212 32.2622C140.388 31.6902 141.038 30.2405 141.652 29.1047L142.796 26.9881L140.292 28.1694C137.307 29.6244 137.446 29.3662 134.515 37.2547C132.135 43.5065 132.052 43.6614 131.742 43.4942C131.536 43.3827 134.488 34.8386 135.825 31.6254L136.452 30.0963L135.256 30.5837C132.648 31.7093 128.284 35.221 125.343 38.5675C124.28 39.7942 123.902 40.1236 123.593 39.9564C123.386 39.8449 123.133 39.5744 123.062 39.3359C122.854 38.7343 121.535 40.3116 119.105 44.068C116.674 47.8244 114.612 52.3799 114.306 54.5492C114.036 56.4046 113.785 56.8692 113.162 56.6658C112.773 56.5223 112.631 56.0453 112.566 54.8095C112.351 50.8912 113.02 48.0507 115.699 41.4932C117.45 37.1029 118.439 33.835 118.665 31.6895C118.779 30.6168 118.17 27.5523 117.809 27.3572C117.499 27.19 116.95 27.9603 116.933 28.4848C116.935 29.2199 116.256 29.1198 116.02 28.3248C115.85 27.8994 115.583 26.4209 115.419 24.9982C115.095 22.0215 114.276 18.9767 113.239 16.949C112.844 16.2015 112.495 15.613 112.467 15.6646C112.44 15.7162 112.303 16.7095 112.138 17.7544C111.48 22.6691 109.418 28.826 105.476 37.969C103.832 41.75 103.525 42.3179 103.383 41.8409C103.308 41.7336 104.57 38.413 106.087 34.4966C109.859 24.9283 111.335 19.8556 111.621 15.8743C111.747 14.4081 111.724 14.3286 109.834 11.9065C107.264 8.64917 106.499 7.96881 104.165 7.10786C103.153 6.76101 102.245 6.4699 102.217 6.52153C102.137 6.54528 102.06 7.30417 102.054 8.30155C101.999 10.0062 101.37 16.4707 101.231 16.7288C101.203 16.7804 101.072 16.7763 100.969 16.7206C100.865 16.6648 100.824 15.5084 100.894 14.1455C101.407 6.4173 101.439 6.23455 100.923 5.95581C100.459 5.70494 100.427 5.88769 100.559 7.49321C100.725 9.6511 100.482 13.9225 99.9173 20.0215C99.4231 24.7576 99.4747 24.7854 99.1652 24.6182C99.0105 24.5346 99.0183 22.6709 99.2215 20.4459C99.9963 8.65686 99.9949 5.45408 99.273 5.06384C99.0151 4.92447 98.4843 4.30398 98.0565 3.73923L97.3042 2.66549L96.8171 3.93652C96.5854 4.61178 96.1304 5.70005 95.7955 6.31957C94.9863 7.81673 94.8754 9.62463 95.2111 16.2769C95.3478 19.3527 95.4735 21.9556 95.4692 22.0868C95.465 22.2179 95.306 22.2654 95.2029 22.2097C94.8419 22.0145 94.1833 13.987 94.2657 10.6293C94.2887 9.10739 94.1721 7.84365 93.9659 7.73215C93.8112 7.64853 93.6656 8.90403 93.7804 11.0341C93.8375 14.1336 93.6962 15.258 93.3868 15.0907C93.1805 14.9793 92.9224 9.16943 93.0595 8.17617L93.2481 7.21077L92.6385 8.21543C92.3036 8.83494 90.9017 10.8123 89.504 12.6584C88.0547 14.4768 86.4295 16.8671 85.8714 17.8996L84.8905 19.8377L86.144 22.4498C87.4491 25.0898 87.9308 26.4175 87.6129 26.5125C87.5335 26.5363 86.8133 25.2798 86.0263 23.6537C85.1878 21.9997 84.5666 20.93 84.4549 21.1366C83.9526 22.0658 84.1614 22.9125 85.3803 24.9722C86.1284 26.1771 86.7218 27.2983 86.7175 27.4294C86.7758 28.0613 86.1181 27.3056 84.8713 25.2975C83.5493 23.182 82.5154 21.8894 82.348 22.1991C82.2922 22.3024 82.5052 23.0179 82.7697 23.7613C83.0858 24.5325 83.1677 25.2439 83.0088 25.2914C82.8498 25.3389 82.6005 24.9373 82.4112 24.3013C82.194 23.7169 81.9725 23.2636 81.8651 23.339C81.4957 23.4062 78.8817 29.5982 78.4571 31.37C77.7323 34.3136 77.7651 35.7323 78.4465 36.5675C79.1278 37.4028 78.9476 38.1059 78.0861 37.9738C77.5104 37.9294 77.5535 38.2196 78.4891 40.9267C79.898 45.2238 81.6089 47.4828 88.5679 54.5797C92.0473 58.1282 92.7244 59.0945 92.338 59.6862C91.9837 60.0951 91.8806 60.0393 89.2785 58.5661C87.1405 57.3438 85.978 56.7822 83.7673 56.1876C82.2354 55.6932 80.9571 55.4692 80.9529 55.6003C81.0002 55.7593 81.2538 56.0298 81.5632 56.197C82.9556 56.9496 92.9729 67.6343 92.7218 68.0989C92.5823 68.357 92.8122 68.548 87.3512 62.9946C81.6646 57.1191 78.2713 54.1509 77.3971 54.4121C77.2381 54.4597 77.2017 54.7735 77.1654 55.0874C77.2042 55.5087 77.1441 55.743 76.7704 55.9413C76.2099 56.2387 75.8683 56.2542 72.0723 56.0035C70.6072 55.8787 69.372 55.9449 69.4193 56.1039C69.5376 56.5014 73.5303 59.5934 78.4792 63.1356C80.7118 64.6759 82.4761 66.0965 82.4203 66.1998C82.3645 66.303 82.0508 66.2669 81.7414 66.0997C80.2975 65.3192 71.3238 58.8677 69.8453 57.5349L68.1131 55.9315L66.6996 55.8346C65.9412 55.7582 64.4287 55.4744 63.3889 55.1792ZM44.3814 161.847C44.3044 162.606 44.3281 162.685 44.504 162.113C44.6478 161.724 44.8194 161.283 44.959 161.025C45.0706 160.819 45.0791 160.556 44.9244 160.473C44.6149 160.306 44.4154 160.798 44.3814 161.847ZM45.8854 162.393C44.9889 165.778 46.2893 172.618 48.5421 175.97C50.1693 178.384 51.131 181.906 50.7689 184.178C50.6234 185.434 50.6343 185.907 50.8812 185.573C52.3821 183.783 55.2661 181.406 57.3773 180.212C58.7411 179.415 60.3475 178.415 60.9166 177.856C61.5372 177.324 62.3725 176.642 62.8579 176.237L63.6653 175.606L61.3144 173.668C60.0894 172.606 57.3107 170.103 55.2261 168.042C50.7237 163.674 49.3441 162.528 47.7691 161.744C46.4757 161.178 46.2372 161.249 45.8854 162.393ZM44.4364 169.882C44.4085 169.934 44.755 171.388 45.3035 173.086C47.8118 181.513 47.1265 186.479 42.2068 195.828C41.6487 196.86 41.3332 197.69 41.4643 197.694C41.9563 197.894 39.3265 202.142 37.7783 203.774C32.3221 209.43 32.4574 209.303 31.26 212.258C30.2299 214.904 29.3776 216.111 28.8619 215.832C28.6556 215.72 29.1427 214.449 31.0099 210.255C31.6924 208.623 33.3691 206.26 35.2995 204.168C35.4906 203.938 35.1727 204.033 34.6358 204.41C34.0989 204.787 32.1703 206.013 30.377 207.111C26.3093 209.582 25.4891 210.607 25.7028 212.924C25.8649 215.213 28.2773 220.119 29.2698 220.255C30.1592 220.336 32.4414 217.1 38.7977 206.326C42.153 200.735 44.0487 198.091 46.7714 195.026C52.264 189.056 57.4976 185.414 66.9265 181.038C71.1877 179.071 73.7521 177.656 73.6574 177.338C73.6337 177.258 72.9354 176.947 72.0782 176.684L70.4668 176.214L70.7271 177.088C71.0627 178.07 70.8631 178.562 70.0684 178.8C69.4605 178.938 68.6311 178.624 66.0806 177.178C65.2555 176.732 64.815 176.561 64.9934 176.724C65.2233 176.915 65.2943 177.153 65.2106 177.308C64.9874 177.721 63.0588 178.947 59.9339 180.66C58.2243 181.604 55.9736 183.056 54.8676 183.992C53.738 184.849 52.2863 185.933 51.642 186.385C50.783 186.988 50.4287 187.397 50.2807 187.917C50.1157 188.962 49.1949 190.666 48.8855 190.498C48.7308 190.415 48.7004 189.731 48.7774 188.972C49.1794 184.653 49.1017 183.811 47.8712 179.677C47.1571 177.423 46.1547 174.346 45.5783 172.701C45.0019 171.055 44.4922 169.779 44.4364 169.882ZM108.049 72.7813C107.802 73.1148 107.805 73.8499 108.072 75.3284C108.272 76.4373 108.388 77.7011 108.301 77.9871C108.26 78.4321 108.335 78.5395 108.728 78.5518C109.042 78.588 109.641 78.7118 110.185 78.9389C111.483 79.3735 117.259 80.0278 120.849 80.1669C125.829 80.3235 129.912 79.7956 135.022 78.355C140.319 76.8152 142.903 75.6101 145.31 73.3757C147.829 70.9347 150.76 67.1153 150.929 65.9393C150.993 65.5738 150.942 65.5459 150.31 65.6048C149.889 65.6441 149.444 65.6038 149.238 65.4923C148.722 65.2136 147.36 59.4741 147.572 58.5882C147.697 57.9883 147.51 58.0874 145.319 59.3049C142.779 60.8001 140.199 61.874 140.422 61.461C140.506 61.3062 142.005 60.382 143.85 59.3112C145.667 58.292 147.353 57.2687 147.623 57.0147C147.842 56.7328 148.349 55.6724 148.645 54.6316L149.256 52.7607L147.712 54.261C145.655 56.2177 142.928 57.812 136.723 60.6621C130.784 63.3893 130.836 63.4172 130.769 63.0476C130.694 62.9402 133.071 61.6236 136.057 60.1686C144.429 56.0216 146.894 54.419 148.678 51.9812C149.307 51.1872 149.423 50.8495 149.307 49.5858C149.28 48.7711 149.084 47.5311 148.923 46.8435C148.596 45.5994 148.572 45.5199 147.964 45.6583C146.8 45.9629 146.433 45.1638 146.145 41.8733C146.018 40.1366 145.744 38.0541 145.587 37.2353L145.268 35.729L143.961 38.0243C142.873 40.0377 137.087 47.7838 135.921 48.9547C135.543 49.2841 135.491 49.2563 135.643 48.6048C135.819 48.0327 135.74 48.0565 135.349 48.7793C134.684 49.8872 131.527 53.3844 129.339 55.337L127.58 56.9881L129.623 56.291C136.256 54.0057 138.204 52.9906 142.604 49.165C145.488 46.788 145.196 47.6976 142.224 50.3606C138.627 53.6865 137.399 54.3566 130.182 56.8599C126.466 58.1869 125.293 58.7538 123.146 60.2613C121.67 61.265 119.364 62.8201 117.944 63.7206C116.548 64.7005 114.886 65.8033 114.214 66.3072L113.136 67.1921L114.829 66.7728C117.793 65.9734 124.92 64.6225 125.178 64.7619C125.59 64.9848 124.08 65.4361 119.194 66.4638C116.762 67.0174 114.803 67.5595 114.803 67.5595C114.874 67.798 125.771 69.9521 127.732 70.1451C132.727 70.6435 136.843 69.9329 140.973 67.9626C142.917 67.0786 143.552 66.8886 143.245 67.4565C142.994 67.9212 138.757 69.9668 137.092 70.3345C133.23 71.3156 128.194 71.2622 123.086 70.2352C114.432 68.4929 112.891 68.2607 112.232 68.3712C111.835 68.49 111.027 69.1209 110.402 69.7838C109.316 70.931 109.26 71.0342 109.561 71.4637C109.815 71.7342 111.647 72.6582 114.365 73.7938C119.361 75.8935 120.65 76.5904 119.967 76.6214C119.232 76.6245 112.114 73.6442 110.388 72.6449C109.155 71.8448 108.79 71.7808 108.65 72.0389C108.539 72.2454 108.292 72.5789 108.049 72.7813ZM108.776 80.3122C108.549 80.8564 108.145 86.0416 108.225 87.6192C108.305 89.1968 108.93 92.603 108.964 91.554C108.944 91.3434 109.107 91.1647 109.243 91.0377C109.43 90.9386 109.73 91.3681 110.042 92.2705C110.496 93.6498 110.496 93.6499 110.083 91.8255C109.584 89.4208 109.723 85.0936 110.408 82.595C110.948 80.4856 110.948 80.4856 109.253 80.1697C109.07 80.1377 108.832 80.209 108.776 80.3122ZM58.4781 187.545C58.4223 187.648 59.2407 187.49 60.2976 187.261C64.2628 186.335 70.1081 186.493 73.6918 187.63C76.2872 188.499 76.4225 188.372 74.2845 187.149C71.5556 185.541 68.956 184.803 65.8109 184.704C63.3211 184.626 63.2137 184.701 60.9157 185.994C59.6593 186.716 58.5619 187.39 58.4781 187.545ZM111.928 100.494C111.84 100.78 113.539 106.635 113.651 106.429C113.902 105.964 113.37 103.742 112.715 102.12C112.272 101.214 111.956 100.443 111.928 100.494ZM115.245 105.823C115.343 106.009 115.527 107.643 115.702 109.539C115.918 112.591 115.989 112.829 116.308 111.868C116.484 111.296 116.993 109.369 117.366 107.569C118.283 103.529 120.206 99.2319 122.416 96.6237C123.101 95.7264 123.702 94.984 123.678 94.9045C123.583 94.5865 119.484 98.8417 118.087 100.688C116.195 103.201 114.972 105.341 115.245 105.823ZM141.728 86.7828L138.259 87.7763L140.365 87.58C141.525 87.4064 144.575 87.1874 147.176 87.0591C149.778 86.931 153.567 86.5776 155.644 86.4329C161.146 85.8709 168.507 84.5798 164.484 84.8733C163.8 84.9043 160.806 85.0201 157.867 85.0327C154.98 85.0732 150.881 85.2593 148.907 85.4597C146.699 85.6003 143.846 86.1931 141.728 86.7828ZM122.658 125.64C122.269 129.565 123.055 135.261 124.888 141.855L125.85 145.377L127.938 145.705C130.523 146.101 133.457 146.22 133.624 145.91C133.708 145.755 133.519 145.119 133.33 144.483C132.994 143.501 132.665 143.123 131.685 142.594C130.785 142.04 130.127 141.285 128.623 139.137C126.164 135.673 123.326 130.937 123.493 130.628C123.577 130.473 125.387 132.919 127.569 136.033C129.699 139.119 131.734 141.886 132.119 142.161C132.603 142.623 132.611 142.36 131.886 139.634C131.346 137.674 131.064 135.854 131.087 134.332C131.101 133.072 131.032 131.967 130.905 131.832C130.652 131.562 129.589 127.118 129.244 124.797C128.99 122.925 129.347 119.182 130.014 117.208C130.598 115.389 130.746 116.47 130.331 119.581C130.117 121.333 130.025 123.351 130.079 124.114C130.23 125.93 131.401 130.299 131.553 129.647C131.999 127.22 133.379 124.297 136.923 117.74C140.156 111.883 140.69 110.771 140.939 109.571C141.232 107.795 141.928 107.371 141.742 109.071C141.515 111.217 140.749 113.004 138.027 117.67C135.166 122.594 135.142 122.515 137.985 120.583C139.218 119.781 140.412 118.559 141.885 116.82C143.031 115.438 144.066 114.263 144.146 114.24C145.02 113.978 142.204 118.326 140.473 119.926C139.88 120.406 138.349 121.513 137.065 122.286L134.659 123.655L133.848 126.018C132.874 128.56 132.548 130.519 132.435 133.193C132.376 135.029 132.837 138.613 133.252 139.572C133.446 140.076 133.446 140.076 133.705 139.35C133.849 138.96 134.757 137.65 135.661 136.471C136.943 134.962 137.581 133.906 138.231 132.456C138.742 131.265 139.184 130.57 139.395 130.55C140.288 130.5 138.254 135.003 136.343 137.306C134.296 139.736 133.88 141.245 134.661 143.869C135.205 145.697 135.356 145.912 135.96 145.905C137.008 145.938 141.267 144.838 143.735 143.97C145.647 143.269 146.128 142.995 146.813 142.098C148.019 140.482 149.005 138.413 150.709 134.398C151.539 132.245 152.72 129.814 153.465 128.683C154.628 126.777 159.019 121.612 159.874 121.14C160.836 120.593 160.17 121.7 157.57 125.031C154.612 128.902 154.333 129.419 150.049 138.577L148.864 141.139L150.011 139.757C150.64 138.963 152.344 136.549 153.834 134.286C157.009 129.398 163.519 121.176 164.366 120.966C164.95 120.748 164.452 121.546 161.251 125.62C159.335 128.053 156.587 131.905 155.069 134.22C152.611 138.028 151.018 140.235 150.127 141.021C149.586 141.529 151.053 140.788 156.15 138.139C158.738 136.803 161.512 135.367 162.284 135.05C163.428 134.535 163.834 134.154 165.045 132.407C166.941 129.763 170.344 125.932 172.019 124.436C172.775 123.777 174.063 122.872 174.89 122.452C176.679 121.485 181.667 119.778 181.444 120.191C181.411 120.373 180.239 120.94 178.935 121.503C173.454 123.877 171.218 125.671 166.452 131.9L164.998 133.849L166.064 133.358C168.218 132.454 172.995 130.767 175.931 130.019C182.944 128.14 187.479 128.256 194.984 130.645C196.567 131.167 198.099 131.662 198.413 131.698C199.373 132.017 198.916 132.37 197.872 132.206C197.403 132.086 195.137 131.595 192.898 131.052C186.44 129.562 182.608 129.625 176.071 131.363C173.346 132.091 166.736 134.455 166.597 134.714C166.541 134.817 167.037 134.885 167.641 134.878C168.268 134.95 171.401 135.442 174.557 136.014C179.408 136.902 181.341 137.146 185.956 137.239C188.998 137.282 191.539 137.388 191.59 137.416C191.694 137.472 191.717 137.551 191.634 137.706C191.466 138.016 186.605 138.257 183.511 138.186C180.942 138.131 176.92 137.558 173.431 136.74C171.347 136.281 170.482 136.28 165.588 136.703C164.246 136.845 162.828 136.879 162.463 136.815C162.097 136.751 160.209 137.532 157.57 138.84C155.22 140.105 152.422 141.461 151.38 142.032L149.488 142.944L153.107 142.165C158.022 141.086 160.87 140.624 161.124 140.894C161.251 141.03 158.843 141.663 155.803 142.355C152.792 142.995 150.042 143.644 149.776 143.767C149.22 143.933 149.243 144.012 150.462 144.471C151.188 144.73 153.541 145.801 155.79 146.817C162.174 149.801 164.698 150.431 172.131 150.98C173.807 151.085 175.193 151.234 175.244 151.262C176.172 151.764 171.629 151.909 167.524 151.492C163.966 151.17 160.954 150.209 154.594 147.305C151.543 145.922 148.618 144.675 148.047 144.5C147.162 144.288 146.292 144.418 143.506 145.381C141.543 146.054 138.924 146.707 137.633 146.876C136.394 147.073 135.337 147.303 135.309 147.354C135.142 147.664 135.744 150.124 135.955 150.105C136.114 150.057 136.241 150.193 136.26 150.403C136.228 150.586 137.517 151.283 139.866 152.486C142.294 153.664 143.48 154.306 143.396 154.46C143.201 154.822 142.292 154.531 139.035 153.037C137.408 152.224 135.983 151.655 135.956 151.706C135.76 152.068 136.468 155.319 137.187 157.442C138.118 160.28 139.384 162.499 140.416 163.056C141.55 163.669 143.873 164.057 146.887 164.152C150.345 164.287 154.526 164.813 154.986 165.195C155.164 165.358 154.505 165.468 153.222 165.375C152.071 165.287 149.398 165.176 147.25 165.082C145.102 164.989 142.981 164.843 142.513 164.723C140.255 163.97 142.241 165.844 146.409 168.364C149.781 170.386 151.543 171.072 156.849 172.472C159.917 173.33 161.004 173.784 160.369 173.974C160.051 174.069 155.522 172.956 152.636 172.13C146.374 170.279 141.365 166.971 138.252 162.621C137.575 161.654 136.969 160.926 136.941 160.978C136.89 160.95 136.974 162.397 137.129 164.082C137.462 168.397 138.48 171.816 140.26 175.18C142.068 178.492 141.61 178.845 139.56 175.735C137.406 172.57 136.358 168.468 136.168 162.161C136.088 160.584 135.819 158.37 135.464 157.177C135.16 156.013 134.842 154.506 134.704 153.898L134.504 152.789L134.113 153.512C133.89 153.925 133.135 156.185 132.427 158.605C131.015 163.312 130.872 163.701 130.562 163.534C130.098 163.283 132.436 154.273 133.524 152.26C134.166 151.072 134.286 150.604 134.15 149.129L133.971 147.365L131.247 147.227C129.754 147.153 128.003 146.941 127.404 146.817C126.074 146.565 125.537 146.942 126.731 147.321C127.72 147.588 127.604 147.926 126.472 148.048L125.602 148.178L125.485 150.983C125.382 152.529 124.898 156.136 124.36 158.981C123.328 164.96 123.219 167.503 124.035 170.679C124.57 172.77 125.721 175.326 126.185 175.577C126.288 175.633 126.262 174.818 126.062 173.709C125.626 170.939 125.925 170.633 127.255 172.487C129.334 175.545 134.474 178.857 138.535 179.851C141.345 180.569 144.327 180.847 147.766 180.771C151.968 180.641 152.127 180.593 151.989 179.985C151.898 179.536 152.59 179.243 156.194 178.122C160.196 176.883 160.776 176.796 163.238 176.926L165.962 177.064L164.881 175.613C164.302 174.833 163.389 173.072 162.827 171.768C162.294 170.412 161.226 168.567 160.549 167.601C159.519 166.177 159.274 165.644 159.304 164.727C159.352 162.418 156.76 159.816 151.758 157.112C149.85 156.081 148.069 155.185 147.783 155.097C147.436 154.999 147.32 154.803 147.435 154.509C147.559 153.909 149.445 153.994 151.418 154.66C152.275 154.923 154.806 156.158 157.075 157.385C159.316 158.663 161.796 159.87 162.494 160.18C165.788 161.36 169.646 162.112 172.66 162.206L174.415 162.288L172.984 161.114C171.731 160.103 171.37 159.908 169.806 159.596C166.678 158.973 154.908 154.613 156.612 154.666C156.926 154.702 159.446 155.464 162.168 156.468C170.859 159.498 172.895 159.799 176.813 158.714C181.657 157.396 187.367 153.612 192.016 148.587C193.322 147.158 193.665 146.276 193.055 145.679C192.801 145.409 192.198 145.416 190.715 145.815C187.859 146.539 185.281 146.747 181.536 146.524C178.026 146.361 169.196 145.191 168.526 144.829C167.804 144.439 168.852 144.472 173.922 145.077C176.773 145.351 180.12 145.692 181.351 145.757C183.968 145.971 188.941 145.523 191.69 144.875L193.593 144.436L196.451 141.244C198.545 138.974 200.005 137.628 201.723 136.422C203.04 135.466 203.954 134.76 203.772 134.728C203.613 134.775 202.481 134.897 201.349 135.019C198.397 135.425 196.249 135.331 189.587 134.465C183.604 133.7 181.746 133.562 178.672 133.702C177.647 133.749 176.809 133.696 176.762 133.537C176.553 132.69 183.526 132.857 190.657 133.843C193.269 134.187 196.302 134.493 197.51 134.478C199.555 134.516 207.348 133.659 207.277 133.42C207.254 133.341 206.63 133.137 205.853 132.851C203.749 132.181 202.179 131.265 200.423 129.582C199.531 128.766 198.615 127.871 198.385 127.68C198.104 127.461 196.357 127.118 194.213 126.893C188.385 126.211 185.577 126.227 181.883 126.899C180.035 127.234 179.865 126.809 181.614 126.286C184.423 125.403 188.438 125.372 194.393 126.19L197.657 126.686L196.139 124.932C193.081 121.344 192.034 120.445 189.385 118.813C187.017 117.399 186.525 117.2 183.401 116.446C181.476 115.939 179.841 115.389 179.639 115.146C179.386 114.875 179.295 114.426 179.415 113.958C179.587 113.517 179.651 113.151 179.548 113.095C178.62 112.594 173.528 111.042 171.809 110.647C169.07 110.167 167.577 110.094 165.73 110.429C164.172 110.722 163.521 110.57 163.598 109.811C163.635 109.497 163.13 109.691 161.794 110.437C156.637 113.32 152.349 116.939 150.659 119.695C148.328 123.638 146.482 127.177 145.624 129.381C144.821 131.482 144.602 131.764 144.125 131.907C143.649 132.049 143.545 131.993 143.174 131.325C142.529 130.176 142.194 126.727 142.563 125.058C142.812 123.858 143.322 122.667 144.713 120.217C147.304 115.547 147.898 112.599 146.947 109.55C146.474 107.96 143.663 104.039 143.158 104.233C142.55 104.371 142.142 104.017 141.881 103.143C141.569 102.24 141.569 102.24 140.152 103.876C139.663 104.412 138.179 105.678 136.835 106.685C130.566 111.502 128.417 113.876 126.195 118.479C125.461 120.084 124.588 121.946 124.356 122.622C123.985 123.555 123.821 123.734 123.512 123.566C122.996 123.288 122.852 123.677 122.658 125.64ZM185.053 54.8316C183.675 56.8884 186.358 61.5407 189.628 62.6411L190.691 63.0158L190.618 62.0422C190.548 59.336 188.439 55.5944 186.499 54.7458C185.594 54.3236 185.384 54.3432 185.053 54.8316ZM114.176 189.165C114.017 190.814 115.628 193.753 117.349 194.883L118.273 195.516L117.357 194.621C115.122 192.345 114.505 191.145 114.668 189.365C114.753 188.343 114.897 187.954 115.494 187.343C116.119 186.68 116.147 186.628 115.614 186.874C115.002 187.144 114.285 188.224 114.176 189.165ZM188.327 54.1995C187.628 53.8888 187.239 53.7453 187.521 53.9642C189.345 55.1504 191.252 58.6494 191.687 61.4195C191.789 62.3415 192.049 63.216 192.255 63.3275C193.287 63.885 191.877 57.9865 190.574 56.0816C189.846 55.0874 189.334 54.6775 188.327 54.1995ZM117.913 192.853C120.021 194.993 124.366 196.941 125.102 196.072C125.293 195.842 125.093 194.733 124.643 193.222C123.839 190.519 122.493 188.324 121.129 187.52C120.125 186.911 118.576 186.941 117.507 187.564C115.475 188.734 115.678 190.578 117.913 192.853ZM118.526 195.786C118.344 195.754 118.419 195.862 118.78 196.057C119.089 196.224 119.22 196.228 119.094 196.093C118.995 195.906 118.737 195.767 118.526 195.786ZM124.809 189.71C125.383 190.62 126.524 194.305 126.608 195.752C126.638 196.435 126.714 196.543 127.242 196.428C127.532 196.385 127.854 196.159 127.938 196.004C128.301 195.333 127.251 192.097 126.146 190.566C124.914 188.899 123.733 188.127 124.809 189.71ZM191.783 64.9403C191.755 64.992 191.627 65.723 191.494 66.5851C191.361 67.4472 190.913 69.1395 190.477 70.4384L189.615 72.774L190.791 70.4745C192.055 67.8891 192.688 65.3626 192.172 65.0838C191.966 64.9723 191.783 64.9403 191.783 64.9403ZM127.138 198.84C126.871 198.963 126.644 199.507 126.443 200.866L126.173 202.721L126.771 201.244C127.138 200.441 127.458 199.48 127.467 199.218C127.587 198.749 127.484 198.693 127.138 198.84ZM229.791 53.7973C229.774 54.3218 230.702 54.8235 231.315 54.554C231.712 54.4352 231.772 54.2009 231.535 53.4059C231.204 52.2929 230.946 52.1535 230.377 52.7131C229.888 53.249 229.86 53.3007 229.791 53.7973Z" fill="#C3A473"/>
</svg>
