<svg width="307" height="222" viewBox="0 0 307 222" fill="none" xmlns="http://www.w3.org/2000/svg">
<path d="M193.437 92.2101C197.284 93.0969 200.953 94.8704 204.385 96.7622C207.758 98.654 210.954 100.782 214.031 103.147C215.214 104.093 216.398 105.039 217.522 106.103C218.114 106.694 217.167 107.64 216.575 107.049C214.445 104.98 211.96 103.206 209.474 101.492C206.22 99.2451 202.728 97.2351 199.059 95.5798C197.166 94.6931 195.154 93.9837 193.082 93.5107C192.254 93.2743 192.609 92.0328 193.437 92.2101Z" fill="#9F7D47"/>
<path d="M238.056 66.1391C229.831 74.5339 223.676 85.0568 219.948 96.1118C218.765 99.4815 217.936 102.969 217.7 106.576C217.64 107.403 216.279 107.403 216.339 106.576C216.753 100.25 218.942 94.22 221.546 88.4856C223.972 82.9877 226.99 77.7262 230.6 72.8786C232.573 70.1592 234.742 67.5974 237.109 65.1933C237.701 64.6021 238.648 65.548 238.056 66.1391Z" fill="#9F7D47"/>
<path d="M216.575 107.935C213.439 116.448 212.196 125.434 210.954 134.361C209.948 141.987 208.942 149.673 208.882 157.358C208.823 161.496 209.06 165.634 210.066 169.654C210.303 170.482 209.001 170.837 208.823 170.009C206.93 162.501 207.403 154.52 208.113 146.894C208.468 143.17 208.942 139.504 209.415 135.78C210.007 131.346 210.599 126.912 211.427 122.538C212.315 117.453 213.498 112.428 215.333 107.581C215.628 106.812 216.871 107.108 216.575 107.935Z" fill="#9F7D47"/>
<path d="M138.522 135.248C138.7 141.869 140.238 148.313 142.664 154.402C143.848 157.358 145.209 160.195 147.043 162.797C148.7 165.161 150.772 167.289 153.079 169.063C155.683 171.132 158.583 172.728 161.542 174.029C162.37 174.384 161.66 175.566 160.891 175.211C155.446 172.787 150.357 169.359 146.688 164.57C144.736 162.028 143.197 159.072 141.954 156.057C140.652 152.983 139.528 149.791 138.759 146.539C137.871 142.874 137.279 139.09 137.161 135.248C137.161 134.42 138.463 134.42 138.522 135.248Z" fill="#9F7D47"/>
<path d="M172.785 95.2843C163.198 97.4716 154.263 102.438 147.635 109.709C144.795 112.842 142.309 116.508 140.712 120.409C138.818 125.139 138.404 130.282 138.522 135.248C138.522 135.543 138.285 135.839 137.989 135.898C137.102 136.076 136.155 136.371 135.267 136.489C133.966 136.667 132.545 135.603 131.303 135.189C127.693 133.947 123.846 133.238 119.941 133.12C112.13 132.942 104.259 135.13 97.7498 139.386C94.2584 141.692 91.5955 144.707 88.6367 147.544C88.0055 148.136 87.3546 148.707 86.6839 149.259C86.2105 149.554 85.7962 149.909 85.2637 150.146C84.9678 150.323 85.027 150.086 84.9086 150.205C84.5536 150.618 84.376 151.683 84.1985 152.156C83.3306 154.402 82.4627 156.629 81.5947 158.836C80.8255 160.964 79.5828 162.738 78.5768 164.807C71.1206 179.882 74.8487 198.858 87.3348 210.032C93.3116 215.471 100.945 219.018 108.934 220.2C118.343 221.678 127.575 219.254 136.333 215.884C144.381 212.81 152.547 208.79 158.228 202.11C163.376 196.021 165.98 187.035 163.08 179.409C162.429 177.753 161.187 176.394 160.595 174.798C160.358 174.206 161.068 173.852 161.542 174.029C176.927 180.709 195.509 179.231 209.119 169.241C209.533 168.945 210.125 169.359 210.125 169.832C210.125 171.723 211.072 173.556 211.841 175.33C212.827 177.655 213.912 179.921 215.096 182.128C217.404 186.326 219.948 190.641 223.321 194.011C226.458 197.203 230.837 199.568 235.334 197.735C239.654 196.021 242.317 191.528 244.388 187.685C249.122 178.877 251.312 169.063 251.075 159.131C251.075 157.062 250.365 154.993 249.951 152.983C249.773 152.037 249.477 151.032 249.359 150.086C249.181 148.727 249.891 147.249 250.128 145.948C254.034 127.622 248.589 108.94 248.116 90.4958C247.879 81.6872 248.767 72.7013 252.258 64.484C255.691 56.3849 261.135 49.409 266.934 42.906C273.088 36.1075 279.657 29.7819 285.515 22.6878C291.847 15.0025 297.469 6.66689 302.203 -2.08252C303.386 -4.25017 304.511 -6.41782 305.576 -8.58547C305.615 -8.349 305.655 -8.09282 305.694 -7.81694C304.925 -8.64459 304.037 -9.47223 303.446 -10.4181C302.913 -11.1866 302.795 -12.2508 302.558 -13.1375C302.874 -13.0193 303.189 -12.8814 303.505 -12.7237C299.067 -10.1225 295.93 -5.92517 293.031 -1.72782C289.776 3.0016 286.462 7.67189 283.03 12.3422C276.323 21.4857 269.341 30.4322 262.082 39.1816C258.452 43.5957 254.744 47.9507 250.957 52.2466C249.595 53.7837 248.234 55.8528 246.578 57.0352C245.512 57.7446 244.388 58.3357 243.323 58.986C239.95 60.9369 236.932 63.4199 233.677 65.5481C229.002 68.504 224.209 71.2234 219.179 73.529C216.457 74.7705 213.676 75.8937 210.776 76.4258C208.172 76.8987 205.569 77.1352 203.497 78.9087C202.669 79.6772 201.663 79.3816 200.539 79.3816C199.276 79.3422 198.014 79.3028 196.751 79.2634C196.988 79.1058 197.205 78.9481 197.402 78.7905C196.396 81.3325 193.615 81.8055 191.189 81.8055C187.106 81.8646 182.963 81.4508 178.939 81.0369C170.655 80.2093 162.252 79.0269 153.967 79.9137C147.576 80.564 141.54 82.6922 135.386 84.2293C134.439 84.4658 133.472 84.7022 132.486 84.9387C131.48 85.1752 130.77 85.6481 129.882 86.1211C126.569 87.7172 123.136 88.9587 119.586 89.7863C115.503 90.7322 111.242 91.1461 107.1 90.9096C105.384 90.7914 103.608 90.2002 101.951 89.7863C101.715 89.7272 101.537 89.5499 101.478 89.3134C98.8741 77.7855 92.2464 67.5581 83.3109 59.8728C73.6652 51.5372 61.5341 46.5122 48.9888 44.5613C42.1835 43.4972 35.2599 43.3199 28.3955 43.8519C22.5371 44.3249 16.3828 45.0343 11.1161 47.6946C7.32883 49.6454 4.4884 52.6013 3.77829 56.8578C3.18652 60.0502 2.7131 63.2425 2.06216 66.4349C1.94382 66.9669 1.82547 67.1443 1.58878 67.7355C0.937836 69.5681 1.58878 71.5781 2.35806 73.2334C3.60074 75.7755 5.25766 78.1993 6.91461 80.5049C10.4651 85.2343 14.785 89.4316 19.5783 92.9787C29.4607 100.309 41.355 104.684 53.5453 105.985C67.2742 107.344 81.1213 105.039 93.9034 100.132C96.0929 99.3043 98.164 98.1811 100.354 97.5899C102.05 97.1958 103.746 96.7819 105.443 96.3484C107.395 95.8755 109.407 96.5258 111.419 96.5849C114.556 96.5849 117.633 96.0528 120.651 95.2843C126.805 93.7472 132.604 91.1461 138.522 88.9587C143.552 87.0669 148.878 85.1752 154.263 85.1752C163.968 85.1752 173.732 87.8355 183.2 89.7272C185.034 90.0819 186.928 90.4366 188.763 90.7322C189.413 90.8505 189.354 91.9146 188.763 92.0328C183.437 93.1364 178.111 94.2202 172.785 95.2843C171.957 95.4616 171.601 94.2202 172.43 94.0428C177.756 92.9393 183.082 91.8358 188.407 90.7322C188.407 91.1658 188.407 91.5993 188.407 92.0328C178.466 90.5549 168.761 87.6581 158.701 86.7122C156.63 86.5349 154.44 86.4166 152.31 86.594C149.41 86.8305 146.511 87.6581 143.73 88.5449C137.339 90.5549 131.184 93.3925 124.793 95.4616C121.894 96.4075 118.876 97.1761 115.798 97.5899C114.142 97.8264 112.544 97.8855 110.946 97.8855C109.526 97.8264 108.046 97.4125 106.685 97.4125C105.324 97.4125 103.667 98.1811 102.366 98.4766C100.531 98.9496 99.0517 99.4817 97.3356 100.191C84.2577 105.689 69.9371 108.527 55.7348 107.463C43.367 106.576 31.236 102.556 20.9393 95.5799C16.0277 92.2693 11.5303 88.2493 7.74307 83.6381C5.90863 81.4508 4.19254 79.086 2.71313 76.6031C1.29291 74.1793 -0.30484 71.4008 0.0502014 68.4449C0.168579 67.6763 0.523621 67.026 0.760345 66.3166C0.878693 65.7846 0.937866 65.1343 1.05621 64.5431C1.37183 62.7302 1.68741 60.8975 2.00302 59.0452C2.65396 55.5572 3.2457 52.424 5.90863 49.7637C9.57755 46.0984 14.9626 44.4431 19.9925 43.5563C26.6202 42.374 33.4255 42.0193 40.1715 42.374C53.427 42.9651 66.8007 46.6304 77.9258 54.1384C87.6899 60.6413 95.6786 69.8637 100.176 80.7413C101.281 83.4213 102.129 86.1605 102.721 88.9587C102.602 88.8011 102.464 88.6434 102.306 88.4858C103.727 88.8405 105.147 89.3134 106.626 89.5499C109.94 90.0819 113.846 89.5499 117.1 88.9587C120.769 88.3084 124.32 87.1852 127.752 85.6481C128.936 85.1161 130.06 84.2884 131.303 83.8746C131.954 83.6381 132.664 83.5199 133.315 83.3425C138.226 82.1602 143.019 80.6231 147.99 79.559C155.683 77.9037 163.554 78.1402 171.365 78.9087C175.803 79.3225 180.3 79.9137 184.739 80.2093C186.869 80.3866 189.058 80.5049 191.189 80.5049C192.905 80.4458 195.39 80.3275 196.16 78.4358C196.219 78.1993 196.455 77.9628 196.751 77.9628C197.777 78.0022 198.783 78.0219 199.769 78.0219C200.4 78.0613 201.051 78.081 201.722 78.081C201.9 78.081 202.255 78.1402 202.491 78.081C202.787 78.0219 202.61 77.9628 202.551 77.9628C203.32 77.4899 203.912 76.8987 204.74 76.4849C205.746 76.071 206.752 75.8346 207.817 75.5981C210.303 75.1252 212.67 74.7113 215.096 73.8246C220.363 71.8737 225.392 69.036 230.186 66.1393C232.553 64.7205 234.861 63.2031 237.109 61.5872C238.53 60.5822 239.831 59.459 241.311 58.5722C242.494 57.9022 243.678 57.2125 244.861 56.5031C246.282 55.6163 247.169 54.4931 248.294 53.2516C252.041 49.0346 255.73 44.7584 259.36 40.4231C266.776 31.516 273.937 22.3922 280.84 13.0516C284.628 7.96748 288.297 2.76513 291.906 -2.37811C294.924 -6.75282 298.179 -11.1275 302.854 -13.9061C303.209 -14.1425 303.742 -13.9061 303.86 -13.4922C303.978 -12.9799 304.116 -12.4478 304.274 -11.8961C304.353 -11.6596 304.412 -11.4428 304.452 -11.2458C304.57 -10.9502 304.156 -11.6005 304.511 -11.1866C305.221 -10.359 305.931 -9.55106 306.641 -8.76282C306.838 -8.48694 306.858 -8.21106 306.7 -7.93517C302.262 1.28718 296.936 10.0366 290.782 18.1948C284.983 25.821 278.355 32.6787 271.786 39.6546C265.395 46.4531 259.123 53.4881 254.921 61.8828C250.542 70.514 249.24 80.1502 249.418 89.7863C249.773 108.763 255.513 127.917 251.312 146.835C251.016 148.076 250.483 149.081 250.779 150.323C251.016 151.505 251.252 152.707 251.489 153.929C252.022 156.471 252.495 158.658 252.436 161.26C252.436 171.014 249.832 180.768 245.039 189.281C243.027 192.828 240.482 196.612 236.754 198.563C233.145 200.455 229.121 199.863 225.748 197.735C222.079 195.371 219.475 191.823 217.167 188.217C214.445 183.961 212.078 179.468 210.184 174.738C209.474 173.083 208.764 171.605 208.764 169.832C209.119 170.029 209.454 170.226 209.77 170.423C195.745 180.65 176.691 182.069 160.891 175.211C161.206 174.936 161.542 174.679 161.897 174.443C162.133 175.211 162.843 175.921 163.258 176.689C163.731 177.556 164.145 178.463 164.5 179.409C165.092 181.241 165.447 183.074 165.566 184.966C165.743 188.927 164.915 192.888 163.317 196.494C159.707 204.593 152.133 210.091 144.381 213.874C135.8 218.072 126.154 221.56 116.509 221.973C108.342 222.269 100.117 220.082 93.0749 215.943C86.0329 211.746 80.1745 205.539 76.8607 197.972C73.4876 190.286 72.6 181.596 74.2569 173.32C75.1446 169.241 76.624 165.28 78.7543 161.673C79.8195 159.9 80.5296 158.008 81.2397 156.057C82.009 154.047 82.6599 151.919 83.6067 149.968C84.1393 148.904 85.7371 148.372 86.6247 147.603C88.3408 146.126 89.8202 144.411 91.418 142.815C97.0989 137.199 104.614 133.593 112.485 132.351C116.39 131.701 120.355 131.642 124.261 132.174C126.273 132.45 128.245 132.863 130.178 133.415C131.125 133.691 132.032 134.006 132.9 134.361C133.374 134.598 134.557 135.189 134.735 135.248C135.563 135.366 136.806 134.834 137.634 134.657C137.477 134.854 137.319 135.051 137.161 135.248C136.984 127.563 138.463 120.291 142.783 113.788C146.866 107.581 152.724 102.556 159.234 99.0087C163.376 96.7031 167.814 95.1069 172.43 94.0428C173.258 93.8655 173.613 95.1069 172.785 95.2843Z" fill="#9F7D47"/>
<path d="M225.984 81.8645C220.836 86.4166 213.912 87.7763 207.344 88.9586C206.22 89.136 205.746 87.4216 206.871 87.2442C213.084 86.121 219.83 84.9386 224.742 80.6231C225.57 79.8545 226.872 81.096 225.984 81.8645Z" fill="#9F7D47"/>
<path d="M202.255 89.5498C199.237 90.3183 196.455 91.678 193.911 93.4516C191.84 94.9295 189.769 96.5257 187.934 98.2401C185.567 100.487 183.437 102.97 181.188 105.334C180.182 106.398 179.235 107.462 178.17 108.408C177.342 109.118 176.04 107.876 176.927 107.108C177.874 106.339 178.703 105.393 179.531 104.507C180.833 103.127 182.135 101.748 183.437 100.368C184.502 99.2451 185.508 98.181 186.573 97.1169C188.348 95.4025 190.36 93.8654 192.372 92.3875C195.213 90.3183 198.349 88.7221 201.781 87.8354C202.906 87.5398 203.379 89.2542 202.255 89.5498Z" fill="#9F7D47"/>
<path d="M193.733 89.1952C185.804 93.7472 178.821 99.8955 173.377 107.226C172.667 108.113 171.128 107.226 171.838 106.339C177.46 98.7722 184.62 92.3875 192.786 87.6581C193.792 87.0669 194.68 88.604 193.733 89.1952Z" fill="#9F7D47"/>
<path d="M167.104 88.2492C164.5 91.3824 161.068 93.688 157.577 95.8162C153.967 97.9445 150.416 100.132 147.043 102.556C140.238 107.462 134.084 113.138 128.639 119.463C125.523 123.05 122.663 126.833 120.059 130.814C119.586 131.523 118.402 130.873 118.875 130.164C123.491 123.188 128.876 116.685 134.912 110.95C141.007 105.098 147.812 100.132 155.032 95.7571C159.056 93.3924 163.139 90.9686 166.157 87.3033C166.69 86.653 167.636 87.5989 167.104 88.2492Z" fill="#9F7D47"/>
<path d="M145.091 109.768C136.451 116.567 128.818 124.607 122.486 133.592C122.012 134.302 120.829 133.652 121.302 132.942C126.273 125.848 132.072 119.345 138.463 113.611C140.317 111.955 142.211 110.379 144.144 108.881C144.795 108.349 145.742 109.295 145.091 109.768Z" fill="#9F7D47"/>
<path d="M176.218 90.4365C171.878 93.4712 167.381 96.1907 162.725 98.5948C161.956 99.0086 161.305 97.8263 162.074 97.4124C166.73 95.0083 171.207 92.3086 175.507 89.3133C176.218 88.7812 176.868 89.9636 176.218 90.4365Z" fill="#9F7D47"/>
<path d="M171.246 104.684C173.14 109.945 178.703 107.344 182.49 106.398C183.022 106.28 183.318 107.049 182.845 107.344C179.294 109.591 171.542 110.655 170.655 104.861C170.596 104.507 171.069 104.329 171.246 104.684Z" fill="#9F7D47"/>
<path d="M186.1 100.782C187.993 103.206 188.171 106.694 186.1 109.059C185.922 109.295 185.508 109 185.685 108.763C187.224 106.339 187.401 103.383 185.745 101.019C185.626 100.841 185.922 100.546 186.1 100.782Z" fill="#9F7D47"/>
<path d="M141.658 209.618C141.185 209.559 140.889 209.263 140.416 209.086C139.824 208.908 139.173 208.968 138.581 209.086C137.694 209.322 136.51 209.913 135.918 210.682C134.084 213.165 137.575 212.574 138.818 211.983C139.883 211.451 140.889 210.741 140.771 209.441C140.712 209.086 141.303 208.908 141.481 209.263C143.019 212.456 135.563 215.53 134.38 212.337C133.255 209.322 140.948 206.13 141.954 209.322C142.013 209.5 141.836 209.677 141.658 209.618Z" fill="#9F7D47"/>
<path d="M243.56 68.2674C240.009 78.2583 237.642 88.7812 235.038 99.0677C232.494 109.177 230.186 119.345 228.706 129.75C227.227 139.918 226.576 150.264 227.168 160.55C227.76 171.014 230.008 180.827 233.086 190.818C233.263 191.35 232.435 191.528 232.257 191.055C224.564 172.728 224.742 151.032 227.405 131.701C228.884 121 231.251 110.418 233.973 99.8954C236.695 89.3133 239.417 78.4948 243.205 68.2083C243.264 67.9718 243.678 68.0309 243.56 68.2674Z" fill="#9F7D47"/>
<path d="M221.487 188.217C219.297 183.192 219.475 177.34 220.066 171.96C220.777 165.634 222.078 159.486 223.795 153.397C223.913 153.101 224.327 153.22 224.268 153.515C221.664 164.511 218.942 176.867 222.019 187.981C222.078 188.276 221.605 188.513 221.487 188.217Z" fill="#9F7D47"/>
<path d="M244.388 172.61C244.211 162.915 241.37 153.988 238.116 144.884C235.098 136.489 231.902 127.799 232.198 118.695C232.198 118.281 232.849 118.281 232.908 118.695C233.441 128.39 236.695 137.376 239.891 146.421C242.79 154.816 245.868 163.624 244.862 172.61C244.802 172.906 244.388 172.906 244.388 172.61Z" fill="#9F7D47"/>
<path d="M211.664 141.928C213.676 132.942 215.392 123.661 219.061 115.148C220.422 111.896 222.197 108.763 224.446 106.043C225.984 104.152 227.878 102.556 229.476 100.723C231.192 98.772 232.139 96.5255 233.322 94.2199C233.381 94.0426 233.618 94.1608 233.618 94.3382C233.085 98.1808 230.482 101.018 227.878 103.679C224.564 107.048 221.96 110.773 220.008 115.088C216.161 123.542 214.386 133.06 211.96 141.987C211.9 142.223 211.605 142.105 211.664 141.928Z" fill="#9F7D47"/>
<path d="M250.542 117.985C246.4 104.093 242.613 89.5498 241.133 75.066C241.133 74.8886 241.488 74.8295 241.548 75.0069C243.264 82.101 244.447 89.3725 245.986 96.5257C247.524 103.62 249.24 110.773 250.897 117.867C250.957 118.163 250.602 118.281 250.542 117.985Z" fill="#9F7D47"/>
<path d="M223.321 93.0378C225.629 87.5398 228.588 82.3375 232.139 77.549C235.452 73.056 239.181 68.2675 243.737 65.1342C244.033 64.9569 244.27 65.3116 244.092 65.5481C240.246 70.041 235.926 74.0019 232.434 78.8495C229.121 83.4016 226.339 88.1901 223.795 93.2151C223.676 93.4516 223.262 93.2743 223.321 93.0378Z" fill="#9F7D47"/>
<path d="M10.6429 60.7003C25.5553 64.07 39.58 70.1 53.4863 76.2483C68.0436 82.6921 82.5418 88.6039 97.8092 93.0968C98.1642 93.215 98.0459 93.688 97.6908 93.6289C82.8376 90.673 68.6946 83.9927 54.9066 77.9036C40.4676 71.5189 25.9103 65.075 10.5245 61.2915C10.1103 61.2324 10.2878 60.6412 10.6429 60.7003Z" fill="#9F7D47"/>
<path d="M97.6317 92.624C90.5898 89.5499 82.9561 85.3525 78.1036 79.2634C75.7958 76.3667 74.1388 72.9378 72.3044 69.6864C70.1149 65.6664 67.6295 61.7055 65.6767 57.449C65.4991 57.0352 66.0909 56.7396 66.3276 57.0943C70.7066 63.7746 73.5471 71.4599 78.222 77.9628C82.8377 84.4067 90.7673 88.8996 97.7501 92.3876C97.9276 92.4467 97.8093 92.6831 97.6317 92.624Z" fill="#9F7D47"/>
<path d="M74.9668 90.4367C72.8364 89.8455 70.1735 91.2052 68.1615 91.7964C66.1495 92.3876 64.1376 92.9787 62.1848 93.5108C58.3581 94.6143 54.5313 95.7179 50.7046 96.8214C45.3788 98.2993 38.9286 100.546 33.9578 96.9396C33.6619 96.7032 33.8986 96.2893 34.2537 96.4667C41.1181 100.014 49.5803 96.0529 56.4447 94.1611C60.1136 93.1561 63.7233 92.1511 67.3923 91.1461C69.6409 90.5549 72.8364 88.9587 75.0851 90.1411C75.2035 90.2593 75.0851 90.4367 74.9668 90.4367Z" fill="#9F7D47"/>
<path d="M26.9161 46.453C36.4435 52.6604 45.9708 61.1733 51.1191 71.4598C51.3558 71.9918 50.7049 72.3465 50.409 71.9327C46.9176 67.2624 43.7221 62.533 39.6982 58.2765C35.7334 54.0792 31.4135 50.2365 26.6794 46.9259C26.3836 46.6895 26.6203 46.2757 26.9161 46.453Z" fill="#9F7D47"/>
<path d="M32.4195 72.4058C24.845 77.8446 14.6076 79.6182 5.6128 77.2535C5.31692 77.1943 5.43526 76.7805 5.73114 76.8396C15.1401 78.2585 23.8982 76.5441 32.1828 71.992C32.4195 71.8146 32.6562 72.2285 32.4195 72.4058Z" fill="#9F7D47"/>
<path d="M84.1394 162.915C78.8136 172.374 76.3874 184.197 80.3522 194.602C82.5417 200.336 86.7432 204.947 91.1222 209.145C96.093 213.874 101.478 216.475 108.402 216.239C108.52 216.18 108.52 216.416 108.461 216.416C102.839 218.426 96.9215 215.293 92.6608 211.805C87.6308 207.608 82.6009 202.287 79.9379 196.257C75.263 185.379 77.7484 172.492 83.7844 162.737C83.9027 162.501 84.2578 162.678 84.1394 162.915Z" fill="#9F7D47"/>
<path d="M152.429 202.228C161.719 195.725 163.968 184.079 158.465 174.384C158.405 174.206 158.642 174.029 158.76 174.147C165.862 183.251 161.719 196.671 152.665 202.583C152.429 202.701 152.251 202.346 152.429 202.228Z" fill="#9F7D47"/>
<path d="M125.148 136.962C118.58 134.716 110.118 136.903 103.963 139.682C97.513 142.519 94.6134 147.722 90.3527 152.924C90.1752 153.101 89.9385 152.865 89.9977 152.628C92.8973 146.48 97.6906 141.16 104.022 138.618C110.354 136.016 118.639 133.947 125.267 136.608C125.503 136.667 125.385 137.081 125.148 136.962Z" fill="#9F7D47"/>
<path d="M157.281 105.393C145.742 112.428 139.942 125.966 141.954 139.209C142.014 139.445 141.659 139.563 141.599 139.327C138.759 126.025 145.505 111.837 157.104 105.039C157.34 104.861 157.518 105.216 157.281 105.393Z" fill="#9F7D47"/>
<path d="M148.582 158.481C153.079 167.94 162.666 173.32 172.607 175.211C177.992 176.275 183.91 176.689 189.354 176.098C195.153 175.448 199.828 172.433 204.799 169.654C204.917 169.595 204.977 169.773 204.917 169.832C200.598 173.024 195.745 175.862 190.36 176.63C184.561 177.517 178.229 176.985 172.43 175.862C162.252 173.911 152.665 168.413 148.345 158.658C148.286 158.481 148.523 158.304 148.582 158.481Z" fill="#9F7D47"/>
<path d="M193.319 95.6388C200.716 98.4173 209.178 102.615 214.327 108.822C214.445 108.94 214.268 109.295 214.031 109.118C210.776 106.871 207.877 104.211 204.503 102.083C200.894 99.8361 197.106 97.8853 193.142 96.2891C192.727 96.1117 192.905 95.5206 193.319 95.6388Z" fill="#9F7D47"/>
<path d="M235.216 65.1342C233.914 68.3265 232.612 71.5189 231.133 74.6521C231.074 74.7704 230.837 74.7112 230.896 74.593C232.08 71.3415 233.441 68.1492 234.743 65.0159C234.861 64.7204 235.334 64.8386 235.216 65.1342Z" fill="#9F7D47"/>
<path d="M231.192 67.8536C229.417 72.2283 227.76 76.7804 225.689 81.0368C225.57 81.2733 225.215 81.096 225.274 80.8595C226.872 76.3665 228.943 72.0509 230.778 67.6762C230.896 67.4398 231.31 67.6171 231.192 67.8536Z" fill="#9F7D47"/>
<path d="M227.759 69.5089C226.043 71.7553 225.511 74.6521 224.268 77.1942C223.144 79.4998 221.723 81.628 219.83 83.3424C219.711 83.4606 219.534 83.3424 219.593 83.2242C221.368 80.8004 223.144 78.4356 224.327 75.6571C225.274 73.4106 225.866 71.1642 227.345 69.2133C227.523 68.9768 227.937 69.2724 227.759 69.5089Z" fill="#9F7D47"/>
<path d="M220.895 73.6472C218.883 77.6672 217.286 82.2784 214.8 86.0028C214.682 86.121 214.504 86.0619 214.504 85.8845C215.629 81.569 218.41 77.3125 220.481 73.4107C220.659 73.1151 221.073 73.4107 220.895 73.6472Z" fill="#9F7D47"/>
<path d="M215.392 76.1303C213.321 80.0321 211.486 84.1703 209.119 87.9538C208.942 88.3085 208.468 88.013 208.646 87.6583C210.48 83.6383 212.847 79.7365 214.918 75.8347C215.096 75.5391 215.569 75.8347 215.392 76.1303Z" fill="#9F7D47"/>
<path d="M210.006 79.0861C208.29 82.8105 206.397 86.8896 203.615 89.9637C203.497 90.0819 203.32 89.9046 203.379 89.7272C205.332 86.0619 207.758 82.6331 209.533 78.8496C209.711 78.554 210.184 78.7905 210.006 79.0861Z" fill="#9F7D47"/>
<path d="M205.332 80.1501C203.438 83.4607 201.663 87.0078 199.474 90.141C199.296 90.4366 198.941 90.2001 199.059 89.9046C200.775 86.4757 202.965 83.2243 204.918 79.9137C205.095 79.6181 205.509 79.8545 205.332 80.1501Z" fill="#9F7D47"/>
<path d="M200.894 80.3867C199.296 83.2244 197.757 86.1803 195.923 88.8405C195.745 89.1361 195.331 88.8997 195.509 88.545C196.929 85.7073 198.823 82.9288 200.479 80.1502C200.657 79.8547 201.071 80.0911 200.894 80.3867Z" fill="#9F7D47"/>
<path d="M196.87 81.3324C195.094 84.5839 193.437 88.0127 191.366 91.0277C191.13 91.3233 190.775 91.0868 190.893 90.7912C192.431 87.4215 194.562 84.2883 196.396 81.0959C196.574 80.8003 196.988 81.0368 196.87 81.3324Z" fill="#9F7D47"/>
<path d="M192.431 82.2783C190.656 84.9386 189.058 87.8945 186.928 90.3183C186.751 90.4957 186.514 90.2592 186.573 90.0818C188.052 87.2442 190.183 84.643 191.958 82.0418C192.195 81.7463 192.609 81.9827 192.431 82.2783Z" fill="#9F7D47"/>
<path d="M189.472 82.3965C187.638 85.2933 185.981 88.3674 183.91 91.0277C183.732 91.2642 183.436 90.9686 183.555 90.7321C185.034 87.7171 187.165 84.9386 188.94 82.101C189.177 81.8054 189.65 82.101 189.472 82.3965Z" fill="#9F7D47"/>
<path d="M185.981 80.4457C184.561 82.9877 183.141 85.7071 181.543 88.1901C181.366 88.3674 181.07 88.1901 181.188 87.9536C182.49 85.2933 184.088 82.7513 185.567 80.2092C185.745 79.9136 186.159 80.1501 185.981 80.4457Z" fill="#9F7D47"/>
<path d="M182.608 82.4556C180.951 84.4065 179.413 86.5347 177.578 88.3082C177.46 88.4856 177.164 88.2491 177.283 88.0718C178.703 85.9435 180.537 84.0518 182.194 82.0418C182.431 81.7462 182.845 82.16 182.608 82.4556Z" fill="#9F7D47"/>
<path d="M178.584 81.9827C177.046 83.9336 175.566 86.0027 173.969 87.8945C173.791 88.0718 173.436 87.8354 173.614 87.5989C174.975 85.5298 176.572 83.638 178.111 81.6871C178.288 81.3915 178.762 81.6871 178.584 81.9827Z" fill="#9F7D47"/>
<path d="M174.857 82.3373C173.791 83.9926 172.785 85.8253 171.602 87.3623C171.424 87.5397 171.128 87.3032 171.247 87.0668C172.075 85.3523 173.318 83.697 174.383 82.0417C174.561 81.7462 175.034 82.0417 174.857 82.3373Z" fill="#9F7D47"/>
<path d="M172.548 82.3373C171.365 83.9926 170.181 85.707 168.879 87.3032C168.702 87.5397 168.406 87.2441 168.524 87.0668C169.589 85.3523 170.832 83.697 172.075 82.0417C172.252 81.7462 172.785 82.0417 172.548 82.3373Z" fill="#9F7D47"/>
<path d="M168.998 82.8102C168.288 84.4655 167.163 85.8844 165.684 86.8894C165.565 87.0076 165.388 86.7711 165.506 86.6529C166.808 85.5297 167.932 84.2291 168.583 82.5738C168.702 82.3373 169.116 82.5738 168.998 82.8102Z" fill="#9F7D47"/>
<path d="M166.749 81.9236C165.684 83.8154 164.086 85.9436 162.075 86.9486C161.838 87.0077 161.601 86.7712 161.838 86.5939C162.607 85.8845 163.495 85.2933 164.264 84.4657C165.033 83.638 165.743 82.6921 166.276 81.6871C166.454 81.3324 166.927 81.628 166.749 81.9236Z" fill="#9F7D47"/>
<path d="M164.441 79.7362C162.607 81.2732 161.186 83.0468 159.885 85.0568C159.766 85.2932 159.411 85.1159 159.529 84.8794C160.595 82.7512 162.252 80.9185 164.086 79.3815C164.323 79.2041 164.678 79.5588 164.441 79.7362Z" fill="#9F7D47"/>
<path d="M159.471 80.1502C158.465 82.3966 157.044 84.7022 154.914 86.1211C154.796 86.2393 154.677 86.0028 154.737 85.8846C156.393 83.9928 157.991 82.1602 158.997 79.8546C159.175 79.4999 159.648 79.7955 159.471 80.1502Z" fill="#9F7D47"/>
<path d="M155.92 80.9778C155.21 82.8105 154.145 84.4066 152.547 85.5299C152.428 85.6481 152.251 85.4116 152.369 85.3525C153.671 84.0519 154.795 82.574 155.387 80.8596C155.506 80.564 155.979 80.6822 155.92 80.9778Z" fill="#9F7D47"/>
<path d="M152.132 81.5097C150.18 82.8103 149.174 84.4656 148.168 86.4165C148.049 86.6529 147.753 86.4756 147.813 86.2982C148.286 84.17 150.12 82.2782 151.896 81.0959C152.132 80.9185 152.369 81.3323 152.132 81.5097Z" fill="#9F7D47"/>
<path d="M146.275 84.2293C144.894 85.727 143.513 87.2049 142.132 88.6632C142.014 88.8405 141.777 88.604 141.896 88.4858C143.237 86.9093 144.578 85.3723 145.92 83.8746C146.156 83.6381 146.511 83.9929 146.275 84.2293Z" fill="#9F7D47"/>
<path d="M142.309 83.2834C140.534 86.0028 138.581 88.7222 136.332 91.0278C136.155 91.2643 135.8 90.9687 135.977 90.6731C137.989 88.1902 140.001 85.7072 141.776 82.9878C141.954 82.6331 142.487 82.9878 142.309 83.2834Z" fill="#9F7D47"/>
<path d="M137.28 86.5942C135.8 88.0721 134.262 89.6092 132.664 91.028C132.546 91.1462 132.309 90.9098 132.427 90.7915C133.907 89.1953 135.445 87.7174 136.925 86.1803C137.161 85.9439 137.516 86.3577 137.28 86.5942Z" fill="#9F7D47"/>
<path d="M132.664 87.4806C130.178 89.4315 128.344 91.678 126.391 94.1609C126.214 94.3974 125.859 94.2201 125.977 93.9245C127.516 91.2051 129.942 88.8995 132.427 87.0668C132.723 86.8303 132.96 87.3033 132.664 87.4806Z" fill="#9F7D47"/>
<path d="M125.799 90.4957C124.083 92.2101 122.486 94.1018 121.006 96.0527C120.829 96.2892 120.474 95.9936 120.651 95.7571C122.012 93.688 123.669 91.8554 125.444 90.0818C125.681 89.8454 126.095 90.2592 125.799 90.4957Z" fill="#9F7D47"/>
<path d="M121.776 90.9686C120.296 93.2742 118.344 95.166 115.858 96.4666C115.74 96.5257 115.621 96.3483 115.74 96.2301C117.988 94.8113 119.941 92.9195 121.421 90.7322C121.539 90.4366 121.953 90.673 121.776 90.9686Z" fill="#9F7D47"/>
<path d="M117.278 92.8013C115.799 94.3384 114.379 95.9937 112.722 97.3534C112.544 97.5307 112.248 97.2352 112.426 97.0578C113.787 95.4025 115.444 93.9837 116.923 92.5057C117.16 92.2693 117.515 92.624 117.278 92.8013Z" fill="#9F7D47"/>
<path d="M112.721 92.8013C111.834 93.8655 111.005 94.9887 109.999 95.9937C109.881 96.1711 109.526 95.9346 109.704 95.7572C110.532 94.5749 111.479 93.5699 112.366 92.5058C112.603 92.2693 112.899 92.5649 112.721 92.8013Z" fill="#9F7D47"/>
<path d="M108.283 92.4464C107.691 93.0376 107.159 93.6879 106.685 94.3973C106.271 95.0476 105.975 95.757 105.502 96.4073C105.383 96.5847 105.088 96.4664 105.147 96.23C105.62 94.6929 106.804 93.215 107.869 92.0326C108.106 91.737 108.52 92.1508 108.283 92.4464Z" fill="#9F7D47"/>
<path d="M103.668 93.7474C103.076 94.3386 102.464 94.9297 101.833 95.5209C101.656 95.6391 101.419 95.4027 101.596 95.2844C102.188 94.6539 102.78 94.043 103.372 93.4518C103.549 93.2153 103.845 93.57 103.668 93.7474Z" fill="#9F7D47"/>
<path d="M197.521 88.3083C196.337 89.8453 195.213 91.3824 193.911 92.8603C193.792 92.9786 193.497 92.8012 193.615 92.6239C194.68 91.0277 195.923 89.5498 197.106 88.0127C197.343 87.7171 197.757 88.0127 197.521 88.3083Z" fill="#9F7D47"/>
<path d="M192.668 90.4367C192.609 91.7964 191.958 93.5699 190.656 94.2202C190.42 94.3384 190.183 94.0429 190.36 93.8655C190.834 93.3926 191.307 92.9787 191.603 92.3876C191.958 91.7964 192.136 91.087 192.136 90.4367C192.136 90.082 192.668 90.082 192.668 90.4367Z" fill="#9F7D47"/>
<path d="M190.419 89.6681C189.058 92.5648 187.697 95.4025 186.159 98.181C186.04 98.4175 185.685 98.2402 185.804 98.0037C187.046 95.0478 188.526 92.2693 189.946 89.4316C190.124 89.136 190.597 89.3725 190.419 89.6681Z" fill="#9F7D47"/>
<path d="M186.219 92.8014C185.213 95.107 184.266 97.4126 183.141 99.6591C183.023 99.8955 182.55 99.7182 182.668 99.4226C183.615 97.117 184.68 94.8114 185.686 92.5058C185.863 92.1511 186.337 92.4467 186.219 92.8014Z" fill="#9F7D47"/>
<path d="M183.674 94.6931C181.839 97.7081 180.064 100.723 178.17 103.738C177.993 103.915 177.638 103.738 177.815 103.502C179.531 100.427 181.425 97.4716 183.26 94.4566C183.378 94.2201 183.792 94.4566 183.674 94.6931Z" fill="#9F7D47"/>
<path d="M178.289 97.7671C177.401 100.487 176.217 103.206 174.501 105.512C174.265 105.748 173.85 105.512 174.028 105.216C175.448 102.733 176.809 100.368 177.756 97.6489C177.874 97.2942 178.407 97.4124 178.289 97.7671Z" fill="#9F7D47"/>
<path d="M172.253 89.668C171.779 90.5548 171.365 91.5598 170.655 92.2692C170.596 92.3874 170.477 92.2692 170.536 92.2101C170.773 91.2051 171.424 90.3183 171.897 89.4316C172.016 89.1951 172.371 89.4316 172.253 89.668Z" fill="#9F7D47"/>
<path d="M172.134 86.8895C171.01 89.1951 169.886 91.5006 168.584 93.7471C168.525 93.8653 168.229 93.7471 168.288 93.5698C169.294 91.2051 170.537 88.9586 171.661 86.5939C171.838 86.2983 172.312 86.5939 172.134 86.8895Z" fill="#9F7D47"/>
<path d="M170.418 86.4166C169.116 89.9046 167.4 93.2152 165.033 96.1119C164.915 96.3484 164.56 96.0528 164.737 95.8755C166.749 92.8014 168.583 89.7272 169.945 86.2984C170.063 86.0028 170.536 86.1211 170.418 86.4166Z" fill="#9F7D47"/>
<path d="M164.5 90.9687C163.435 92.8014 162.37 94.634 161.246 96.4075C161.127 96.5849 160.772 96.4075 160.95 96.1711C161.956 94.3384 163.021 92.5649 164.027 90.7322C164.204 90.4367 164.619 90.7322 164.5 90.9687Z" fill="#9F7D47"/>
<path d="M160.772 93.6879C159.471 95.3432 158.465 97.1759 157.577 99.0676C157.518 99.3041 157.222 99.1268 157.281 98.9494C157.991 96.9394 159.115 95.1068 160.477 93.3923C160.654 93.1559 160.95 93.5106 160.772 93.6879Z" fill="#9F7D47"/>
<path d="M157.341 95.58C155.861 98.2994 154.441 101.078 152.784 103.738C152.666 103.975 152.311 103.738 152.429 103.502C153.79 100.723 155.329 98.0038 156.808 95.2844C157.045 94.9297 157.518 95.2253 157.341 95.58Z" fill="#9F7D47"/>
<path d="M153.198 98.2991C151.719 101.314 149.766 104.152 147.162 106.339C146.925 106.516 146.63 106.221 146.807 106.044C149.174 103.62 151.186 101.019 152.666 97.9444C152.843 97.5897 153.376 97.8853 153.198 98.2991Z" fill="#9F7D47"/>
<path d="M147.221 102.201C146.333 104.802 145.031 107.167 143.079 109.059C142.96 109.236 142.783 109 142.901 108.881C144.499 106.812 145.86 104.566 146.688 102.083C146.807 101.728 147.339 101.906 147.221 102.201Z" fill="#9F7D47"/>
<path d="M142.013 105.275C140.593 106.812 140.06 108.468 139.469 110.359C139.41 110.596 138.995 110.596 138.995 110.3C139.114 108.29 140.297 106.339 141.599 104.921C141.836 104.625 142.25 105.039 142.013 105.275Z" fill="#9F7D47"/>
<path d="M137.694 109C137.043 111.66 136.096 114.498 134.558 116.803C134.38 117.04 134.084 116.803 134.202 116.567C135.327 114.025 136.51 111.601 137.22 108.881C137.28 108.586 137.812 108.704 137.694 109Z" fill="#9F7D47"/>
<path d="M133.374 114.556C132.308 117.217 131.362 120.114 130.001 122.656C129.882 122.951 129.468 122.774 129.586 122.478C130.415 119.759 131.717 117.039 132.841 114.379C132.959 114.024 133.551 114.202 133.374 114.556Z" fill="#9F7D47"/>
<path d="M128.876 119.995C128.226 121.946 127.397 124.015 126.214 125.73C126.095 126.025 125.681 125.789 125.858 125.493C126.805 123.661 127.693 121.828 128.403 119.818C128.462 119.522 128.995 119.641 128.876 119.995Z" fill="#9F7D47"/>
<path d="M124.675 124.429C124.26 126.676 123.491 128.863 122.189 130.755C122.13 130.932 121.834 130.814 121.953 130.637C123.018 128.627 123.846 126.558 124.201 124.311C124.26 124.016 124.734 124.134 124.675 124.429Z" fill="#9F7D47"/>
<path d="M181.543 177.28C175.921 173.201 172.075 167.349 170.477 160.609C170.418 160.373 170.832 160.255 170.891 160.55C172.785 167.053 176.513 172.669 181.78 176.985C181.957 177.103 181.721 177.458 181.543 177.28Z" fill="#9F7D47"/>
<path d="M168.761 136.785C165.861 149.909 165.565 163.743 174.974 174.384C175.093 174.502 174.915 174.679 174.856 174.561C164.796 164.748 165.565 149.259 168.524 136.726C168.524 136.548 168.761 136.607 168.761 136.785Z" fill="#9F7D47"/>
<path d="M165.566 131.642C161.246 146.125 163.376 160.609 169.945 174.029C170.063 174.325 169.708 174.561 169.53 174.265C162.015 161.673 160.95 145.416 165.151 131.523C165.211 131.287 165.625 131.346 165.566 131.642Z" fill="#9F7D47"/>
<path d="M164.5 122.183C157.695 138.44 158.879 155.643 165.743 171.605C165.802 171.842 165.506 172.019 165.388 171.842C157.281 156.767 157.518 137.553 164.086 122.064C164.145 121.828 164.619 121.946 164.5 122.183Z" fill="#9F7D47"/>
<path d="M162.429 117.867C152.428 132.115 156.097 149.495 158.938 165.398C158.938 165.634 158.642 165.694 158.583 165.457C154.914 149.85 152.132 131.583 162.133 117.631C162.252 117.454 162.607 117.631 162.429 117.867Z" fill="#9F7D47"/>
<path d="M161.305 113.256C151.245 129.099 149.943 148.253 156.039 165.871C156.039 165.989 155.861 166.048 155.802 165.93C148.464 148.963 151.068 128.449 160.95 113.019C161.069 112.783 161.483 113.019 161.305 113.256Z" fill="#9F7D47"/>
<path d="M158.109 112.192C148.227 125.02 145.446 141.633 149.588 157.121C149.647 157.358 149.351 157.417 149.292 157.24C144.44 141.928 147.99 124.607 157.754 111.955C157.932 111.778 158.287 111.955 158.109 112.192Z" fill="#9F7D47"/>
<path d="M161.009 103.679C150.949 110.655 147.221 122.005 144.854 133.474C144.795 133.77 144.321 133.711 144.38 133.415C145.86 121.828 150.89 110.064 160.831 103.324C161.068 103.147 161.246 103.501 161.009 103.679Z" fill="#9F7D47"/>
<path d="M175.744 160.609C177.638 166.226 181.307 174.088 187.343 176.216C187.698 176.335 187.52 176.926 187.165 176.808C180.774 175.389 176.987 166.285 175.33 160.728C175.212 160.432 175.685 160.314 175.744 160.609Z" fill="#9F7D47"/>
<path d="M179.176 160.255C182.017 166.817 186.692 171.605 192.668 175.448C192.905 175.625 192.668 176.039 192.372 175.862C186.1 172.669 181.425 166.817 178.762 160.373C178.703 160.195 179.058 160.018 179.176 160.255Z" fill="#9F7D47"/>
<path d="M179.235 152.392C182.667 161.732 189.177 168.59 197.698 173.615C197.935 173.733 197.698 174.147 197.402 174.029C188.585 169.891 182.016 161.555 178.821 152.51C178.762 152.215 179.176 152.155 179.235 152.392Z" fill="#9F7D47"/>
<path d="M185.034 154.402C189.354 162.56 195.745 168.058 203.615 172.61C203.911 172.788 203.615 173.202 203.32 173.083C195.212 169.536 188.644 162.383 184.679 154.639C184.561 154.402 184.916 154.166 185.034 154.402Z" fill="#9F7D47"/>
<path d="M188.053 151.387C192.254 159.486 198.468 165.339 206.042 170.127C206.22 170.305 206.042 170.541 205.865 170.482C197.935 166.521 191.662 159.427 187.697 151.623C187.579 151.387 187.934 151.151 188.053 151.387Z" fill="#9F7D47"/>
<path d="M187.993 144.825C192.964 153.338 199.592 159.368 207.521 165.043C207.758 165.221 207.58 165.575 207.285 165.457C199.059 160.905 192.313 153.042 187.697 145.002C187.579 144.766 187.875 144.589 187.993 144.825Z" fill="#9F7D47"/>
<path d="M191.07 142.046C194.917 149.081 200.183 153.87 206.574 158.422C206.929 158.658 206.633 159.131 206.278 158.954C199.591 155.348 194.266 148.904 190.774 142.224C190.656 142.046 191.011 141.869 191.07 142.046Z" fill="#9F7D47"/>
<path d="M193.97 137.849C198.586 143.583 204.03 147.958 209.948 152.333C210.244 152.51 210.007 152.983 209.711 152.806C203.438 149.259 198.053 143.761 193.674 138.144C193.497 137.908 193.793 137.612 193.97 137.849Z" fill="#9F7D47"/>
<path d="M203.852 140.982C205.805 142.46 207.995 143.879 209.77 145.653C209.948 145.83 209.711 146.185 209.474 146.007C207.344 144.766 205.391 142.992 203.438 141.514C203.083 141.219 203.438 140.687 203.852 140.982Z" fill="#9F7D47"/>
<path d="M205.273 134.124C206.338 135.248 207.521 136.312 208.527 137.494C208.764 137.731 208.468 138.026 208.231 137.849C207.048 136.785 205.983 135.602 204.858 134.538C204.622 134.302 204.977 133.888 205.273 134.124Z" fill="#9F7D47"/>
<path d="M206.989 128.154C207.383 128.548 207.778 128.961 208.172 129.395C208.35 129.513 208.113 129.75 207.936 129.632C207.541 129.237 207.147 128.843 206.752 128.449C206.574 128.272 206.811 127.976 206.989 128.154Z" fill="#9F7D47"/>
<path d="M212.611 120.409C210.954 120.232 209.474 120.528 207.877 120.882C207.64 120.941 207.462 120.646 207.699 120.528C209.238 119.759 211.013 119.7 212.67 119.996C212.907 119.996 212.847 120.468 212.611 120.409Z" fill="#9F7D47"/>
<path d="M211.782 116.803C210.362 116.862 209.178 117.276 207.817 117.808C207.639 117.926 207.521 117.572 207.699 117.454C208.882 116.685 210.421 116.449 211.782 116.389C212.078 116.389 212.078 116.803 211.782 116.803Z" fill="#9F7D47"/>
<path d="M212.611 113.965C210.717 114.084 209.06 114.556 207.226 114.97C206.989 115.029 206.811 114.675 207.048 114.556C208.764 113.729 210.717 113.433 212.611 113.374C212.966 113.374 212.966 113.906 212.611 113.965Z" fill="#9F7D47"/>
<path d="M214.208 110.123C211.013 110.418 208.054 111.305 205.036 112.547C204.858 112.665 204.681 112.369 204.918 112.31C207.758 110.714 210.954 109.945 214.208 109.709C214.504 109.65 214.504 110.064 214.208 110.123Z" fill="#9F7D47"/>
<path d="M208.823 107.935C206.575 108.586 204.267 109.295 201.959 109.886C201.781 109.886 201.722 109.65 201.9 109.591C204.148 108.822 206.456 108.231 208.705 107.581C208.942 107.521 209.06 107.876 208.823 107.935Z" fill="#9F7D47"/>
<path d="M208.823 104.92C204.503 105.571 200.834 107.344 197.402 109.945C197.225 110.064 197.047 109.827 197.166 109.65C200.42 106.812 204.503 105.157 208.705 104.506C209.001 104.447 209.119 104.861 208.823 104.92Z" fill="#9F7D47"/>
<path d="M204.622 102.91C199.651 104.388 195.627 106.93 191.662 110.182C191.426 110.359 191.071 110.064 191.307 109.827C194.858 106.162 199.651 103.797 204.503 102.437C204.799 102.378 204.918 102.851 204.622 102.91Z" fill="#9F7D47"/>
<path d="M201.367 100.073C197.521 101.255 194.562 103.383 191.662 106.162C191.425 106.339 191.189 106.044 191.366 105.807C193.792 102.792 197.58 100.782 201.249 99.718C201.544 99.5998 201.663 100.014 201.367 100.073Z" fill="#9F7D47"/>
<path d="M198.705 98.3584C195.154 99.659 192.314 101.61 189.296 103.856C189.059 104.034 188.822 103.679 189 103.502C191.544 100.841 195.154 99.1269 198.645 98.0037C198.882 97.9446 198.941 98.2993 198.705 98.3584Z" fill="#9F7D47"/>
<path d="M194.147 97.176C192.017 98.181 190.301 99.5998 188.407 100.96C188.171 101.078 187.993 100.782 188.111 100.605C189.65 98.8904 191.84 97.708 193.911 96.8213C194.147 96.703 194.384 97.0577 194.147 97.176Z" fill="#9F7D47"/>
<path d="M182.076 95.0476C181.543 95.1659 181.01 95.3432 180.596 95.6979C180.182 96.0526 179.945 96.5256 179.59 96.9394C179.413 97.1167 178.998 96.9985 178.998 96.7029C179.176 95.3432 180.774 94.4564 182.016 94.3382C182.431 94.2791 182.49 94.9885 182.076 95.0476Z" fill="#9F7D47"/>
<path d="M180.123 93.2151C177.282 95.4616 175.093 98.3584 173.554 101.669C173.495 101.787 173.199 101.669 173.259 101.492C174.62 98.0628 176.927 95.2251 179.827 92.9196C180.064 92.7422 180.36 93.0378 180.123 93.2151Z" fill="#9F7D47"/>
<path d="M174.797 94.2201C172.607 97.0578 171.483 100.309 169.945 103.502C169.826 103.679 169.53 103.561 169.589 103.324C170.714 100.014 172.312 96.7622 174.442 93.9837C174.56 93.8063 174.915 93.9837 174.797 94.2201Z" fill="#9F7D47"/>
<path d="M171.365 94.5159C169.175 98.4176 167.696 102.556 166.276 106.812C166.217 107.049 165.862 106.99 165.921 106.694C166.749 102.319 168.702 98.122 170.951 94.2794C171.128 93.9838 171.483 94.2203 171.365 94.5159Z" fill="#9F7D47"/>
<path d="M166.749 97.4125C166.276 98.4175 165.921 99.4816 165.388 100.427C165.27 100.605 164.974 100.487 165.033 100.25C165.388 99.2451 165.921 98.181 166.335 97.2351C166.453 96.9395 166.808 97.176 166.749 97.4125Z" fill="#9F7D47"/>
<path d="M163.909 98.0036C163.613 98.713 163.376 99.4815 162.962 100.191C162.903 100.368 162.607 100.25 162.666 100.073C162.844 99.3042 163.14 98.5948 163.435 97.8262C163.554 97.5306 164.027 97.6489 163.909 98.0036Z" fill="#9F7D47"/>
<path d="M176.454 129.927C174.974 136.312 176.513 142.401 177.933 148.608C177.992 148.786 177.697 148.845 177.637 148.667C175.685 142.578 174.56 136.134 176.217 129.868C176.276 129.691 176.513 129.75 176.454 129.927Z" fill="#9F7D47"/>
<path d="M178.762 136.312C179.59 141.219 181.069 145.771 182.845 150.441C182.904 150.618 182.608 150.737 182.549 150.559C180.419 146.126 179.176 141.278 178.407 136.371C178.347 136.194 178.702 136.076 178.762 136.312Z" fill="#9F7D47"/>
<path d="M181.602 136.489C182.667 141.041 184.561 145.179 186.987 149.14C187.046 149.318 186.81 149.436 186.75 149.259C184.028 145.475 182.253 141.159 181.188 136.607C181.129 136.371 181.543 136.253 181.602 136.489Z" fill="#9F7D47"/>
<path d="M183.319 133.888C183.851 136.607 184.976 138.795 186.277 141.219C186.396 141.396 186.1 141.691 185.922 141.455C184.265 139.386 183.378 136.607 182.904 134.006C182.904 133.77 183.259 133.651 183.319 133.888Z" fill="#9F7D47"/>
<path d="M174.324 140.568C174.797 146.126 176.217 151.269 178.229 156.471C178.288 156.589 178.052 156.708 177.933 156.589C175.625 151.564 174.442 146.066 174.028 140.568C173.969 140.332 174.324 140.332 174.324 140.568Z" fill="#9F7D47"/>
<path d="M172.016 144.943C172.667 148.904 173.673 152.746 174.619 156.648C174.619 156.826 174.383 156.885 174.324 156.707C173.081 152.924 172.312 148.963 171.661 145.002C171.661 144.825 172.016 144.706 172.016 144.943Z" fill="#9F7D47"/>
<path d="M169.708 145.593C169.708 149.85 170.359 153.929 171.483 158.008C171.542 158.245 171.246 158.304 171.187 158.126C169.767 154.047 169.234 149.909 169.294 145.593C169.294 145.357 169.708 145.357 169.708 145.593Z" fill="#9F7D47"/>
<path d="M169.589 134.302C170.181 130.341 171.187 126.38 172.903 122.774C172.962 122.597 173.199 122.715 173.14 122.833C171.66 126.617 170.477 130.341 169.885 134.361C169.885 134.598 169.589 134.479 169.589 134.302Z" fill="#9F7D47"/>
<path d="M170.359 119.463C168.643 122.833 167.578 126.262 166.867 129.927C166.808 130.104 166.572 130.045 166.572 129.927C167.045 126.203 168.347 122.656 170.063 119.345C170.181 119.168 170.418 119.286 170.359 119.463Z" fill="#9F7D47"/>
<path d="M168.702 114.143C167.578 116.685 166.513 119.286 165.152 121.71C165.033 121.887 164.856 121.71 164.915 121.592C166.039 118.991 167.282 116.508 168.406 113.966C168.525 113.788 168.82 113.906 168.702 114.143Z" fill="#9F7D47"/>
<path d="M168.406 110.3C166.808 112.251 165.507 114.32 164.027 116.33C163.909 116.507 163.672 116.33 163.79 116.153C164.915 113.965 166.572 111.955 168.17 110.064C168.288 109.827 168.525 110.123 168.406 110.3Z" fill="#9F7D47"/>
<path d="M166.571 107.403C165.21 108.586 164.086 109.886 163.021 111.305C162.902 111.423 162.725 111.305 162.843 111.187C163.79 109.65 164.974 108.349 166.335 107.167C166.453 107.049 166.69 107.285 166.571 107.403Z" fill="#9F7D47"/>
<path d="M165.388 103.442C163.198 105.157 161.246 107.108 159.293 109.059C159.174 109.177 158.997 108.999 159.115 108.881C160.891 106.753 162.962 104.861 165.21 103.206C165.329 103.088 165.565 103.324 165.388 103.442Z" fill="#9F7D47"/>
<path d="M144.735 137.021C144.558 143.702 145.446 150.145 146.925 156.648C146.925 156.826 146.688 156.885 146.629 156.707C144.795 150.323 144.262 143.642 144.499 137.021C144.499 136.903 144.735 136.903 144.735 137.021Z" fill="#9F7D47"/>
<path d="M142.724 141.869C142.842 144.056 143.138 146.303 143.079 148.549C143.079 148.786 142.605 148.904 142.605 148.608C142.309 146.362 142.309 144.116 142.25 141.869C142.191 141.573 142.664 141.573 142.724 141.869Z" fill="#9F7D47"/>
<path d="M128.403 136.312C130.297 137.1 132.21 137.908 134.143 138.736C134.262 138.795 134.143 139.031 134.025 138.972C132.092 138.184 130.179 137.376 128.285 136.548C128.048 136.489 128.167 136.194 128.403 136.312Z" fill="#9F7D47"/>
<path d="M117.1 139.15C123.314 138.085 130.119 138.913 135.445 142.46C135.8 142.637 135.504 143.11 135.149 142.933C129.409 140.036 123.669 138.499 117.218 139.445C116.982 139.504 116.863 139.15 117.1 139.15Z" fill="#9F7D47"/>
<path d="M139.529 149.259C134.025 145.948 128.167 143.229 121.717 142.578C115.326 141.987 109.763 143.643 104.201 146.658C104.023 146.776 103.786 146.48 103.964 146.362C114.201 137.908 130.06 141.81 139.765 148.904C139.943 149.022 139.765 149.377 139.529 149.259Z" fill="#9F7D47"/>
<path d="M121.953 145.653C128.699 145.18 135.031 148.845 140.061 153.16C140.238 153.279 140.001 153.574 139.765 153.456C134.084 149.909 129.113 145.653 121.953 145.948C121.716 145.948 121.716 145.653 121.953 145.653Z" fill="#9F7D47"/>
<path d="M128.581 151.091C133.729 151.742 138.937 154.165 142.132 158.363C142.25 158.599 141.895 158.836 141.718 158.658C137.99 154.875 133.907 152.333 128.522 151.564C128.285 151.564 128.344 151.032 128.581 151.091Z" fill="#9F7D47"/>
<path d="M153.435 171.073C157.399 175.093 160.122 180.887 158.938 186.562C158.938 186.739 158.76 186.68 158.76 186.562C158.465 180.768 157.281 175.743 153.198 171.369C153.02 171.191 153.257 170.955 153.435 171.073Z" fill="#9F7D47"/>
<path d="M134.143 158.245C140.712 160.846 145.564 165.693 149.825 171.191C153.849 176.275 157.222 182.66 156.808 189.281C156.748 189.754 156.097 189.754 156.038 189.281C155.861 182.069 152.843 176.157 148.286 170.659C144.262 165.752 139.883 161.2 133.966 158.658C133.729 158.54 133.906 158.185 134.143 158.245Z" fill="#9F7D47"/>
<path d="M137.516 165.22C145.15 171.428 151.955 179.231 153.139 189.34C153.198 189.459 153.02 189.459 152.961 189.34C150.772 179.704 144.558 171.901 137.22 165.516C136.984 165.339 137.279 165.043 137.516 165.22Z" fill="#9F7D47"/>
<path d="M136.036 170.778C143.966 175.921 153.316 185.971 152.014 196.198C152.014 196.494 151.6 196.494 151.6 196.198C151.422 186.148 143.789 176.808 135.8 171.191C135.563 171.014 135.8 170.6 136.036 170.778Z" fill="#9F7D47"/>
<path d="M135.563 178.108C142.25 181.833 148.404 188.631 149.233 196.494C149.292 196.789 148.819 196.789 148.7 196.553C145.801 189.104 142.369 182.838 135.327 178.522C135.031 178.345 135.267 177.99 135.563 178.108Z" fill="#9F7D47"/>
<path d="M133.492 182.778C139.528 186.266 145.623 191.291 146.333 198.681C146.333 198.977 145.86 199.036 145.801 198.74C143.907 191.764 139.292 186.976 133.196 183.31C132.841 183.074 133.137 182.601 133.492 182.778Z" fill="#9F7D47"/>
<path d="M132.486 187.981C134.853 189.577 137.279 191.291 139.35 193.301C140.771 194.72 141.895 196.316 141.54 198.326C141.54 198.563 141.126 198.504 141.126 198.326C141.303 193.892 135.445 190.523 132.308 188.276C132.072 188.158 132.249 187.803 132.486 187.981Z" fill="#9F7D47"/>
<path d="M130.77 193.242C134.439 193.893 138.226 196.257 139.647 199.804C139.706 200.041 139.41 200.159 139.232 199.982C137.102 196.73 134.617 194.425 130.652 193.656C130.415 193.597 130.533 193.183 130.77 193.242Z" fill="#9F7D47"/>
<path d="M132.427 198.09C134.32 199.804 136.51 201.933 137.575 204.238C137.693 204.475 137.398 204.829 137.161 204.534C136.332 203.529 135.681 202.346 134.853 201.341C134.025 200.317 133.117 199.351 132.131 198.445C131.953 198.208 132.249 197.913 132.427 198.09Z" fill="#9F7D47"/>
<path d="M138.996 207.785C139.824 208.376 140.712 208.909 141.481 209.618C141.659 209.795 141.422 210.032 141.244 209.914C140.357 209.441 139.528 208.849 138.759 208.258C138.463 208.022 138.7 207.549 138.996 207.785Z" fill="#9F7D47"/>
<path d="M138.227 209.559C138.74 209.953 139.252 210.347 139.765 210.741C140.298 211.155 140.712 211.569 141.126 212.101C141.245 212.278 141.067 212.514 140.89 212.455C140.239 212.16 139.765 211.864 139.233 211.45C138.72 211.017 138.187 210.583 137.635 210.15C137.221 209.854 137.812 209.263 138.227 209.559Z" fill="#9F7D47"/>
<path d="M137.043 209.854C137.635 210.445 138.226 211.017 138.818 211.569C139.351 212.101 139.943 212.633 140.298 213.283C140.416 213.519 140.179 213.697 140.002 213.638C139.292 213.283 138.818 212.633 138.286 212.101C137.694 211.509 137.102 210.918 136.51 210.327C136.214 210.031 136.688 209.558 137.043 209.854Z" fill="#9F7D47"/>
<path d="M136.156 211.155C136.806 212.042 137.635 212.81 138.463 213.52C138.7 213.756 138.404 214.052 138.168 213.933C137.102 213.283 136.333 212.396 135.623 211.451C135.327 211.155 135.919 210.8 136.156 211.155Z" fill="#9F7D47"/>
<path d="M135.386 212.988C135.978 213.52 136.569 213.993 137.102 214.584C137.22 214.702 137.102 214.82 136.984 214.761C136.333 214.347 135.682 213.815 135.031 213.342C134.794 213.165 135.149 212.751 135.386 212.988Z" fill="#9F7D47"/>
<path d="M137.102 214.052C137.102 215.116 140.594 213.697 140.949 213.461C142.31 212.515 142.724 211.155 142.132 209.618C142.073 209.381 142.428 209.145 142.606 209.381C144.144 210.978 142.606 213.342 140.949 214.17C140.179 214.584 136.51 215.943 136.51 214.052C136.51 213.697 137.102 213.697 137.102 214.052Z" fill="#9F7D47"/>
<path d="M141.954 209.736C142.25 210.446 142.783 211.391 142.783 212.219C142.783 212.456 142.487 212.574 142.31 212.396C141.718 211.746 141.54 210.741 141.244 209.913C141.067 209.441 141.777 209.263 141.954 209.736Z" fill="#9F7D47"/>
<path d="M140.061 210.505C140.238 210.859 140.416 211.155 140.534 211.451C140.652 211.805 140.83 212.16 140.889 212.456C140.948 212.692 140.652 212.928 140.475 212.692C140.001 212.219 139.706 211.51 139.41 210.918C139.114 210.505 139.824 210.091 140.061 210.505Z" fill="#9F7D47"/>
<path d="M131.421 201.282C132.664 202.76 133.906 204.238 135.09 205.834C135.208 206.012 134.912 206.248 134.735 206.071C133.492 204.593 132.309 203.115 131.125 201.578C130.948 201.341 131.243 201.046 131.421 201.282Z" fill="#9F7D47"/>
<path d="M130.06 203.351C131.302 205.243 132.723 207.017 134.261 208.731C134.439 208.908 134.143 209.204 133.965 209.027C132.19 207.431 130.829 205.598 129.586 203.588C129.409 203.292 129.823 203.056 130.06 203.351Z" fill="#9F7D47"/>
<path d="M124.438 202.76C126.391 207.253 130.356 209.677 134.084 212.455C134.32 212.633 134.143 212.987 133.906 212.869C129.823 210.505 125.858 207.371 124.024 202.937C123.905 202.701 124.32 202.524 124.438 202.76Z" fill="#9F7D47"/>
<path d="M119.704 203.056C123.314 209.204 128.581 212.928 135.031 215.589C135.267 215.707 135.208 216.121 134.912 216.062C128.225 214.229 122.722 209.145 119.349 203.292C119.172 203.056 119.586 202.819 119.704 203.056Z" fill="#9F7D47"/>
<path d="M114.97 201.874C117.751 208.731 122.722 213.283 129.054 216.83C129.291 217.008 129.113 217.481 128.817 217.362C122.13 214.702 117.041 208.613 114.497 201.992C114.378 201.696 114.852 201.578 114.97 201.874Z" fill="#9F7D47"/>
<path d="M110.828 201.046C112.958 207.667 117.041 212.869 122.367 217.244C122.545 217.362 122.308 217.717 122.13 217.54C116.39 213.697 112.485 207.726 110.414 201.164C110.295 200.869 110.769 200.75 110.828 201.046Z" fill="#9F7D47"/>
<path d="M105.443 197.971C107.455 204.77 111.005 210.741 115.739 216.002C115.858 216.18 115.621 216.475 115.503 216.298C110.473 211.214 107.041 204.947 105.088 198.09C105.029 197.853 105.384 197.735 105.443 197.971Z" fill="#9F7D47"/>
<path d="M100.057 192.592C100.649 201.873 104.851 209.677 111.301 216.18C111.597 216.475 111.183 216.83 110.946 216.594C103.904 210.741 100.057 201.637 99.584 192.592C99.584 192.296 99.9983 192.296 100.057 192.592Z" fill="#9F7D47"/>
<path d="M94.7911 185.32C94.1994 195.252 98.6967 203.588 103.135 212.101C103.194 212.278 103.017 212.337 102.957 212.219C97.8091 204.356 93.8443 194.897 94.4361 185.32C94.4361 185.084 94.7911 185.084 94.7911 185.32Z" fill="#9F7D47"/>
<path d="M94.1399 174.029C87.2163 189.281 95.2643 204.12 102.72 217.303C102.839 217.54 102.484 217.776 102.365 217.54C93.6665 205.184 86.9204 188.513 93.7849 173.793C93.9032 173.556 94.2583 173.793 94.1399 174.029Z" fill="#9F7D47"/>
<path d="M91.5955 170.305C86.6839 183.429 87.9858 196.848 93.6075 209.441C93.785 209.736 93.3708 209.973 93.2525 209.677C86.5656 197.853 86.3881 182.66 91.1813 170.186C91.2997 169.95 91.7139 170.068 91.5955 170.305Z" fill="#9F7D47"/>
<path d="M91.1223 164.688C83.4886 175.211 82.8969 188.335 84.9089 200.75C84.9089 200.986 84.5538 201.105 84.4946 200.868C81.7134 188.513 83.0744 174.797 90.7081 164.452C90.8856 164.156 91.2999 164.393 91.1223 164.688Z" fill="#9F7D47"/>
<path d="M88.4595 163.624C83.1336 172.492 80.7074 182.305 80.7666 192.592C80.8257 192.828 80.4115 192.828 80.4115 192.592C79.9381 182.365 82.8377 172.196 88.1044 163.447C88.2227 163.21 88.5778 163.388 88.4595 163.624Z" fill="#9F7D47"/>
<path d="M92.8381 153.397C88.5775 156.412 85.6778 160.136 82.6599 164.393C82.4231 164.747 81.9497 164.452 82.1273 164.097C84.1984 159.427 88.3408 155.584 92.5423 152.865C92.8973 152.687 93.1932 153.16 92.8381 153.397Z" fill="#9F7D47"/>
<path d="M300.606 -11.1868C300.073 -4.21094 299.126 3.06053 297.114 9.74083C297.055 9.91818 296.641 9.91818 296.7 9.68171C297.588 2.70583 298.949 -4.27006 300.073 -11.2459C300.132 -11.4824 300.606 -11.4233 300.606 -11.1868Z" fill="#9F7D47"/>
<path d="M297.055 -9.35412C295.043 -2.08264 295.931 5.78001 293.8 13.0515C293.741 13.288 293.327 13.2288 293.386 12.9924C293.682 8.91325 294.569 4.83412 295.043 0.695888C295.398 -2.73294 295.516 -6.16176 296.522 -9.47235C296.581 -9.82706 297.114 -9.70882 297.055 -9.35412Z" fill="#9F7D47"/>
<path d="M291.492 0.932473C291.137 6.60777 290.427 12.3422 289.007 17.8992C289.007 18.0766 288.711 17.9584 288.77 17.781C289.776 12.224 290.664 6.60777 291.019 0.932473C291.078 0.636884 291.492 0.577766 291.492 0.932473Z" fill="#9F7D47"/>
<path d="M287.231 6.72584C286.462 11.5144 285.929 16.4211 284.864 21.1506C284.864 21.3279 284.568 21.2688 284.568 21.0914C285.042 16.2438 285.989 11.3961 286.758 6.6076C286.817 6.2529 287.29 6.37113 287.231 6.72584Z" fill="#9F7D47"/>
<path d="M282.853 12.6968C282.616 17.2489 282.202 21.86 281.077 26.2939C281.018 26.5303 280.722 26.4121 280.781 26.2347C281.432 21.6827 282.142 17.2489 282.438 12.6968C282.438 12.4012 282.853 12.4012 282.853 12.6968Z" fill="#9F7D47"/>
<path d="M279.775 17.3081C278.769 21.3872 278.414 25.4073 278 29.6046C278 29.8411 277.585 29.8411 277.585 29.6046C277.408 25.4073 278.236 21.2099 279.302 17.1899C279.42 16.8943 279.893 17.0125 279.775 17.3081Z" fill="#9F7D47"/>
<path d="M275.396 20.5594C274.864 24.4021 274.45 28.2447 273.74 32.0282C273.74 32.2056 273.444 32.1465 273.444 31.9691C273.799 28.1265 274.45 24.2838 274.982 20.5003C275.041 20.2047 275.396 20.3229 275.396 20.5594Z" fill="#9F7D47"/>
<path d="M271.727 25.348C271.905 29.0724 271.668 32.9151 270.721 36.5804C270.662 36.8168 270.307 36.6986 270.366 36.4621C270.958 32.7377 271.491 29.1315 271.372 25.348C271.313 25.1115 271.727 25.1115 271.727 25.348Z" fill="#9F7D47"/>
<path d="M269.301 30.1955C269.301 33.9791 268.946 37.8217 267.822 41.4279C267.762 41.6053 267.467 41.5461 267.526 41.3097C268.354 37.6444 268.946 33.9791 268.946 30.1955C268.946 29.9591 269.301 29.9591 269.301 30.1955Z" fill="#9F7D47"/>
<path d="M265.1 33.8018C264.685 37.5262 264.449 41.3097 263.857 45.0342C263.798 45.2706 263.384 45.2115 263.384 44.975C263.561 41.2506 264.094 37.5262 264.508 33.8018C264.567 33.4471 265.1 33.4471 265.1 33.8018Z" fill="#9F7D47"/>
<path d="M261.726 39.2407C261.845 43.0242 261.608 46.7487 260.898 50.4731C260.898 50.6504 260.661 50.5913 260.661 50.414C261.194 46.6895 261.49 42.9651 261.371 39.2407C261.371 39.0042 261.726 39.0042 261.726 39.2407Z" fill="#9F7D47"/>
<path d="M257.88 46.512C257.525 49.2314 257.525 51.8917 257.584 54.6111C257.584 54.9067 257.17 54.9067 257.17 54.6111C256.874 51.9508 257.052 49.1723 257.407 46.512C257.407 46.1573 257.88 46.1573 257.88 46.512Z" fill="#9F7D47"/>
<path d="M254.507 48.8769C254.566 52.1284 254.448 55.4981 253.679 58.6313C253.679 58.8087 253.324 58.8087 253.324 58.5722C253.738 55.3207 254.152 52.1875 254.152 48.8769C254.152 48.6996 254.507 48.6996 254.507 48.8769Z" fill="#9F7D47"/>
<path d="M250.72 54.0201C250.483 57.1533 250.247 60.2865 249.892 63.3607C249.832 63.5971 249.536 63.5971 249.536 63.3607C249.655 60.2865 249.892 57.1533 250.128 54.0201C250.187 53.6654 250.72 53.6654 250.72 54.0201Z" fill="#9F7D47"/>
<path d="M246.696 58.0401C246.104 60.4048 245.986 62.7696 245.808 65.1934C245.808 65.5481 245.335 65.5481 245.335 65.1934C245.098 62.7696 245.572 60.2275 246.104 57.8628C246.223 57.5081 246.755 57.6854 246.696 58.0401Z" fill="#9F7D47"/>
<path d="M243.086 61.0552C242.731 62.4149 242.731 63.7746 242.731 65.1935C242.731 65.3708 242.376 65.4299 242.376 65.2526C242.139 63.7746 242.258 62.3558 242.554 60.8779C242.613 60.5823 243.145 60.7005 243.086 61.0552Z" fill="#9F7D47"/>
<path d="M238.825 61.5874C238.825 62.4939 238.608 63.3215 238.174 64.0704C238.056 64.3068 237.76 64.1295 237.819 63.893C238.214 63.1836 238.391 62.4151 238.352 61.5874C238.352 61.2918 238.825 61.2918 238.825 61.5874Z" fill="#9F7D47"/>
<path d="M241.607 87.1849C243.382 98.8902 247.11 109.65 251.075 120.764C251.134 120.882 250.839 121 250.779 120.882C245.631 110.536 242.909 98.6537 241.252 87.244C241.252 87.0667 241.548 86.9484 241.607 87.1849Z" fill="#9F7D47"/>
<path d="M245.512 118.045C247.051 121.473 248.708 124.961 250.069 128.508C250.128 128.627 249.891 128.745 249.832 128.627C248.175 125.198 246.755 121.651 245.276 118.163C245.216 117.985 245.453 117.867 245.512 118.045Z" fill="#9F7D47"/>
<path d="M244.388 121.414C247.169 125.848 249.418 130.696 250.365 135.839C250.424 136.076 250.069 136.194 249.951 135.957C248.53 130.873 246.755 126.144 244.033 121.651C243.855 121.414 244.27 121.178 244.388 121.414Z" fill="#9F7D47"/>
<path d="M244.211 127.326C246.282 131.464 248.412 135.661 250.365 139.918C250.424 140.095 250.188 140.214 250.128 140.036C247.939 135.957 245.927 131.701 243.915 127.503C243.797 127.267 244.092 127.089 244.211 127.326Z" fill="#9F7D47"/>
<path d="M242.376 127.681C244.565 133.179 247.11 138.499 249.714 143.879C249.773 144.056 249.536 144.234 249.418 144.056C246.577 138.795 244.151 133.297 241.962 127.74C241.903 127.503 242.317 127.385 242.376 127.681Z" fill="#9F7D47"/>
<path d="M239.832 128.213C242.968 137.553 246.933 146.48 251.194 155.348C251.312 155.584 251.016 155.762 250.898 155.525C245.986 146.953 242.376 137.731 239.417 128.331C239.299 128.035 239.713 127.917 239.832 128.213Z" fill="#9F7D47"/>
<path d="M241.016 139.386C244.389 148.845 251.845 158.185 249.774 168.767C249.714 169.004 249.359 168.945 249.419 168.767C250.484 157.949 243.915 149.318 240.542 139.504C240.483 139.268 240.897 139.15 241.016 139.386Z" fill="#9F7D47"/>
<path d="M247.998 165.93C248.59 169.654 248.886 173.497 248.412 177.221C248.353 177.458 247.998 177.458 247.998 177.221C248.116 173.438 248.176 169.832 247.584 166.048C247.584 165.812 247.939 165.693 247.998 165.93Z" fill="#9F7D47"/>
<path d="M231.31 122.301C229.061 133.415 228.055 144.47 227.937 155.762C227.937 155.998 227.641 155.998 227.641 155.762C227.227 144.529 228.529 133.179 231.073 122.242C231.132 122.124 231.369 122.183 231.31 122.301Z" fill="#9F7D47"/>
<path d="M232.612 127.385C230.304 140.568 230.837 153.693 230.304 166.935C230.304 167.171 230.067 167.171 230.008 166.935C229.298 153.811 229.771 140.214 232.257 127.267C232.316 127.09 232.671 127.149 232.612 127.385Z" fill="#9F7D47"/>
<path d="M235.038 134.007C233.677 145.771 233.381 157.535 232.494 169.359C232.435 169.595 232.139 169.595 232.079 169.359C231.843 157.594 233.263 145.653 234.742 134.007C234.742 133.829 235.097 133.829 235.038 134.007Z" fill="#9F7D47"/>
<path d="M237.227 143.997C236.991 149.85 236.695 155.643 236.221 161.496C236.221 161.614 235.985 161.614 235.985 161.496C236.103 155.643 236.458 149.85 236.754 143.997C236.813 143.701 237.287 143.701 237.227 143.997Z" fill="#9F7D47"/>
<path d="M239.713 150.323C239.832 153.397 239.773 156.353 239.358 159.368C239.358 159.545 239.062 159.545 239.062 159.368C239.299 156.353 239.417 153.338 239.299 150.323C239.299 150.086 239.654 150.086 239.713 150.323Z" fill="#9F7D47"/>
<path d="M241.725 160.905C241.725 161.496 241.725 162.107 241.725 162.737C241.725 162.856 241.548 162.856 241.548 162.737C241.508 162.107 241.489 161.496 241.489 160.905C241.489 160.727 241.725 160.727 241.725 160.905Z" fill="#9F7D47"/>
<path d="M230.837 174.739C232.553 181.951 235.63 188.276 239.477 194.543C239.536 194.661 239.358 194.779 239.24 194.661C234.861 188.868 232.139 181.892 230.482 174.857C230.423 174.62 230.778 174.502 230.837 174.739Z" fill="#9F7D47"/>
<path d="M235.867 181.064C237.05 184.315 238.707 187.271 240.187 190.464C240.305 190.641 240.009 190.759 239.891 190.582C237.997 187.744 236.636 184.374 235.453 181.123C235.393 180.887 235.748 180.827 235.867 181.064Z" fill="#9F7D47"/>
<path d="M240.542 183.783C241.015 184.768 241.508 185.773 242.021 186.798C242.08 186.916 241.903 187.035 241.844 186.916C241.331 185.931 240.798 184.946 240.246 183.961C240.187 183.783 240.423 183.606 240.542 183.783Z" fill="#9F7D47"/>
<path d="M242.613 181.714C242.81 182.227 242.988 182.739 243.145 183.251C243.205 183.31 243.086 183.37 243.027 183.31C242.83 182.798 242.613 182.286 242.376 181.773C242.317 181.655 242.554 181.537 242.613 181.714Z" fill="#9F7D47"/>
<path d="M243.382 177.044C244.033 178.167 244.802 179.527 244.862 180.828C244.921 181.005 244.625 181.064 244.507 180.887C244.27 180.355 244.152 179.763 243.915 179.231C243.639 178.561 243.303 177.931 242.909 177.34C242.731 177.044 243.205 176.808 243.382 177.044Z" fill="#9F7D47"/>
<path d="M246.341 174.975C246.873 175.684 247.347 176.571 247.465 177.458C247.524 177.694 247.288 177.753 247.169 177.576C246.814 176.689 246.518 175.921 245.986 175.211C245.808 174.975 246.163 174.738 246.341 174.975Z" fill="#9F7D47"/>
<path d="M225.038 164.807C225.393 170.364 226.221 175.862 227.523 181.3C228.825 186.384 230.837 191.173 232.612 196.08C232.731 196.434 232.257 196.612 232.08 196.316C226.872 186.917 224.86 175.448 224.565 164.807C224.565 164.511 225.038 164.511 225.038 164.807Z" fill="#9F7D47"/>
<path d="M223.558 170.541C223.972 178.049 225.629 185.143 227.878 192.237C227.996 192.474 227.641 192.533 227.582 192.356C224.682 185.439 223.44 177.99 223.203 170.541C223.203 170.305 223.558 170.305 223.558 170.541Z" fill="#9F7D47"/>
<path d="M223.144 183.251C223.38 185.853 223.913 188.454 224.505 191.055C224.564 191.232 224.268 191.351 224.209 191.114C223.44 188.572 223.025 185.912 222.789 183.251C222.73 183.015 223.085 183.015 223.144 183.251Z" fill="#9F7D47"/>
<path d="M220.658 158.245C217.759 167.29 217.463 176.216 217.995 185.616C217.995 185.793 217.759 185.853 217.759 185.675C215.924 176.571 217.345 166.817 220.303 158.126C220.363 157.949 220.718 158.008 220.658 158.245Z" fill="#9F7D47"/>
<path d="M216.398 162.205C215.332 167.171 214.977 172.137 214.563 177.221C214.504 177.458 214.149 177.458 214.149 177.221C214.031 172.137 214.859 166.994 215.924 162.087C216.043 161.792 216.457 161.91 216.398 162.205Z" fill="#9F7D47"/>
<path d="M213.735 161.26C213.025 163.861 212.493 166.58 211.546 169.063C211.427 169.3 211.131 169.24 211.191 169.004C211.664 166.344 212.611 163.743 213.38 161.141C213.439 160.905 213.854 161.023 213.735 161.26Z" fill="#9F7D47"/>
<path d="M213.203 154.934C212.374 157.003 211.842 159.131 211.25 161.26C211.191 161.437 210.895 161.378 210.954 161.141C211.309 159.013 212.078 156.885 212.848 154.875C212.907 154.638 213.262 154.757 213.203 154.934Z" fill="#9F7D47"/>
<path d="M213.084 151.091C212.078 152.215 211.545 153.456 211.25 154.875C211.25 155.052 211.013 154.993 211.013 154.875C211.131 153.397 211.841 151.978 212.847 150.855C212.966 150.677 213.202 150.914 213.084 151.091Z" fill="#9F7D47"/>
<path d="M211.664 146.244C211.19 147.13 210.776 148.017 210.243 148.845C210.184 148.963 210.007 148.904 210.066 148.727C210.48 147.84 210.953 146.953 211.368 146.066C211.486 145.889 211.723 146.066 211.664 146.244Z" fill="#9F7D47"/>
<path d="M221.724 115.976C218.706 122.892 216.576 130.105 214.682 137.435C214.623 137.613 214.386 137.554 214.386 137.317C215.747 129.868 218.292 122.656 221.369 115.739C221.487 115.562 221.842 115.739 221.724 115.976Z" fill="#9F7D47"/>
<path d="M240.127 73.1741C237.642 79.4406 235.807 85.8844 233.914 92.3874C233.795 92.683 233.44 92.5647 233.499 92.2691C234.861 85.7071 237.168 79.2632 239.772 73.0559C239.89 72.8785 240.246 72.9376 240.127 73.1741Z" fill="#9F7D47"/>
<path d="M236.577 76.071C233.677 83.4016 231.606 91.0277 230.186 98.7722C230.127 98.9495 229.89 98.8904 229.89 98.713C231.014 90.8504 233.145 83.2833 236.222 75.9527C236.281 75.7754 236.636 75.8345 236.577 76.071Z" fill="#9F7D47"/>
<path d="M230.955 84.584C228.825 90.6731 227.464 96.9396 226.339 103.265C226.339 103.443 225.984 103.443 226.044 103.265C226.694 96.8214 228.411 90.5549 230.6 84.4658C230.718 84.2884 231.014 84.3476 230.955 84.584Z" fill="#9F7D47"/>
<path d="M226.221 91.7963C224.683 96.8804 223.618 102.024 222.375 107.226C222.375 107.403 222.079 107.344 222.079 107.108C222.789 101.905 224.328 96.7031 225.925 91.6781C225.985 91.5007 226.281 91.5598 226.221 91.7963Z" fill="#9F7D47"/>
<path d="M221.783 96.6441C220.836 100.132 220.481 103.561 220.363 107.167C220.363 107.344 220.126 107.344 220.126 107.167C219.949 103.561 220.54 99.9547 221.487 96.5259C221.546 96.3485 221.842 96.4076 221.783 96.6441Z" fill="#9F7D47"/>
<path d="M245.808 67.0852C244.861 71.0461 243.915 75.007 242.554 78.7905C242.494 78.9679 242.198 78.9088 242.258 78.7314C243.323 74.8296 244.566 70.9279 245.512 67.0261C245.572 66.7896 245.808 66.9079 245.808 67.0852Z" fill="#9F7D47"/>
<path d="M248.294 67.6172C246.814 72.524 245.394 77.549 243.678 82.3966C243.619 82.5149 243.5 82.4557 243.5 82.3375C244.802 77.3716 246.459 72.4649 247.998 67.5581C248.057 67.3216 248.353 67.4398 248.294 67.6172Z" fill="#9F7D47"/>
<path d="M249.004 72.8195C247.879 76.9578 246.696 81.1551 245.098 85.1751C245.039 85.3525 244.743 85.2933 244.802 85.0569C246.045 80.9186 247.465 76.8395 248.649 72.7013C248.767 72.4648 249.063 72.583 249.004 72.8195Z" fill="#9F7D47"/>
<path d="M247.229 84.3473C246.4 85.9435 245.927 87.5988 245.631 89.3723C245.631 89.5497 245.335 89.4906 245.394 89.3723C245.453 87.5397 246.045 85.7662 246.933 84.1109C247.051 83.9335 247.347 84.1109 247.229 84.3473Z" fill="#9F7D47"/>
<path d="M246.873 96.6439C246.637 96.9592 246.42 97.2548 246.223 97.5307C246.104 97.6489 245.927 97.5307 245.986 97.4124C246.183 97.0971 246.38 96.7818 246.578 96.4665C246.696 96.3483 246.992 96.4665 246.873 96.6439Z" fill="#9F7D47"/>
<path d="M248.767 99.7181C248.471 100.368 248.471 101.019 248.471 101.728C248.471 101.965 248.175 102.024 248.057 101.787C247.82 101.019 248.057 100.191 248.353 99.4817C248.471 99.1861 248.885 99.4225 248.767 99.7181Z" fill="#9F7D47"/>
<path d="M225.156 143.524C224.446 144.825 223.38 146.007 222.374 147.131C222.256 147.249 222.019 147.071 222.138 146.953C222.966 145.653 223.795 144.352 224.919 143.288C225.037 143.111 225.274 143.288 225.156 143.524Z" fill="#9F7D47"/>
<path d="M225.333 139.15C224.209 140.568 223.203 142.046 222.079 143.465C222.02 143.524 221.842 143.465 221.901 143.347C222.907 141.869 224.032 140.45 225.097 139.031C225.215 138.913 225.393 139.031 225.333 139.15Z" fill="#9F7D47"/>
<path d="M228.233 133.888C225.274 136.962 222.493 139.8 220.303 143.465C220.185 143.702 219.83 143.524 219.948 143.288C221.664 139.563 224.446 135.78 227.878 133.533C228.174 133.356 228.41 133.711 228.233 133.888Z" fill="#9F7D47"/>
<path d="M226.28 129.868C223.952 132.351 221.98 135.09 220.362 138.085C220.303 138.204 220.067 138.085 220.126 137.908C221.783 134.913 223.755 132.174 226.043 129.691C226.221 129.513 226.398 129.75 226.28 129.868Z" fill="#9F7D47"/>
<path d="M227.523 123.956C224.801 126.025 223.203 128.627 221.724 131.642C221.664 131.819 221.369 131.701 221.428 131.523C222.375 128.39 224.742 125.612 227.345 123.602C227.523 123.483 227.76 123.838 227.523 123.956Z" fill="#9F7D47"/>
<path d="M229.357 116.33C226.339 119.404 223.736 122.774 221.25 126.262C221.132 126.439 220.836 126.262 220.954 126.144C223.262 122.478 226.043 119.168 229.061 116.034C229.239 115.857 229.535 116.153 229.357 116.33Z" fill="#9F7D47"/>
<path d="M232.079 108.527C227.168 114.084 223.203 120.173 219.357 126.558C219.297 126.676 219.12 126.558 219.179 126.439C222.434 119.818 226.931 113.788 231.843 108.29C232.02 108.113 232.257 108.349 232.079 108.527Z" fill="#9F7D47"/>
<path d="M230.896 107.935C227.049 111.482 223.676 115.384 220.185 119.286C220.067 119.345 219.83 119.227 219.948 119.109C223.085 114.97 226.872 111.246 230.718 107.699C230.837 107.581 231.014 107.817 230.896 107.935Z" fill="#9F7D47"/>
<path d="M232.02 102.91C230.245 103.561 229.002 105.216 227.819 106.516C226.576 107.817 225.333 109.177 224.031 110.418C223.795 110.596 223.558 110.3 223.736 110.123C225.156 108.408 226.754 106.93 228.292 105.334C229.416 104.27 230.363 103.088 231.902 102.615C232.139 102.496 232.198 102.851 232.02 102.91Z" fill="#9F7D47"/>
<path d="M239.595 85.7071C240.246 90.8503 241.015 95.9344 241.489 101.137C241.548 101.314 241.252 101.314 241.193 101.137C240.364 96.0526 239.772 90.9094 239.122 85.7662C239.122 85.5297 239.536 85.4706 239.595 85.7071Z" fill="#9F7D47"/>
<path d="M237.997 91.7964C238.529 96.7623 239.713 101.492 241.133 106.221C241.192 106.339 241.015 106.398 240.956 106.28C239.062 101.669 238.115 96.7623 237.642 91.7964C237.583 91.5599 237.997 91.5599 237.997 91.7964Z" fill="#9F7D47"/>
<path d="M236.636 102.556C238.116 105.039 239.358 107.699 240.127 110.477C240.187 110.596 240.009 110.655 239.95 110.537C238.944 107.817 237.82 105.216 236.399 102.674C236.281 102.556 236.518 102.378 236.636 102.556Z" fill="#9F7D47"/>
<path d="M234.683 103.856C236.222 107.522 237.938 111.069 239.654 114.616C239.713 114.793 239.536 114.911 239.417 114.734C237.465 111.305 235.926 107.581 234.387 103.915C234.328 103.738 234.624 103.679 234.683 103.856Z" fill="#9F7D47"/>
<path d="M233.854 109.236C235.511 112.133 237.228 114.97 238.766 117.926C238.825 118.104 238.648 118.222 238.529 118.104C236.754 115.266 235.216 112.31 233.559 109.413C233.44 109.177 233.736 109.059 233.854 109.236Z" fill="#9F7D47"/>
<path d="M232.967 112.547C234.506 115.325 236.163 118.104 237.583 120.941C237.701 121.119 237.464 121.237 237.346 121.06C235.689 118.34 234.21 115.503 232.671 112.724C232.553 112.488 232.849 112.369 232.967 112.547Z" fill="#9F7D47"/>
<path d="M233.322 116.744C234.328 118.754 235.334 120.764 236.281 122.774C236.34 122.892 236.222 123.01 236.163 122.892C235.097 120.882 234.151 118.872 233.145 116.862C233.085 116.685 233.263 116.567 233.322 116.744Z" fill="#9F7D47"/>
<path d="M53.4862 73.1741C63.0727 78.4947 73.0735 82.2782 83.3701 86.0618C83.5476 86.1209 83.4885 86.3574 83.3109 86.3574C72.8368 83.6971 62.6585 78.7903 53.3087 73.4697C53.072 73.3515 53.2495 73.0559 53.4862 73.1741Z" fill="#9F7D47"/>
<path d="M54.2554 71.5188C61.534 74.12 68.8127 76.5438 76.0322 79.3815C76.2097 79.4406 76.1505 79.7362 75.9138 79.6771C68.6351 77.2532 61.4157 74.5338 54.137 71.9326C53.9003 71.8144 54.0187 71.4006 54.2554 71.5188Z" fill="#9F7D47"/>
<path d="M51.0599 66.4938C54.9064 68.2673 58.812 69.627 62.7768 71.0459C63.0135 71.105 62.9543 71.4597 62.7176 71.4006C58.6345 70.2773 54.6697 68.6812 50.8232 66.9076C50.5274 66.7894 50.7641 66.3756 51.0599 66.4938Z" fill="#9F7D47"/>
<path d="M44.9645 60.9367C50.7046 63.7744 56.6814 65.8435 62.7765 67.7944C63.0132 67.9126 62.8948 68.3265 62.6581 68.2673C56.3855 66.8485 50.4087 64.2473 44.7278 61.2915C44.4911 61.1732 44.6686 60.7594 44.9645 60.9367Z" fill="#9F7D47"/>
<path d="M43.4856 56.8577C48.7522 59.4589 54.1373 61.1733 59.759 62.4739C59.9957 62.533 59.9365 62.8878 59.6998 62.8286C53.9597 61.8236 48.4564 59.8727 43.308 57.2716C43.0122 57.0942 43.2489 56.7395 43.4856 56.8577Z" fill="#9F7D47"/>
<path d="M40.4673 53.4289C42.7752 54.2565 45.1422 55.025 47.3909 55.9709C47.5684 56.03 47.5093 56.3847 47.2726 56.3256C44.9647 55.5571 42.6568 54.6703 40.349 53.8427C40.1123 53.7244 40.1714 53.3106 40.4673 53.4289Z" fill="#9F7D47"/>
<path d="M72.8962 61.528C76.5059 73.056 85.264 81.0369 93.4303 89.4907C93.6078 89.668 93.3711 89.9045 93.1936 89.7272C84.4947 82.0419 75.9734 72.9377 72.4228 61.6463C72.3045 61.3507 72.7779 61.2324 72.8962 61.528Z" fill="#9F7D47"/>
<path d="M81.2401 71.8144C85.3232 77.608 89.8798 83.0468 94.5547 88.3674C94.673 88.4265 94.4955 88.5447 94.4363 88.4856C89.5247 83.3424 85.0865 77.7853 80.9442 71.9918C80.8258 71.8144 81.1217 71.6371 81.2401 71.8144Z" fill="#9F7D47"/>
<path d="M86.8027 73.2333C89.8206 77.4307 93.0162 81.5689 95.8566 85.9436C95.975 86.121 95.6791 86.2983 95.5607 86.1801C92.3652 82.0419 89.4656 77.6672 86.3884 73.4698C86.2701 73.2333 86.6251 72.9969 86.8027 73.2333Z" fill="#9F7D47"/>
<path d="M95.5014 79.9136C96.3298 81.2142 97.395 82.3966 98.5193 83.4607C98.6377 83.5198 98.5193 83.7563 98.401 83.638C97.0399 82.6922 95.9748 81.5689 95.0871 80.1501C94.9096 79.9136 95.3238 79.6772 95.5014 79.9136Z" fill="#9F7D47"/>
<path d="M9.22252 74.0608C14.6075 74.2973 19.7559 73.647 24.9042 72.2873C25.1409 72.2281 25.2 72.5828 25.0225 72.642C19.9334 74.2381 14.6075 74.7111 9.22252 74.4155C8.98582 74.4155 8.98582 74.0608 9.22252 74.0608Z" fill="#9F7D47"/>
<path d="M1.94379 70.9867C8.51233 71.8144 14.785 71.4006 21.2352 70.3365C21.531 70.2773 21.6494 70.6912 21.3535 70.7503C15.0217 72.3465 8.33478 72.2873 1.88459 71.4006C1.64789 71.3415 1.70708 70.9276 1.94379 70.9867Z" fill="#9F7D47"/>
<path d="M1.4701 67.0851C7.21017 68.2674 12.7727 68.3265 18.6312 68.1492C18.8087 68.1492 18.8087 68.3856 18.6903 68.4448C12.8911 69.3315 6.9735 68.7995 1.35178 67.558C1.0559 67.4989 1.17422 67.0259 1.4701 67.0851Z" fill="#9F7D47"/>
<path d="M7.21095 64.4246C9.63717 64.8975 12.0634 65.3114 14.4304 65.9025C14.6671 65.9616 14.5488 66.3163 14.3713 66.2572C11.8859 65.9025 9.45965 65.3705 7.09261 64.8384C6.79673 64.7793 6.91507 64.3655 7.21095 64.4246Z" fill="#9F7D47"/>
<path d="M7.50658 61.3506C8.39422 61.6462 9.40022 61.8827 10.2287 62.2965C10.4654 62.4147 10.2879 62.6512 10.1103 62.6512C9.16353 62.4147 8.27588 62.06 7.38824 61.7644C7.15154 61.6462 7.2107 61.2324 7.50658 61.3506Z" fill="#9F7D47"/>
<path d="M7.56547 54.7886C11.6486 56.6804 15.8501 58.513 19.9333 60.523C20.1108 60.6413 19.9333 60.9369 19.6966 60.8777C15.5542 59.0451 11.4711 57.0351 7.32877 55.0842C7.09206 54.966 7.32876 54.6704 7.56547 54.7886Z" fill="#9F7D47"/>
<path d="M10.6426 52.5421C15.14 55.3798 19.7557 58.0992 24.1939 61.0551C24.3714 61.1733 24.1939 61.4689 24.0164 61.3506C19.4598 58.6312 14.9625 55.7345 10.4059 52.8968C10.2284 52.7786 10.4059 52.4239 10.6426 52.5421Z" fill="#9F7D47"/>
<path d="M14.4295 50.8867C20.2879 55.0841 26.028 59.6361 30.9988 64.8976C31.1172 65.0158 30.9396 65.1932 30.8213 65.0749C25.4363 60.2273 20.1104 55.4979 14.252 51.2414C14.0153 51.1232 14.252 50.7685 14.4295 50.8867Z" fill="#9F7D47"/>
<path d="M16.8563 49.7636C22.4189 53.1924 27.6855 57.0942 32.3604 61.7645C32.4788 61.8827 32.2421 62.1192 32.1237 61.9418C27.2713 57.5671 22.2413 53.488 16.6788 50.0592C16.4421 49.941 16.6196 49.6454 16.8563 49.7636Z" fill="#9F7D47"/>
<path d="M20.466 46.1576C27.3304 51.7147 33.8398 57.7447 39.639 64.425C39.8166 64.6023 39.5799 64.8979 39.4023 64.7205C33.1888 58.395 26.9162 52.1876 20.1701 46.4532C19.9926 46.2758 20.2885 45.9802 20.466 46.1576Z" fill="#9F7D47"/>
<path d="M24.3127 47.399C30.7629 52.2466 36.7396 57.8037 41.7104 64.1884C41.7696 64.3066 41.6513 64.4249 41.5921 64.3066C36.2071 58.2766 30.5853 52.6013 24.1352 47.6946C23.9576 47.5763 24.1352 47.2216 24.3127 47.399Z" fill="#9F7D47"/>
<path d="M36.4433 72.3467C47.3317 76.7214 58.3384 80.9779 69.1084 85.7073C69.1676 85.7664 69.1084 85.8847 69.0492 85.8255C58.0425 81.7464 47.2725 77.0761 36.3841 72.6423C36.2066 72.5832 36.2657 72.2285 36.4433 72.3467Z" fill="#9F7D47"/>
<path d="M41.8877 76.9577C49.5214 80.5639 57.5102 83.4606 65.0256 87.2441C65.1439 87.3033 65.0256 87.4806 64.9072 87.4215C56.9776 84.8203 49.2847 80.8594 41.7102 77.2533C41.5327 77.1941 41.7102 76.8394 41.8877 76.9577Z" fill="#9F7D47"/>
<path d="M45.5567 82.2783C50.4091 84.2292 55.3799 86.0028 60.1731 88.1901C60.4098 88.3083 60.2323 88.7222 59.9956 88.6039C55.0248 86.8895 50.2316 84.7022 45.4383 82.6922C45.1424 82.5739 45.2608 82.1601 45.5567 82.2783Z" fill="#9F7D47"/>
<path d="M45.8526 85.2931C49.2848 86.4755 52.6578 87.8352 55.8533 89.5496C56.0309 89.6678 55.8534 89.9043 55.6758 89.8452C52.4211 88.3672 49.1073 86.8893 45.7342 85.7069C45.4384 85.5887 45.5567 85.1749 45.8526 85.2931Z" fill="#9F7D47"/>
<path d="M41.3546 86.4757C44.5501 88.0128 47.864 89.4907 51.0003 91.0869C51.1778 91.2051 51.0003 91.4416 50.8228 91.3825C47.5681 89.9636 44.3726 88.3675 41.1771 86.8304C40.9404 86.7122 41.1771 86.3575 41.3546 86.4757Z" fill="#9F7D47"/>
<path d="M37.9821 89.2542C40.1124 90.5548 42.3019 91.5007 44.6098 92.3283C44.7282 92.3283 44.669 92.5057 44.5506 92.5057C42.1836 91.8554 39.9349 90.7913 37.8637 89.4907C37.7454 89.4316 37.8637 89.136 37.9821 89.2542Z" fill="#9F7D47"/>
<path d="M35.615 91.9146C36.8577 92.5649 38.1004 93.2152 39.2839 93.9837C39.4614 94.102 39.2839 94.3975 39.1064 94.2793C37.8637 93.6881 36.6801 92.9196 35.4374 92.2102C35.2599 92.092 35.4374 91.7372 35.615 91.9146Z" fill="#9F7D47"/>
<path d="M11.945 79.8545C16.5608 80.2092 21.1173 79.6181 25.5555 78.3766C25.6739 78.3766 25.733 78.5539 25.6147 78.6131C21.1173 80.1501 16.6791 80.6231 11.945 80.2684C11.7083 80.2684 11.7083 79.8545 11.945 79.8545Z" fill="#9F7D47"/>
<path d="M12.5962 82.5147C15.555 82.4556 18.3363 82.0418 21.2951 81.628C21.5318 81.5688 21.6502 81.9235 21.4135 81.9827C18.573 82.7512 15.4959 82.9286 12.5962 82.9286C12.3003 82.9877 12.3003 82.5147 12.5962 82.5147Z" fill="#9F7D47"/>
<path d="M14.6666 85.2342C18.9865 85.1751 23.0105 84.2883 27.0344 82.9286C27.212 82.8695 27.3303 83.1059 27.1528 83.1651C23.188 84.9386 18.9865 85.648 14.6666 85.7071C14.3708 85.7071 14.3708 85.2342 14.6666 85.2342Z" fill="#9F7D47"/>
<path d="M18.3354 86.6529C21.4717 86.3573 24.4897 85.7661 27.626 85.234C27.9219 85.1749 28.0403 85.5887 27.7444 85.6479C24.7264 86.5346 21.4717 86.8893 18.3354 87.1849C17.9803 87.1849 17.9803 86.712 18.3354 86.6529Z" fill="#9F7D47"/>
<path d="M21.9456 90.673C24.9044 90.2592 27.804 89.5498 30.7036 88.663C30.8812 88.6039 30.9403 88.8995 30.7628 88.9586C27.9224 90.0228 24.9636 90.673 21.9456 91.0278C21.7089 91.0869 21.7089 90.673 21.9456 90.673Z" fill="#9F7D47"/>
<path d="M22.5369 92.8602C26.0875 92.5055 29.5788 91.9143 33.1294 91.5005C33.3069 91.5005 33.3661 91.7961 33.1294 91.8552C29.6972 92.6237 26.0875 92.9784 22.5369 93.274C22.241 93.3331 22.241 92.8602 22.5369 92.8602Z" fill="#9F7D47"/>
<path d="M29.4606 94.9296C30.4468 94.7325 31.4528 94.5354 32.4786 94.3384C32.6561 94.3384 32.7744 94.634 32.5377 94.634C31.5515 94.8704 30.5652 95.0872 29.5789 95.2843C29.2831 95.3434 29.2239 94.9887 29.4606 94.9296Z" fill="#9F7D47"/>
<path d="M37.3314 101.373C44.9059 101.728 51.9478 100.309 59.049 97.8854C59.2265 97.8263 59.3448 98.1219 59.1673 98.2401C52.3621 101.137 44.7284 102.142 37.3314 101.787C37.0947 101.787 37.0947 101.314 37.3314 101.373Z" fill="#9F7D47"/>
<path d="M49.7582 103.383C56.0308 102.91 61.475 100.782 66.8009 97.5896C67.0967 97.4123 67.3334 97.8261 67.0967 98.0035C62.0668 101.61 55.8533 103.383 49.7582 103.797C49.4623 103.856 49.4623 103.383 49.7582 103.383Z" fill="#9F7D47"/>
<path d="M55.1432 104.506C61.7709 103.147 67.6886 100.309 73.3103 96.5846C73.4286 96.4664 73.547 96.6438 73.4286 96.762C68.162 100.959 61.8301 103.561 55.2024 104.92C54.9657 104.979 54.9065 104.566 55.1432 104.506Z" fill="#9F7D47"/>
<path d="M63.6051 103.975C68.5167 102.26 72.3631 99.5998 76.3871 96.3483C76.683 96.171 77.038 96.5257 76.8013 96.7622C73.3099 100.427 68.4575 102.851 63.7234 104.447C63.4275 104.507 63.3092 104.093 63.6051 103.975Z" fill="#9F7D47"/>
<path d="M67.5113 105.452C72.8963 103.62 77.0978 100.486 81.0034 96.4074C81.1809 96.23 81.4768 96.5256 81.2993 96.7621C77.8079 101.078 72.8371 104.093 67.6296 105.807C67.3929 105.925 67.2746 105.511 67.5113 105.452Z" fill="#9F7D47"/>
<path d="M78.9912 103.265C82.3051 102.023 84.3762 99.777 86.2107 96.8211C86.329 96.7028 86.6249 96.762 86.5657 96.9984C85.2639 100.132 82.1867 102.496 79.0504 103.62C78.8729 103.679 78.7545 103.324 78.9912 103.265Z" fill="#9F7D47"/>
<path d="M87.1573 100.487C88.3408 99.3634 89.5244 98.181 90.7671 97.1169C90.8854 96.9987 91.1221 97.176 91.0038 97.3534C89.8202 98.5357 88.5775 99.5998 87.394 100.723C87.2165 100.9 86.9798 100.605 87.1573 100.487Z" fill="#9F7D47"/>
<path d="M94.0217 98.0035C94.7319 96.9394 95.3828 95.757 96.2113 94.6929C96.3296 94.5747 96.5663 94.752 96.448 94.8703C95.8562 96.0526 95.0277 97.1167 94.3176 98.1809C94.1993 98.3582 93.9034 98.1809 94.0217 98.0035Z" fill="#9F7D47"/>
<path d="M59.6998 47.458C61.3567 49.2315 63.0137 51.3598 63.8421 53.6653C63.9013 53.9018 63.6054 54.0201 63.4871 53.8427C62.126 51.7736 61.0017 49.6453 59.3447 47.8127C59.108 47.5762 59.4631 47.2215 59.6998 47.458Z" fill="#9F7D47"/>
<path d="M54.2555 45.9209C58.102 49.3497 61.2975 53.4288 63.2503 58.1583C63.3687 58.3947 63.0136 58.513 62.9544 58.3356C60.6466 53.7244 57.8061 49.6453 53.9597 46.2165C53.7821 46.0391 54.078 45.7435 54.2555 45.9209Z" fill="#9F7D47"/>
<path d="M50.5273 45.7436C52.3025 48.2265 54.3145 50.2956 56.3857 52.483C56.5632 52.7194 56.2673 53.015 56.0898 52.8377C53.7819 50.8868 51.8883 48.4039 50.1722 45.98C50.0539 45.7436 50.4089 45.5662 50.5273 45.7436Z" fill="#9F7D47"/>
<path d="M48.3968 46.3939C49.5212 48.463 50.8822 50.4139 52.4208 52.2465C52.5392 52.3648 52.3616 52.5421 52.2433 52.4239C50.5863 50.7095 49.2253 48.6995 48.1009 46.5712C47.9826 46.3348 48.2785 46.1574 48.3968 46.3939Z" fill="#9F7D47"/>
<path d="M43.012 45.0933C44.6097 46.8669 46.385 48.5222 47.9236 50.4139C48.0419 50.5913 47.8644 50.7686 47.6869 50.6504C45.9708 48.9951 44.373 47.1033 42.7753 45.3298C42.5977 45.1524 42.8344 44.916 43.012 45.0933Z" fill="#9F7D47"/>
<path d="M38.4553 44.7976C40.0531 46.9259 41.9467 48.6994 43.8404 50.5912C43.9587 50.7094 43.7812 50.9459 43.6628 50.8276C41.5325 49.2314 39.7572 47.2214 38.1003 45.0932C37.9228 44.9159 38.2778 44.5611 38.4553 44.7976Z" fill="#9F7D47"/>
<path d="M34.1355 44.6206C35.97 47.1035 38.2187 49.1135 40.4674 51.1826C40.5857 51.3009 40.4674 51.4782 40.2899 51.4191C37.6861 49.7638 35.6149 47.2809 33.7805 44.7979C33.6621 44.6206 33.958 44.4432 34.1355 44.6206Z" fill="#9F7D47"/>
<path d="M29.2827 44.7977C32.1232 46.5713 35.0228 48.6404 37.2123 51.1233C37.449 51.3598 37.1531 51.7145 36.8573 51.478C34.3127 49.3498 31.8273 47.1033 29.1644 45.0342C28.9869 44.916 29.1052 44.6795 29.2827 44.7977Z" fill="#9F7D47"/>
<path d="M66.1499 50.0592C67.1559 51.6554 68.3395 53.1924 69.2271 54.8477C69.3454 55.0251 69.0496 55.1433 68.9312 55.0251C67.8069 53.488 66.86 51.8327 65.8541 50.2365C65.7357 50.0592 66.0316 49.8818 66.1499 50.0592Z" fill="#9F7D47"/>
<path d="M71.0618 51.537C72.8962 54.3747 74.4348 57.3897 75.2041 60.6412C75.2041 60.8185 75.0266 60.8776 74.9674 60.7003C73.7247 57.6262 72.482 54.6112 70.6475 51.7735C70.47 51.537 70.8843 51.3006 71.0618 51.537Z" fill="#9F7D47"/>
<path d="M75.914 55.7345C76.8017 57.449 77.8077 59.1634 78.577 60.9369C78.6361 61.1143 78.3994 61.2325 78.2811 61.0551C77.2159 59.459 76.3875 57.6854 75.4998 55.971C75.3815 55.7345 75.7365 55.4981 75.914 55.7345Z" fill="#9F7D47"/>
<path d="M79.5829 56.6804C80.8847 59.9909 82.4233 63.1833 84.0803 66.3165C84.1394 66.4939 83.9027 66.6121 83.7844 66.4348C81.8907 63.4198 80.4113 60.1683 79.1095 56.7986C78.9911 56.5621 79.4645 56.3848 79.5829 56.6804Z" fill="#9F7D47"/>
<path d="M84.7311 60.8184C86.8614 64.129 88.6367 67.617 89.4652 71.5187C89.5244 71.637 89.2877 71.6961 89.2285 71.5779C87.8674 67.9126 86.388 64.3655 84.2577 61.114C84.1394 60.8184 84.5536 60.582 84.7311 60.8184Z" fill="#9F7D47"/>
<path d="M91.8916 71.4598C92.6609 72.6422 93.1935 74.061 93.1343 75.4799C93.1343 75.6572 92.8384 75.7163 92.7793 75.539C92.6017 74.1201 92.3058 72.8787 91.5366 71.6372C91.4182 71.4598 91.7733 71.2234 91.8916 71.4598Z" fill="#9F7D47"/>
<path d="M95.2646 76.9576C95.2646 77.1547 95.2449 77.3715 95.2055 77.6079C95.2055 77.7853 94.9096 77.7853 94.9096 77.6079C94.8701 77.3715 94.8504 77.1547 94.8504 76.9576C94.8504 76.7212 95.2646 76.7212 95.2646 76.9576Z" fill="#9F7D47"/>
</svg>
