<svg version="1.2" xmlns="http://www.w3.org/2000/svg" viewBox="0 0 307 395" width="307" height="395">
	<title>illustration (1)</title>
	<style>
		.s0 { fill: #9f7d47 } 
	</style>
	<path fill-rule="evenodd" class="s0" d="m37.1 260.1q-0.7-0.4-1.2-0.8c-3.6-2.3-5.1-7.3-3.9-11.7 1.3-4.7 5.5-8.7 10.6-10.2 4.5-1.3 8.9-0.2 12.2 2.7 2.4 2.2 3.4 5 2.8 8.3-0.9 5.1-5.6 9.6-9.5 11.3-4 1.7-8 1.8-11 0.4zm13.8-20.5c-2.4-1.1-5.1-1.3-7.9-0.5-4.5 1.3-8.1 4.8-9.4 9-1 3.7 0.3 7.9 3.2 9.8 2.7 1.9 6.6 1.9 10.6 0.2 4.1-1.8 7.8-6.1 8.5-10.1q0.7-3.9-2.3-6.7-1.2-1-2.7-1.7z"/>
	<path fill-rule="evenodd" class="s0" d="m58 273.7c-1.1-0.6-2.2-1.3-3-2.4-0.8-0.9-1.4-2-1.9-3.5-1.4-4.4-0.6-10 2.1-14.1 2.1-3.3 5.3-5.2 8.8-5.7 2.8-0.3 5.3 0.9 7.2 3.3 3.2 4.2 3.6 11.1 2.1 14.9-1.5 3.7-4.4 6.7-7.7 7.9-2.5 0.9-5.3 0.6-7.6-0.4zm9.3-23.5q-1.4-0.6-3.2-0.4c-3.8 0.4-6.2 2.9-7.4 4.8-2.4 3.7-3.2 8.8-1.9 12.8 0.4 1.1 0.9 2.1 1.5 2.9 1.9 2.3 5.5 3.3 8.7 2.1 2.9-1 5.4-3.5 6.7-6.8 1.3-3.5 0.9-9.6-1.9-13.2q-1.1-1.5-2.5-2.2z"/>
	<path fill-rule="evenodd" class="s0" d="m72 246.8q-1.5-0.7-2.7-1.8c-2.2-1.8-3.5-4.4-3.6-6.9q-0.2-2.4 1-5.2c1.3-3.6 3.7-6.3 6.6-7.7 3.4-1.6 8.4-1.2 11.4 0.9 3.2 2.2 4.2 7.1 3.7 10.9-0.4 3.5-1.6 6.3-3.6 8.1-1.1 1.1-2.5 1.9-4.2 2.4-2.8 0.8-5.9 0.5-8.6-0.7zm10.6-19.9c-2.5-1.2-6.2-1.3-8.5-0.2-2.6 1.2-4.7 3.7-5.9 6.9q-1 2.4-0.9 4.3c0.2 2.2 1.3 4.3 3.1 5.9 2.6 2.2 6.4 3.1 9.8 2.1 1.3-0.4 2.5-1.1 3.4-2 2.2-2 2.9-5 3.1-7 0.4-3.3-0.4-7.6-3-9.4q-0.5-0.4-1.1-0.6z"/>
	<path class="s0" d="m56.5 246.2c-0.4-0.1-0.6-0.6-0.4-1 0.2-0.5 0.7-0.7 1-0.5 0.7 0.3 1.4 0.3 2.1 0.2 0.6-0.1 1.2-0.4 1.9-0.7 0.8-0.3 1.9-0.8 2.7-1.4 0.7-0.6 1.9-2.4 2.2-3.3 0.1-0.5 0.6-0.7 1.1-0.6 0.4 0.1 0.6 0.6 0.5 1-0.3 1.2-1.7 3.4-2.8 4.2-1 0.8-2.1 1.3-3 1.7-0.7 0.3-1.5 0.6-2.4 0.8-0.9 0.1-1.9 0-2.8-0.3q0 0-0.1-0.1z"/>
	<path class="s0" d="m46.7 238.1q-0.2 0-0.2-0.1c-1.6-1.5-3-3-3.6-4.9q-0.6-2.3 0.2-5.2c1.8-6 7.6-10.6 13.7-11 6.3-0.3 12.6 3.9 14.4 9.9 0.2 0.4-0.1 0.8-0.6 1-0.4 0.2-0.9-0.1-1-0.6-1.7-5.2-7.1-8.8-12.7-8.5-5.4 0.3-10.6 4.3-12.1 9.7q-0.7 2.4-0.2 4.1c0.4 1.6 1.6 2.9 3.1 4.3 0.3 0.3 0.3 0.9-0.1 1.2-0.2 0.3-0.6 0.3-0.9 0.1z"/>
	<path class="s0" d="m38.2 280.1c-1.8-0.8-4-2-5.4-4.1-1.4-1.9-1.8-4.6-1.5-7.5 0.7-4.3 2.1-7.2 5-9.6 0.4-0.3 0.9-0.3 1.2 0.1 0.3 0.4 0.2 0.9-0.1 1.2-2.5 2.1-3.8 4.6-4.3 8.5-0.4 2.5 0 4.8 1.1 6.4 1.2 1.8 3.1 2.9 4.8 3.5 1.2 0.6 2.5 1.1 3.8 1.1 0.7-0.1 1.5-0.3 2.4-0.7 4.6-1.9 7.7-5.9 8.1-10.1 0-0.4 0.5-0.8 0.9-0.8 0.4 0.1 0.8 0.5 0.8 1-0.4 4.7-4 9.3-9.1 11.4-0.7 0.4-1.8 0.8-2.9 0.9-1.8 0.1-3.3-0.6-4.7-1.2q0 0-0.1-0.1z"/>
	<path class="s0" d="m57.7 295.9c-2.7-1.2-4.9-3.5-5.9-6.4-1.5-4.2-0.5-9.4 2.6-13.4q1.4-1.9 3.5-3.5c0.3-0.3 0.9-0.3 1.2 0 0.3 0.5 0.2 1-0.1 1.3q-2 1.6-3.3 3.2c-2.7 3.6-3.6 8.1-2.3 11.8 1.4 4 5.6 6.7 9.4 6.2 3.3-0.5 6.2-3.1 7.5-6.7 1.1-2.6 1.2-5.4 0.6-7.8-0.8-2.6-2.4-4.9-4.5-6.3-0.5-0.2-0.6-0.7-0.3-1.1 0.1-0.4 0.8-0.5 1.1-0.3 2.6 1.5 4.5 4.2 5.3 7.2 0.8 2.8 0.6 6-0.6 9-1.6 4-5 7.1-8.8 7.7-1.9 0.3-3.7-0.1-5.4-0.9z"/>
	<path class="s0" d="m22.2 294.9q-1-0.5-1.8-0.9c-1.1-0.6-2.3-1.5-3.3-2.8q-1.5-2-1.7-5.3c-0.2-3.5 0.9-6.9 2.9-9.7 2.2-2.8 5.2-4.8 8.5-5.6 1.7-0.4 3.1-0.4 4.5 0 0.4 0.1 0.6 0.6 0.5 1.1-0.2 0.4-0.7 0.6-1.1 0.5-1-0.3-2.1-0.3-3.5 0-3 0.8-5.7 2.5-7.5 5-1.8 2.4-2.8 5.6-2.6 8.6q0.2 2.8 1.4 4.4c0.7 1 1.9 1.8 2.8 2.3 2.1 1.3 5.3 2.7 8.5 1.9 2.7-0.7 4.9-2.9 6.9-5.2 1.1-1.2 2.2-2.4 2.9-3.8 0.8-1.4 1-3 0.8-4.3-0.2-0.4 0.1-0.9 0.5-1 0.5-0.1 1 0.2 1 0.7 0.5 1.7 0.1 3.6-0.8 5.4-0.8 1.5-1.9 2.9-3.1 4.2-2.2 2.4-4.6 4.9-7.9 5.6-2.8 0.7-5.7-0.1-7.9-1.1z"/>
	<path class="s0" d="m38.6 307.5c-1.6-0.7-3.1-2-4.2-3.4-2-2.9-2.6-6.7-1.8-10.4 0.1-0.4 0.6-0.8 1.1-0.6 0.4 0.1 0.8 0.5 0.6 1-0.7 3.2-0.2 6.5 1.5 8.9 1.8 2.6 5 4.1 7.9 3.7 2-0.3 4-1.3 6.1-3.2 2.5-2.3 4.8-7 4.2-10.6-0.1-0.4 0.2-0.8 0.6-1 0.5 0 0.9 0.3 1 0.8 0.9 4.1-1.8 9.4-4.7 12-2.3 2.2-4.6 3.4-7 3.7-1.7 0.2-3.6-0.1-5.3-0.9z"/>
	<path class="s0" d="m55.3 320.5c-0.6-0.2-1.1-0.6-1.5-0.9-4.3-3.2-6.7-8.6-6.3-13.9 0-0.5 0.4-0.8 0.9-0.8 0.4 0.1 0.8 0.5 0.8 0.9-0.4 4.7 1.8 9.6 5.6 12.4 0.8 0.6 1.5 0.9 2.1 1q1.1 0.2 2.4-0.3c3.2-0.8 5.6-2.2 7.1-4 2.1-2.4 3-6 2.4-9.8-0.5-3.2-1.9-6.1-3.9-8.5-0.3-0.3-0.2-0.8 0.1-1.2 0.3-0.3 0.9-0.2 1.2 0.1 2.2 2.7 3.7 5.9 4.2 9.3 0.8 4.3-0.3 8.4-2.6 11.2-1.9 2.1-4.5 3.7-8 4.6-1 0.3-2 0.5-3.2 0.4q-0.7-0.2-1.3-0.5z"/>
	<path class="s0" d="m18.3 314.5c-1.5-0.7-2.8-1.6-3.6-2.6-1.6-1.8-2.4-4.2-2.3-7 0.1-5 3-10 7.5-12.4 0.3-0.2 0.8-0.1 1.1 0.3 0.2 0.4 0 1-0.3 1.2-4 2.1-6.5 6.5-6.6 11 0 2.3 0.6 4.4 1.8 5.8 0.8 0.9 2.1 1.7 3.7 2.4 2 0.9 3.8 1.2 5.4 0.8 1.4-0.2 2.9-1.1 4.5-2.8 1.6-1.7 3.8-4.6 4.1-8.1 0-0.4 0.5-0.8 0.9-0.8 0.6 0.1 0.9 0.5 0.8 1-0.4 4-2.8 7.2-4.7 9.1-1.8 1.9-3.5 3-5.4 3.3-1.8 0.4-3.9 0.1-6.2-0.9q-0.4-0.1-0.7-0.3z"/>
	<path class="s0" d="m36.4 319c-3-1.4-5.8-3.9-6.4-7.5-0.1-0.5 0.2-0.9 0.7-1 0.5-0.1 0.9 0.2 1 0.7 0.6 3.6 4.3 6 7.2 6.9q2.6 0.8 4.3 0.3c1.2-0.2 2.3-0.8 3.5-1.8q1.8-1.5 2-3c0-0.5 0.4-0.8 0.9-0.8 0.5 0 0.8 0.5 0.8 0.9-0.1 1.5-1 2.9-2.6 4.3-1.5 1.1-2.9 1.8-4.1 2.1-1.6 0.3-3.3 0.2-5.3-0.4q-1-0.2-2-0.7z"/>
	<path class="s0" d="m22.2 338.9c-2.8-1.3-4.9-4-6.7-8.3-0.6-1.6-1.2-3.5-0.9-5.5 0.2-2.5 1.8-4.7 3.2-6.3 1.3-1.7 2.7-3.3 4.7-3.8 0.5-0.1 1 0.2 1.1 0.6 0.1 0.5-0.2 1-0.7 1.1-1.5 0.3-2.7 1.6-3.8 3.1-1.5 2-2.7 3.6-2.9 5.5-0.2 1.6 0.4 3.2 1 4.7 1.6 4 3.6 6.5 6.1 7.6 2.4 0.9 5.3 0.4 7.9-1.1 2.1-1.4 3.9-3.6 5.1-6.5 0.7-1.5 1-2.8 1.1-3.9 0.2-2.2-0.5-4.7-2.2-7.4-0.3-0.4-0.1-0.9 0.3-1.2 0.3-0.2 0.9-0.1 1.1 0.3 1.9 3 2.8 5.9 2.5 8.5 0 1.3-0.4 2.7-1.2 4.3-1.4 3.2-3.4 5.8-5.8 7.4-2.9 1.8-6.6 2.3-9.4 1.1q-0.2-0.1-0.5-0.2z"/>
	<path class="s0" d="m51.7 282.5q-0.2-0.1-0.3-0.3c-1-1.1-2.5-1.9-3.9-2.2-0.5-0.1-0.8-0.5-0.8-1.1 0.1-0.4 0.6-0.7 1.1-0.6 1.9 0.3 3.7 1.3 5 2.9 0.2 0.4 0.2 0.9-0.2 1.2-0.2 0.2-0.6 0.2-0.9 0.1z"/>
	<path class="s0" d="m72.3 296.6q-0.2 0-0.3-0.1c-2-1-3.2-2.7-3.4-3.9-0.1-0.4 0.2-0.9 0.7-0.9 0.4-0.2 0.9 0.2 1 0.7 0.1 0.6 0.8 1.8 2.5 2.6 1.8 0.9 3.9 0.8 5.3 0.6q2.2-0.4 3.6-1.4 1.8-1.3 2.9-4.3c0.9-2.6 1-5.5 0.5-8.1q-0.6-2.9-2.2-4.6c-1.4-1.5-3.4-2.4-5.5-2.5-2-0.1-4.1 0.6-5.9 1.9-0.3 0.3-0.8 0.2-1.1-0.2-0.3-0.3-0.2-0.9 0.2-1.1 2-1.6 4.4-2.4 6.9-2.3 2.6 0.1 5 1.2 6.7 3.1q1.9 2 2.5 5.4c0.7 2.9 0.5 6.1-0.5 8.9-0.9 2.4-2 4.1-3.5 5.2q-1.7 1.3-4.3 1.6c-2.3 0.5-4.4 0.2-6.1-0.6z"/>
	<path class="s0" d="m75.8 267.1c-1.5-0.7-2.8-1.9-3.6-3.4-0.1-0.4 0-0.9 0.5-1.1 0.4-0.3 0.9-0.1 1.1 0.4 0.9 1.6 2.6 2.7 4.3 3 1.2 0.2 2.5-0.1 3.9-0.6 3.7-1.5 6.4-5.3 6.7-9.3 0.2-4-1.9-8-5.4-10-0.4-0.3-0.5-0.7-0.3-1.2 0.3-0.4 0.7-0.6 1.1-0.3 4 2.3 6.6 7 6.3 11.7-0.3 4.6-3.4 8.9-7.7 10.7q-2.6 1-4.8 0.7-1-0.1-2.1-0.6z"/>
	<path fill-rule="evenodd" class="s0" d="m96.9 275.7q-1.1-0.5-2.1-1.2c-3.7-2.6-7.4-8.2-6.9-12.7 0.4-4.1 4.8-8.2 8.5-9.3 3.8-1 8.1 0 11 2.8 0.9 0.8 1.8 1.9 2.7 3.5 1.7 2.8 3.4 7.2 2 11.3-1 3.2-4 5.8-7.5 6.6-2.5 0.5-5.2 0.1-7.7-1zm6.8-20.9c-2.2-1.1-4.6-1.3-6.9-0.7-3.1 1-6.8 4.5-7.2 7.8-0.4 3.8 2.9 8.9 6.1 11.2 2.6 1.8 5.7 2.5 8.5 1.9 2.9-0.6 5.4-2.7 6.3-5.4 1.2-3.6-0.3-7.3-1.9-9.9-0.8-1.4-1.6-2.5-2.3-3.2q-1.2-1.1-2.6-1.7z"/>
	<path class="s0" d="m90.2 242.7c-1.5-0.8-2.8-1.9-3.7-3.3-0.3-0.4-0.2-0.9 0.3-1.2 0.4-0.3 0.9-0.1 1.1 0.3 1.4 2.2 4.5 3.6 7.3 3.3 2.7-0.4 5.2-2.3 6.6-4.8 1.3-2.6 1.6-5.6 0.7-8.5q-0.7-1.9-1.7-3.1c-1.1-1.4-2.8-2.3-4.5-3.1-1.1-0.5-2.1-0.8-3.1-0.7-1 0.1-1.8 0.6-2.8 1.3-1.8 1.3-3.8 3.6-4 5.3 0 0.5-0.4 0.8-0.8 0.8-0.6 0-0.8-0.5-0.8-0.9 0.1-2.5 2.5-5 4.6-6.5 0.9-0.7 2.1-1.6 3.5-1.8 1.5-0.1 2.8 0.5 4.1 1 1.9 0.9 3.8 1.8 5.2 3.5q1.2 1.4 1.9 3.7c1 3.3 0.7 6.9-0.8 9.7-1.6 3.1-4.7 5.3-7.9 5.8-1.8 0.2-3.6-0.1-5.2-0.8z"/>
	<path class="s0" d="m104.2 255.1c-0.4-0.2-0.5-0.5-0.5-0.9 0.1-0.5 0.5-0.8 1-0.8 1.4 0.3 2.7-0.3 3.6-0.8 4.1-2.3 6.4-7.1 5.4-11.6-0.8-4.5-4.7-8.2-9.2-8.7-0.5-0.1-0.8-0.6-0.7-1 0-0.5 0.5-0.8 0.9-0.7 5.2 0.6 9.7 4.9 10.8 10.1 1 5.1-1.7 10.8-6.2 13.4-1.8 0.8-3.5 1.3-4.9 1.1q-0.1-0.1-0.2-0.1z"/>
	<path class="s0" d="m114.8 242.7c-0.3-0.1-0.5-0.6-0.3-1 0.1-0.4 0.5-0.7 1-0.6 2.4 0.7 5.2 0.2 7.3-1.3 2-1.5 3.2-4 3.4-6.5 0-2.4-1-5-2.9-7.3-1.1-1.3-2.1-2.1-3.3-2.7-2.4-1.1-5.6-0.5-7.6 1.4-2 1.9-2.8 4.9-2.3 7.7 0.1 0.4-0.1 0.8-0.6 1-0.4 0.1-0.9-0.2-1-0.7-0.7-3.3 0.3-7 2.7-9.3 2.5-2.3 6.5-3 9.5-1.6 1.3 0.6 2.7 1.6 3.8 3.1 2.3 2.6 3.4 5.6 3.3 8.5-0.1 3-1.7 6-4.1 7.8-2.4 1.8-5.8 2.4-8.7 1.5q-0.1 0.1-0.2 0z"/>
	<path class="s0" d="m65.9 221.3c-0.2-0.1-0.3-0.3-0.4-0.5-0.4-1.1-0.1-2.3 0.4-3.4q1.9-4.3 4.7-8.3c1-1.4 2.4-3.1 4.3-4 1.9-1.1 4.3-1.3 5.8-1.4 1.1 0 2.7 0.1 4.1 0.6 1.7 0.6 2.8 1.7 3.6 2.5 2.2 2.3 3.5 4.6 3.9 7.1 0.5 2.6-0.4 5.8-2.7 9.5-0.2 0.4-0.7 0.6-1.2 0.3-0.4-0.2-0.5-0.7-0.3-1.1 2-3.4 2.9-6.3 2.5-8.4-0.3-2.2-1.4-4.2-3.4-6.2-1-1.1-2-1.7-2.9-2.1-1.2-0.5-2.5-0.5-3.5-0.5-2.3 0.1-3.8 0.4-5.1 1.2-1.6 0.8-2.8 2.2-3.8 3.5-1.8 2.5-3.3 5.2-4.4 8-0.3 0.8-0.6 1.5-0.4 2.1 0.2 0.5-0.1 1-0.5 1.1q-0.3 0.1-0.7 0z"/>
	<path class="s0" d="m92.3 216.2q-0.8-0.4-1.2-1.1c-0.2-0.4 0-0.9 0.5-1.2 0.3-0.2 0.8 0 1.1 0.4 0.1 0.2 0.5 0.4 0.9 0.4 0.5 0 1-0.3 1.5-0.5 2.6-1.4 4.9-3.6 6.4-6.1q1.6-2.7 1.8-5.2c0.1-1.9-0.6-3.7-1.7-4.8-1.3-1.2-3.2-1.7-5-1.4-2.2 0.3-4 1.6-5 2.5-2 1.9-3.5 4.3-4 7-0.1 0.4-0.6 0.7-1 0.6-0.4-0.1-0.8-0.5-0.6-1 0.6-3 2.2-5.8 4.4-7.8 1.8-1.6 3.8-2.7 5.9-3 2.3-0.3 4.8 0.3 6.4 1.8 1.5 1.5 2.4 3.8 2.2 6.2 0 1.9-0.7 3.9-1.9 6-1.8 2.8-4.2 5.1-7.1 6.7-0.6 0.3-1.4 0.6-2.2 0.7q-0.8 0.1-1.4-0.2z"/>
	<path class="s0" d="m112.8 223.8c-0.3-0.1-0.5-0.6-0.5-1 0.1-0.2 0.2-0.5 0.5-0.7 0.6-2.9-0.2-6-2-8.3-1.9-2.3-5-3.8-8.1-3.7-0.4 0-0.8-0.4-0.8-0.8-0.1-0.5 0.3-0.9 0.8-0.9 3.6-0.1 7.2 1.5 9.4 4.4 2.3 2.7 3.1 6.6 2.2 10.1-0.2 0.7-0.7 1.1-1.3 0.9q-0.1 0.1-0.2 0z"/>
	<path fill-rule="evenodd" class="s0" d="m57.8 203.8q-1.2-0.6-2-1.4c-0.7-0.9-1.3-2-1.6-2.7-1.2-3.3-1.3-6.8-0.2-9.8 1.3-3.4 4.1-5.8 7.3-6.6 3.5-0.8 11.6-0.7 14 3.4 3 4.9 1.3 11.4-3.7 15-2.5 1.8-5.7 2.7-9.2 2.8q-2.8 0.1-4.6-0.7zm13.9-18c-3-1.4-7.6-1.4-10-0.8-2.7 0.6-5 2.6-6 5.5-1 2.5-0.9 5.7 0.1 8.5 0.4 1 0.8 1.7 1.3 2.2q1.6 1.7 5.2 1.7c3.2-0.1 6.1-1 8.3-2.6 3.8-2.6 6-8.2 3.2-12.8-0.4-0.7-1.2-1.3-2.1-1.7z"/>
	<path class="s0" d="m48.5 220.7c-5.1-2.5-8.2-8.6-7-14.2 1.2-5.6 6.4-10.1 12.1-10.2 0.5-0.1 0.9 0.3 0.9 0.8 0 0.5-0.3 0.8-0.8 0.9-4.9 0.2-9.5 4-10.5 8.8-1 4.9 1.7 10.3 6.1 12.4 0.4 0.2 0.6 0.6 0.4 1.1-0.2 0.4-0.7 0.6-1.2 0.4z"/>
	<path class="s0" d="m61.5 219q-0.2 0-0.4-0.3c-0.3-0.3-0.1-0.8 0.2-1.2 1.9-1.3 3.2-3.4 3.6-5.8 0.4-2.3-1-5.1-2.3-7-0.3-0.3-0.3-0.9 0.1-1.2 0.4-0.3 1-0.2 1.2 0.2 0.8 1 3.2 4.8 2.7 8.3-0.4 2.7-2 5.3-4.2 6.9q-0.5 0.3-0.9 0.1z"/>
	<path class="s0" d="m80.2 204.2c-0.3-0.1-0.4-0.5-0.5-0.8 0.1-2.6-1.4-5.1-3.8-6.3q-0.1-0.1-0.1-0.1c-0.3 0.2-0.8 0.2-1.1-0.1-0.3-0.4-0.4-0.9 0-1.3 0.5-0.5 1.3-0.5 2.1 0 2.8 1.5 4.7 4.6 4.6 7.9 0 0.5-0.4 0.7-0.9 0.8q-0.2 0-0.3-0.1z"/>
	<path class="s0" d="m76.1 191.4q-0.2-0.1-0.4-0.4c-0.3-0.4-0.1-0.9 0.2-1.1 3.2-2 7.3-2.3 10.8-1 3.4 1.3 6.2 4.4 7.2 8 0.1 0.4-0.1 0.9-0.6 1-0.4 0.1-0.9-0.1-1.1-0.6-0.8-3.1-3.1-5.7-6.2-6.8-2.9-1.2-6.5-0.9-9.1 0.9-0.3 0.1-0.6 0.1-0.8 0z"/>
	<path class="s0" d="m62.2 183.8c-0.2-0.1-0.5-0.3-0.5-0.6-0.7-3.7 0.2-7.3 2.2-10 2.2-3 6-4.6 9.4-4 2 0.4 3.7 1.4 4.9 2.2 3.2 2.1 5.4 4.3 6.7 6.8 1.5 3.1 0.9 8.6-0.7 11.2-0.3 0.5-0.8 0.6-1.2 0.3-0.4-0.2-0.5-0.7-0.3-1.1 1.5-2.5 1.9-7.3 0.7-9.6-1.2-2.2-3.1-4.3-6-6.1-1.2-0.8-2.7-1.7-4.4-2-2.8-0.5-5.9 0.8-7.8 3.3-1.7 2.3-2.4 5.6-1.8 8.8 0.1 0.4-0.2 0.8-0.7 0.9q-0.2 0-0.5-0.1z"/>
	<path class="s0" d="m38.6 176.1q0 0 0 0c-0.4-0.2-0.6-0.7-0.3-1.2 1.2-2.1 2.1-3.9 3.8-5.8 2.1-2.2 4.5-3.6 7-3.7 2-0.2 4.3 0.4 6.9 1.9 3.3 1.9 7 4 8 7.7 0.1 0.6-0.2 1-0.7 1.2-0.4 0.1-0.8-0.2-1-0.7-0.8-3-4.1-4.9-7.1-6.7-2.3-1.3-4.3-1.9-6-1.8-2 0.2-4.1 1.3-5.8 3.3-1.6 1.8-2.5 3.2-3.6 5.4-0.2 0.5-0.8 0.6-1.2 0.4z"/>
	<path fill-rule="evenodd" class="s0" d="m28.4 197.3c-2.6-1.1-4.6-3.1-5.7-5.6q-0.8-1.8-0.7-3.6c0-1.2 0.3-2.5 1-3.7 1.3-2.8 3.5-5.2 6.7-7.5 3.1-2.1 6.9-2.8 10.4-1.8 3.1 0.8 5.6 2.9 7 5.8 1.5 3.4 1.3 7.4-0.6 10.7-1.8 3.1-5 5.4-8.6 6.4-2.9 0.8-6.1 0.7-8.7-0.3q-0.4-0.2-0.8-0.4zm12.8-20q-0.8-0.3-1.5-0.6c-3.1-0.7-6.4-0.2-9 1.6-3 2.1-5 4.3-6.2 6.8-0.6 1.1-0.9 2.1-0.9 3.1q0 1.3 0.6 2.8c1.1 2.3 3.1 4.1 5.5 5.1 2.4 0.9 5.1 0.9 7.8 0.3 3.2-0.9 6-3 7.5-5.6 1.7-2.8 1.9-6.3 0.5-9.1-0.8-2-2.4-3.5-4.3-4.4z"/>
	<path class="s0" d="m28.8 210.1q0 0 0 0c-1.7-1-2.6-2.6-3.1-3.8-0.6-1.5-0.8-3-1-4.5-0.2-2.1-0.3-4.3 0.7-6.1 0.3-0.5 0.8-0.6 1.2-0.4 0.4 0.2 0.6 0.8 0.3 1.2-0.8 1.5-0.7 3.4-0.5 5.2 0.1 1.3 0.4 2.7 0.9 4.1 0.3 0.9 1.1 2.1 2.3 2.8 0.5 0.3 0.6 0.9 0.3 1.2-0.2 0.5-0.7 0.5-1.1 0.3z"/>
	<path class="s0" d="m26.7 230.2c-1.6-0.7-3-1.8-4.1-3.1-2-2.6-2.8-6.1-1.9-9.2 0.4-1.4 1.1-2.8 2.2-4.2 2.6-3.2 5.9-5.2 9.3-5.6 1.5-0.1 3 0 4.5 0.1 1.7 0.3 4.4 0.5 6 2.2 0.3 0.3 0.4 0.9 0 1.2-0.4 0.4-0.9 0.3-1.2 0-1.1-1.2-3-1.5-5-1.6-1.4-0.1-2.8-0.3-4.1-0.2-3 0.4-5.9 2.2-8 4.9-1.1 1.2-1.7 2.4-2 3.7-0.7 2.5-0.1 5.4 1.6 7.6 1.6 2.1 4.2 3.4 7.1 3.6 0.4 0 0.8 0.5 0.7 0.9 0 0.5-0.4 0.9-0.9 0.8-1.4-0.1-2.9-0.5-4.2-1.1z"/>
	<path class="s0" d="m35.7 241.3c-3.8-1.7-6-6.3-4.9-10.4 0.7-2.1 2.2-4.2 4.3-5.7 1.7-1.2 3.8-2.1 6.4-2.7 1.6-0.4 3.8-0.2 4.8 0.8 0.4 0.2 0.4 0.8 0.1 1.1-0.3 0.4-0.8 0.4-1.2 0.1-0.4-0.4-1.9-0.7-3.3-0.3-2.5 0.6-4.3 1.3-5.9 2.4-1.8 1.3-3 3-3.5 4.8-1 3.3 1.1 7.4 4.3 8.6 0.5 0.2 0.7 0.7 0.6 1.1-0.2 0.5-0.7 0.6-1.2 0.5q-0.2-0.1-0.5-0.3z"/>
	<path class="s0" d="m27.6 262.9c-2.5-1.2-5-3.3-6.5-7.4-0.7-1.8-0.4-3.9 0.9-6.5 1-2 2.5-4.6 4.9-6.1 2.6-1.7 5.9-1.7 8 0.1 0.4 0.2 0.4 0.8 0.1 1.1-0.2 0.4-0.8 0.4-1.2 0.2-1.7-1.4-4.3-1-6 0.1-2 1.3-3.4 3.6-4.3 5.4-1 2.1-1.3 3.8-0.8 5.1 2.6 7 8.6 7.5 10.4 7.5 0.5 0 0.9 0.4 0.8 0.8 0.1 0.5-0.3 0.9-0.7 0.9-1.1 0-3.3-0.1-5.6-1.2z"/>
	<path class="s0" d="m48.2 198.4c-0.2-0.1-0.4-0.4-0.5-0.7v-0.4q0-0.1 0-0.3c0-1.5-1-3-2.2-4.5-0.2-0.4-0.1-0.9 0.2-1.1 0.4-0.3 0.9-0.3 1.2 0.1 1.4 1.8 2.8 3.9 2.6 6.2-0.1 0.5-0.5 0.8-1 0.8q-0.2 0-0.3-0.1z"/>
	<path class="s0" d="m49.2 190.7c-1.2-0.5-2.3-1.5-2.9-2.6-0.2-0.4-0.1-1 0.4-1.2 0.4-0.2 0.9-0.1 1.1 0.4 0.6 1 1.6 1.8 2.7 2.1 1.2 0.3 2.5 0.2 3.5-0.5 0.5-0.1 1 0 1.2 0.4 0.3 0.4 0.1 1-0.3 1.2-1.5 0.8-3.2 1-4.8 0.6q-0.5-0.2-0.9-0.4z"/>
	<path class="s0" d="m32.3 176.3q-0.2-0.1-0.3-0.2c-1.9-2.1-2.3-5.5-1-8.3 1-2.4 3-4.4 5.9-5.8 0.7-0.4 1.7-0.8 2.8-0.9 1.2 0 2.4 0.5 3.8 1.5q2.3 1.6 3.4 3.5c0.1 0.5 0 1-0.5 1.2-0.4 0.2-0.9 0.1-1.1-0.4q-0.8-1.6-2.7-2.9c-1.1-0.8-2-1.1-2.9-1.2-0.7 0.1-1.5 0.4-2.1 0.7-2.4 1.2-4.2 3-5.1 5-0.9 2.2-0.7 4.9 0.8 6.5 0.3 0.3 0.2 0.8-0.1 1.1q-0.5 0.4-0.9 0.2z"/>
	<path class="s0" d="m23.7 386.1c-7.5-3.5-12.9-9.8-14.7-17.1-2.1-8.1 1.1-17.2 7.6-21.5 8-5.2 18.7-3.2 26.6-1.7 9.7 1.9 19.2 3.5 28.7 2 10.4-1.6 18.9-7.2 22.8-14.9 2.1-4.1 3-9 3-15 0-12.1-4.1-22.7-11.3-29.1-0.3-0.3-0.3-0.9-0.1-1.2 0.4-0.3 0.9-0.4 1.3-0.1 7.5 6.8 11.7 17.8 11.8 30.4 0 6.3-1 11.5-3.2 15.7-4.1 8.2-13.1 14.2-24.1 15.8-9.7 1.6-19.3 0.1-29.3-1.8-7.9-1.6-17.8-3.5-25.3 1.4-5.8 3.9-8.8 12.1-7 19.7 1.8 6.8 7.4 13 14.6 16.1q5.1 2.2 8.8 1.2c2.7-0.7 5.2-2.8 6.7-5.8 1.7-3.4 1.6-7.2-0.3-9.6-0.9-1.4-2.8-2.4-4.5-2.4-1.4-0.2-2.6 0.2-3.5 0.9q0 0.1 0.1 0.1c0.2 0.6-0.1 1.1-0.6 1.4-0.4 0.2-0.9 0.2-1.3-0.2-0.5-0.6-0.4-1.5 0.2-2.1 1.3-1.4 3.1-2 5.1-1.9 2.4 0.2 4.6 1.4 5.9 3.1 2.2 3 2.4 7.5 0.4 11.5-1.6 3.4-4.6 5.9-7.8 6.7-2.8 0.7-6.1 0.3-9.8-1.4q-0.4-0.1-0.8-0.2z"/>
	<path class="s0" d="m81.8 337.5q-1.1-0.5-1.9-1.3c-2.8-2.5-4-6.5-3.1-10.3 0.4-1.4 0.8-2.4 1.6-3.2 1.3-1.5 3.7-1.9 5.5-1.1 1.9 0.8 3.1 2.9 2.9 4.8-0.1 0.8-0.3 1.4-0.7 1.9-0.8 1.1-2.4 1.5-3.6 0.9-0.4-0.3-0.6-0.8-0.4-1.2 0.2-0.4 0.8-0.6 1.2-0.3 0.5 0.1 1.1 0 1.5-0.4 0.2-0.3 0.2-0.7 0.3-1 0.1-1.3-0.8-2.7-1.9-3.1-1.2-0.6-2.7-0.2-3.6 0.7q-0.8 0.8-1.1 2.4c-0.8 3.1 0.3 6.7 2.5 8.7 0.6 0.5 1.6 1.2 2.8 1.3 1.2 0 2.4-0.6 3.3-1.1 6.2-3.6 10.8-12.4 10.5-20.1-0.1-0.5 0.3-0.9 0.8-0.9 0.5 0 0.9 0.4 0.9 0.9 0.3 8.2-4.6 17.6-11.2 21.5-1.2 0.7-2.7 1.4-4.4 1.4q-1-0.1-1.9-0.5z"/>
	<path class="s0" d="m110.9 388.9c-3.6-1.7-6.6-4.7-8.6-8.2-2.1-4.1-2.7-9.3-1.7-14.6 0.5-3.3 1.7-6.6 3.5-10.3-1.5 1.3-2.9 2.8-4 4.5-0.2 0.4-0.6 0.5-1 0.4-0.3-0.2-0.6-0.5-0.6-0.9q0.2-3.8-0.4-7.7c-1.2 1.3-2.8 2.3-4.6 2.7-0.2 0-0.4 0-0.7-0.1-0.2-0.2-0.2-0.5-0.3-0.6-0.7-8.7 4.8-17.2 12.7-20.4-3.9-3-6.7-7.5-7.7-12.4 0-0.5 0.3-0.9 0.8-1 0.4-0.1 0.9 0.1 1 0.7 0.9 4.9 4 9.5 8.3 12.2 0.2 0.2 0.4 0.6 0.3 0.9 0 0.3-0.2 0.6-0.6 0.7-7.7 2.2-13.3 10.1-13.1 18 1.5-0.6 2.8-1.7 3.7-3.1 0.1-0.3 0.5-0.5 0.8-0.5 0.4 0.1 0.7 0.3 0.7 0.7q0.8 3.7 0.9 7.4c1.7-2 3.7-3.8 5.9-5.2 0.4-0.2 0.8-0.1 1.1 0.2 0.2 0.3 0.3 0.7 0.2 1-2.9 4.9-4.5 9.1-5.3 13.1-0.9 4.9-0.3 9.7 1.6 13.5 2.3 4.4 6.7 7.6 11.5 8.5-0.1-2.1 0.3-4.3 1.1-6.2 0.2-0.3 0.4-0.6 0.8-0.6 0.4 0 0.6 0.3 0.8 0.6 0.4 1.6 0.6 3.2 0.5 4.7 7.2-5.4 10.7-15.1 8.5-23.8 0-0.3 0.1-0.7 0.5-0.9 0.3-0.2 0.6-0.2 0.9 0 2.6 2 3.4 5 4.2 8 0.4 1.5 0.9 2.9 1.5 4.2 1.6 3.5 5 6.4 9.2 7.9 3.3 1.1 7 1.5 11.7 1.4q-0.6-2.9-1.6-5.8c-0.2-0.3 0-0.7 0.3-0.9 0.4-0.2 0.8-0.3 1.1 0.1l4.5 4.2q-0.2-7.6-2.7-14.8c-1.5-4.2-3.2-7-5.6-8.8-1.6-1.4-3.7-2.3-5.8-3.1-2.8-1.2-5.7-2.5-7.7-5-0.3-0.2-0.3-0.7 0-1.1 0.2-0.2 0.6-0.3 1-0.1 6 3.2 14.3 1.5 18.7-3.7l-2.1-2.3q-0.3-0.4-0.1-0.9c0.1-0.3 0.5-0.5 0.9-0.5 1.2 0.1 2.5 0.4 3.7 1-0.9-4.7-4.5-8.2-6.8-10-2.8-2.2-7.2-4.7-12.1-4.3-7.2 0.4-12.5 7-15.7 12.4-0.2 0.2-0.5 0.3-0.8 0.4q-0.4-0.1-0.7-0.3c-1.5-2.2-1.5-5.3-0.1-8.7q0.5-1 1-2c0.6-1.4 1.2-2.7 1.6-4-1.8 0.5-3.4 1.3-4.8 2.5-0.2 0.1-0.5 0.2-0.9 0-0.3-0.1-0.5-0.4-0.4-0.7q0-0.7 0-1.4c-1.2 1.7-2.8 3.1-4.7 3.8-4.5 1.7-9.3-0.9-11.8-4-2.5-3-4.6-5.6-5.7-9.8-0.2-0.4 0-0.9 0.6-1 0.4-0.2 0.9 0.1 1 0.5 1 3.7 2.7 5.9 5.4 9.2 2.2 2.6 6.1 4.9 9.9 3.5 2.7-1.1 4.6-3.9 6.1-6.5 0.2-0.4 0.7-0.6 1.1-0.4 0.3 0.2 0.6 0.6 0.5 1q-0.5 1.6-0.6 3.4c1.6-1.1 3.3-1.8 5.2-2 0.2-0.1 0.5-0.1 0.7 0.1q0.3 0.3 0.3 0.7c-0.3 2.1-1.1 4-2 5.8q-0.4 1-0.9 2c-0.5 1.3-1.2 3.6-0.7 5.7 3.4-5.5 8.9-11.5 16.3-12 5.5-0.4 10.2 2.4 13.3 4.8 2.7 2.2 7.2 6.6 7.5 12.7 0 0.3-0.1 0.6-0.4 0.7-0.3 0.2-0.7 0.2-0.9 0q-0.9-0.5-2-0.9l0.8 0.9c0.3 0.3 0.3 0.7 0 1.1-3.6 4.9-10.2 7.3-16.1 6.4 0.9 0.5 2.1 0.9 3.1 1.4 2.2 0.9 4.4 1.9 6.2 3.3 3.4 2.7 5.1 6.8 6.1 9.6 1.9 5.6 2.9 11.4 2.9 17.3-0.1 0.3-0.3 0.7-0.6 0.8-0.3 0.1-0.7 0-1-0.2l-3.6-3.4q0.6 2 1 3.9c0 0.3 0 0.5-0.2 0.7-0.2 0.2-0.4 0.3-0.6 0.3-5.4 0.3-9.7-0.2-13.3-1.4-4.7-1.7-8.5-4.9-10.3-8.7-0.6-1.4-1.1-3.1-1.5-4.6-0.4-1.7-1-3.3-1.7-4.7 0.9 9.1-3.5 18.6-11.4 23.5-0.2 0.1-0.5 0.2-0.8 0 0 0.2-0.1 0.6-0.2 0.7-0.2 0.2-0.5 0.2-0.8 0.2-1.8-0.2-3.5-0.7-5.2-1.4z"/>
	<path class="s0" d="m133.4 316.4q-1.4-0.7-2.7-1.4c-6.3-3.7-11.4-9.5-14.4-16.2l-1 5.8c-0.2 0.5-0.6 0.8-1 0.7-0.5 0-0.7-0.4-0.7-0.9 0.2-1.7-0.9-3.3-2.1-4.7q-1-1.4-2.2-2.7c-2-2.6-4.1-5.3-5.8-8.1-2.8-4.8-3.7-9.1-3-13 0.1-0.5 0.6-0.8 1-0.7 0.4 0.1 0.8 0.5 0.7 1-0.7 3.6 0.2 7.4 2.8 11.9 1.6 2.7 3.7 5.3 5.7 7.8q1.1 1.4 2.1 2.8c0.6 0.6 1 1.3 1.5 2l0.9-5.2c0.1-0.4 0.4-0.7 0.8-0.7 0.4 0 0.7 0.2 0.8 0.6 2.6 7.5 7.9 14.1 14.7 18.1 6.9 3.9 15.2 5.4 22.9 3.9q0.9-0.2 1.7-0.4c1.9-0.5 4-0.8 6-0.7 2 0.1 4.2 1 5.5 2.6 1.3-4.5 2-8.8 0.3-12.5q-0.3-0.6 0.2-1.1c0.3-0.2 0.7-0.2 1.1 0 2 1.4 3.6 3.1 5.1 5 0.7-4.3-0.1-9.3-2.3-14.1-2.4-5.1-6-9.6-9.6-13.9-3.6-4-7.7-8.4-13-10.9-1.1-0.5-2.4-0.9-3.6-1.4-2-0.6-4.1-1.4-5.9-2.5-1.6-1.1-3.1-2.4-4.4-3.7-1.8-1.7-3.5-3.3-5.6-4.2-0.3-0.1-0.5-0.4-0.6-0.8 0-0.3 0.3-0.7 0.6-0.8 3.2-1.2 6.9-1.4 10.1-0.4 2.6 0.9 4.9 2.4 7 3.8 1.8 1.1 3.6 2.3 5.5 3.1 8.1 3.4 17.1-0.4 22.2-3.3-1.5-1.4-3.3-2.3-5.1-2.8-0.4-0.1-0.7-0.4-0.7-0.7 0-0.4 0.1-0.8 0.5-0.9q3-1.5 5.7-3.5c-5.3-2.2-11.1-4.8-15.2-9.4-1.6-1.6-2.9-3.5-4.2-5.3-0.9-1.4-1.9-3-3.1-4.3-3-3.6-7.3-6.7-12.9-9.1-2.9-1.4-10.3-4.1-14.8 0-0.3 0.3-0.8 0.3-1.1 0-0.4-0.4-0.3-0.9 0-1.2 5.2-4.8 13.4-1.9 16.7-0.4 5.7 2.6 10.2 5.8 13.5 9.6 1.2 1.4 2.1 3 3.2 4.4 1.2 1.8 2.4 3.6 3.8 5.2 4.3 4.6 10.5 7.1 16.1 9.4 0.2 0 0.4 0.3 0.4 0.6 0.1 0.3 0 0.7-0.2 0.8q-2.5 2.1-5.4 3.8c1.8 0.8 3.5 1.9 4.9 3.3 0.1 0.2 0.2 0.5 0.1 0.7 0 0.2-0.1 0.5-0.4 0.6-5.2 3.2-15.4 7.9-24.7 4.1-2-0.9-3.9-2.2-5.7-3.3-2.2-1.4-4.2-2.8-6.6-3.5-2.3-0.7-4.7-0.8-7.1-0.3 1.6 1 2.9 2.3 4.3 3.6 1.3 1.2 2.6 2.4 4.1 3.4 1.7 1.1 3.6 1.7 5.5 2.4 1.3 0.5 2.6 0.9 3.8 1.4 5.6 2.7 9.9 7.3 13.6 11.4 3.6 4.3 7.4 8.9 9.8 14.3 2.7 6 3.4 12.1 2 17.3-0.2 0.3-0.5 0.5-0.8 0.7-0.4 0-0.7-0.2-0.8-0.5-0.9-1.7-2.2-3.3-3.5-4.6 0.8 4.1-0.3 8.6-1.7 13-0.1 0.4-0.4 0.6-0.8 0.6-0.4 0.1-0.7-0.3-0.8-0.6-0.6-2.2-3-3.3-5.1-3.4-1.8-0.2-3.6 0.2-5.5 0.6q-0.9 0.3-1.7 0.5c-7.1 1.3-14.8 0.3-21.4-2.7z"/>
	<path class="s0" d="m105.1 210.1q-0.1-0.1-0.1-0.2c-0.4-0.3-0.5-0.8-0.2-1.2 5.8-7.2 4.1-14.4 2.7-20.8-0.6-2.4-1.1-4.6-1.2-6.7-1.1-16.5 6.5-34.9 19.4-46.8 0.4-0.4 1-0.3 1.3 0 0.3 0.3 0.3 0.9 0 1.2-12.7 11.6-20.1 29.5-19 45.6 0.2 1.9 0.7 4 1.1 6.3 1.6 6.7 3.3 14.4-2.9 22.3-0.3 0.4-0.7 0.5-1.1 0.3z"/>
	<path class="s0" d="m102.9 200c-0.3-0.2-0.5-0.7-0.4-1.2 2.1-5.3 1-11.9-0.1-18.1-0.5-3.3-1.1-6.6-1.2-9.7-0.4-11.5 10.2-29.6 18-37.4 0.3-0.3 0.8-0.3 1.2 0 0.3 0.3 0.3 0.9 0 1.2-7.4 7.5-17.9 25.3-17.5 36.2 0.1 2.9 0.6 6.1 1.2 9.4 1.1 6.5 2.2 13.2 0 19.1-0.1 0.4-0.7 0.6-1 0.4q-0.1 0.1-0.2 0.1z"/>
	<path fill-rule="evenodd" class="s0" d="m33.9 165.4c-0.3-0.2-0.6-0.7-0.4-1 5.7-17.9 23.6-31.9 47.8-37.5 16.2-3.9 33.4-4.1 49.7-0.5 9.9 2.1 19.5 5.6 28.9 8.9 5.7 2.1 11.6 4.2 17.5 6 19 5.8 34.5 6.6 47.4 2.3 17.3-5.7 30.9-21.6 33.8-39.6 0.1-1 0.8-1.2 1.3-1.3l0.8 0.4-0.7-0.5c0.2-0.2 0.6-0.6 1.2-0.7 0.5-0.2 1 0.1 1.2 0.2 0.4 0.3 0.8 0.4 1.2 0.5 0.4 0.2 0.9 0.3 1.5 0.7q0.2 0.1 0.3 0.3l7.8 14.8c0.1 0.4 0 0.7-0.2 0.9-7.8 10.3-15.8 20-26.6 26.4-21.1 12.3-47.7 8.1-65.8 3.8-7.4-1.7-14.8-3.7-21.9-5.7-9.7-2.6-19.7-5.4-29.7-7.4-20.5-4.2-37.6-4.4-52.5-0.9-18.6 4.4-33.6 15.2-41.5 29.6-0.2 0.3-0.7 0.5-1.1 0.3zm226.3-61c-3 18.6-17 35-34.9 40.9-13.2 4.3-29.1 3.5-48.4-2.3-5.9-1.8-11.9-4-17.6-6.1-9.2-3.2-18.9-6.8-28.7-8.8-16-3.5-33-3.3-48.9 0.4-19.2 4.5-34.3 14.3-42.2 27.1 8.7-10.5 21.6-18.2 36.7-21.8 15.1-3.6 32.5-3.3 53.1 0.9 10.1 2.1 20.1 4.8 29.8 7.5 7.2 1.9 14.5 3.9 21.9 5.7 17.7 4.2 43.9 8.4 64.5-3.7 10.5-6 18.3-15.5 25.9-25.5l-7.3-14.1c-0.4-0.2-0.7-0.2-1-0.3-0.4-0.2-0.9-0.3-1.6-0.7q0 0-0.1 0 0 0 0 0.1c-0.4 0.5-0.9 0.7-1.2 0.7z"/>
	<path class="s0" d="m81.8 176c-0.2-0.1-0.4-0.3-0.4-0.6-0.2-0.4 0.1-0.9 0.5-1 10.5-2.8 18.4-8.5 21.8-15.7 0.2-0.4 0.7-0.7 1.2-0.5 0.4 0.2 0.6 0.8 0.4 1.2-3.8 7.6-12 13.7-22.9 16.7q-0.3 0-0.6-0.1z"/>
	<path class="s0" d="m190.3 259.4c-0.3-0.1-0.5-0.4-0.5-0.7-0.2-3.8-2.8-6.9-5.2-10l-0.3-0.5c-4.4-5.6-9.2-13.1-8.3-21.3 0.7-6.8 5.2-12.4 9.4-16.9q1-1 2-2c3.1-3.3 6.4-6.7 8.6-10.7-7.4 3.4-14.3 7.7-20.7 12.7-0.3 0.2-0.7 0.2-1 0.1-0.2-0.1-0.5-0.4-0.5-0.8q0.1-3.3 0.7-6.6c-8.6 0.9-17.5-1.2-24.7-5.7-0.2-0.2-0.3-0.4-0.4-0.6q0-0.4 0.3-0.7c3.8-3.4 6.2-8 8.7-12.7 2-3.9 4.1-7.8 7-11.2 5.7-6.3 14.5-10.1 23.7-10 7.7 0.1 15.6 2.8 22.4 7.8-1.4-6.7-5.7-12.8-11.6-16.3-0.4-0.3-0.5-0.8-0.2-1.2 0.2-0.4 0.7-0.6 1.1-0.3 6.9 4.1 11.8 11.7 12.7 19.7 0 0.3-0.1 0.6-0.4 0.8-0.4 0.2-0.7 0.1-1-0.1-6.8-5.5-15.1-8.6-23.1-8.7-8.7-0.1-17 3.4-22.3 9.5-2.8 3.1-4.8 7-6.8 10.8-2.3 4.3-4.6 8.8-8.2 12.3 7.1 4.1 15.6 5.9 23.7 4.7 0.3 0 0.6 0 0.7 0.3 0.2 0.2 0.3 0.5 0.2 0.7q-0.5 2.9-0.8 5.8c6.8-5.1 14.2-9.4 22-12.8 0.3-0.2 0.7-0.1 0.8 0.2 0.3 0.2 0.4 0.6 0.3 0.9-2.3 5.2-6.2 9.3-10 13.3q-1 1-1.9 2c-4.1 4.4-8.4 9.6-9 15.9-0.9 7.6 3.7 14.7 7.9 20.1l0.4 0.4c2.1 2.7 4.4 5.8 5.2 9.2q2.9-3 6-5.5c0.3-0.3 0.8-0.3 1.2 0 0.3 0.3 0.4 0.8 0.1 1l-2.4 4.2c5-2.4 9.9-5 14.1-8.2 3.8-3.1 8.8-8.1 11-14.9 1.7-5.5 1.3-11.6 0.7-17.9-0.2-2.2-0.4-4.5 0.2-6.7 0.7-2.6 2.7-4.5 5-4.9 0.3 0 0.5 0.1 0.7 0.3 0.2 0.1 0.3 0.4 0.3 0.6-0.3 8.2 1.9 16.5 6.1 23.6q0.6 1.1 1.4 2.2c2.4 3.9 5.1 8.1 4.9 12.7 2.9-2.5 5.8-5.1 8-8.3 2.9-4.1 4-8.6 3.3-12.5-0.1-0.4 0.1-0.7 0.4-1 0.3-0.1 0.8-0.1 1 0.1 1.4 1.3 2.6 2.9 3.6 4.6 3-5.6 3.9-12.1 2.4-18.2-1.6-6.7-5.8-12.6-11.6-16.1-1.4-0.9-3-1.8-4.6-2.5-1.7-0.8-3.5-1.7-5.2-2.8-2.2-1.5-6.1-4.6-6.5-9.3-0.1-0.4 0.1-0.7 0.4-0.9 0.3-0.1 0.7-0.1 0.9 0.2 3.5 3.2 8 5.5 12.8 6.2 1.5 0.2 3 0.3 4.6 0.4 1.6 0.1 3.3 0.1 4.9 0.4 2.4 0.3 5.7 1.3 8 3.6 0.9-2.3 1.1-5 0.4-7.4-0.1-0.3 0-0.6 0.2-0.8 0.2-0.2 0.4-0.3 0.6-0.3h1.4c-0.5-2.2-2.3-4-4.5-4.2-0.4-0.1-0.6-0.3-0.7-0.7-0.1-0.3 0-0.8 0.4-0.9q3.1-2.1 6.6-3.4c-7.7-4.4-16.3-9-25.7-9-0.8 0-1.6-0.1-2.4-0.5-0.9-0.4-1.3-1.3-1.7-1.9l-3.8-7.2c-0.2-0.3-0.1-0.8 0.3-1.1 0.4-0.2 1 0 1.2 0.3l3.8 7.2c0.4 0.5 0.6 1 1 1.3 0.4 0.2 1 0.1 1.5 0.1 10.6 0.1 20.4 5.7 28.3 10.3 0.4 0.1 0.5 0.5 0.5 0.8 0 0.3-0.3 0.6-0.6 0.7q-3.4 1.1-6.5 2.8c2.3 1.2 4 3.6 4.1 6.2 0.1 0.3 0 0.4-0.2 0.6q-0.2 0.3-0.6 0.3h-1.3c0.5 2.9 0.1 6.1-1.4 8.7-0.1 0.4-0.4 0.5-0.7 0.6-0.3-0.1-0.5-0.2-0.7-0.4-1.9-2.7-5.3-3.7-7.7-4.1-1.6-0.2-3.2-0.3-4.7-0.4-1.7-0.1-3.2-0.1-4.9-0.4-4.2-0.6-8.2-2.2-11.5-4.8 1.2 2.7 3.6 4.6 5.2 5.6 1.6 1 3.3 1.9 5 2.7 1.6 0.7 3.2 1.6 4.7 2.5 6.2 3.8 10.7 10 12.4 17.2 1.6 7.1 0.4 14.7-3.5 20.9-0.1 0.3-0.5 0.4-0.8 0.4-0.3-0.1-0.6-0.2-0.7-0.6-0.6-1.3-1.3-2.5-2.2-3.6 0.1 3.7-1.2 7.7-3.8 11.3-2.7 4-6.4 7-10.1 10-0.2 0.3-0.7 0.3-0.9 0.1-0.3-0.2-0.5-0.6-0.4-1 1.3-4.6-1.6-9.2-4.4-13.5q-0.7-1.2-1.4-2.3c-4.2-7-6.4-15.2-6.4-23.4-1.3 0.6-2.2 2.1-2.6 3.4-0.5 1.9-0.3 4-0.1 6.1 0.6 6.4 1 12.7-0.8 18.6-1.8 5.6-5.9 11.1-11.6 15.6-5.1 4-10.8 6.8-16.8 9.6-0.3 0.2-0.7 0.1-0.9-0.2-0.3-0.3-0.4-0.7-0.1-1l1.1-2q-1.7 1.6-3.2 3.2c-0.2 0.3-0.6 0.4-1 0.2q0 0 0 0z"/>
	<path class="s0" d="m167.8 137.9c-6.8-3.2-14.6-7.1-21.6-11.2-11.9-6.9-20.9-14.7-27.5-23.5-4.6-6-7.3-11.7-8.4-17.4-1.4-6.9-0.3-13.8 3.3-19 1.8-2.7 4.4-5 7.6-7 7.3-4.6 15.8-5.8 22.8-3.1 7.9 3.1 13.1 11.2 12 18.9-0.6 4-2.7 8.1-6.5 12.1-1.2 1.3-3 2.9-5.2 3.8-2.1 0.8-4.6 1-7.4 0.3-5.9-1.4-10.8-5.8-12-11-0.6-3.1 0.1-6.4 2-9.1 1.6-2.3 4-3.8 6.6-4.1 0.4 0 0.8 0.3 0.9 0.7 0 0.5-0.3 1-0.8 1-2 0.3-3.9 1.5-5.3 3.4-1.6 2.3-2.2 5.2-1.7 7.7 1 4.7 5.3 8.5 10.7 9.7 2.5 0.6 4.6 0.5 6.4-0.2 1.9-0.7 3.4-2.2 4.6-3.4 3.5-3.7 5.5-7.4 6-11.1 0.9-6.8-3.8-14.3-10.9-17.1-6.5-2.4-14.4-1.3-21.3 2.9-3 1.9-5.4 4.1-7.1 6.6-3.3 4.8-4.4 11.2-3.1 17.7 1.1 5.4 3.8 10.9 8.1 16.7 6.6 8.6 15.4 16.2 27 23 12.1 7.1 26.7 13.5 34.4 16.8 0.4 0.2 0.6 0.7 0.5 1.1-0.3 0.5-0.7 0.6-1.2 0.5-3.2-1.4-7.8-3.4-12.9-5.7z"/>
	<path class="s0" d="m33.1 115.8q0 0 0-0.1c-0.2-0.1-0.5-0.4-0.4-0.6-0.1-7.1 4.9-12.8 11-17.9-6.7 1.3-14.8 2.3-21.7-0.9q-0.1-0.1-0.2-0.1c-7.9-3.8-13.2-12.4-16.1-26.2l-0.3-1.4c-1.1-5-2.1-10.2-5.4-14-0.2-0.3-0.3-0.6-0.1-0.8 0-0.3 0.3-0.5 0.5-0.6 5.8-1.5 11.3 1.3 16.6 4 1.7 0.8 3.5 1.8 5.2 2.5 1.9 0.8 4 1.4 5.9 2 1.9 0.6 3.7 1.1 5.4 1.8-0.7-1.3-1.3-2.7-1.7-4.2-0.1-0.3 0-0.6 0.3-0.8 0.2-0.2 0.6-0.3 0.9-0.1l5.1 2.6c-6.7-7.5-9.9-17.9-8.1-27.8 1.2-6.6 4.4-12.6 7.5-18.4 1.9-3.5 3.8-7.2 5.2-10.9 0.2-0.3 0.5-0.6 0.9-0.6 0.3 0.1 0.6 0.2 0.7 0.6 2 5 6 8.9 10 12.6 4.2 4 8.5 8.2 10.6 13.8 1.9 5.3 1.3 10.9 0.8 16.5-0.2 2.3-0.4 4.6-0.5 6.9 2.1-2.9 4.7-5.6 7.6-7.8 1.2-0.9 2.4-1.6 3.5-2.4 1.6-1.1 3.3-2.3 4.8-3.5 4.4-3.8 7.4-9.4 8.1-15.2 0.1-0.4 0.4-0.7 0.8-0.7 0.4-0.1 0.8 0.2 0.9 0.6l3.4 10.2c2.1 6.6 4.5 14.2 3.8 21.7-1.1 11.2-9.7 21.2-20.5 24.1 4.3 2.4 10.3 1.7 14-1.5 0.1-0.2 0.6-0.3 0.9-0.2 0.2 0.1 0.4 0.4 0.4 0.8 0.2 2.5-0.8 5.2-2.5 7.1 3.1-0.2 6.2-0.5 9.3-1.1 0.3-0.1 0.5 0 0.8 0.2 0.2 0.2 0.3 0.5 0.2 0.7-2 9.5-12 16.7-21.7 15.7 2.7 7.6 8.8 14.1 16.4 17.3 1.9 0.8 3.8 1.3 5.8 2 2 0.5 4.1 1.1 6 1.9 0.5 0.1 0.7 0.7 0.5 1.2-0.2 0.3-0.7 0.6-1.2 0.4-1.8-0.8-3.8-1.3-5.8-1.9-1.9-0.6-4-1.2-6-2-8.5-3.5-15.1-10.9-17.8-19.8-0.1-0.2 0-0.6 0.2-0.8 0.2-0.1 0.5-0.3 0.9-0.2 8.7 1.7 18.2-4.3 20.7-12.8-3.5 0.6-7 0.9-10.5 0.9-0.4 0-0.7-0.2-0.9-0.6-0.1-0.3 0.1-0.7 0.4-0.9 1.8-1.3 3-3.3 3.4-5.5-4.9 3.2-11.7 3-16.2-0.6-0.3-0.2-0.4-0.5-0.3-0.9 0-0.3 0.3-0.5 0.6-0.6 11.1-1.9 20.1-11.9 21.2-23.1 0.7-7.1-1.7-14.5-3.8-20.9l-2.3-7.2c-1.4 5-4.2 9.6-8.1 13-1.5 1.3-3.3 2.4-5 3.6-1.1 0.8-2.3 1.5-3.4 2.4-3.4 2.6-6.5 5.9-8.7 9.7-0.1 0.3-0.5 0.5-0.9 0.4-0.4-0.1-0.6-0.4-0.7-0.8-0.1-3.3 0.2-6.7 0.5-10 0.6-5.6 1-10.8-0.7-15.8-1.9-5.2-5.9-9-10.1-13-3.7-3.4-7.4-7-9.6-11.5-1.4 3.2-3 6.3-4.6 9.3-3 5.6-6.1 11.5-7.3 17.9-2.1 11.5 2.8 23.7 12.3 30.6 0.4 0.3 0.5 0.7 0.2 1.1-0.2 0.4-0.7 0.5-1.1 0.3l-9-4.6c0.7 1.5 1.5 2.9 2.5 4.1 0.2 0.3 0.3 0.8 0 1-0.3 0.4-0.7 0.4-1.1 0.3-2.4-1.3-5.2-2.2-7.8-2.9-2.1-0.7-4.2-1.3-6.1-2.1-1.8-0.8-3.7-1.7-5.4-2.6-4.8-2.4-9.4-4.7-14-4.1 2.8 3.9 3.9 8.9 4.8 13.7l0.4 1.3c2.8 13.4 7.7 21.5 15.1 25q0.2 0.1 0.2 0.1c7.6 3.6 17.2 1.6 24 0.2 0.4-0.1 0.8 0.1 1 0.5 0.2 0.3 0.1 0.7-0.2 1-6.5 5-12.4 10.5-13.1 17.2 4.2-1.8 8.9-0.9 13.6 0 2 0.3 4 0.7 6 0.9 7.8 0.5 16.1-3.1 20.9-9.3 0.2-0.2 0.5-0.4 0.7-0.3 0.3 0 0.6 0.1 0.7 0.4 3.9 7 8.5 14.8 15.4 19.6q0 0 0 0 0 0 0.1 0.1c0.3 0.2 0.5 0.8 0.2 1.2-0.3 0.3-0.9 0.4-1.2 0.1-6.9-4.7-11.6-12.1-15.4-19.1-5.3 6.1-13.5 9.5-21.5 8.9-2.1-0.1-4.2-0.5-6.2-0.9-5-0.9-9.8-1.8-13.8 0.5-0.2 0.2-0.5 0.3-0.8 0.1z"/>
	<path class="s0" d="m94.5 254.6q0 0 0 0c-1.1-0.7-2.1-1.6-2.8-2.9-0.6-0.9-1.1-2-1.4-3.4-0.4-1.9-0.2-4 0.5-5.9 0.2-0.4 0.7-0.7 1.2-0.4 0.4 0.1 0.6 0.6 0.4 1-0.6 1.6-0.7 3.4-0.4 5 0.2 0.9 0.6 1.8 1.2 2.9 0.6 0.9 1.2 1.7 2 2.2 0.5 0.2 0.6 0.7 0.5 1.1-0.3 0.4-0.8 0.6-1.2 0.4z"/>
	<path class="s0" d="m75.7 106q-0.2-0.1-0.2-0.2c-2.8-6.9-6.8-13.4-10.8-19.7-5.3-8.4-10.8-17.2-13.1-27-0.5-2.2-0.9-4.6-1.3-6.8-0.3-1.7-0.6-3.5-0.9-5.2-0.8-3.5-1.8-7.1-2.9-10.5-2.2-7.4-4.5-15-3.6-22.7q0-1.2 0.2-2.4c0.4-2.5 0.7-4.9 0.2-7.3-0.1-0.2 0.1-0.5 0.3-0.5 0.2-0.1 0.5 0.1 0.5 0.3 0.6 2.5 0.3 5.1-0.1 7.6q-0.2 1.3-0.3 2.4c-0.8 7.5 1.4 15.1 3.6 22.3 1.1 3.5 2.2 7 2.9 10.7 0.4 1.6 0.7 3.5 1 5.2 0.3 2.1 0.7 4.5 1.2 6.7 2.4 9.6 7.8 18.4 13 26.7 4 6.4 8.1 12.9 10.9 19.9 0.1 0.3 0 0.5-0.3 0.6q-0.2 0-0.3-0.1z"/>
	<path class="s0" d="m34.5 114.6q0 0-0.1-0.1c-0.1-0.1-0.1-0.4 0.1-0.6 6.2-5.4 18.8-14.3 33.6-12.8 3.8 0.4 6.4 1.7 7.4 4 0.1 0.2 0.1 0.5-0.1 0.6-0.3 0.1-0.5 0-0.6-0.2-1.2-2.5-4.3-3.3-6.7-3.5-14.6-1.4-27 7.3-33.1 12.6-0.1 0.1-0.3 0.1-0.5 0z"/>
	<path class="s0" d="m73.8 101.4q-0.2-0.1-0.2-0.3c-0.9-2.4 0.1-5.3 2.2-6.8 1.9-1.3 4.4-1.3 6.7-1.4q0.6 0 1.2 0c2.9 0 5.9-0.6 8.7-1.5q5.1-1.7 6.2-5c0.1-0.2 0.4-0.4 0.6-0.3 0.2 0 0.3 0.4 0.3 0.5-0.9 2.5-3.2 4.4-6.9 5.7q-4.3 1.3-8.9 1.5-0.5 0-1.1 0c-2.3 0-4.6 0-6.3 1.2-1.8 1.2-2.7 3.8-1.9 5.8 0 0.2-0.1 0.5-0.3 0.5q-0.1 0.1-0.3 0.1z"/>
	<path class="s0" d="m67.6 90.8q-0.1-0.1-0.2-0.2c-0.8-1.1-1.5-2.5-2-4.2-2.1-6.5-0.7-14 3.5-19.3 2.1-2.5 4.7-4.5 7.3-6.4 2.4-1.8 4.9-3.8 6.9-6.1 1.5-1.8 2.7-3.8 3.6-5.6 3.5-6.6 4.5-14.3 2.7-22.3-0.1-0.3 0.1-0.5 0.3-0.5 0.2-0.1 0.5 0 0.5 0.3 1.8 8.2 0.9 16.1-2.8 22.9-0.9 1.8-2.1 3.9-3.6 5.7-2 2.5-4.6 4.4-7.1 6.3-2.5 1.9-5.1 3.9-7.1 6.3-4.1 5-5.5 12.2-3.5 18.4 0.6 1.6 1.2 2.9 2 4 0.2 0.1 0.1 0.5-0.1 0.6-0.1 0.1-0.3 0.1-0.4 0.1z"/>
	<path class="s0" d="m27.3 80.9q-0.8-0.4-1.7-0.9c-5-3-8.4-7.9-11.8-12.6-3.3-4.8-6.7-9.7-11.8-12.5-0.2-0.1-0.3-0.3-0.1-0.5 0.1-0.3 0.3-0.4 0.5-0.2 5.2 2.9 8.7 7.9 12.1 12.7 3.3 4.7 6.6 9.5 11.5 12.3 3.7 2.2 8.2 3.1 12.1 3.8 5 0.8 10.1 1.4 15.3 1.8l0.4 0.1c3.6 0.3 7.2 0.6 10.3 2.4 2.6 1.7 4.5 4.2 6.1 6.6 0.1 0.1 0.1 0.4 0 0.5-0.3 0.2-0.6 0.2-0.6-0.1-1.7-2.1-3.5-4.7-6-6.2-2.8-1.8-6.4-2.1-9.9-2.4h-0.4c-5.1-0.4-10.3-1.1-15.4-2-3.3-0.5-7.1-1.2-10.6-2.8z"/>
	<path class="s0" d="m59.6 77.5q0-0.1 0-0.1c-1.3-0.8-2.1-2-3-3-4.5-5.7-9.2-11.5-11.7-18.5-0.5-1.3-0.8-2.6-1.3-3.8-0.3-1.3-0.8-2.8-1.2-4-1.1-2.8-2.6-5.4-3.9-8-1.6-2.8-3.2-5.7-4.3-8.9-1.3-3.7-1.2-6.6 0.2-8.9 0.1-0.1 0.3-0.2 0.6-0.1 0.2 0.1 0.2 0.4 0.1 0.6-1.2 2-1.3 4.7-0.1 8.2 1.1 3 2.7 5.9 4.2 8.7 1.4 2.6 2.9 5.3 4 8.1 0.5 1.4 0.9 2.7 1.3 4 0.4 1.2 0.7 2.5 1.2 3.8 2.5 6.8 7.1 12.7 11.7 18.3 0.7 1 1.6 2.1 2.7 2.8 0.1 0.2 0.1 0.5 0.1 0.7-0.2 0.1-0.4 0.2-0.6 0.1z"/>
	<path class="s0" d="m51.5 56.2c-0.2-0.1-0.3-0.3-0.2-0.6l4.5-10.9c0.9-2.2 1.9-4.5 2.2-6.8 0.3-2.6-0.2-5.3-0.7-7.5-1.1-4.9-2.8-9.5-5-14-0.1-0.2 0-0.4 0.3-0.5 0.1-0.1 0.3 0 0.5 0.2 2.2 4.4 3.8 9.2 5 14.1 0.5 2.3 1.1 5 0.8 7.7-0.4 2.6-1.3 4.9-2.3 7.1l-4.5 11c-0.2 0.2-0.5 0.3-0.6 0.2z"/>
	<path class="s0" d="m65.7 74c-0.2-0.1-0.3-0.2-0.2-0.4 0.2-3.5 0.5-7 1.8-10.3 1.5-4.1 4.4-7.5 7.3-10.8 3.4-4.1 6.7-7.9 7.6-12.9 0.2-0.3 0.3-0.4 0.6-0.3 0.2 0 0.3 0.2 0.3 0.4-1 5.3-4.5 9.4-7.9 13.3-2.8 3.3-5.7 6.6-7.2 10.6-1.2 3.2-1.4 6.7-1.7 10 0 0.3-0.2 0.5-0.5 0.5q-0.1-0.1-0.1-0.1z"/>
	<path class="s0" d="m68.8 93q-0.1 0-0.2-0.2c-1.6-2.4-1.2-5.7-0.7-8 0.8-3.5 1.8-6.2 3.4-8.3 3.2-4.2 8.1-6.3 12.9-8.3 4.1-1.7 8.6-3.5 11.6-6.7 0.1-0.2 0.4-0.2 0.6 0 0.2 0.1 0.2 0.4 0 0.6-3.2 3.3-7.6 5.2-11.9 6.9-4.9 2.1-9.5 4-12.5 8-1.5 2-2.5 4.6-3.3 8-0.4 2.2-0.9 5.1 0.6 7.4 0.1 0.2 0.1 0.4-0.1 0.5-0.2 0.1-0.3 0.2-0.4 0.1z"/>
	<path class="s0" d="m58.7 86.3q0-0.1-0.2-0.2c-1.5-2.1-4-3.8-7.6-5.2-1.4-0.5-2.9-1-4.4-1.4-1.6-0.5-3.2-0.9-4.7-1.6-7.8-3-14.4-9-18.2-16.4-0.1-0.3 0-0.5 0.2-0.6 0.2-0.1 0.4-0.1 0.6 0.2 3.7 7.2 10.2 13.1 17.7 16 1.5 0.6 3.1 1.1 4.6 1.6 1.5 0.4 3 0.9 4.5 1.5 3.7 1.4 6.3 3.1 8 5.5 0.2 0.1 0.1 0.4 0 0.5-0.2 0.1-0.3 0.2-0.5 0.1z"/>
	<path class="s0" d="m20.1 89.4c-4.4-2.1-8.1-5.3-10.8-9.5-0.1-0.1-0.1-0.4 0.2-0.5 0.1-0.2 0.4-0.1 0.6 0.1 3.9 6.3 10.7 10.5 18.1 11.3 6 0.6 11.9-0.9 17.7-2.3 3.1-0.8 6.4-1.7 9.6-2.1 2.1-0.4 4.5-0.7 6.6 0.4 0.3 0.1 0.4 0.4 0.2 0.6-0.1 0.2-0.3 0.3-0.5 0.2q0 0-0.1 0c-1.9-0.9-4.1-0.7-6.1-0.4-3.2 0.5-6.5 1.3-9.5 2-5.9 1.5-11.9 3.1-18 2.4-2.7-0.3-5.5-1.1-8-2.2z"/>
	<path class="s0" d="m36.7 106.6q-0.1 0-0.1-0.2c-0.2-0.1-0.2-0.3 0-0.5 5.6-5.8 11.5-9.3 17.6-10.6 7.3-1.7 15 0.3 19.5 5 0.2 0.2 0.2 0.5 0 0.7-0.1 0.1-0.4 0.1-0.6-0.1-4.3-4.5-11.7-6.4-18.7-4.9-5.9 1.4-11.7 4.8-17.2 10.5-0.1 0.1-0.4 0.2-0.5 0.1z"/>
	<path class="s0" d="m57.2 115.4c-0.2-0.1-0.3-0.3-0.2-0.5 0.4-2 1-3.8 1.7-5.7 0.4-1 0.9-2.2 1.6-3.3 1.5-2.4 4-4.1 6.6-4.7 0.3-0.1 0.5 0.1 0.5 0.3 0.1 0.2 0 0.5-0.2 0.6-2.5 0.5-4.8 2.1-6.1 4.3-0.7 1-1.2 2.1-1.6 3.1-0.7 1.8-1.3 3.7-1.7 5.6-0.1 0.2-0.3 0.3-0.5 0.3q-0.1 0-0.1 0z"/>
	<path class="s0" d="m78.1 94.2q-0.1-0.1-0.1-0.2c-1-1.2-0.7-3 0-4.3 1.5-2.7 4.4-4.8 8.4-5.8l0.7-0.1c0.7-0.3 1.5-0.4 2.2-0.7 0.5-0.3 1.5-0.8 1.9-1.9 0-0.2 0.2-0.3 0.4-0.2 0.3 0 0.4 0.3 0.4 0.5-0.4 1-1.2 1.8-2.4 2.4-0.8 0.3-1.6 0.5-2.4 0.7l-0.6 0.2c-2.1 0.5-6.1 1.9-7.8 5.3-0.6 1-0.9 2.5-0.2 3.4 0.2 0.1 0.2 0.4 0 0.6-0.2 0.1-0.3 0.1-0.5 0.1z"/>
	<path class="s0" d="m118.4 128.6c-0.3-0.1-0.3-0.3-0.3-0.5q0.5-1.5 1.2-2.8c0.1-0.3 0.4-0.3 0.6-0.2 0.1 0.1 0.2 0.4 0.1 0.6q-0.6 1.2-1 2.6c-0.1 0.3-0.4 0.3-0.5 0.3q-0.1 0-0.1 0z"/>
	<path class="s0" d="m115.5 128.9c-0.1-0.1-0.2-0.2-0.2-0.4 0-1.1 0.2-2.2 0.9-3.1 0.1-0.2 0.4-0.3 0.6-0.1 0.2 0.1 0.2 0.4 0.1 0.6-0.5 0.7-0.8 1.6-0.7 2.6 0 0.2-0.2 0.4-0.4 0.4q-0.2 0-0.3 0z"/>
	<path class="s0" d="m111.4 129.3c-0.3-0.1-0.4-0.3-0.3-0.5 0.2-1.1 0.7-2.3 1.2-3.4 0.2-0.2 0.4-0.2 0.6-0.1 0.3 0.1 0.3 0.4 0.2 0.6q-0.8 1.4-1.2 3.1c0 0.2-0.2 0.4-0.4 0.3q-0.1 0-0.1 0z"/>
	<path class="s0" d="m263.4 121.3q0 0-0.1 0c-1.1-0.6-1.7-1.7-2.3-2.7-1.4-2.8-2.1-5.2-2.4-7.5-0.3-3 0.3-5.7 1.8-7.8 0-0.2 0.3-0.2 0.5-0.2 0.2 0.2 0.3 0.4 0.2 0.7-1.4 1.9-1.9 4.5-1.7 7.1 0.3 2.3 1.1 4.6 2.4 7.3 0.4 0.9 1 1.8 1.9 2.3 0.4 0.2 0.9 0.3 1.4 0.4 0.7 0.1 1.4 0.3 2 0.6 0.2 0.1 0.3 0.4 0.1 0.6-0.1 0.2-0.4 0.2-0.6 0.1-0.4-0.3-1-0.3-1.6-0.5-0.6-0.1-1.1-0.2-1.6-0.4z"/>
	<path class="s0" d="m263.8 118.2q-0.1 0-0.1 0c-1.1-0.7-1.9-1.9-2.2-3.4-0.3-1.3-0.3-2.6-0.3-3.9-0.1-0.2 0.2-0.4 0.4-0.4 0.3 0 0.5 0.2 0.5 0.4 0 1.2-0.1 2.5 0.2 3.7 0.3 1.3 1 2.2 1.8 2.8 0.3 0.1 0.3 0.4 0.2 0.7-0.2 0.1-0.4 0.2-0.5 0.1z"/>
	<path class="s0" d="m263.5 115.2q-0.2 0-0.2-0.2c-0.2-0.5-0.3-1.2-0.2-1.8 0-0.2 0.2-0.4 0.4-0.4 0.3 0.1 0.5 0.3 0.4 0.5-0.1 0.5 0 0.9 0.1 1.3 0.2 0.3 0.1 0.5-0.2 0.6q-0.2 0.1-0.3 0z"/>
	<path class="s0" d="m259.6 128.2q-1-0.5-1.9-1.2c-0.2-0.2-0.2-0.4-0.1-0.6 0.2-0.2 0.4-0.2 0.6-0.1 1.7 1.3 3.7 1.9 5.8 2.1 0.2 0 0.4 0.2 0.4 0.4 0 0.2-0.2 0.4-0.4 0.4-1.5 0-3-0.4-4.4-1z"/>
	<path class="s0" d="m254.6 132.4c-0.2-0.1-0.3-0.4-0.2-0.5 0-0.3 0.3-0.4 0.5-0.3 2.1 0.6 4.2 0.8 6.3 0.4 0.2 0 0.4 0.1 0.5 0.4 0 0.2-0.1 0.4-0.4 0.4-2.2 0.4-4.5 0.3-6.7-0.4z"/>
	<path class="s0" d="m251.5 136.7c-0.1-0.1-0.3-0.3-0.2-0.5 0-0.2 0.3-0.3 0.5-0.3 1.5 0.4 3.1 0.4 4.6 0 0.3 0 0.5 0.2 0.6 0.4 0 0.2-0.2 0.4-0.4 0.5-1.6 0.3-3.4 0.4-5-0.1q0 0-0.1 0z"/>
	<path class="s0" d="m199.1 256.6q-0.1 0-0.1-0.1c-0.2-0.3-0.1-0.5 0.1-0.6 2.3-1.4 4.1-4.1 5.6-8.5 1-3.2 1.4-6.9 1.1-11.3-0.2-2.2-0.5-4.5-0.8-6.7-0.6-3.9-1.1-7.9-0.9-11.8 0.6-10 5.8-19.1 10.3-26.1q0.8-1 1.4-2c2.8-4 5.5-8.1 7.1-12.7 2.1-5.9 1.7-11.9-1-16.1-4.1-6-12.2-7.6-18.5-6.9-0.2 0-0.4-0.1-0.5-0.4 0-0.2 0.2-0.4 0.4-0.5 6.5-0.6 15.1 1 19.3 7.4 2.8 4.3 3.3 10.6 1.1 16.7-1.6 4.7-4.4 8.9-7.1 12.9q-0.7 1.1-1.4 2.1c-4.5 6.8-9.7 15.9-10.2 25.6-0.2 4 0.3 7.9 0.8 11.7 0.3 2.2 0.6 4.5 0.8 6.7 0.3 4.5 0 8.3-1.1 11.7-1.5 4.5-3.5 7.5-5.9 8.9q-0.3 0.1-0.5 0z"/>
	<path class="s0" d="m239.5 246c-0.3-0.1-0.3-0.4-0.2-0.7 1.4-1.9 2.2-4.2 2.8-6.6 2-7.1 2.3-12.9 1.2-17.9-0.8-3.1-2.2-5.8-3.4-8.2-2.4-4.5-5.4-9.2-9.4-14.8l-0.6-0.8c-2.1-3.1-4.4-6.2-5.8-9.7-1.2-3.2-2.7-7.8-0.7-12 0.1-0.2 0.3-0.3 0.5-0.2 0.3 0.1 0.4 0.3 0.3 0.6-1.8 3.8-0.5 8.2 0.7 11.2 1.3 3.5 3.6 6.6 5.7 9.6l0.6 0.8c4 5.6 7 10.4 9.4 14.9 1.3 2.4 2.6 5.3 3.4 8.4 1.3 5.2 0.9 11-1.1 18.4-0.6 2.4-1.5 4.8-2.9 6.9-0.1 0.1-0.3 0.2-0.5 0.1z"/>
	<path class="s0" d="m151.2 196.4c0-0.1-0.1-0.2-0.2-0.3 0-0.3 0.1-0.5 0.4-0.5 2.4-0.2 4.5-1.5 6.5-2.7q0.9-0.6 1.8-1.2c4.5-2.4 10.1-3.9 17.2-4.4 3.3-0.1 6.7-0.2 9.9-0.1 2.6 0 5.2 0 7.8-0.1 5.2-0.2 9.8-0.8 14-1.8 5.1-1.3 8.6-2.9 11.3-5.3 2.9-2.7 5.4-8.7 4.2-12.8 0-0.2 0.1-0.5 0.4-0.5 0.2-0.1 0.4 0 0.5 0.2 1.2 4.4-1.4 10.8-4.6 13.7-2.7 2.5-6.4 4.3-11.6 5.5-4.3 1.1-9 1.7-14.2 1.8-2.6 0.2-5.3 0.1-7.8 0.1-3.3 0-6.6 0-9.9 0.2-6.9 0.4-12.4 1.8-16.8 4.3q-0.9 0.5-1.8 1.1c-2.1 1.3-4.3 2.7-6.8 2.9q-0.1-0.1-0.3-0.1z"/>
	<path class="s0" d="m262.8 188.4c-0.2-0.1-0.3-0.4-0.2-0.6 0.5-1.1 0.2-2.6-0.7-3.7-0.8-1-1.9-1.7-3.6-2.3-2.1-0.8-4.5-1.3-6.7-1.7-2.9-0.5-5.8-1.1-8.5-2.4-4.2-2.2-7.1-6.1-9.9-9.9-3.1-4.1-6-8.1-10.5-9.9-1-0.5-2-0.8-3-1.1-0.9-0.2-1.8-0.4-2.6-0.7-0.3-0.1-0.3-0.3-0.2-0.6 0-0.2 0.2-0.3 0.5-0.2 0.8 0.3 1.6 0.5 2.5 0.7 1 0.3 2.1 0.6 3.1 1.1 4.8 1.9 7.9 6.1 10.9 10.2 2.7 3.7 5.6 7.6 9.6 9.6 2.6 1.3 5.4 1.8 8.3 2.4 2.2 0.4 4.6 0.8 6.8 1.7 1.9 0.6 3.1 1.5 3.9 2.5 1.1 1.4 1.5 3.3 0.9 4.7-0.1 0.2-0.4 0.3-0.6 0.2z"/>
	<path class="s0" d="m168.6 170.4q-0.2-0.1-0.2-0.2c-0.1-0.2-0.1-0.5 0.2-0.6 6.5-2.6 13.6-1 18.5 0.9 3.1 1.1 6.2 2.7 9.2 4.2 2.5 1.2 5 2.5 7.7 3.5 2.2 0.9 4.5 1.6 6.7 1.3 1-0.3 2.1-0.8 3.2-1.5 5.8-3.7 9-11.1 7.6-17.8-0.1-0.3 0.1-0.5 0.3-0.5 0.2-0.1 0.5 0 0.5 0.3 1.5 7-1.8 14.9-7.9 18.8-1.3 0.8-2.4 1.2-3.5 1.5-2.5 0.5-4.9-0.3-7.2-1.3-2.7-1-5.3-2.3-7.8-3.6-2.9-1.5-6-3-9.1-4.1-4.7-1.8-11.7-3.4-17.8-0.9q-0.3 0.1-0.4 0z"/>
	<path class="s0" d="m175 209c-0.2-0.1-0.3-0.2-0.3-0.4 0.5-2.8 2.1-5 3.8-7.2 2.8-3.4 6.2-7.2 10.6-9.5 3.2-1.6 8.8-4 13.2-5.4 0.2-0.1 0.5 0 0.5 0.2 0.1 0.2 0 0.5-0.2 0.6-4.4 1.4-10 3.8-13.2 5.4-4.2 2.2-7.5 5.9-10.2 9.3-1.6 2-3.2 4.2-3.6 6.7-0.1 0.3-0.3 0.4-0.5 0.4q-0.1-0.1-0.1-0.1z"/>
	<path class="s0" d="m171.2 184.9c-3.7-1.7-6.8-4-9-7-0.2-0.1-0.2-0.4 0-0.5 0.2-0.2 0.5-0.2 0.6 0 4.6 5.8 12.5 9.4 21.8 9.8q0.4 0 0.3 0.4c0.1 0.3-0.1 0.4-0.4 0.5-4.8-0.3-9.4-1.4-13.3-3.2z"/>
	<path class="s0" d="m177.4 234.6q-0.1-0.1-0.2-0.3c-0.2-1.2 0.2-2.4 0.6-3.5 3.2-8 9.5-14.4 14.1-18.4 2-1.8 4.2-3.6 6.3-5.4 3.7-3.1 7.7-6.4 11-10 2.7-2.7 5.1-5.7 7.2-8.9 0.1-0.2 0.4-0.2 0.6-0.1 0.1 0.1 0.2 0.4 0.1 0.6-2.1 3.2-4.6 6.2-7.2 9-3.5 3.7-7.4 6.9-11.2 10.1-2.1 1.7-4.3 3.5-6.2 5.3-4.5 4-10.8 10.2-13.9 18.1-0.5 1-0.7 2-0.5 3 0 0.3-0.2 0.5-0.4 0.5q-0.1 0.1-0.3 0z"/>
	<path class="s0" d="m221.4 234.9c-0.1-0.1-0.2-0.3-0.2-0.6 0.8-3 0.3-6.7-1.8-10.9-0.6-1.2-1.3-2.5-2-3.7-1.2-2.1-2.4-4.3-3.3-6.7-2.3-6.2-1.8-13.8 1.5-21.3 0.2-0.8 2.6-5.2 4.6-9.1 1.2-2.4 2.2-4.5 2.4-4.8 0.1-0.3 0.3-0.4 0.6-0.2 0.2 0.1 0.3 0.3 0.2 0.5-0.2 0.4-1.2 2.4-2.5 4.9-1.9 3.7-4.3 8.2-4.5 9-3.2 7.3-3.7 14.7-1.5 20.7 0.8 2.3 2.1 4.5 3.2 6.6 0.7 1.2 1.4 2.5 2 3.8 2.2 4.4 2.9 8.2 1.9 11.5 0 0.2-0.2 0.3-0.5 0.2q0 0.1-0.1 0.1z"/>
	<path class="s0" d="m190.7 259.3c-0.2-0.1-0.3-0.3-0.3-0.4 0-1.7 0.1-3.4 0-5.1 0-2.6 0-5.2 0.2-8 0.4-5.1 1.5-9.3 3.4-12.6 1-1.7 2.3-3.3 3.4-4.8 0.9-1.1 1.8-2.2 2.5-3.3 1.4-2.1 2.2-5 2.9-7.8 0.7-2.7 1.4-5.5 2.7-7.6 0.1-0.3 0.4-0.3 0.5-0.2 0.3 0.2 0.3 0.4 0.2 0.6-1.2 2-1.9 4.8-2.6 7.4-0.7 2.9-1.5 5.9-2.9 8-0.9 1.2-1.7 2.3-2.6 3.4-1.2 1.5-2.4 3.1-3.4 4.7-1.9 3.3-2.9 7.3-3.2 12.3-0.2 2.7-0.2 5.3-0.2 7.9 0 1.7 0 3.3-0.1 5.1 0 0.2-0.1 0.4-0.3 0.4q-0.1 0-0.2 0z"/>
	<path class="s0" d="m178.7 178q-0.9-0.4-1.8-0.9c-1.8-1-3.6-2.3-5.2-3.7-1.1-0.8-2.3-1.7-3.5-2.5-0.2-0.1-0.2-0.4-0.1-0.6 0.1-0.2 0.4-0.2 0.6-0.1 1.2 0.8 2.4 1.7 3.5 2.5 1.6 1.4 3.3 2.6 5.1 3.6 6.8 4 15.8 4.4 23.9 1.1 0.3-0.1 0.5 0 0.6 0.3 0.1 0.1 0 0.4-0.3 0.5-7.7 3.1-16.1 2.9-22.8-0.2z"/>
	<path class="s0" d="m217.1 156.4q-0.2-0.1-0.3-0.3c-0.1-0.3 0-0.5 0.3-0.6 5.3-2 11.1 1 14.1 3 1.3 0.9 2.4 1.8 3.6 2.7 2.7 2 5.4 4 8.5 5.2 4.1 1.7 8.8 1.6 13.3 1.5 4.4 0 8.8-0.1 13.1 1.3 0.1 0 0.3 0.3 0.2 0.5-0.1 0.2-0.4 0.4-0.5 0.3-4.1-1.4-8.5-1.3-12.8-1.3-4.5 0.1-9.3 0.2-13.6-1.5-3.2-1.2-6-3.2-8.7-5.3-1.2-0.9-2.3-1.8-3.6-2.7-2.8-1.8-8.3-4.8-13.3-2.9q-0.2 0.1-0.3 0.1z"/>
	<path class="s0" d="m256.4 226.6c-0.2-0.1-0.3-0.2-0.3-0.4 0.4-4.7 0.9-10.4-1.6-15-1.6-3.1-4.6-5.7-9.2-8.1-1.3-0.6-2.7-1.3-4-2-2.4-1.1-5-2.3-7.3-3.8-4.4-2.9-8.6-8-10.9-13 0-0.2 0-0.5 0.2-0.6 0.2-0.1 0.5 0.1 0.6 0.2 2.1 4.9 6.4 9.9 10.6 12.6 2.3 1.6 4.7 2.7 7.2 3.9 1.3 0.7 2.7 1.3 4.1 2 4.7 2.5 7.8 5.2 9.5 8.4 2.5 4.8 2.1 10.7 1.7 15.4 0 0.3-0.3 0.4-0.5 0.5q0-0.1-0.1-0.1z"/>
	<path class="s0" d="m237.4 199.3q-0.8-0.3-1.2-0.8c-0.3-0.1-0.3-0.4-0.1-0.6 0.1-0.2 0.3-0.2 0.6-0.1 1.7 1.4 6 2.3 8.3 2.1 3.9-0.2 6.9-1.2 9.1-3 0.2-0.1 0.4-0.1 0.6 0.1 0.1 0.3 0.1 0.5-0.1 0.6-2.3 1.9-5.5 2.9-9.5 3.2-2.1 0.1-5.5-0.4-7.7-1.5z"/>
	<path class="s0" d="m222.3 214.1q-0.1-0.1-0.2-0.2c-0.8-2.6-1.6-5.3-1.6-8 0.1-3.3 1.2-6.4 2.6-9.5v-0.2c0.6-1.3 1.1-2.5 1.4-3.9 0.4-2 0.1-4.1-0.8-5.8-0.1-0.3 0-0.5 0.2-0.6 0.3-0.2 0.5-0.1 0.6 0.2 0.9 1.9 1.3 4.2 0.9 6.3-0.3 1.5-0.9 2.9-1.5 4.1l-0.1 0.3c-1.3 2.9-2.4 6-2.4 9.1-0.1 2.7 0.7 5.2 1.5 7.7 0.1 0.3 0 0.5-0.2 0.6q-0.2 0-0.4-0.1z"/>
	<path class="s0" d="m155.6 384.4c-3-1.6-4.6-4.6-6.2-7.5-0.9-1.6-1.8-3.4-3-4.8-1.7-2-3.9-3.6-6.2-5-0.8-0.6-1.7-1.3-2.6-1.9-3.7-2.7-6.9-6.2-9.3-10.1q-0.7-1.3-1.4-2.6c-1-1.7-2-3.5-3.3-5.1-2.1-2.5-4.9-4.3-7.5-6.1q-1.4-0.9-2.7-1.8c-3.6-2.5-6.9-5.6-9.7-9-2.1-2.4-4.8-6.2-4.4-10.5 0-0.2 0.1-0.4 0.4-0.3 0.2 0 0.4 0.2 0.4 0.4-0.3 3 1.1 6.2 4.2 9.9 2.8 3.3 6 6.3 9.6 8.8q1.3 1 2.7 1.8c2.7 1.8 5.5 3.7 7.6 6.3 1.4 1.6 2.4 3.4 3.5 5.2q0.6 1.3 1.4 2.6c2.3 3.7 5.4 7.1 9 9.8 0.9 0.7 1.7 1.3 2.7 1.9 2.2 1.5 4.5 3.1 6.2 5.2 1.3 1.5 2.3 3.2 3.2 4.9 1.5 2.9 3 5.7 5.8 7.1 0.2 0.2 0.3 0.4 0.2 0.6-0.1 0.2-0.4 0.3-0.6 0.2z"/>
	<path class="s0" d="m159.1 382c-0.2-0.1-0.3-0.2-0.3-0.3-0.5-5.1-2.7-10.1-6.2-13.9-4.9-5.5-11.7-8-16.5-9.1-2.4-0.6-6.9-3.3-8.5-4.9-0.2-0.2-0.1-0.4 0.1-0.6 0.1-0.1 0.4-0.1 0.5 0 1.6 1.5 5.9 4.2 8.1 4.6 7.1 1.8 12.9 4.9 17 9.4 3.6 4 5.8 9.1 6.3 14.4 0 0.2-0.1 0.4-0.4 0.5q0-0.1-0.1-0.1z"/>
	<path class="s0" d="m121.8 345.2c-0.2-0.1-0.3-0.3-0.2-0.5 0-0.2 0.3-0.3 0.5-0.3 4.1 1 8.4 0.7 12.3-0.9 1.6-0.6 3.2-1.5 4.7-2.4 2.2-1.3 4.6-2.6 7.2-3.3 4.5-1 9.9 0.2 14.7 3.5 0.2 0.1 0.3 0.4 0.1 0.5-0.1 0.3-0.4 0.3-0.6 0.2-4.6-3.1-9.7-4.4-14.1-3.3-2.4 0.6-4.7 1.9-6.9 3.2-1.5 0.8-3.2 1.7-4.8 2.4-4 1.6-8.6 1.9-12.8 0.9q0 0-0.1 0z"/>
	<path class="s0" d="m128.6 345.5q-0.2-0.1-0.2-0.2c-0.1-0.3 0-0.5 0.3-0.6 2.8-0.9 5.3-2.6 7.3-4.8 1-1.1 1.9-2.4 2.8-3.6 1.8-2.6 3.7-5.3 6.6-6.7 1.3-0.5 2.6-0.8 4-0.8 0.2 0 0.4 0.2 0.4 0.4 0 0.2-0.2 0.4-0.4 0.4-1.3 0-2.5 0.3-3.7 0.9-2.6 1.3-4.4 3.6-6.2 6.3-0.9 1.2-1.8 2.5-2.9 3.7-2.1 2.3-4.7 4-7.7 5.1q-0.2 0-0.3-0.1z"/>
	<path class="s0" d="m138.5 342.6q-0.2-0.1-0.3-0.3c0-0.3 0.1-0.5 0.4-0.5 1.8-0.5 3.9-0.2 6.6 0.8q1 0.4 2 0.9c1.2 0.5 2.6 1.1 3.9 1.4 1.4 0.4 3.9 0.7 5.9-0.5 0.3-0.1 0.5-0.1 0.6 0.1 0.2 0.2 0.1 0.5-0.1 0.6-1.7 1.1-4 1.3-6.6 0.7-1.4-0.4-2.7-1-4.1-1.6q-1-0.4-2-0.8c-2.4-0.9-4.3-1.2-6-0.8q-0.2 0-0.3 0z"/>
	<path class="s0" d="m115.3 390q-0.1 0-0.2 0 0-0.1 0-0.2c-1.8-2.5-3.6-5.1-4.7-8.1-1.1-3.5-1.2-7.2-0.3-10.7 0.9-2.9 2.4-5.5 4-8.1q0.6-1 1.2-2.1c1.6-2.9 3.4-6.6 3.1-10.5-0.5-4.4-3.5-8.2-6-11.3-0.1-0.1-0.1-0.4 0.1-0.6 0.2-0.1 0.4-0.1 0.6 0.1 2.5 3.1 5.7 7.1 6.1 11.7 0.4 4.1-1.5 8-3.2 11q-0.6 1.1-1.2 2.2c-1.5 2.5-3 5.1-3.8 7.9-0.9 3.2-0.9 6.8 0.2 10.1 1 2.7 2.6 5.1 4.2 7.6q0.2-0.1 0.5 0c0.1 0.1 0.2 0.3 0.2 0.5 0 0.2-0.2 0.4-0.4 0.5q-0.3 0.1-0.4 0z"/>
	<path class="s0" d="m124.8 381q-0.1-0.1-0.2-0.3-0.4-1.8-1.3-3.3c-0.4-0.6-0.7-1.1-1.1-1.6-0.5-0.7-1-1.4-1.5-2.1-1.6-3.3-1.5-7.1-1.2-10.8 0.3-3.8 0.5-7.4-1.3-10.5-0.1-0.1-0.1-0.4 0.2-0.5 0.1-0.1 0.4 0 0.6 0.1 1.8 3.3 1.6 7.2 1.3 11-0.2 3.6-0.4 7.3 1.2 10.3 0.4 0.7 0.9 1.3 1.4 2 0.4 0.6 0.8 1.1 1.1 1.7q1 1.6 1.4 3.5c0.1 0.3 0 0.5-0.3 0.6q-0.1 0-0.3-0.1z"/>
	<path class="s0" d="m101.2 372.2c-0.2-0.1-0.3-0.3-0.2-0.5 0.5-2.3 1.8-4.5 4.2-6.8q1.2-1.1 2.4-2.2c1.1-1 2.3-2 3.3-3.1 3.7-4 5.7-9.5 5.3-14.8 0-0.3 0.1-0.5 0.4-0.4 0.2-0.1 0.4 0.1 0.4 0.3 0.4 5.6-1.6 11.3-5.4 15.5-1.1 1.1-2.2 2.1-3.4 3.1-0.8 0.7-1.6 1.4-2.4 2.2-2.3 2.1-3.5 4.3-4 6.4-0.1 0.2-0.2 0.4-0.5 0.3q-0.1 0-0.1 0z"/>
	<path class="s0" d="m99.9 358.9q-0.2-0.1-0.3-0.3c-0.6-2.9 0.5-5.8 1.3-7.7 0.7-1.6 1.6-3.2 2.4-4.7 1.3-2.4 2.5-5 3.4-7.6 0.6-2 0.7-3.5 0.1-4.6-0.2-0.3-0.1-0.5 0.2-0.6 0.1-0.1 0.4-0.1 0.5 0.2 1 1.7 0.5 3.8 0 5.2-0.9 2.7-2.2 5.3-3.5 7.7-0.8 1.5-1.6 3.1-2.3 4.7-0.8 1.9-1.8 4.6-1.3 7.2 0.1 0.2 0 0.4-0.2 0.5q-0.2 0-0.3 0z"/>
	<path class="s0" d="m108.8 334.8q-1.1-0.5-1.8-1.2c-0.2-0.2-0.2-0.4-0.1-0.6 0.2-0.2 0.5-0.2 0.6 0 1.4 1.2 3.3 1.8 5.3 1.8 1.7-0.1 3.6-0.7 5.5-1.7 2.8-1.7 5.1-4.2 6.5-7.2 0.1-0.2 0.4-0.3 0.6-0.2 0.1 0.1 0.3 0.3 0.2 0.6-1.5 3.1-4 5.8-6.9 7.6q-3.1 1.6-5.9 1.7c-1.4 0-2.8-0.2-4-0.8z"/>
	<path class="s0" d="m167.3 320.7c-0.2-0.2-0.3-0.3-0.3-0.5 0.3-1.6-0.5-3.4-2.2-4.9-0.8-0.8-1.8-1.4-2.7-2.1q-1-0.7-2.1-1.5c-1.9-1.4-3.3-3.3-4.8-5.1-1.5-1.8-3-3.7-4.7-5.1-1.9-1.4-4.1-2.4-6.2-3.4-2-0.9-4-1.9-5.8-3.2-3.8-2.7-6.6-7.1-8.5-13.1-0.7-2.6-1.3-5.3-1.8-7.9-0.6-2.5-1.1-5-1.8-7.4-1.8-5.9-4.3-10.1-7.8-12.9-1.2-1-3.8-2.6-6.5-2.2-0.2 0.1-0.4-0.1-0.5-0.3 0-0.3 0.2-0.5 0.4-0.5 2.2-0.3 4.8 0.5 7.1 2.3 3.6 2.9 6.3 7.3 8.1 13.4 0.7 2.4 1.2 5 1.8 7.4 0.5 2.6 1.1 5.3 1.9 7.8 1.8 5.8 4.5 10.1 8.1 12.8 1.7 1.2 3.8 2.1 5.7 3 2.2 1 4.4 2.1 6.3 3.5 1.9 1.6 3.4 3.4 4.9 5.2 1.4 1.8 2.8 3.6 4.6 5 0.7 0.6 1.4 1 2 1.5 1.1 0.7 2.1 1.3 2.9 2.1 1.9 1.7 2.8 3.8 2.4 5.7 0 0.2-0.1 0.4-0.4 0.4q-0.1 0-0.1 0z"/>
	<path class="s0" d="m174.4 312.3q-0.2-0.1-0.3-0.3c0-0.2 0.1-0.5 0.3-0.6-1-6.6-4.5-13-9.6-17.5-1.3-1.2-2.5-2.1-3.8-2.8-3.4-1.9-7.6-2.4-11.9-2.9l-0.5-0.1c-4-0.3-8.1-0.7-11.8-2.4-3.9-1.8-8.7-9.2-9-13.6-0.1-0.3 0.1-0.5 0.3-0.5 0.3 0 0.5 0.2 0.5 0.4 0.3 4.2 5 11.2 8.5 12.9 3.6 1.6 7.6 2 11.6 2.4l0.5 0.1c4.4 0.5 8.6 1 12.3 3 1.2 0.7 2.6 1.7 3.9 2.8 5.2 4.7 8.8 11.3 9.9 18.3 0.1 0.3-0.2 0.7-0.6 0.9q-0.1 0-0.3-0.1z"/>
	<path class="s0" d="m114 303.5q-0.1-0.1-0.1-0.3c-1.3-4.9-2.7-10.4-1.7-15.7 0.7-4.5 3-8.4 5.2-12.2 1.4-2.3 2.9-4.8 3.9-7.4 1.3-3.3 1.1-9.9-1.1-12.9-0.2-0.2-0.2-0.4 0-0.6 0.3-0.1 0.5-0.1 0.6 0.1 2.5 3.3 2.7 10.2 1.3 13.7-1.1 2.7-2.5 5.1-3.9 7.6-2.2 3.7-4.5 7.6-5.3 11.8-0.9 5.2 0.5 10.6 1.7 15.4 0.1 0.2 0 0.5-0.2 0.5q-0.2 0-0.4 0z"/>
	<path class="s0" d="m114.4 247.5c-0.2-0.1-0.3-0.2-0.2-0.4 0-0.2 0.3-0.4 0.5-0.4 6.9 1.7 13.9 2.2 20.9 1.3q1.7-0.3 3.4-0.5c2-0.3 4-0.6 6-0.8 3.7-0.2 6.8 0.2 9.4 1.5 2.6 1.2 4.8 3.2 6.9 5.2 1.3 1.3 2.6 2.6 4 3.6 3 2.2 6.4 3.5 10 3.9 0.3 0 0.3 0.2 0.3 0.4 0 0.3-0.2 0.5-0.4 0.5-3.7-0.4-7.3-1.8-10.4-4.1-1.5-1.1-2.8-2.4-4.1-3.6-2.1-2.1-4.1-4-6.6-5.2-2.5-1.1-5.4-1.5-9.1-1.3-1.9 0.1-3.9 0.4-5.9 0.7q-1.6 0.3-3.3 0.5c-7.2 0.9-14.3 0.5-21.3-1.3q0 0-0.1 0z"/>
	<path class="s0" d="m156.5 266.1q-0.6-0.2-1.2-0.5-4.6-2.6-8.1-6.9-0.8-0.9-1.5-1.9c-1-1.4-2.1-2.8-3.4-3.9-2.6-2.5-6.2-3.8-9.8-3.7-0.3-0.1-0.5-0.3-0.4-0.5 0-0.2 0.2-0.4 0.3-0.4 3.9-0.1 7.8 1.3 10.5 3.9 1.3 1.3 2.5 2.7 3.5 4.1q0.8 1 1.5 1.9c2.3 2.7 4.9 5 7.8 6.6 1.1 0.7 2.6 1.3 4.1 1.4 0.2 0 0.4 0.2 0.4 0.5 0 0.1-0.2 0.3-0.5 0.3-1.2 0-2.3-0.4-3.2-0.9z"/>
	<path class="s0" d="m120.2 248.5c-0.1-0.1-0.3-0.2-0.2-0.5 0-0.2 0.2-0.3 0.5-0.3 1.3 0.2 2.6-0.2 4-0.8 2.5-0.9 5.1-1.9 7.2-3.7 1.3-1 2.4-2.3 3.5-3.7 1.6-1.7 3.1-3.6 5.3-4.9 1.3-0.7 2.7-1.2 3.7-1.4 2-0.6 3.6-0.8 5-0.8 1.4 0.1 3.3 0.4 5 1.7 0.1 0.2 0.2 0.4 0 0.6-0.1 0.2-0.4 0.3-0.6 0.1-1.1-0.9-2.7-1.4-4.4-1.6-1.3 0-2.9 0.2-4.7 0.7-1.5 0.5-2.7 0.9-3.6 1.5-2 1.1-3.5 2.9-5 4.7-1.1 1.4-2.3 2.7-3.7 3.8-2.1 1.9-4.8 3-7.3 3.9-1.5 0.5-3 1-4.6 0.8q0 0-0.1-0.1z"/>
	<path class="s0" d="m144.4 247.4q-0.1-0.1-0.2-0.3c0-0.2 0.1-0.4 0.3-0.5q1.7-0.3 3.3-0.8c1.5-0.3 3.1-0.7 4.6-0.9 3.2-0.6 5.9-0.6 8.2 0.1 1.5 0.4 3 1.1 4.7 2.3 0.2 0.2 0.2 0.4 0 0.6-0.1 0.2-0.3 0.2-0.6 0.1-1.5-1-2.9-1.8-4.4-2.2-2.2-0.6-4.7-0.6-7.7-0.1-1.6 0.2-3.2 0.6-4.6 1q-1.7 0.4-3.3 0.7-0.1 0-0.3 0z"/>
	<path class="s0" d="m133.9 273.5q-0.6-0.3-1.2-0.7c-2.9-1.6-6.4-5-7.1-8.6 0-0.2 0.1-0.4 0.3-0.5 0.3 0 0.5 0.1 0.5 0.3 0.6 3.4 4 6.5 6.7 8.1 3.1 1.8 6.8 2.4 9.6 2.8q1.9 0.1 3.7 0.3c2.1 0.1 4.3 0.3 6.5 0.7 4 0.7 7.2 2 9.4 4 0.3 0.1 0.3 0.4 0.1 0.6-0.1 0.1-0.4 0.2-0.6 0-2.2-1.9-5.2-3.1-9.1-3.8-2.1-0.4-4.3-0.6-6.4-0.7q-1.9-0.1-3.7-0.3c-2.6-0.3-5.7-0.8-8.7-2.2z"/>
	<path class="s0" d="m104 289.6q-0.1-0.1-0.2-0.3c-0.4-2.7 0-5.5 1.3-7.9 1.6-2.9 4.2-4.8 6.8-6.7 0.9-0.8 1.9-1.5 2.8-2.3 2.1-1.9 3.8-3.9 5-6 1.4-2.3 2.1-5.3 2-7.7 0-0.2 0.2-0.4 0.4-0.5 0.3 0.1 0.5 0.2 0.5 0.4 0.1 2.6-0.7 5.7-2.2 8.3-1.2 2.1-2.9 4.2-5.2 6.2-0.8 0.7-1.8 1.5-2.8 2.2-2.5 1.9-5 3.8-6.5 6.5-1.2 2.2-1.7 4.9-1.2 7.4 0 0.2-0.1 0.4-0.4 0.4q-0.1 0.1-0.3 0z"/>
	<path class="s0" d="m133.2 315.8q-0.3-0.1-0.7-0.5l-1.5-1.6q-1.1-1.1-2.2-2.4c-0.9-1.2-1.7-2.6-2.4-4.1-1.3-2.9-1.9-5.5-1.6-7.9 0.1-1.9 0.8-3.9 2-5.9 0.3-0.8 0.8-1.4 1.2-2.1 0.6-0.9 1.2-1.7 1.7-2.7q1.4-2.7 1-5c-0.1-0.3 0.1-0.6 0.3-0.5 0.2-0.1 0.5 0 0.5 0.3 0.4 1.7 0 3.6-1.1 5.6-0.4 1-1.1 1.9-1.7 2.8-0.4 0.7-0.8 1.3-1.2 2.1q-1.7 2.8-1.9 5.5c-0.2 2.2 0.4 4.6 1.5 7.4 0.7 1.5 1.5 2.8 2.4 4 0.6 0.8 1.4 1.6 2.1 2.4l1.5 1.5c0.3 0.3 0.5 0.4 0.5 0.3 0.3 0 0.5 0 0.6 0.2 0.2 0.3 0.1 0.5-0.2 0.6-0.2 0.1-0.5 0.1-0.8 0z"/>
	<path class="s0" d="m149.4 316.4c-1.3-0.7-2.7-1.4-3.8-2.4q-1.5-1.3-2.7-3.2c-3-4.5-4.3-10.2-3.4-15.5 0-0.3 0.2-0.4 0.4-0.4 0.3 0.1 0.4 0.3 0.4 0.5-0.9 5.1 0.4 10.6 3.3 15q1.2 1.7 2.6 3c3.1 2.7 7.4 3.7 10.8 4.3q0.7 0.1 0.9-0.1c0.2-0.2 0.4-0.2 0.6-0.1 0.2 0.2 0.2 0.5 0.1 0.6-0.5 0.6-1.3 0.5-1.7 0.4-2.3-0.4-5-1-7.5-2.1z"/>
	<path class="s0" d="m155 306.5q-0.1-0.1-0.2-0.3c0-0.2 0.1-0.5 0.3-0.5 5.2-1 11 1 14.5 4.9 0.2 0.2 0.2 0.5 0 0.6-0.1 0.2-0.4 0.2-0.6 0-3.4-3.7-8.7-5.6-13.8-4.6q0-0.1-0.2-0.1z"/>
	<path class="s0" d="m107.6 197.6q-0.1-0.1-0.2-0.3c0-0.2 0.1-0.4 0.3-0.5l1.9-0.2c0.2-0.1 0.4 0.1 0.5 0.3 0 0.2-0.1 0.4-0.4 0.5l-1.9 0.3q0 0-0.2-0.1z"/>
	<path class="s0" d="m106.9 199.9q-0.1-0.1-0.2-0.3c0-0.2 0.1-0.4 0.3-0.5l2.4-0.6c0.2-0.1 0.4 0 0.5 0.3 0.1 0.2 0 0.4-0.3 0.5l-2.4 0.6q-0.1 0.1-0.3 0z"/>
	<path class="s0" d="m26.6 190.8q-0.2-0.1-0.2-0.3c-0.9-2.6-0.4-5.6 1.3-8.1 1.5-2.2 3.9-3.8 6.8-4.6 0.2 0 0.4 0.1 0.5 0.3 0.1 0.2 0 0.5-0.3 0.6-2.6 0.7-4.9 2.2-6.4 4.2-1.5 2.2-1.9 5-1.1 7.3 0.1 0.2 0 0.5-0.2 0.5q-0.3 0.1-0.4 0.1z"/>
	<path class="s0" d="m28.4 192.8q-0.1 0-0.2-0.2l-0.3-1c-0.1-0.2 0-0.4 0.2-0.5 0.2-0.1 0.5 0 0.6 0.2l0.3 1.1c0.1 0.1-0.1 0.4-0.3 0.5q-0.1 0-0.3-0.1z"/>
	<path class="s0" d="m41.7 191.4q-0.1 0-0.1 0c-0.2-0.2-0.2-0.5-0.1-0.7 1.2-1.5 1.8-3.3 1.8-5.2-0.1-0.3 0.1-0.5 0.4-0.4 0.2 0 0.4 0.2 0.4 0.5 0 1.9-0.6 4-1.9 5.7-0.1 0.1-0.4 0.2-0.5 0.1z"/>
	<path class="s0" d="m44.2 174.3c-0.2-0.1-0.2-0.3-0.3-0.5 0.4-1.4 1.4-2.6 2.7-3.4 1.3-0.8 2.8-1 4.2-0.6 0.2 0 0.4 0.2 0.3 0.5-0.1 0.2-0.3 0.3-0.5 0.3-1.3-0.3-2.6-0.1-3.6 0.5-1.1 0.6-1.9 1.8-2.2 2.9-0.1 0.3-0.3 0.4-0.5 0.3q0 0-0.1 0z"/>
	<path class="s0" d="m66.4 177.2c-0.2-0.1-0.3-0.4-0.1-0.6 0.8-1.5 1.8-2.4 2.9-2.9 0.6-0.3 1.3-0.4 1.9-0.5l2.2-0.4c0.2-0.1 0.4 0 0.5 0.3 0.1 0.3-0.1 0.5-0.3 0.5l-2.2 0.4c-0.6 0.1-1.2 0.2-1.7 0.5-1 0.4-1.8 1.2-2.6 2.5-0.1 0.3-0.3 0.3-0.6 0.2z"/>
	<path class="s0" d="m61 200.5c-1.5-0.7-2.8-2-3.5-3.5-1.2-2.3-0.9-5.3 0.7-7.2 0.2-0.2 0.5-0.3 0.6-0.1 0.2 0.2 0.3 0.4 0.1 0.6-1.4 1.7-1.7 4.4-0.7 6.4 1.1 2 3.2 3.4 5.5 3.6 2.2 0.2 4.6-0.8 6.2-2.5 0.2-0.2 0.5-0.2 0.6-0.1 0.2 0.2 0.2 0.5 0.1 0.7-1.8 1.9-4.4 3-6.9 2.7-1 0-1.9-0.2-2.7-0.6z"/>
	<path class="s0" d="m62.6 198.4c-0.3-0.2-0.6-0.5-0.8-0.8-0.1-0.2 0-0.4 0.2-0.5 0.2-0.1 0.5-0.1 0.6 0.1 0.1 0.2 0.4 0.4 0.6 0.4 0.3 0.2 0.6 0.1 0.7 0 0.3-0.2 0.5-0.1 0.6 0.1 0.2 0.2 0.1 0.5-0.1 0.6-0.4 0.3-0.9 0.3-1.4 0.2q-0.2 0-0.4-0.1z"/>
	<path class="s0" d="m80.6 192.9q-0.2 0-0.2-0.2c-0.1-0.2 0-0.4 0.2-0.5 1-0.4 2.1-0.6 3.2-0.6 0.2 0 0.4 0.2 0.4 0.4 0 0.3-0.2 0.4-0.4 0.4-1 0.1-2 0.3-2.9 0.6q-0.2 0-0.3-0.1z"/>
	<path class="s0" d="m96.5 210.2q-0.2-0.1-0.2-0.3c-0.1-0.2 0.1-0.5 0.3-0.5 0.9-0.2 1.6-0.8 2.1-1.8 0.6-0.9 0.8-1.9 1-2.9 0.2-1.1 0.4-2.2 0.3-3.4-0.1-0.2 0.1-0.5 0.3-0.5 0.3 0 0.5 0.1 0.5 0.4 0.1 1.3 0 2.6-0.3 3.7-0.2 1-0.5 2.2-1 3.1-0.7 1.1-1.6 1.9-2.7 2.2q-0.2 0.1-0.3 0z"/>
	<path class="s0" d="m49.1 215.3c-2.4-1.1-4-3.1-4.2-5.4-0.1-2.4 1.4-4.4 2.9-6.4 0.2-0.2 0.5-0.2 0.6-0.1 0.2 0.2 0.3 0.5 0.1 0.7-1.5 1.8-2.9 3.7-2.7 5.8 0.1 1.9 1.7 3.8 3.9 4.8 0.2 0.1 0.3 0.3 0.2 0.5-0.1 0.2-0.4 0.3-0.5 0.3q-0.2-0.1-0.3-0.2z"/>
	<path class="s0" d="m47.3 210.9q-0.2-0.1-0.3-0.3c-0.1-0.6-0.2-1.3-0.1-2 0.2-0.2 0.4-0.3 0.6-0.3 0.2 0.1 0.4 0.3 0.3 0.5-0.1 0.5-0.1 1.1 0.1 1.6 0 0.2-0.1 0.4-0.3 0.5q-0.2 0.1-0.3 0z"/>
	<path class="s0" d="m26.8 225.3q-0.1-0.1-0.2-0.1c-1.4-1.3-2.2-3.5-1.8-5.7 0.2-1.8 1.2-3.7 2.9-5.2 2.2-2.2 5.1-3.2 8-3.1 0.3 0 0.5 0.2 0.4 0.5 0 0.1-0.2 0.3-0.4 0.3-2.7-0.1-5.5 1-7.5 2.9-1.4 1.4-2.3 3.1-2.6 4.8-0.3 1.9 0.3 3.8 1.6 4.8 0.2 0.2 0.2 0.5 0.1 0.7-0.2 0.1-0.4 0.1-0.5 0.1z"/>
	<path class="s0" d="m27.7 219.3c-0.2-0.1-0.3-0.2-0.3-0.4l0.3-2.1c0.1-0.3 0.3-0.4 0.5-0.4 0.2 0 0.4 0.2 0.4 0.5l-0.3 2.1c0 0.2-0.3 0.4-0.5 0.4q0-0.1-0.1-0.1z"/>
	<path class="s0" d="m36.4 236.1c-0.8-0.4-1.5-1.1-1.9-2-0.4-1-0.3-2.2 0.2-3.1 0.1-0.2 0.5-0.3 0.7-0.1 0.1 0 0.2 0.3 0.1 0.5-0.4 0.8-0.5 1.6-0.2 2.4 0.3 0.8 1 1.3 1.8 1.6 0.2 0.1 0.3 0.4 0.2 0.6 0 0.2-0.3 0.3-0.5 0.2q-0.1 0-0.4-0.1z"/>
	<path class="s0" d="m47.7 227.6c-0.2-0.1-0.3-0.4-0.2-0.6 0.6-1.4 1.1-3 2.4-4.2 0.8-0.8 1.7-1.2 2.4-1.5 2.3-1.1 4.4-1.5 6.5-1.4 2.4 0.1 4.5 0.9 6.1 2.4 0.2 0.1 0.2 0.4 0 0.6-0.1 0.1-0.4 0.2-0.6 0-1.4-1.3-3.4-2.1-5.5-2.1-2-0.2-4 0.3-6.1 1.2-1 0.5-1.7 0.9-2.2 1.4-1.1 1-1.7 2.5-2.2 3.9-0.1 0.2-0.4 0.4-0.6 0.3z"/>
	<path class="s0" d="m66.2 225.4q-0.2 0-0.3-0.2l-0.4-0.8c0-0.2 0-0.5 0.2-0.6 0.2-0.1 0.5 0 0.6 0.2l0.4 0.9c0.1 0.2 0 0.5-0.3 0.6q-0.1 0-0.2-0.1z"/>
	<path class="s0" d="m74.5 242.7c-0.6-0.3-1.2-0.7-1.6-1-0.7-0.4-1.4-0.8-1.9-1.5-0.6-0.8-0.8-1.7-0.7-2.5 0.1-0.2 0.3-0.3 0.6-0.3 0.2 0 0.3 0.3 0.2 0.5-0.1 0.5 0.1 1.2 0.5 1.7 0.5 0.6 1.1 1 1.7 1.4 0.9 0.5 2 1.2 3.2 1.4 1.9 0.5 4 0 5.5-1.1 1.6-1.2 2.5-3 2.7-4.9 0-0.3 0.2-0.5 0.5-0.4 0.2 0 0.4 0.2 0.4 0.5-0.2 2.1-1.3 4.2-3.1 5.5-1.7 1.3-4 1.8-6.1 1.3-0.7-0.2-1.3-0.4-1.9-0.6z"/>
	<path class="s0" d="m76.7 241.4c-0.2-0.1-0.3-0.3-0.2-0.5 0.1-0.3 0.3-0.3 0.6-0.2 0.5 0.1 1.1 0.1 1.6-0.2 0.3-0.1 0.5 0 0.6 0.2 0.1 0.2 0 0.4-0.2 0.6-0.7 0.4-1.6 0.4-2.4 0.1z"/>
	<path class="s0" d="m87.4 220.7c-0.3-0.1-0.3-0.4-0.2-0.5 1.5-2.7 1.1-6.4-0.9-8.7-1.9-2.3-5.5-3.2-8.4-2.1-0.2 0-0.5-0.1-0.5-0.3-0.1-0.2 0-0.4 0.2-0.5 3.2-1.3 7.1-0.2 9.3 2.3 2.3 2.7 2.7 6.6 1 9.6-0.1 0.3-0.3 0.3-0.5 0.2z"/>
	<path class="s0" d="m84.6 223.3q-0.2-0.1-0.2-0.2c-0.1-0.2-0.1-0.5 0.2-0.6 0.2-0.2 0.5-0.5 0.7-0.8 0.1-0.2 0.3-0.3 0.6-0.2 0.2 0.1 0.3 0.4 0.2 0.6q-0.4 0.7-1.1 1.2-0.3 0.1-0.4 0z"/>
	<path class="s0" d="m98.9 235.2q0 0 0 0c-0.3-0.1-0.3-0.3-0.2-0.5 1-1.7 1-4.1 0-6.2-1.1-2.2-3.2-3.5-4.8-4.3-0.1-0.1-0.2-0.4-0.2-0.6 0.2-0.2 0.4-0.3 0.7-0.2 1.6 0.9 3.8 2.4 5 4.7 1.2 2.4 1.2 5 0.1 7-0.2 0.1-0.4 0.2-0.6 0.1z"/>
	<path class="s0" d="m117.7 238.7c-0.2-0.1-0.3-0.2-0.4-0.4 0.1-0.2 0.3-0.4 0.5-0.4 1.8 0 3.6-1.1 4.5-2.8 1-1.8 0.8-4.1 0.6-6 0-0.2 0.2-0.4 0.4-0.4 0.3 0 0.5 0.2 0.5 0.3 0.1 2.1 0.3 4.5-0.7 6.5-1.1 1.9-3.1 3.2-5.3 3.2q-0.1 0-0.1 0z"/>
	<path class="s0" d="m120.3 235.7q-0.1-0.1-0.2-0.1c-0.2-0.2-0.1-0.5 0-0.6q0.8-0.9 1-2.1c0-0.2 0.2-0.4 0.4-0.3 0.2 0 0.4 0.2 0.4 0.4-0.1 0.9-0.5 1.9-1.2 2.6-0.2 0.1-0.3 0.1-0.4 0.1z"/>
	<path class="s0" d="m108.5 215.8q-0.2-0.1-0.3-0.2c-0.2-0.8-0.9-1.4-1.6-1.6-0.2-0.1-0.4-0.3-0.3-0.6 0.1-0.2 0.3-0.3 0.6-0.2 1 0.2 1.8 1.1 2.1 2.1 0.1 0.2 0 0.4-0.3 0.5q-0.1 0.1-0.2 0z"/>
	<path class="s0" d="m108.8 245.7q0-0.1 0-0.1c-0.2-0.1-0.3-0.4-0.1-0.6 0.3-0.5 0.6-1.2 0.6-1.9-0.1-0.2 0.1-0.4 0.3-0.3 0.3-0.1 0.5 0.1 0.5 0.4 0 0.8-0.3 1.6-0.7 2.3-0.2 0.2-0.4 0.3-0.6 0.2z"/>
	<path class="s0" d="m97.7 272.3q-0.7-0.2-1.2-0.7c-2.2-1.4-3.8-3.6-4.4-6.1-0.6-2.9 0.2-6.7 3.1-8.5 0.2-0.2 0.5 0 0.6 0.1 0.1 0.2 0.1 0.5-0.2 0.6-2.5 1.5-3.2 5-2.6 7.6 0.5 2.3 2 4.3 3.9 5.6 2.1 1.3 4.5 1.8 6.8 1.4 0.2 0 0.4 0.1 0.5 0.3 0 0.3-0.1 0.5-0.3 0.5-2.1 0.4-4.3 0.1-6.2-0.8z"/>
	<path class="s0" d="m98.1 269.8c-0.6-0.3-1.2-0.9-1.3-1.6 0-0.2 0.1-0.4 0.3-0.5 0.3 0 0.5 0.1 0.5 0.3 0.1 0.7 0.8 1.2 1.4 1.2 0.3 0 0.5 0.2 0.5 0.4 0 0.3-0.2 0.5-0.4 0.5q-0.6-0.1-1-0.3z"/>
	<path class="s0" d="m75.6 263.2q-0.1 0-0.2-0.1c-0.1 0-0.2-0.3-0.1-0.5 0.1-0.2 0.3-0.3 0.6-0.2 0.2 0.1 0.5 0.2 0.9 0.1 1.6 0.1 3.2 0.2 4.8-0.3 1.5-0.6 2.8-1.7 3.6-3.1 0.8-1.3 1.2-3 1.1-4.6 0-0.3 0.2-0.5 0.4-0.5 0.2 0 0.4 0.2 0.4 0.4 0.2 1.9-0.3 3.7-1.2 5.2-0.9 1.5-2.3 2.8-4 3.4-1.7 0.6-3.5 0.5-5.2 0.4-0.3 0-0.7 0-1.1-0.2z"/>
	<path class="s0" d="m82.1 259.3q-0.1 0-0.1-0.2c-0.2-0.1-0.2-0.4 0-0.5l0.9-0.9c0.1-0.2 0.4-0.2 0.5-0.1 0.2 0.2 0.2 0.5 0 0.7l-0.8 0.8c-0.1 0.2-0.3 0.3-0.5 0.2z"/>
	<path class="s0" d="m66.7 249.9c-0.1-0.1-0.2-0.2-0.2-0.5 0.3-1.8 1.5-3.5 3.2-4.3 0.3-0.1 0.5-0.1 0.6 0.1 0.1 0.3 0 0.5-0.2 0.6-1.4 0.7-2.5 2.2-2.8 3.8 0 0.2-0.2 0.3-0.5 0.3q-0.1 0-0.1 0z"/>
	<path class="s0" d="m59.9 271.3c-1.5-0.7-2.7-1.8-3.5-3.2-0.2-0.3-0.1-0.5 0.1-0.6 0.3-0.2 0.5-0.1 0.6 0.2 1 1.8 2.9 3 4.9 3.4 2 0.3 4.2-0.4 5.7-1.8q1.6-1.6 2.5-4.6c0-0.2 0.2-0.3 0.5-0.2 0.2 0 0.3 0.3 0.3 0.5-0.6 2.1-1.5 3.7-2.8 4.9-1.6 1.6-4.1 2.4-6.3 2q-1.1-0.1-2-0.6z"/>
	<path class="s0" d="m61.5 269.2q-0.4-0.2-0.6-0.5c-0.2-0.1-0.3-0.4-0.1-0.6 0.2-0.1 0.4-0.2 0.6 0 0.5 0.4 1.3 0.6 1.9 0.4 0.2 0 0.5 0.1 0.5 0.3 0.1 0.4-0.1 0.5-0.3 0.6-0.7 0.1-1.4 0.1-2-0.2z"/>
	<path class="s0" d="m38.5 276c-1.1-0.6-2.2-1.3-3-2.5-1.8-2.4-1.8-5.9-0.2-8.5 0.1-0.2 0.3-0.3 0.5-0.2 0.3 0.1 0.3 0.4 0.2 0.7-1.4 2.2-1.3 5.4 0.2 7.5 1.6 2.3 4.5 3.3 7.1 2.8 0.3-0.1 0.6 0 0.5 0.3 0.1 0.2 0 0.4-0.2 0.5-1.7 0.4-3.4 0.1-5.1-0.6z"/>
	<path class="s0" d="m37.8 272.5q-0.2-0.1-0.4-0.3c-0.2-0.2-0.2-0.4-0.2-0.7 0.1-0.3 0.3-0.3 0.6-0.3 0.1 0 0.3 0.2 0.3 0.5 0.2 0.1 0.4 0.3 0.4 0.6-0.1 0.2-0.3 0.3-0.6 0.3q0 0-0.1-0.1z"/>
	<path class="s0" d="m36.7 253.8q0-0.1-0.1-0.2c-1.1-1.3-1.6-3.1-1.5-4.8 0.1-1.7 0.9-3.4 2.3-4.5 0.2-0.2 0.4-0.2 0.5 0 0.2 0.2 0.2 0.4 0 0.6-1.1 1-1.8 2.5-2 4-0.1 1.4 0.4 3 1.3 4.2 0.2 0.2 0.2 0.4 0 0.6-0.1 0.2-0.3 0.2-0.5 0.1z"/>
	<path class="s0" d="m51.8 245.7c-0.2 0-0.4-0.3-0.3-0.5 0-0.2 0-0.4-0.1-0.7-0.1-0.1-0.2-0.4 0-0.5 0.2-0.2 0.5-0.2 0.6 0 0.4 0.4 0.5 0.9 0.4 1.4-0.1 0.2-0.3 0.4-0.5 0.3q-0.1 0-0.1 0z"/>
	<path class="s0" d="m26.4 258.2q0 0-0.1 0c-1.8-1.4-2.6-4-1.9-6.1 0-0.3 0.3-0.5 0.5-0.3 0.1 0 0.3 0.2 0.2 0.4-0.5 2 0.2 4.1 1.7 5.3 0.2 0.1 0.3 0.4 0.1 0.6 0 0.1-0.3 0.2-0.5 0.1z"/>
	<path class="s0" d="m39.4 256.1q-0.5-0.3-0.9-0.6c-0.2-0.2-0.3-0.4-0.1-0.6 0.1-0.2 0.4-0.3 0.6-0.1 1.7 1.1 4 1.4 6.1 0.9 2-0.6 3.8-1.9 5.2-3.7 0.1-0.2 0.4-0.3 0.6-0.1 0.2 0.1 0.2 0.4 0.1 0.6-1.4 2-3.5 3.4-5.7 4-2 0.5-4.1 0.4-5.9-0.4z"/>
	<path class="s0" d="m22.1 291q-0.9-0.4-1.6-1.2-1.3-1.4-1.7-3.8c-0.3-2.1-0.1-4.2 0.7-6.1 0.1-0.2 0.3-0.3 0.6-0.2 0.2 0.1 0.3 0.3 0.2 0.6-0.7 1.7-1 3.7-0.6 5.5 0.2 1.4 0.7 2.6 1.5 3.4 0.8 1 2.1 1.5 3.2 1.4 0.2-0.1 0.4 0.1 0.5 0.3 0 0.2-0.1 0.4-0.4 0.5-0.7 0.1-1.6 0-2.4-0.4z"/>
	<path class="s0" d="m25.8 292.4c-0.2-0.2-0.3-0.4-0.2-0.6 0.1-0.2 0.4-0.3 0.6-0.2 0.2 0.1 0.6 0.2 0.8 0 0.3-0.1 0.5 0 0.6 0.2 0.1 0.3-0.1 0.6-0.3 0.6-0.5 0.2-1 0.2-1.5 0z"/>
	<path class="s0" d="m39.4 303.1q-0.3-0.2-0.6-0.3c-1.7-1.1-2.8-3.1-2.7-5.1 0-0.2 0.2-0.4 0.5-0.3 0.2-0.1 0.4 0.1 0.3 0.4 0 1.7 0.9 3.4 2.3 4.2 0.7 0.5 1.6 0.7 2.8 0.9q2.3 0.3 4.1-0.3c2.2-0.7 4.1-2.5 4.7-4.7 0-0.2 0.3-0.4 0.5-0.3 0.3 0.1 0.4 0.3 0.2 0.5-0.6 2.5-2.6 4.6-5.2 5.4q-1.9 0.6-4.4 0.3c-1-0.2-1.8-0.4-2.5-0.7z"/>
	<path class="s0" d="m59.2 292.2q-0.7-0.2-1.1-0.6c-0.6-0.5-1.1-1.1-1.6-2-0.6-1.1-1.1-2.2-1.2-3.3 0-0.2 0.1-0.4 0.4-0.5 0.2 0 0.4 0.2 0.4 0.4 0.2 0.9 0.5 1.9 1.1 3 0.5 0.8 0.9 1.2 1.5 1.7 1.3 1.1 3.3 1.3 5.1 0.6 1.5-0.6 2.9-1.9 3.9-3.8 0-0.1 0.3-0.3 0.5-0.1 0.2 0.1 0.3 0.3 0.2 0.6-1 1.9-2.5 3.4-4.4 4.1-1.6 0.6-3.4 0.6-4.8-0.1z"/>
	<path class="s0" d="m60.3 290.2q-0.4 0-0.6-0.4c-0.1-0.2 0-0.4 0.1-0.5 0.3-0.2 0.5-0.2 0.6 0.1 0.2 0.1 0.5 0.3 0.8 0.1 0.2-0.1 0.4 0 0.5 0.3 0.1 0.2 0 0.4-0.2 0.5-0.4 0.2-0.8 0.1-1.2-0.1z"/>
	<path class="s0" d="m68.7 280.6q-0.2-0.1-0.3-0.2c-0.2-1-0.8-1.9-1.5-2.6-0.2-0.2-0.1-0.5 0-0.6 0.2-0.2 0.5-0.2 0.6-0.1 0.8 0.9 1.4 1.9 1.7 3 0.1 0.2 0 0.5-0.2 0.5q-0.2 0-0.3 0z"/>
	<path class="s0" d="m82.6 284.9c-0.2-0.1-0.2-0.3-0.3-0.4 0-1 0-2.1-0.3-3-0.3-1.1-0.8-2-1.5-2.5-0.3-0.1-0.2-0.4-0.2-0.5 0.1-0.2 0.4-0.3 0.6-0.1 0.9 0.6 1.6 1.6 1.9 2.8 0.4 1.1 0.4 2.2 0.5 3.3-0.1 0.2-0.2 0.4-0.5 0.4q-0.1 0-0.2 0z"/>
	<path class="s0" d="m77.2 293.8q-0.1-0.1-0.2-0.3c0-0.3 0.2-0.5 0.4-0.5 0.7-0.1 1.3-0.6 2.1-1.4 1.4-1.6 2.5-3.7 2.9-5.8 0.1-0.2 0.3-0.4 0.5-0.4 0.3 0.1 0.4 0.3 0.3 0.6-0.5 2.3-1.5 4.4-3 6.1-0.6 0.7-1.5 1.5-2.7 1.7q-0.1 0.1-0.3 0z"/>
	<path class="s0" d="m55.5 314.9q-0.8-0.4-1.5-1c-1.7-1.3-2.6-3.3-2.3-5.2 0-0.2 0.2-0.4 0.4-0.3 0.2-0.1 0.4 0.2 0.4 0.4-0.2 1.6 0.6 3.4 2 4.5 1.2 0.9 3 1.6 4.8 1.6 0.8 0 1.4-0.1 1.9-0.2 1.5-0.6 2.5-2.1 3.4-3.7 0.2-0.3 0.4-0.3 0.6-0.2 0.2 0.1 0.3 0.4 0.2 0.5-1 1.8-2.1 3.6-3.9 4.1-0.6 0.2-1.3 0.4-2.2 0.3-1 0-2.4-0.2-3.8-0.8z"/>
	<path class="s0" d="m56.7 312.5q-0.3-0.2-0.5-0.4c-0.1-0.2 0-0.5 0.1-0.6 0.2-0.2 0.4-0.1 0.6 0.1 0.1 0.1 0.3 0.2 0.4 0.1 0.3-0.1 0.5 0 0.6 0.2 0.1 0.2 0 0.4-0.2 0.5-0.3 0.2-0.7 0.2-1 0.1z"/>
	<path class="s0" d="m37.7 316c-0.8-0.3-1.6-0.9-2.2-1.6q-1-1.2-0.9-2.4c-0.1-0.2 0.1-0.4 0.3-0.4 0.3 0.1 0.5 0.2 0.5 0.4q0.1 0.9 0.8 1.8c0.8 0.9 1.7 1.5 2.7 1.8 1.1 0.2 2.2 0 3.1-0.5 0.2-0.1 0.5-0.1 0.5 0.2 0.2 0.1 0.1 0.4-0.1 0.6-1.1 0.6-2.4 0.8-3.7 0.5q-0.6-0.2-1-0.4z"/>
	<path class="s0" d="m20 310.9q-1.5-0.7-2.6-1.8-1.4-1.4-1.8-3c-0.4-1.3-0.2-2.5 0.4-3.5 0.1-0.3 0.4-0.2 0.6-0.1 0.2 0 0.2 0.3 0.1 0.6-0.5 0.7-0.6 1.7-0.4 2.8 0.3 0.9 0.9 1.8 1.6 2.6q1.1 1 2.4 1.6c0.1 0.1 0.3 0.4 0.2 0.6-0.1 0.2-0.4 0.2-0.5 0.2z"/>
	<path class="s0" d="m19.6 306.5q-0.1-0.1-0.2-0.2l-0.2-0.9c-0.1-0.2 0-0.4 0.2-0.5 0.3-0.1 0.5 0.1 0.6 0.4l0.2 0.7c0.1 0.2-0.1 0.4-0.3 0.5q-0.1 0.1-0.3 0z"/>
	<path class="s0" d="m46.8 285q-0.2-0.1-0.3-0.2c-0.2-0.2-0.3-0.5-0.1-0.6 0.1-0.2 0.4-0.3 0.6-0.1q0.2 0.1 0.5 0.2c0.3-0.1 0.4 0.2 0.4 0.4 0 0.2-0.2 0.4-0.4 0.4q-0.4 0-0.7-0.1z"/>
	<path class="s0" d="m42.3 301.3q-0.3-0.1-0.6-0.4c-0.2-0.1-0.2-0.4-0.1-0.6 0.2-0.2 0.5-0.2 0.7 0 0.4 0.4 1.2 0.6 2 0.5 0.8-0.1 1.5-0.5 2.2-0.8 0.3-0.1 0.5 0 0.6 0.3 0.1 0.2 0 0.5-0.2 0.5-0.8 0.3-1.6 0.7-2.5 0.8-0.7 0.1-1.4 0-2.1-0.3z"/>
	<path class="s0" d="m19.1 332.2q0 0-0.1-0.1c-1.2-1.3-1.8-3-1.8-4.8 0.1-1.8 0.8-3.4 1.8-4.9 0.2-0.2 0.4-0.2 0.6-0.1 0.2 0.2 0.3 0.4 0.1 0.6-1 1.3-1.6 2.8-1.7 4.4 0.1 1.6 0.6 3.1 1.6 4.3 0.1 0.1 0.2 0.4 0 0.6-0.1 0.1-0.3 0.1-0.5 0z"/>
	<path class="s0" d="m33.3 331.6q0-0.1 0-0.1c-0.3-0.1-0.3-0.4-0.1-0.6 0.9-1.2 1.3-2.8 1.4-4.5q0.2-2.4-0.6-5.1c-0.1-0.2 0-0.4 0.2-0.5 0.2 0 0.4 0.1 0.5 0.3q0.9 2.8 0.8 5.3c-0.2 1.9-0.7 3.6-1.6 5.1-0.2 0.1-0.4 0.2-0.6 0.1z"/>
	<path class="s0" d="m32.4 327.8q-0.1-0.1-0.1-0.1c-0.2-0.1-0.3-0.4-0.1-0.5 0.2-0.5 0.4-1.2 0.2-1.8 0-0.2 0.2-0.5 0.4-0.5 0.3 0 0.5 0.2 0.5 0.4 0.2 0.8 0.1 1.6-0.4 2.3-0.1 0.1-0.3 0.2-0.5 0.2z"/>
</svg>