<?xml version="1.0" encoding="UTF-8"?>
<svg width="196px" height="45px" viewBox="0 0 196 45" version="1.1" xmlns="http://www.w3.org/2000/svg" xmlns:xlink="http://www.w3.org/1999/xlink">
    <!-- Generator: Sketch 47.1 (45422) - http://www.bohemiancoding.com/sketch -->
    <title>Saranskiy Distillers logo</title>
    <desc>Created with Sketch.</desc>
    <defs></defs>
    <g id="Page-1" stroke="none" stroke-width="1" fill="none" fill-rule="evenodd">
        <g id="index" transform="translate(-1097.000000, -34.000000)" fill="#6D6E71">
            <g id="Saranskiy-Distillers-logo" transform="translate(1097.000000, 34.000000)">
                <path d="M65.6731839,6.24475336 L65.383139,6.0909417 C65.248452,6.22468073 65.0712166,6.30707965 64.8821525,6.3238565 C64.5199389,6.23314901 64.1690894,6.10194899 63.8362332,5.93273543 C62.3838901,5.25404422 60.8069006,4.88298786 59.2043049,4.84286996 C56.4356951,4.84286996 53.1573094,5.84923767 53.1573094,9.16278027 C53.1573094,15.0120179 62.8474439,11.852287 62.7903139,14.664843 C62.7507623,16.2688789 60.483139,16.5633184 59.2746188,16.5633184 C57.9562332,16.5633184 54.4405381,15.921704 54.4405381,14.1990135 L54.1373094,14.0715695 L52.6651121,17.3851121 L52.955157,17.5213453 C53.0804663,17.4004121 53.2468716,17.3313381 53.4209865,17.3279821 C53.7568108,17.3929608 54.0737196,17.532641 54.3482511,17.7366816 C55.9080163,18.5068824 57.627448,18.8983467 59.3669058,18.8792825 C62.1179372,18.8792825 65.6643946,17.8333632 65.6643946,14.4846637 C65.6643946,10.4196413 60.7424215,10.3800897 57.7980269,10.0680717 C56.9674439,9.99336323 55.9215247,9.73847534 55.9215247,8.7496861 C56.0533632,7.22035874 58.246278,7.1632287 59.3493274,7.1632287 C60.7304912,7.1857659 62.0754344,7.6086368 63.2209865,8.38053812 C63.5562438,8.5473426 63.7724493,8.88516379 63.7834978,9.25946188 L64.0735426,9.41327354 L65.6819731,6.23596413 L65.6731839,6.24475336 Z M79.1075336,15.1965919 L80.0567713,17.0950673 C80.1752114,17.3007242 80.2359424,17.5345384 80.2325561,17.7718386 C80.210583,18.1190135 79.8853812,18.2772197 79.5733632,18.3123767 L79.5733632,18.6419731 L84.5700448,18.6419731 L84.5700448,18.3123767 C83.8932735,18.1981166 83.6427803,17.675157 83.3527354,17.0950673 L78.158296,6.65345291 C78.0604151,6.44493938 77.9951978,6.22260759 77.9649327,5.99426009 C77.9649327,5.66466368 78.2769507,5.48887892 78.5669955,5.39219731 L78.5669955,5.08017937 L73.7592825,5.08017937 L73.7592825,5.39219731 C74.0865475,5.46582537 74.3197469,5.7555028 74.3217937,6.0909417 C74.3043118,6.35764309 74.2245385,6.61652994 74.0888789,6.84681614 L69.1097758,17.2884305 C68.8592825,17.8289686 68.6703139,18.1981166 68.0286996,18.3123767 L68.0286996,18.6419731 L72.5024215,18.6419731 L72.5024215,18.3123767 C72.2123767,18.2376682 71.8432287,18.0838565 71.8432287,17.7147085 C71.8597335,17.4961464 71.9258646,17.2842266 72.0365919,17.0950673 L72.946278,15.1965919 L79.1075336,15.1965919 Z M78.2549776,13.3332735 L73.8208072,13.3332735 L76.0664574,8.49919283 L78.2637668,13.3332735 L78.2549776,13.3332735 Z M90.2962332,13.1047534 L93.9349776,13.1047534 L96.650852,17.0950673 C96.8046637,17.3279821 97.1342601,17.675157 97.1342601,17.9476233 C97.1342601,18.2200897 96.8222422,18.2947982 96.6288789,18.3123767 L96.6288789,18.6419731 L101.533274,18.6419731 L101.533274,18.3123767 C100.65435,18.2552466 100.192915,17.4026906 99.7314798,16.7434978 L97.0947085,12.9860987 C99.2436771,12.6565022 100.794978,11.5358744 100.794978,9.20672646 C100.794978,5.64269058 98.1186547,5.08017937 95.2138117,5.08017937 L86.7102242,5.08017937 L86.7102242,5.39219731 C87.0793722,5.5064574 87.3518386,5.70421525 87.3518386,6.10852018 L87.3518386,17.5872646 C87.3478885,17.9531625 87.0734806,18.2595221 86.7102242,18.3035874 L86.7102242,18.6331839 L90.9334529,18.6331839 L90.9334529,18.3035874 C90.5680089,18.2650508 90.2919386,17.9547097 90.2962332,17.5872646 L90.2962332,13.1047534 L90.2962332,13.1047534 Z M90.2962332,10.8766816 L90.2962332,7.30825112 L94.8842152,7.30825112 C96.2026009,7.30825112 97.8110314,7.33022422 97.8110314,9.11004484 C97.8110314,10.7975785 96.1850224,10.8678924 94.8842152,10.8678924 L90.2962332,10.8766816 Z M114.963229,15.1965919 L115.912466,17.0950673 C116.030906,17.3007242 116.091637,17.5345384 116.088251,17.7718386 C116.088251,18.1190135 115.741076,18.2772197 115.429058,18.3123767 L115.429058,18.6419731 L120.430135,18.6419731 L120.430135,18.3123767 C119.748969,18.1981166 119.498475,17.675157 119.20843,17.0950673 L114.013991,6.65345291 C113.91611,6.44493938 113.850893,6.22260759 113.820628,5.99426009 C113.820628,5.66466368 114.132646,5.48887892 114.422691,5.39219731 L114.422691,5.08017937 L109.619372,5.08017937 L109.619372,5.39219731 C109.946637,5.46582537 110.179837,5.7555028 110.181883,6.0909417 C110.162674,6.35732188 110.083019,6.615823 109.948969,6.84681614 L104.969865,17.2884305 C104.714978,17.8289686 104.530404,18.1981166 103.884395,18.3123767 L103.884395,18.6419731 L108.358117,18.6419731 L108.358117,18.3123767 C108.068072,18.2376682 107.698924,18.0838565 107.698924,17.7147085 C107.715429,17.4961464 107.78156,17.2842266 107.892287,17.0950673 L108.801973,15.1965919 L114.963229,15.1965919 Z M114.110673,13.3332735 L109.676502,13.3332735 L111.922152,8.49919283 L114.119462,13.3332735 L114.110673,13.3332735 Z M125.919013,9.34295964 L133.512915,17.1917489 C133.706278,17.4026906 133.996323,17.6575785 133.996323,17.9256502 L133.996323,17.9476233 C133.996323,18.1805381 133.785381,18.2772197 133.592018,18.3123767 L133.592018,18.6419731 L137.850404,18.6419731 L137.850404,18.3123767 C137.478613,18.2741006 137.195892,17.9610203 137.195605,17.5872646 L137.195605,6.10852018 C137.195605,5.70421525 137.468072,5.5064574 137.832825,5.39219731 L137.832825,5.08017937 L133.842511,5.08017937 L133.842511,5.39219731 C134.229238,5.5064574 134.484126,5.70421525 134.484126,6.10852018 L134.484126,14.1682511 L127.013274,6.38098655 C126.856957,6.24948599 126.759008,6.06148717 126.740807,5.85802691 C126.740807,5.58556054 126.956143,5.47130045 127.180269,5.39219731 L127.180269,5.08017937 L122.565919,5.08017937 L122.565919,5.39219731 C122.935067,5.5064574 123.207534,5.70421525 123.207534,6.10852018 L123.207534,17.5872646 C123.203584,17.9531625 122.929176,18.2595221 122.565919,18.3035874 L122.565919,18.6331839 L126.556233,18.6331839 L126.556233,18.3035874 C126.194718,18.2575018 125.922674,17.9516872 125.919013,17.5872646 L125.919013,9.34295964 L125.919013,9.34295964 Z M153.63148,6.24475336 L153.341435,6.0909417 C153.20436,6.22378715 153.026098,6.30594261 152.836054,6.3238565 C152.47384,6.23314901 152.122991,6.10194899 151.790135,5.93273543 C150.337791,5.25404422 148.760802,4.88298786 147.158206,4.84286996 C144.389596,4.84286996 141.115605,5.84923767 141.115605,9.16278027 C141.115605,15.0120179 150.783767,11.852287 150.744215,14.664843 C150.704664,16.2688789 148.43704,16.5633184 147.22852,16.5633184 C145.932108,16.5633184 142.394439,15.921704 142.394439,14.1990135 L142.104395,14.0803587 L140.632197,17.3939013 L140.922242,17.5301345 C141.047551,17.4092013 141.213957,17.3401274 141.388072,17.3367713 C141.725526,17.4008297 142.044064,17.5405657 142.319731,17.7454709 C143.867222,18.5168422 145.574163,18.9142252 147.303229,18.9056502 C150.05426,18.9056502 153.596323,17.8597309 153.596323,14.5110314 C153.596323,10.446009 148.678744,10.4064574 145.73435,10.0944395 C144.899372,10.0197309 143.853453,9.76484305 143.853453,8.77605381 C143.989686,7.24672646 146.178206,7.18959641 147.281256,7.18959641 C148.663678,7.2127929 150.009847,7.63556934 151.157309,8.40690583 C151.492567,8.57371031 151.708772,8.91153151 151.719821,9.2858296 L152.009865,9.43964126 L153.618296,6.26233184 L153.63148,6.24475336 Z M162.025202,12.313722 L166.037489,17.2356951 C166.1913,17.4290583 166.503318,17.675157 166.503318,17.9695964 C166.503318,18.2640359 166.151749,18.2816143 165.980359,18.3167713 L165.980359,18.6463677 L171.289058,18.6463677 L171.289058,18.3167713 C170.410135,18.2025112 169.913543,17.5037668 169.408161,16.8841256 L164.178565,10.5866368 L168.78852,6.86878924 C169.390583,6.38538117 170.181614,5.55040359 170.937489,5.39659193 L170.937489,5.08457399 L165.378296,5.08457399 L165.378296,5.39659193 C165.628789,5.45372197 165.940807,5.53282511 165.940807,5.83605381 C165.940807,6.02941704 165.707892,6.18762332 165.571659,6.30188341 L159.972915,10.8547085 L159.972915,6.10852018 C159.972915,5.70421525 160.223408,5.5064574 160.614529,5.39219731 L160.614529,5.08017937 L156.386906,5.08017937 L156.386906,5.39219731 C156.756054,5.5064574 157.02852,5.70421525 157.02852,6.10852018 L157.02852,17.5872646 C157.02457,17.9531625 156.750162,18.2595221 156.386906,18.3035874 L156.386906,18.6331839 L160.614529,18.6331839 L160.614529,18.3035874 C160.223408,18.2069058 159.972915,17.9959641 159.972915,17.5872646 L159.972915,13.9660987 L162.025202,12.313722 Z M177.84583,18.3167713 C177.478641,18.2803504 177.200136,17.969416 177.204215,17.6004484 L177.204215,6.10852018 C177.204215,5.70421525 177.459103,5.5064574 177.84583,5.39219731 L177.84583,5.08017937 L173.622601,5.08017937 L173.622601,5.39219731 C173.991749,5.5064574 174.259821,5.70421525 174.259821,6.10852018 L174.259821,17.5872646 C174.258086,17.9524282 173.985077,18.2593288 173.622601,18.3035874 L173.622601,18.6331839 L177.84583,18.6331839 L177.84583,18.3035874 L177.84583,18.3167713 Z M189.592646,12.9729148 L193.987265,6.82044843 C194.426726,6.20080717 194.839821,5.50206278 195.652825,5.40538117 L195.652825,5.09336323 L190.379283,5.09336323 L190.379283,5.40538117 C190.708879,5.46251121 191.038475,5.67784753 191.038475,6.02502242 C191.038475,6.37219731 190.787982,6.58753363 190.63417,6.82044843 L188.173184,10.4504036 L185.729776,6.80726457 C185.506037,6.56402723 185.364578,6.25650845 185.325471,5.92834081 C185.365022,5.59874439 185.694619,5.44493274 185.984664,5.38780269 L185.984664,5.07578475 L180.623229,5.07578475 L180.623229,5.38780269 C181.41426,5.50206278 181.840538,6.1832287 182.288789,6.80286996 L186.683408,12.9553363 L186.683408,17.5872646 C186.683408,18.0267265 186.410942,18.2069058 186.024215,18.3035874 L186.024215,18.6331839 L190.304574,18.6331839 L190.304574,18.3035874 C189.917848,18.2069058 189.627803,18.0355157 189.627803,17.5872646 L189.627803,12.9685202 L189.592646,12.9729148 Z M52.6563229,26.3765022 L52.6563229,26.6885202 C53.0254709,26.8027803 53.2935426,26.9961435 53.2935426,27.404843 L53.2935426,38.8923767 C53.289882,39.2567993 53.0178383,39.5626139 52.6563229,39.6086996 L52.6563229,39.938296 L60.2106726,39.938296 C62.0695964,39.938296 63.9109417,39.7229596 65.4051121,38.4836771 C66.9520179,37.1652915 67.5716592,35.1349776 67.5716592,33.1573991 C67.5716592,31.1798206 66.973991,29.1670852 65.4051121,27.809148 C63.9900448,26.5698655 62.0344395,26.3765022 60.2106726,26.3765022 L52.6563229,26.3765022 Z M56.2423318,37.7102242 L56.2423318,28.5738117 L59.9601794,28.5738117 C63.0803587,28.5738117 64.530583,30.0064574 64.530583,33.1266368 C64.530583,36.2468161 63.0583857,37.6794619 59.9601794,37.6794619 L56.2423318,37.7102242 Z M74.5547085,39.6086996 C74.1892645,39.570163 73.9131942,39.2598218 73.9174888,38.8923767 L73.9174888,27.38287 C73.9174888,26.9741704 74.1679821,26.7808072 74.5547085,26.6665471 L74.5547085,26.3765022 L70.3314798,26.3765022 L70.3314798,26.6885202 C70.7006278,26.8027803 70.9730942,26.9961435 70.9730942,27.404843 L70.9730942,38.8923767 C70.9672398,39.2575318 70.6937889,39.5628229 70.3314798,39.6086996 L70.3314798,39.938296 L74.5547085,39.938296 L74.5547085,39.6086996 L74.5547085,39.6086996 Z M90.3313901,27.5366816 L90.0413453,27.38287 C89.9066583,27.516609 89.7294229,27.5990079 89.5403587,27.6157848 C89.1776981,27.5285406 88.8266223,27.3987311 88.4944395,27.2290583 C87.042441,26.5499474 85.4650541,26.1802941 83.8625112,26.1435874 C81.0939013,26.1435874 77.8199103,27.1499552 77.8199103,30.4634978 C77.8199103,36.31713 87.4880717,33.1573991 87.4485202,35.9655605 C87.4089686,37.573991 85.1413453,37.8640359 83.9328251,37.8640359 C82.6364126,37.8640359 79.0987444,37.2268161 79.0987444,35.4997309 L78.8086996,35.3854709 L77.3145291,38.681435 L77.604574,38.8176682 C77.7286158,38.6948162 77.8958248,38.6254087 78.0704036,38.6243049 C78.4064939,38.6902624 78.7243245,38.8281889 79.0020628,39.0286099 C80.5595466,39.8008176 82.2780447,40.1924122 84.0163229,40.1712108 C86.7673543,40.1712108 90.3138117,39.1252915 90.3138117,35.7765919 C90.3138117,31.7071749 85.3918386,31.6676233 82.4474439,31.36 C81.616861,31.2808969 80.5709417,31.0304036 80.5709417,30.0416143 C80.7027803,28.5078924 82.8956951,28.4507623 83.9987444,28.4507623 C85.3815717,28.4755107 86.7277082,28.8998032 87.8747982,29.6724664 C88.2097083,29.838967 88.4246554,30.1774663 88.4329148,30.5513901 L88.7273543,30.7095964 L90.3313901,27.5278924 L90.3313901,27.5366816 Z M101.287175,28.5738117 L105.492825,28.5738117 C105.932287,28.5738117 106.112466,28.846278 106.209148,29.2110314 L106.538744,29.2110314 L106.538744,25.6953363 L106.209148,25.6953363 C106.112466,26.0600897 105.936682,26.3325561 105.492825,26.3325561 L94.1283408,26.3325561 C93.6888789,26.3325561 93.5086996,26.0600897 93.4120179,25.6953363 L93.0824215,25.6953363 L93.0824215,29.2110314 L93.4120179,29.2110314 C93.5086996,28.846278 93.6844843,28.5738117 94.1283408,28.5738117 L98.333991,28.5738117 L98.333991,38.8616143 C98.3281366,39.2267695 98.0546858,39.5320605 97.6923767,39.5779372 L97.6923767,39.9075336 L101.915605,39.9075336 L101.915605,39.5779372 C101.550852,39.4812556 101.278386,39.3054709 101.278386,38.8616143 L101.278386,28.5738117 L101.287175,28.5738117 Z M113.517399,39.5603587 C113.151955,39.5218222 112.875885,39.211481 112.880179,38.8440359 L112.880179,27.38287 C112.880179,26.9741704 113.130673,26.7808072 113.517399,26.6665471 L113.517399,26.3765022 L109.29417,26.3765022 L109.29417,26.6885202 C109.663318,26.8027803 109.935785,26.9961435 109.935785,27.404843 L109.935785,38.8923767 C109.92993,39.2575318 109.656479,39.5628229 109.29417,39.6086996 L109.29417,39.938296 L113.517399,39.938296 L113.517399,39.6086996 L113.517399,39.5603587 Z M119.863229,37.6618834 L119.863229,27.38287 C119.863229,26.9434081 120.113722,26.7808072 120.500448,26.6665471 L120.500448,26.3765022 L116.27722,26.3765022 L116.27722,26.6885202 C116.646368,26.8027803 116.918834,26.978565 116.918834,27.404843 L116.918834,38.8923767 C116.91298,39.2575318 116.639529,39.5628229 116.27722,39.6086996 L116.27722,39.938296 L128.213004,39.938296 C128.576696,39.9438437 128.881453,40.2149467 128.929327,40.5755157 L129.258924,40.5755157 L129.258924,37.0598206 L128.929327,37.0598206 C128.832646,37.4465471 128.617309,37.7190135 128.213004,37.7190135 L119.863229,37.6618834 Z M135.600359,37.6618834 L135.600359,27.38287 C135.600359,26.9434081 135.855247,26.7808072 136.241973,26.6665471 L136.241973,26.3765022 L132.018744,26.3765022 L132.018744,26.6885202 C132.383498,26.8027803 132.655964,26.978565 132.655964,27.404843 L132.655964,38.8923767 C132.650416,39.2560678 132.379313,39.5608249 132.018744,39.6086996 L132.018744,39.938296 L143.950135,39.938296 C144.314557,39.9419566 144.620372,40.2140003 144.666457,40.5755157 L144.996054,40.5755157 L144.996054,37.0598206 L144.666457,37.0598206 C144.569776,37.4465471 144.358834,37.7190135 143.950135,37.7190135 L135.600359,37.6618834 Z M151.341883,33.9220628 L156.843946,33.9220628 C157.283408,33.9220628 157.463587,34.1945291 157.560269,34.5636771 L157.889865,34.5636771 L157.889865,31.1534529 L157.560269,31.1534529 C157.511593,31.51091 157.204687,31.7763931 156.843946,31.7730942 L151.341883,31.7730942 L151.341883,28.5738117 L159.845471,28.5738117 C160.249776,28.5738117 160.447534,28.846278 160.544215,29.2110314 L160.873812,29.2110314 L160.873812,25.6953363 L160.544215,25.6953363 C160.447534,26.0600897 160.249776,26.3325561 159.845471,26.3325561 L147.742691,26.3325561 L147.742691,26.644574 C148.111839,26.7588341 148.37991,26.9346188 148.37991,27.3608969 L148.37991,38.8484305 C148.37625,39.2128532 148.104206,39.5186678 147.742691,39.5647534 L147.742691,39.8943498 L160.047623,39.8943498 C160.418955,39.8908555 160.735096,40.1637157 160.785919,40.5315695 L161.097937,40.5315695 L161.097937,37.0158744 L160.785919,37.0158744 C160.745344,37.392456 160.426378,37.6772469 160.047623,37.6750673 L151.341883,37.6750673 L151.341883,33.9352466 L151.341883,33.9220628 Z M167.448161,34.3615247 L171.086906,34.3615247 L173.80278,38.3518386 C173.956592,38.5847534 174.286188,38.9319283 174.286188,39.2043946 C174.286188,39.476861 173.97417,39.5515695 173.780807,39.5735426 L173.780807,39.903139 L178.685202,39.903139 L178.685202,39.5735426 C177.806278,39.5164126 177.366816,38.6638565 176.883408,38.0046637 L174.246637,34.2472646 C176.395605,33.9176682 177.946906,32.7926457 177.946906,30.4678924 C177.946906,26.9038565 175.270583,26.3413453 172.36574,26.3413453 L163.862152,26.3413453 L163.862152,26.6533632 C164.2313,26.7676233 164.503767,26.9609865 164.503767,27.3696861 L164.503767,38.8572197 C164.497912,39.2223749 164.224462,39.5276659 163.862152,39.5735426 L163.862152,39.903139 L168.085381,39.903139 L168.085381,39.5735426 C167.719937,39.535006 167.443867,39.2246649 167.448161,38.8572197 L167.448161,34.3747085 L167.448161,34.3615247 Z M167.448161,32.1334529 L167.448161,28.5738117 L172.040538,28.5738117 C173.358924,28.5738117 174.96296,28.5738117 174.96296,30.3756054 C174.96296,32.0587444 173.336951,32.1334529 172.040538,32.1334529 L167.448161,32.1334529 Z M194.461883,27.5015247 L194.171839,27.347713 C194.035379,27.4814547 193.856782,27.5637645 193.666457,27.5806278 C193.303797,27.4933837 192.952721,27.3635741 192.620538,27.1939013 C191.16854,26.5147904 189.591153,26.1451371 187.98861,26.1084305 C185.22,26.1084305 181.946009,27.1147982 181.946009,30.4283408 C181.946009,36.2819731 191.61417,33.1222422 191.574619,35.9304036 C191.535067,37.5388341 189.267444,37.8288789 188.058924,37.8288789 C186.740538,37.8288789 183.224843,37.1916592 183.224843,35.464574 L182.934798,35.3503139 L181.440628,38.681435 L181.735067,38.8176682 C181.851533,38.6995262 182.008742,38.6303542 182.174529,38.6243049 C182.511127,38.6886225 182.829301,38.8266978 183.106188,39.0286099 C184.664999,39.8014963 186.385084,40.1931094 188.124843,40.1712108 C190.875874,40.1712108 194.417937,39.1252915 194.417937,35.7765919 C194.417937,31.7071749 189.500359,31.6676233 186.555964,31.36 C185.720987,31.2808969 184.675067,31.0304036 184.675067,30.0416143 C184.8113,28.5078924 186.999821,28.4507623 188.10287,28.4507623 C189.48582,28.4747592 190.832164,28.8991173 191.978924,29.6724664 C192.314858,29.8385163 192.531355,30.1767937 192.541435,30.5513901 L192.83148,30.7095964 L194.43991,27.5278924 L194.461883,27.5015247 Z" id="Shape" fill-rule="nonzero"></path>
                <path d="M25.0493274,23.3002691 L25.0493274,24.3857399 L25.572287,24.3857399 C25.6060872,24.3857399 25.6385031,24.3723128 25.6624035,24.3484124 C25.6863039,24.3245121 25.6997309,24.2920962 25.6997309,24.258296 L25.6997309,23.427713 C25.6974531,23.3582931 25.6417069,23.3025469 25.572287,23.3002691 L25.0493274,23.3002691 Z M26.0513004,23.3002691 C25.9818805,23.3025469 25.9261344,23.3582931 25.9238565,23.427713 L25.9238565,24.258296 C25.9238565,24.3286813 25.9809151,24.3857399 26.0513004,24.3857399 L29.0220628,24.3857399 C29.0924481,24.3857399 29.1495067,24.3286813 29.1495067,24.258296 L29.1495067,23.427713 C29.1472288,23.3582931 29.0914827,23.3025469 29.0220628,23.3002691 L26.0513004,23.3002691 Z M25.0493274,21.9818834 L25.0493274,23.0629596 L27.290583,23.0629596 C27.3243832,23.0629596 27.3567991,23.0495325 27.3806994,23.0256322 C27.4045998,23.0017318 27.4180269,22.9693159 27.4180269,22.9355157 L27.4180269,22.1093274 C27.4180269,22.0755271 27.4045998,22.0431113 27.3806994,22.0192109 C27.3567991,21.9953105 27.3243832,21.9818834 27.290583,21.9818834 L25.0493274,21.9818834 Z M24.5263677,20.6634978 L24.5263677,21.2611659 L24.6933632,21.2611659 C24.9011007,21.2635403 25.0689261,21.4313656 25.0713004,21.6391031 L25.0713004,21.744574 L25.572287,21.744574 C25.6409913,21.7446148 25.6973618,21.6901881 25.6997309,21.6215247 L25.6997309,20.7953363 C25.6997705,20.7242061 25.6433777,20.6658688 25.572287,20.6634978 L24.5263677,20.6634978 Z M26.0513004,20.6634978 C25.9802098,20.6658688 25.923817,20.7242061 25.9238565,20.7953363 L25.9238565,21.6215247 C25.9262256,21.6901881 25.9825962,21.7446148 26.0513004,21.744574 L29.0220628,21.744574 C29.090767,21.7446148 29.1471376,21.6901881 29.1495067,21.6215247 L29.1495067,20.7953363 C29.1495463,20.7242061 29.0931535,20.6658688 29.0220628,20.6634978 L26.0513004,20.6634978 Z M27.2949776,19.3451121 L24.5263677,19.3451121 L24.5263677,20.4261883 L27.290583,20.4261883 C27.3243832,20.4261883 27.3567991,20.4127612 27.3806994,20.3888609 C27.4045998,20.3649605 27.4180269,20.3325446 27.4180269,20.2987444 L27.4180269,19.4725561 C27.4180678,19.4038518 27.363641,19.3474812 27.2949776,19.3451121 L27.2949776,19.3451121 Z M30.0899552,20.4261883 L30.0899552,19.3451121 L27.7695964,19.3451121 C27.700933,19.3474812 27.6465062,19.4038518 27.6465471,19.4725561 L27.6465471,20.2987444 C27.6465471,20.3691297 27.7036057,20.4261883 27.773991,20.4261883 L30.0899552,20.4261883 Z M30.0899552,21.744574 L30.0899552,20.6634978 L29.5274439,20.6634978 C29.4563533,20.6658688 29.3999605,20.7242061 29.4,20.7953363 L29.4,21.6215247 C29.4023691,21.6901881 29.4587397,21.7446148 29.5274439,21.744574 L30.0899552,21.744574 Z M30.0899552,23.0629596 L30.0899552,21.9818834 L27.7695964,21.9818834 C27.7357962,21.9818834 27.7033803,21.9953105 27.6794799,22.0192109 C27.6555796,22.0431113 27.6421525,22.0755271 27.6421525,22.1093274 L27.6421525,22.9355157 C27.6421525,22.9693159 27.6555796,23.0017318 27.6794799,23.0256322 C27.7033803,23.0495325 27.7357962,23.0629596 27.7695964,23.0629596 L30.0899552,23.0629596 Z M30.0899552,24.3813453 L30.0899552,23.3002691 L29.5274439,23.3002691 C29.458024,23.3025469 29.4022779,23.3582931 29.4,23.427713 L29.4,24.258296 C29.4,24.3286813 29.4570586,24.3857399 29.5274439,24.3857399 L30.0899552,24.3813453 Z M17.1521973,28.36287 L17.1521973,28.36287 C17.6003343,28.2146891 18.0689076,28.1375821 18.5408969,28.1343498 C19.0285271,28.1396136 19.5127281,28.216612 19.9779372,28.36287 L19.9779372,28.36287 L19.9779372,29.3780269 L17.1390135,29.3780269 L17.1390135,28.3540807 L17.1521973,28.36287 Z M16.8841256,29.6548879 L16.8841256,28.178296 C17.413916,27.9788391 17.9748184,27.8746928 18.5408969,27.8706726 C19.1272885,27.8756757 19.7084784,27.9812115 20.2591928,28.1826906 L20.2591928,29.6548879 L16.8841256,29.6548879 Z M17.5125561,29.0220628 L17.5125561,28.6397309 C17.848055,28.5503042 18.1936856,28.5045156 18.5408969,28.5034978 C18.9071397,28.5053657 19.2717403,28.5526014 19.6263677,28.6441256 L19.6263677,29.0132735 L17.5125561,29.0220628 Z M26.609417,30.4898655 L26.8906726,30.4898655 C26.9337387,30.7847884 27.0149885,31.0728558 27.1323767,31.3468161 C26.9302242,31.2808969 26.6929148,30.7227803 26.6138117,30.4898655 L26.609417,30.4898655 Z M26.0513004,30.4898655 L26.367713,30.4898655 C26.4046946,30.7931174 26.4861364,31.0892695 26.609417,31.3687892 C26.2973991,31.2896861 26.0820628,30.6085202 26.0513004,30.4898655 L26.0513004,30.4898655 Z M27.1279821,30.4898655 L27.44,30.4898655 C27.478053,30.7819944 27.556438,31.0674341 27.6729148,31.3380269 C27.4092377,31.2589238 27.1851121,30.7227803 27.1279821,30.5030493 L27.1279821,30.4898655 Z M25.5239462,30.4591031 L25.8095964,30.4591031 C25.8484178,30.7520075 25.9252378,31.0386052 26.0381166,31.3116592 C25.7744395,31.2589238 25.5634978,30.656861 25.5239462,30.4327354 L25.5239462,30.4591031 Z M27.7212556,30.4591031 L28.0288789,30.4591031 C28.1127995,30.7427402 28.2231486,31.0178773 28.3584753,31.2808969 C28.086009,31.2149776 27.809148,30.7667265 27.7212556,30.4766816 L27.7212556,30.4591031 Z M25.3481614,31.1930045 C25.1846926,30.9564994 25.0600717,30.695389 24.9790135,30.4195516 L25.2734529,30.4415247 C25.308602,30.6599903 25.3585221,30.8758215 25.42287,31.0875336 L25.42287,31.0875336 C25.42287,31.1270852 25.4536323,31.1666368 25.4668161,31.210583 L25.3393722,31.1710314 L25.3481614,31.1930045 Z M28.6133632,30.4019731 C28.753991,30.4019731 29.1363229,30.3316592 29.1934529,30.3272646 C29.2792131,30.6029815 29.4147533,30.8606568 29.5933632,31.0875336 C29.3837183,31.1621409 29.1649229,31.2079697 28.9429596,31.2237668 C28.781848,30.9732807 28.6699843,30.6943672 28.6133632,30.4019731 Z M23.9418834,30.4019731 L23.9067265,30.3052915 L24.4604484,30.3756054 C24.523383,30.6112045 24.5996798,30.8430296 24.6889686,31.0699552 C24.3570022,30.9624058 24.0857614,30.7198846 23.9418834,30.4019731 L23.9418834,30.4019731 Z M29.7252018,30.2701345 C29.722153,30.0864119 29.7565436,29.9039922 29.826278,29.733991 C29.8102952,30.0812615 29.9091397,30.4241283 30.1075336,30.7095964 L30.1075336,31.0435874 C29.8738091,30.853531 29.734269,30.5712431 29.7252018,30.2701345 L29.7252018,30.2701345 Z M30.3052915,30.6656502 C30.5679057,30.3388342 30.7050641,29.9289177 30.6920179,29.5098655 C30.7447534,29.6636771 30.7535426,29.7471749 30.7930942,29.8921973 C30.7923961,30.3343644 30.6077027,30.7562933 30.2833184,31.0567713 C30.2983395,30.9269442 30.3056766,30.7963429 30.3052915,30.6656502 L30.3052915,30.6656502 Z M24.926278,30.2569507 C24.7776429,29.7377651 24.6964084,29.201617 24.684574,28.661704 C25.7129148,28.7276233 26.7280717,28.7364126 27.7608072,28.7056502 C27.7717699,29.2311207 27.8455374,29.7533943 27.9805381,30.2613453 L27.6641256,30.2833184 C27.5763439,30.0369993 27.5144847,29.7821987 27.4795516,29.5230493 C27.4828097,29.4825521 27.4719394,29.4421766 27.4487892,29.4087892 C27.4487892,29.4087892 27.4268161,29.4087892 27.4136323,29.4087892 C27.4004484,29.4087892 27.3652915,29.4087892 27.3565022,29.5406278 C27.3515452,29.7991863 27.3662362,30.0577478 27.4004484,30.3140807 L27.0664574,30.3140807 C26.9957485,30.0330305 26.9501581,29.7462521 26.9302242,29.45713 C26.9294334,29.4157111 26.9188946,29.3750612 26.8994619,29.3384753 L26.8643049,29.3384753 C26.8643049,29.3384753 26.8115695,29.3384753 26.8071749,29.4703139 C26.7921097,29.7640208 26.8068335,30.0584984 26.8511211,30.3492377 L26.5478924,30.3492377 C26.4777971,30.0902199 26.430738,29.8255124 26.4072646,29.5582063 C26.4092541,29.5171819 26.3968153,29.476756 26.3721076,29.4439462 C26.3607336,29.4399249 26.3483247,29.4399249 26.3369507,29.4439462 C26.3047235,29.4439462 26.287145,29.4878924 26.2842152,29.5757848 C26.2770567,29.8402222 26.2917554,30.104799 26.3281614,30.3668161 L26.0117489,30.3668161 C25.9431832,30.0853311 25.897622,29.7987363 25.8755157,29.5098655 C25.8771636,29.4695318 25.8664288,29.4296597 25.8447534,29.3956054 C25.8374427,29.3828661 25.824251,29.3746213 25.8095964,29.3736323 C25.8095964,29.3736323 25.7612556,29.3736323 25.7524664,29.5098655 C25.7438007,29.7931825 25.7570238,30.0767458 25.7920179,30.3580269 L25.4887892,30.3580269 C25.4215321,30.1075178 25.3759529,29.8516865 25.3525561,29.5933632 C25.3560159,29.5535118 25.343352,29.5139371 25.3173991,29.4834978 C25.3173991,29.4834978 25.3173991,29.4834978 25.2866368,29.4834978 C25.2558744,29.4834978 25.238296,29.5274439 25.2295067,29.6153363 C25.2230673,29.8650168 25.236292,30.1148167 25.2690583,30.3624215 L24.9482511,30.3404484 L24.926278,30.2569507 Z M23.8495964,30.1426906 C23.6848311,29.6488914 23.593041,29.1336824 23.57713,28.6133632 L24.1967713,28.6441256 C24.2205209,29.172831 24.2940904,29.6981173 24.4165022,30.2130045 L23.8495964,30.1426906 L23.8495964,30.1426906 Z M28.4068161,28.6880717 C28.5034978,28.6660987 28.846278,28.6221525 29.0000897,28.5869955 C29.0037251,29.1062613 29.0552134,29.6240868 29.1539013,30.1339013 C28.9605381,30.1646637 28.7627803,30.1866368 28.569417,30.2042152 C28.4572929,29.7067354 28.4027344,29.1980142 28.4068161,28.6880717 L28.4068161,28.6880717 Z M29.5230493,28.5078924 C29.584574,28.5078924 29.7076233,28.4727354 29.7823318,28.4463677 C29.7823318,28.7232287 29.7823318,28.9561435 29.7823318,29.2417937 C29.7640961,29.4699402 29.7153198,29.6946067 29.6373094,29.9097758 C29.5610957,29.446311 29.5214219,28.9775736 29.5186547,28.5078924 L29.5230493,28.5078924 Z M14.7747085,28.5078924 L16.5017937,28.5078924 L16.5017937,27.8926457 L16.7259193,27.8047534 C17.3018064,27.5863862 17.9118393,27.4718191 18.527713,27.4663677 C19.164001,27.4716715 19.7945127,27.5876619 20.3910314,27.809148 L20.615157,27.8970404 L20.615157,28.5078924 L22.9355157,28.5078924 L22.9355157,28.9781166 L20.615157,28.9781166 L20.615157,29.9888789 L16.5017937,29.9888789 L16.5017937,28.9781166 L14.7747085,28.9781166 L14.7747085,28.5078924 L14.7747085,28.5078924 Z M30.7535426,29.1275336 C30.7535426,28.9429596 30.7930942,28.6397309 30.8018834,28.2486099 C30.8106726,27.8574888 30.7623318,27.3696861 30.7403587,27.1499552 C30.7403587,27.0049327 30.841435,26.9038565 30.8678027,26.8423318 C30.9596087,27.3555186 30.9964387,27.877031 30.9776682,28.3980269 C30.9805687,28.8030938 30.9467381,29.2075896 30.8765919,29.6065471 C30.8004145,29.4611778 30.7583346,29.3003725 30.7535426,29.1363229 L30.7535426,29.1275336 Z M29.7383857,26.6050224 C29.9800897,26.9961435 29.7955157,27.6201794 29.7867265,28.2178475 C29.6812556,28.2442152 29.5977578,28.2530045 29.5318386,28.2661883 C29.5448687,27.7069455 29.6140654,27.1504276 29.7383857,26.6050224 L29.7383857,26.6050224 Z M23.5859193,28.36287 C23.584043,27.7824366 23.6806296,27.2058895 23.8715695,26.6577578 L24.4516592,26.5742601 C24.2939368,27.147212 24.209763,27.7379053 24.2011659,28.3321076 L24.2011659,28.42 L23.5815247,28.42 C23.5793397,28.396613 23.5793397,28.3730731 23.5815247,28.3496861 L23.5859193,28.36287 Z M29.9581166,28.3057399 C29.9444718,27.6890248 30.0184537,27.0734957 30.1778475,26.4775785 C30.4063677,26.7588341 30.2921076,30.103139 30.1119283,30.2921076 C29.9713004,30.1514798 29.9493274,28.753991 29.9581166,28.3057399 L29.9581166,28.3057399 Z M28.8902242,26.9873543 C28.7022331,26.8957654 28.604818,26.684393 28.6573094,26.4819731 L29.2769507,26.5391031 C29.1243478,27.1137949 29.0330167,27.703028 29.0044843,28.2969507 C28.8638565,28.3321076 28.5342601,28.3672646 28.4024215,28.384843 C28.4008178,27.9033236 28.4509105,27.4230233 28.5518386,26.9521973 C28.6576149,26.9911506 28.7688132,27.0133903 28.881435,27.0181166 L28.881435,27.0181166 C28.881435,27.0181166 28.881435,27.0181166 28.881435,27.0181166 L28.8902242,26.9873543 Z M24.9350673,26.5259193 C25.9771061,26.4147525 27.0263488,26.3868315 28.0728251,26.4424215 C27.8870402,27.0359303 27.7878718,27.6531426 27.7783857,28.2749776 C27.7762529,28.3174321 27.7762529,28.359967 27.7783857,28.4024215 C26.7280717,28.4595516 25.756861,28.4595516 24.7021525,28.4243946 L24.7021525,28.2749776 C24.7021525,28.086009 24.7021525,27.9058296 24.7329148,27.7432287 C25.0957237,27.6410332 25.4660159,27.5675625 25.8403587,27.5234978 C25.5258745,27.4006366 25.1886883,27.3466868 24.8515695,27.3652915 L24.776861,27.3872646 C24.8145048,27.0894089 24.8777278,26.795348 24.9658296,26.5083408 L24.9350673,26.5259193 Z M30.4063677,26.0249327 C30.4196134,25.9287048 30.4196134,25.8311158 30.4063677,25.7348879 C30.6534896,25.9853412 30.7977487,26.3193325 30.8106726,26.6709417 C30.7580342,26.7720316 30.7153519,26.8780013 30.6832287,26.9873543 C30.672936,26.648433 30.5777406,26.3175158 30.4063677,26.0249327 L30.4063677,26.0249327 Z M30.230583,25.7129148 C30.230583,25.8183857 30.230583,25.9282511 30.230583,26.0381166 C30.1646637,26.0381166 30.0943498,26.1743498 30.0504036,26.310583 C29.9800897,26.2490583 30.0196413,26.2095067 29.9844843,26.126009 C29.9844843,26.126009 29.9844843,26.126009 29.9844843,26.126009 C29.9053812,26.495157 30.046009,26.5259193 29.953722,26.8027803 C29.8343995,26.6214436 29.7987976,26.3975593 29.8559845,26.1881542 C29.9131714,25.9787491 30.0576269,25.8040372 30.2525561,25.7085202 L30.230583,25.7129148 Z M24.0781166,26.2622422 C24.2723399,25.9829709 24.5560429,25.7783326 24.8823318,25.6821525 C24.7242275,25.9122689 24.5999147,26.1638543 24.5131839,26.4292377 L23.9506726,26.51713 C23.9946188,26.4204484 24.038565,26.3369507 24.0781166,26.2622422 L24.0781166,26.2622422 Z M28.7408072,26.2930045 C28.7937172,26.0636127 28.8827178,25.8440779 29.0044843,25.6426009 C29.1008533,25.4984171 29.2730048,25.4243919 29.4439462,25.4536323 C29.5806661,25.458062 29.7157459,25.4847811 29.8438565,25.5327354 C29.6304418,25.7706927 29.4661584,26.048481 29.3604484,26.3501345 C29.1934529,26.3281614 28.9209865,26.3237668 28.7408072,26.2930045 L28.7408072,26.2930045 Z M25.515157,25.5503139 C26.5393387,25.3608016 27.5842608,25.3090728 28.6221525,25.3965022 C28.4333522,25.6663384 28.2852793,25.9624841 28.1826906,26.275426 C27.1342687,26.2277854 26.0837306,26.2615789 25.0405381,26.3765022 C25.1504182,26.0748741 25.3175475,25.7973201 25.5327354,25.5591031 L25.515157,25.5503139 Z M26.4468161,14.1243049 L25.4843946,14.1243049 C25.4624215,14.1243049 25.4360538,14.2693274 25.4360538,14.4143498 L25.4360538,14.4143498 L25.4360538,14.4143498 C25.4360538,14.5549776 25.4580269,14.7 25.4843946,14.7 L26.5962332,14.7 C26.9159636,14.6692009 27.2363589,14.7516327 27.5015247,14.9329148 L28.1343498,14.9329148 C28.1343498,14.9329148 28.1739013,14.9329148 28.1607175,14.8933632 C27.9872478,14.4070648 27.5162819,14.0913036 27.0005381,14.1155157 L26.4512108,14.1155157 L26.4468161,14.1243049 Z M25.2207175,13.9221525 C25.1806088,14.0785325 25.1628539,14.2398057 25.1679821,14.4011659 C25.1679821,15.0295964 25.3173991,15.033991 25.3525561,15.033991 C25.387713,15.033991 25.3789238,14.9636771 25.3921076,14.8538117 C25.3921372,14.8266234 25.3828289,14.8002496 25.3657399,14.7791031 C25.3229615,14.6686824 25.3064132,14.5498352 25.3173991,14.4319283 C25.3089527,14.3025668 25.325362,14.1727847 25.3657399,14.0495964 C25.387713,14.0188341 25.4008969,13.9924664 25.3965022,13.9792825 C25.3965022,13.8518386 25.3657399,13.7727354 25.3525561,13.7727354 C25.3393722,13.7727354 25.2646637,13.7727354 25.2207175,13.9221525 L25.2207175,13.9221525 Z M24.55713,13.9221525 L25.0756951,13.9221525 C25.1298843,13.8848522 25.1587109,13.8204162 25.1504036,13.755157 L24.6318386,13.755157 C24.5805123,13.7947758 24.5524594,13.8574823 24.55713,13.9221525 L24.55713,13.9221525 Z M29.1011659,16.9983857 L25.4580269,16.9983857 C25.309975,16.9983857 25.1899552,17.1184055 25.1899552,17.2664574 C25.1899552,17.4145093 25.309975,17.5345291 25.4580269,17.5345291 L29.0879821,17.5345291 C29.236034,17.5345291 29.3560538,17.4145093 29.3560538,17.2664574 C29.3560538,17.1184055 29.236034,16.9983857 29.0879821,16.9983857 L29.1011659,16.9983857 Z M25.4580269,16.7083408 L29.0879821,16.7083408 C29.236034,16.7083408 29.3560538,16.588321 29.3560538,16.4402691 C29.3560538,16.2922171 29.236034,16.1721973 29.0879821,16.1721973 L25.4580269,16.1721973 C25.309975,16.1721973 25.1899552,16.2922171 25.1899552,16.4402691 C25.1899552,16.588321 25.309975,16.7083408 25.4580269,16.7083408 L25.4580269,16.7083408 Z M25.4580269,15.8821525 L29.0879821,15.8821525 C29.1911313,15.8954412 29.2926584,15.8478695 29.3484573,15.7601037 C29.4042562,15.6723379 29.4042562,15.5602182 29.3484573,15.4724524 C29.2926584,15.3846866 29.1911313,15.3371148 29.0879821,15.3504036 L25.4580269,15.3504036 C25.3548777,15.3371148 25.2533506,15.3846866 25.1975517,15.4724524 C25.1417528,15.5602182 25.1417528,15.6723379 25.1975517,15.7601037 C25.2533506,15.8478695 25.3548777,15.8954412 25.4580269,15.8821525 Z M22.9706726,19.8592825 L22.9706726,19.8592825 C23.0414395,20.3054984 23.2708185,20.7112027 23.6166816,21.0018834 L23.9682511,21.0018834 L23.9682511,19.0330942 C23.9682511,18.953991 23.9682511,18.8836771 23.8979372,18.8704933 C23.7133632,18.8441256 23.5683408,18.8221525 23.3617937,18.804574 C23.085086,19.0830753 22.9424529,19.467704 22.9706726,19.8592825 L22.9706726,19.8592825 Z M20.8480717,18.0267265 C20.999843,18.1183366 21.1465448,18.2180938 21.2875336,18.3255605 L21.4765022,18.2991928 C22.3194714,18.2496788 23.1653272,18.2924137 23.9990135,18.4266368 C24.057579,18.3641271 24.0850011,18.2786347 24.073722,18.193722 C24.0733812,18.1513404 24.0644095,18.1094726 24.0473543,18.0706726 L24.0473543,18.0706726 C22.9888518,17.9366796 21.9186525,17.9219385 20.856861,18.0267265 L20.8480717,18.0267265 Z M22.1400897,16.0579372 C21.5731839,16.2117489 21.595157,17.3763229 22.0521973,17.5169507 C22.6022354,17.5074064 23.152384,17.5279453 23.7001794,17.5784753 L23.7001794,16.1546188 L23.7001794,16.1546188 C23.3848465,16.0809002 23.0615258,16.0469442 22.7377578,16.0535426 L22.1488789,16.0535426 L22.1400897,16.0579372 Z M22.4608969,15.2053812 L22.2719283,15.2053812 C22.1878793,15.2100396 22.1096931,15.2499305 22.0565919,15.3152466 C22.0417077,15.3339326 22.033923,15.3572866 22.0346188,15.3811659 C22.0416757,15.4838342 22.1295891,15.5619795 22.2323767,15.5569507 L22.2719283,15.5569507 C22.7286701,15.5344805 23.1864193,15.5699191 23.6342601,15.6624215 L23.6826009,15.6624215 C23.767328,15.6623528 23.8421419,15.607133 23.8671749,15.5261883 C23.8865399,15.4828418 23.8865399,15.4333017 23.8671749,15.3899552 C23.8452018,15.3416143 23.8452018,15.3416143 23.7485202,15.2932735 C23.5150288,15.2366848 23.2766072,15.2028348 23.0365919,15.1921973 C22.8388341,15.1921973 22.6234978,15.1921973 22.4740807,15.1921973 L22.4608969,15.2053812 Z M19.0682511,15.0208072 C19.070534,15.0559271 19.070534,15.0911581 19.0682511,15.126278 L19.0682511,15.126278 C19.0682511,15.2449327 19.0682511,15.3591928 19.0682511,15.4690583 C19.0682511,16.5237668 19.0682511,16.9676233 20.2767713,17.6883408 L20.2767713,16.4007175 C20.2767713,16.3479821 20.2767713,16.2952466 20.2767713,16.2469058 C20.0394619,16.2469058 19.8592825,16.0403587 19.7977578,15.7327354 C19.7540491,15.409906 19.935044,15.0985948 20.2372197,14.976861 L20.3075336,14.976861 L20.3295067,14.976861 C20.3295067,14.941704 20.3295067,14.9065471 20.3602691,14.8713901 L19.2879821,14.8713901 C19.2169052,14.8639759 19.1450633,14.8714595 19.0770404,14.8933632 C19.0716315,14.9430221 19.0716315,14.9931214 19.0770404,15.0427803 L19.0682511,15.0208072 Z M21.7050224,12.8234978 C21.4423278,13.1583409 21.392899,13.6134267 21.5775785,13.996861 L23.6957848,13.996861 L23.6957848,13.1179372 C23.6948097,13.0296974 23.6482624,12.9482396 23.5727354,12.9026009 L23.5727354,12.9026009 C23.0971323,12.832114 22.6163433,12.802708 22.1356951,12.8147085 L21.6962332,12.8147085 L21.7050224,12.8234978 Z M21.5380269,12.1643049 C21.5231451,12.2831879 21.5478577,12.4036617 21.6083408,12.5070852 L22.1356951,12.5070852 C22.5759732,12.502291 23.0161625,12.5228332 23.4540807,12.5686099 L23.4540807,12.5686099 L23.4980269,12.5686099 L23.4980269,11.9489686 C22.9265597,11.7889988 22.332755,11.7236803 21.7401794,11.7556054 L21.7006278,11.7863677 C21.5940332,11.8929632 21.5313056,12.0356685 21.524843,12.186278 L21.5380269,12.1643049 Z M22.0258296,11.2634081 C22.02461,11.3115581 22.0432012,11.3580995 22.0772594,11.3921576 C22.1113176,11.4262158 22.1578589,11.444807 22.206009,11.4435874 L22.2411659,11.4435874 C22.6516969,11.445241 23.0599711,11.5044112 23.4540807,11.6193722 L23.4980269,11.6193722 C23.57526,11.6170918 23.6424414,11.5658217 23.6650224,11.4919283 C23.682551,11.4451764 23.682551,11.3936577 23.6650224,11.3469058 C23.643233,11.3045228 23.6051691,11.2728029 23.5595516,11.2590135 C23.1312825,11.134268 22.6872268,11.0721002 22.2411659,11.0744395 L22.2147982,11.0744395 C22.1639783,11.0719949 22.1144936,11.0911502 22.078565,11.1271749 C22.044903,11.1628429 22.0260523,11.2099697 22.0258296,11.2590135 L22.0258296,11.2634081 Z M21.3578475,10.7668161 C21.3646269,10.8320081 21.419749,10.8814278 21.4852915,10.8810762 L21.4852915,10.8810762 C21.8192825,10.8591031 22.0126457,10.8503139 22.2367713,10.8503139 C22.5142296,10.8561157 22.7900479,10.8944648 23.058565,10.964574 C23.2475336,10.9997309 23.2607175,10.9162332 23.2695067,10.8591031 C23.278296,10.8019731 23.243139,10.8195516 23.243139,10.815157 C23.1684342,10.7521112 23.0794057,10.7083514 22.9838565,10.687713 C22.7099758,10.6068394 22.4256529,10.5668565 22.1400897,10.5690583 C21.9137082,10.5664085 21.6874561,10.5811002 21.4633184,10.6130045 C21.4277455,10.6169633 21.3956593,10.636215 21.375426,10.6657399 C21.3510314,10.6933946 21.3398114,10.7302602 21.3446637,10.7668161 L21.3578475,10.7668161 Z M30.0899552,18.989148 L30.0899552,18.9627803 C30.0899552,18.8792825 30.0504036,18.7782063 29.8746188,18.7782063 L28.9297758,18.7782063 C28.7894763,18.2487986 28.3039111,17.8850794 27.7564126,17.8992825 L25.8008072,17.8992825 C25.5854709,17.8992825 25.5942601,17.9212556 25.6118386,17.9652018 C25.7260987,18.2113004 25.8974888,18.4046637 27.3696861,18.4046637 C27.7206229,18.3558319 28.0729294,18.4842427 28.3101345,18.7474439 L24.2978475,18.7474439 C24.3710333,18.5771305 24.4026659,18.3918539 24.3901345,18.2069058 C24.3851195,17.9891078 24.2914783,17.7827798 24.130852,17.6356054 C24.1130534,17.617338 24.0900184,17.6050526 24.0649327,17.6004484 L24.0297758,17.6004484 L24.0297758,16.1194619 C24.1732758,16.0753173 24.2843095,15.9609692 24.3242152,15.8162332 C24.3795791,15.6406422 24.3605178,15.4500297 24.2714798,15.2888789 C24.2069353,15.1546762 24.0914348,15.0518333 23.9506726,15.0032287 L23.8803587,15.0032287 L23.8583857,15.0032287 C23.865418,14.9536713 23.865418,14.9033691 23.8583857,14.8538117 L24.4780269,14.8538117 C24.4629938,14.7489544 24.4541891,14.6432983 24.4516592,14.5373991 L19.2879821,14.5373991 C19.1316115,14.5179158 18.9738349,14.5605155 18.8485202,14.6560538 C18.7656812,14.7633064 18.7321489,14.9006292 18.7562332,15.033991 C18.7587512,15.0661691 18.7587512,15.0984946 18.7562332,15.1306726 L18.7562332,15.1306726 L18.7562332,15.4690583 C18.7562332,16.567713 18.7342601,17.1741704 20.1976682,18.009148 C21.4325561,18.7166816 22.0961435,19.1869058 22.1400897,20.9974888 L18.3695067,20.9974888 C18.3079821,20.9183857 18.2376682,20.8392825 18.1849327,20.764574 L19.0023318,20.6459193 C19.0330942,20.6459193 19.0506726,20.6459193 19.0506726,20.6063677 C19.0506726,20.5668161 19.0199103,20.5668161 18.9935426,20.5668161 L17.973991,20.4613453 C17.9476233,20.3998206 17.916861,20.3426906 17.8904933,20.2767713 L18.8353363,20.153722 C18.8353363,20.153722 18.8880717,20.153722 18.8880717,20.1229596 C18.8880717,20.0921973 18.8353363,20.0965919 18.8353363,20.0965919 L17.7938117,19.9603587 C17.7938117,19.9032287 17.7938117,19.8460987 17.7674439,19.784574 L18.7957848,19.6483408 L18.8792825,19.6483408 L18.8792825,19.6483408 L18.8792825,19.6175785 L18.8792825,19.6175785 L18.7913901,19.6175785 L17.7630493,19.4857399 C17.7630493,19.4286099 17.7630493,19.3670852 17.7630493,19.3187444 L18.8133632,19.1781166 L18.8880717,19.1781166 L18.8880717,19.1781166 L18.8880717,19.1561435 L18.804574,19.1561435 L17.8201794,19.0243049 C17.8201794,18.9627803 17.8465471,18.9012556 17.8641256,18.8441256 L17.8641256,18.8441256 L18.9364126,18.7034978 C18.9364126,18.7034978 19.0067265,18.7034978 19.0067265,18.6815247 C19.0067265,18.6595516 18.9452018,18.6463677 18.9452018,18.6463677 L17.9783857,18.5233184 C18.0152858,18.4497802 18.0578979,18.37925 18.1058296,18.3123767 L18.1761435,18.3123767 L19.1517489,18.3123767 C19.1541415,18.2993014 19.1541415,18.2859004 19.1517489,18.2728251 C18.9945621,18.1513074 18.8605792,18.0024376 18.7562332,17.8333632 C18.6024215,17.5696861 18.4310314,17.178565 18.4310314,17.178565 C18.2973836,17.3920212 18.1363416,17.5870445 17.9520179,17.7586547 C17.8275953,17.8771258 17.695468,17.9872319 17.5565022,18.0882511 C16.9764126,18.4837668 16.4886099,18.527713 15.8733632,19.3539013 C15.5305578,19.8746381 15.3571093,20.488615 15.3767713,21.1117489 L15.0867265,21.1117489 C15.1306726,19.3011659 15.7942601,18.8309417 17.029148,18.1234081 C18.4925561,17.2840359 18.4837668,16.3655605 18.470583,15.1878027 L18.470583,14.8450224 C18.4536817,14.7333817 18.4869923,14.6199795 18.5615857,14.5352143 C18.6361791,14.450449 18.7444258,14.4029906 18.8573094,14.4055605 L24.3945291,14.4055605 C24.3977321,14.2985178 24.4139653,14.1922641 24.44287,14.089148 L24.0034081,14.089148 L24.0034081,13.2102242 C24.0069552,13.040493 23.9324452,12.8785146 23.8012556,12.7707623 L23.8012556,11.8742601 C23.9326274,11.8173825 24.0333918,11.7070215 24.0781166,11.5710314 C24.121428,11.4488208 24.1085614,11.3137213 24.0429596,11.2018834 C23.9737418,11.0762233 23.856316,10.9841869 23.7177578,10.9469955 L23.6562332,10.9250224 L23.6562332,10.9250224 C23.6562332,10.6701345 23.5331839,10.5295067 23.2475336,10.4416143 C22.8817648,10.3296275 22.5005776,10.2762316 22.1181166,10.2834081 C21.6968433,10.2793019 21.2769695,10.3325253 20.8700448,10.4416143 C20.645569,10.4993962 20.4829209,10.6938667 20.4657399,10.9250224 L20.4657399,10.9250224 L20.3998206,10.9469955 C20.2619433,10.9855402 20.1449881,11.0772077 20.0746188,11.2018834 C19.9979086,11.347996 20.0010348,11.5231459 20.0829103,11.666428 C20.1647857,11.8097101 20.314097,11.9013256 20.4789238,11.909417 L20.4789238,12.5510314 C20.2684442,12.6395306 20.1316001,12.8456629 20.1317489,13.073991 L20.1317489,13.9529148 L18.9100448,13.9529148 C18.7169037,13.95139 18.5317464,14.0298795 18.3985414,14.1697447 C18.2653364,14.3096099 18.195967,14.4983736 18.2069058,14.6912108 L18.2069058,15.0383857 C18.2069058,16.1897758 18.2288789,16.9500448 16.9236771,17.69713 C15.6184753,18.4442152 14.8669955,18.9759641 14.8230493,20.9579372 L13.2146188,20.9579372 C13.0617127,20.9579372 12.9377578,21.0818921 12.9377578,21.2347982 L24.3066368,21.2347982 L24.3066368,19.0770404 L30.1119283,19.0770404 C30.1119283,19.0770404 30.1119283,19.0374888 30.1119283,18.9627803 L30.0899552,18.989148 Z M25.0713004,14.8362332 L24.5527354,14.8362332 C24.54721,14.9151993 24.5741996,14.9929929 24.6274439,15.0515695 L25.1328251,15.0515695 C25.1424983,14.9721067 25.1149251,14.8926309 25.0581166,14.8362332 L25.0713004,14.8362332 Z M25.0713004,14.7483408 L25.0713004,14.0408072 L24.5527354,14.0408072 C24.5175771,14.2753414 24.5175771,14.5138066 24.5527354,14.7483408 L25.0713004,14.7483408 Z M13.0520179,25.4975785 L16.0227803,25.4975785 C16.0931656,25.4975785 16.1502242,25.5546371 16.1502242,25.6250224 L16.1502242,26.4512108 C16.1502242,26.5215961 16.0931656,26.5786547 16.0227803,26.5786547 L13.0520179,26.5786547 C13.0174629,26.579847 12.9839064,26.5669481 12.9590469,26.5429173 C12.9341875,26.5188865 12.9201588,26.4857864 12.9201794,26.4512108 L12.9201794,25.6250224 C12.9201588,25.5904468 12.9341875,25.5573467 12.9590469,25.5333159 C12.9839064,25.5092851 13.0174629,25.4963862 13.0520179,25.4975785 L13.0520179,25.4975785 Z M16.510583,25.4975785 L19.4813453,25.4975785 C19.5517306,25.4975785 19.6087892,25.5546371 19.6087892,25.6250224 L19.6087892,26.4512108 C19.6087892,26.5215961 19.5517306,26.5786547 19.4813453,26.5786547 L16.510583,26.5786547 C16.4760279,26.579847 16.4424714,26.5669481 16.417612,26.5429173 C16.3927525,26.5188865 16.3787238,26.4857864 16.3787444,26.4512108 L16.3787444,25.6250224 C16.3787238,25.5904468 16.3927525,25.5573467 16.417612,25.5333159 C16.4424714,25.5092851 16.4760279,25.4963862 16.510583,25.4975785 Z M19.9647534,25.4975785 L22.9355157,25.4975785 C23.005901,25.4975785 23.0629596,25.5546371 23.0629596,25.6250224 L23.0629596,26.3765022 C23.0330801,26.4274074 23.0066529,26.4802618 22.9838565,26.5347085 L22.9355157,26.5347085 L19.9603587,26.5347085 C19.8909388,26.5324306 19.8351927,26.4766845 19.8329148,26.4072646 L19.8329148,25.5810762 C19.8351927,25.5116563 19.8909388,25.4559102 19.9603587,25.4536323 L19.9647534,25.4975785 Z M23.427713,25.4975785 L23.8671749,25.4975785 C23.655704,25.6546181 23.4677647,25.8410776 23.3090583,26.0513004 L23.3090583,25.6118386 C23.3090583,25.5414532 23.3661169,25.4843946 23.4365022,25.4843946 L23.427713,25.4975785 Z M12.9157848,24.1791928 L14.2913004,24.1791928 C14.3607204,24.1814707 14.4164665,24.2372168 14.4187444,24.3066368 L14.4187444,25.1328251 C14.4187444,25.2032105 14.3616858,25.2602691 14.2913004,25.2602691 L12.9157848,25.2602691 L12.9157848,24.1791928 Z M14.7791031,24.1791928 L17.7542601,24.1791928 C17.82368,24.1814707 17.8794262,24.2372168 17.881704,24.3066368 L17.881704,25.1328251 C17.881704,25.2032105 17.8246454,25.2602691 17.7542601,25.2602691 L14.7791031,25.2602691 C14.7453029,25.2602691 14.712887,25.246842 14.6889867,25.2229416 C14.6650863,25.1990412 14.6516592,25.1666253 14.6516592,25.1328251 L14.6516592,24.3066368 C14.6539371,24.2372168 14.7096832,24.1814707 14.7791031,24.1791928 L14.7791031,24.1791928 Z M18.2376682,24.1791928 L21.2084305,24.1791928 C21.2786679,24.1813153 21.3357676,24.2365116 21.3402691,24.3066368 L21.3402691,25.1328251 C21.3378981,25.2039158 21.2795607,25.2603086 21.2084305,25.2602691 L18.2376682,25.2602691 C18.1672828,25.2602691 18.1102242,25.2032105 18.1102242,25.1328251 L18.1102242,24.3066368 C18.1125021,24.2372168 18.1682482,24.1814707 18.2376682,24.1791928 L18.2376682,24.1791928 Z M13.0520179,22.8608072 C13.0174629,22.8596149 12.9839064,22.8725138 12.9590469,22.8965446 C12.9341875,22.9205754 12.9201588,22.9536755 12.9201794,22.9882511 L12.9201794,23.8100448 C12.9189385,23.8453764 12.9324297,23.8796359 12.9574283,23.9046345 C12.9824269,23.9296331 13.0166864,23.9431243 13.0520179,23.9418834 L16.0227803,23.9418834 C16.0573559,23.941904 16.090456,23.9278753 16.1144868,23.9030158 C16.1385176,23.8781564 16.1514165,23.8445999 16.1502242,23.8100448 L16.1502242,22.9882511 C16.1514679,22.9540848 16.1384406,22.9209413 16.1142653,22.8967661 C16.0900901,22.8725908 16.0569466,22.8595635 16.0227803,22.8608072 L13.0520179,22.8608072 Z M16.510583,22.8608072 C16.4760279,22.8596149 16.4424714,22.8725138 16.417612,22.8965446 C16.3927525,22.9205754 16.3787238,22.9536755 16.3787444,22.9882511 L16.3787444,23.8100448 C16.3775035,23.8453764 16.3909947,23.8796359 16.4159933,23.9046345 C16.4409919,23.9296331 16.4752514,23.9431243 16.510583,23.9418834 L19.4813453,23.9418834 C19.5159209,23.941904 19.549021,23.9278753 19.5730518,23.9030158 C19.5970826,23.8781564 19.6099815,23.8445999 19.6087892,23.8100448 L19.6087892,22.9882511 C19.6100329,22.9540848 19.5970056,22.9209413 19.5728304,22.8967661 C19.5486551,22.8725908 19.5155116,22.8595635 19.4813453,22.8608072 L16.510583,22.8608072 Z M19.9647534,22.8608072 C19.894368,22.8608072 19.8373094,22.9178658 19.8373094,22.9882511 L19.8373094,23.8100448 C19.8372699,23.881175 19.8936627,23.9395124 19.9647534,23.9418834 L22.9355157,23.9418834 C22.9700913,23.941904 23.0031914,23.9278753 23.0272222,23.9030158 C23.051253,23.8781564 23.0641519,23.8445999 23.0629596,23.8100448 L23.0629596,22.9882511 C23.0642033,22.9540848 23.051176,22.9209413 23.0270008,22.8967661 C23.0028255,22.8725908 22.969682,22.8595635 22.9355157,22.8608072 L19.9647534,22.8608072 Z M14.2956951,21.5424215 L12.9157848,21.5424215 L12.9157848,22.6278924 L14.2913004,22.6278924 C14.3616858,22.6278924 14.4187444,22.5708338 14.4187444,22.5004484 L14.4187444,21.6698655 C14.4166315,21.6020504 14.3633943,21.5469118 14.2956951,21.5424215 Z M17.7542601,21.5424215 L14.7747085,21.5424215 C14.7060451,21.5447906 14.6516183,21.6011612 14.6516592,21.6698655 L14.6516592,22.5004484 C14.6516592,22.5708338 14.7087178,22.6278924 14.7791031,22.6278924 L17.7542601,22.6278924 C17.8246454,22.6278924 17.881704,22.5708338 17.881704,22.5004484 L17.881704,21.6698655 C17.8794262,21.6004455 17.82368,21.5446994 17.7542601,21.5424215 L17.7542601,21.5424215 Z M21.2128251,21.5424215 L18.2332735,21.5424215 C18.1655743,21.5469118 18.1123371,21.6020504 18.1102242,21.6698655 L18.1102242,22.5004484 C18.1102242,22.5708338 18.1672828,22.6278924 18.2376682,22.6278924 L21.2084305,22.6278924 C21.2795607,22.6279319 21.3378981,22.5715391 21.3402691,22.5004484 L21.3402691,21.6698655 C21.3359737,21.6013381 21.2813525,21.5467168 21.2128251,21.5424215 L21.2128251,21.5424215 Z M24.7988341,22.504843 L24.7988341,22.504843 L24.7988341,21.6742601 L24.7988341,21.6742601 C24.7945388,21.6057327 24.7399175,21.5511115 24.6713901,21.5468161 L21.6962332,21.5468161 C21.6268133,21.549094 21.5710671,21.6048402 21.5687892,21.6742601 L21.5687892,22.504843 C21.5687892,22.5386433 21.5822163,22.5710592 21.6061167,22.5949595 C21.6300171,22.6188599 21.6624329,22.632287 21.6962332,22.632287 L24.6669955,22.632287 C24.7365092,22.6324416 24.7942,22.5785969 24.7988341,22.5092377 L24.7988341,22.504843 Z M24.7988341,23.9506726 L24.7988341,22.8695964 L23.427713,22.8695964 C23.3935467,22.8683528 23.3604032,22.88138 23.3362279,22.9055553 C23.3120527,22.9297305 23.2990254,22.962874 23.3002691,22.9970404 L23.3002691,23.8188341 C23.2990768,23.8533891 23.3119757,23.8869456 23.3360065,23.9118051 C23.3600373,23.9366645 23.3931374,23.9506932 23.427713,23.9506726 L24.7988341,23.9506726 Z M24.7988341,25.1328251 C24.6245601,25.1665554 24.4527755,25.212071 24.2846637,25.2690583 L21.6962332,25.2690583 C21.6258478,25.2690583 21.5687892,25.2119997 21.5687892,25.1416143 L21.5687892,24.315426 C21.5710671,24.2460061 21.6268133,24.1902599 21.6962332,24.1879821 L24.6669955,24.1879821 C24.7372329,24.1901045 24.7943326,24.2453009 24.7988341,24.315426 L24.7988341,24.315426 L24.7988341,25.1284305 L24.7988341,25.1328251 Z M22.113722,37.3059193 C21.9906726,37.3059193 21.9643049,37.2619731 21.9599103,37.1960538 L21.8764126,37.1960538 L21.9247534,37.9211659 L22.0082511,37.9211659 C22.0082511,37.8596413 22.0082511,37.8025112 22.1488789,37.7981166 L23.7880717,37.6882511 L23.9726457,40.5052018 C23.9726457,40.6546188 23.9199103,40.698565 23.8495964,40.7029596 L23.8495964,40.7864574 L24.7021525,40.7293274 L24.7021525,40.6502242 C24.6318386,40.6502242 24.5659193,40.6194619 24.5527354,40.4700448 L24.3461883,37.4289686 C24.3461883,37.2839462 24.4033184,37.24 24.4736323,37.2312108 L24.4736323,37.147713 L22.1181166,37.3059193 L22.113722,37.3059193 Z M18.953991,37.5695964 L19.0330942,37.5695964 C19.0330942,37.5036771 19.0770404,37.4509417 19.1956951,37.4685202 L20.821704,37.6706726 L20.4701345,40.4700448 C20.4701345,40.6194619 20.3822422,40.6546188 20.3163229,40.641435 L20.3163229,40.7249327 L21.1732735,40.8304036 L21.1732735,40.7513004 C21.1029596,40.7513004 21.0458296,40.6897758 21.0634081,40.5447534 L21.4369507,37.5212556 C21.4369507,37.3762332 21.5292377,37.3454709 21.5995516,37.3542601 L21.5995516,37.2707623 L19.2616143,36.9763229 C19.138565,36.9763229 19.1209865,36.9104036 19.1297758,36.8444843 L19.046278,36.8444843 L18.9583857,37.5652018 L18.953991,37.5695964 Z M25.2075336,36.9235874 L25.2075336,37.0114798 C25.2734529,37.0114798 25.3481614,37.0114798 25.3833184,37.1608969 L26.0556951,40.1272646 C26.0864574,40.2766816 26.033722,40.329417 25.9634081,40.3426009 L25.9634081,40.4260987 L26.7983857,40.2327354 L26.7983857,40.1580269 C26.7280717,40.1580269 26.6533632,40.1580269 26.6182063,40.0042152 L25.9502242,37.0290583 C25.9150673,36.8840359 25.9721973,36.8356951 26.0381166,36.8181166 L26.0381166,36.7346188 L25.2075336,36.9235874 L25.2075336,36.9235874 Z M27.5454709,36.2643946 L27.5806278,36.3434978 C27.6421525,36.3434978 27.7212556,36.3434978 27.7783857,36.4621525 L28.8550673,39.0769507 L28.0288789,39.4153363 C27.9146188,39.4636771 27.8706726,39.4153363 27.8443049,39.3626009 L27.7695964,39.3933632 L28.0420628,40.0701345 L28.1211659,40.0349776 C28.0947982,39.9734529 28.0991928,39.9163229 28.2090583,39.8723767 L30.4063677,38.9714798 C30.5206278,38.923139 30.564574,38.9714798 30.5909417,39.0242152 L30.6656502,38.9934529 L30.3887892,38.3210762 L30.3140807,38.3518386 C30.3404484,38.4221525 30.3140807,38.4704933 30.2217937,38.5188341 L29.3956054,38.8572197 L28.3189238,36.2424215 C28.2661883,36.1061883 28.3189238,36.0490583 28.3804484,36.018296 L28.3452915,35.9391928 L27.5542601,36.2643946 L27.5454709,36.2643946 Z M16.013991,36.5412556 L16.0886996,36.5676233 C16.1150673,36.5060987 16.1546188,36.4665471 16.2688789,36.5060987 L17.8597309,37.0510314 L17.5081614,38.0837668 L16.4534529,37.7278027 C16.3391928,37.6882511 16.3347982,37.6311211 16.3567713,37.5695964 L16.2732735,37.5432287 L16.0359641,38.2419731 L16.1194619,38.2683408 C16.1194619,38.2024215 16.1765919,38.16287 16.2952466,38.2024215 L17.3499552,38.5583857 L17.0159641,39.5208072 L15.4646637,39.0022422 C15.346009,38.9626906 15.3416143,38.9099552 15.3635874,38.8396413 L15.2756951,38.8132735 L15.0383857,39.5032287 L15.1218834,39.5295964 C15.1482511,39.4680717 15.1834081,39.4285202 15.3020628,39.4680717 L17.5213453,40.2239462 L17.547713,40.144843 C17.4773991,40.12287 17.4290583,40.0613453 17.4773991,39.9207175 L18.4617937,37.0422422 C18.5101345,36.9016143 18.584843,36.8884305 18.655157,36.9104036 L18.6815247,36.8269058 L16.4270852,36.0446637 C16.3128251,36.0051121 16.3040359,35.9479821 16.326009,35.890852 L16.2513004,35.8600897 L16.013991,36.5500448 L16.013991,36.5412556 Z M12.74,37.573991 L13.4035874,37.9870852 L13.9924664,37.0378475 L13.2409865,36.5676233 C12.8366816,36.31713 12.6257399,36.3874439 12.4367713,36.6906726 C12.1906726,37.0773991 12.3005381,37.3015247 12.74,37.5695964 L12.74,37.573991 Z M13.1530942,34.24287 C13.2462351,34.2898539 13.3005067,34.3896436 13.2893274,34.4933632 L13.1486996,35.983139 C12.6565022,35.7809865 12.2302242,35.9304036 11.8830493,36.4797309 C11.6149776,36.9191928 11.6940807,37.4597309 12.3576682,37.8816143 L13.7463677,38.7605381 L13.7903139,38.6902242 C13.7463677,38.6902242 13.7112108,38.5979372 13.7903139,38.4704933 L15.4075336,35.890852 C15.4866368,35.7634081 15.5613453,35.7678027 15.62287,35.8029596 L15.6668161,35.7326457 L14.941704,35.2931839 L14.9021525,35.3634978 C14.9548879,35.4030493 14.9988341,35.4689686 14.9021525,35.5920179 L14.2253812,36.6730942 L13.66287,36.31713 L13.7859193,34.8844843 C13.7834854,34.8446501 13.7926438,34.8049637 13.812287,34.7702242 C13.8342601,34.7306726 13.8738117,34.7394619 13.9265471,34.7702242 L13.9748879,34.6999103 L13.1838565,34.1989238 L13.1355157,34.2736323 L13.1530942,34.24287 Z M32.1334529,34.0451121 C32.1309711,34.0746852 32.1185841,34.102556 32.098296,34.1242152 C31.6044634,34.1042274 31.1183132,34.2513111 30.7183857,34.541704 C30.0767713,34.9811659 29.8921973,35.6579372 30.2789238,36.2116592 C30.7183857,36.8752466 31.3512108,36.6247534 31.8873543,36.3830493 C32.3268161,36.1765022 32.709148,35.9743498 32.9156951,36.2731839 C33.1222422,36.5720179 33.0695067,36.8181166 32.6124664,37.1301345 C32.2521076,37.3762332 31.7335426,37.5124664 31.5753363,37.29713 C31.5642793,37.2839672 31.5553795,37.2691343 31.5489686,37.2531839 L31.4698655,37.2531839 L31.5885202,38.0617937 L31.6676233,38.0617937 C31.6718893,38.0169702 31.6940747,37.9757686 31.729148,37.9475336 C31.8538437,37.9187492 31.9800078,37.8967439 32.1070852,37.8816143 C32.3810612,37.8270573 32.6402499,37.7146923 32.8673543,37.5520179 C33.5089686,37.1125561 33.746278,36.4885202 33.3727354,35.9347982 C32.9332735,35.3107623 32.3619731,35.5480717 31.8346188,35.7853812 C31.395157,35.9919283 30.9776682,36.1940807 30.7447534,35.8513004 C30.5118386,35.5085202 30.6480717,35.1921076 30.9996413,34.9723767 C31.3512108,34.7526457 32.0675336,34.5724664 32.2125561,34.7878027 L32.2521076,34.853722 L32.34,34.853722 L32.2345291,34.0539013 L32.1378475,34.0539013 L32.1334529,34.0451121 Z M32.3883408,33.284843 L32.4498655,33.3463677 C32.4982063,33.2980269 32.5729148,33.2760538 32.6783857,33.3815247 L34.8009865,35.5788341 C34.9020628,35.6886996 34.8844843,35.7634081 34.8361435,35.8117489 L34.8888789,35.8732735 L35.5041256,35.2756054 L35.4469955,35.2140807 C35.3986547,35.2668161 35.3195516,35.2843946 35.2184753,35.1789238 L33.0914798,32.9816143 C32.986009,32.8805381 33.0123767,32.8058296 33.0651121,32.7530942 L33.0035874,32.6915695 L32.3883408,33.2892377 L32.3883408,33.284843 Z M10.0636771,32.616861 C9.02215247,33.653991 11.0392825,34.6647534 10.4723767,35.2272646 C10.2570404,35.4426009 9.96699552,35.4733632 9.59345291,35.0778475 C9.28143498,34.7702242 9.05730942,34.2736323 9.24188341,34.0890583 C9.25272368,34.074942 9.26614512,34.0630118 9.28143498,34.0539013 L9.28143498,33.9747982 L8.50798206,34.2384753 L8.50798206,34.3175785 C8.55154256,34.3114806 8.59544712,34.3261154 8.62663677,34.35713 C8.68339168,34.4726494 8.72900894,34.5933144 8.76286996,34.7174888 C8.85696603,34.9769291 9.0070012,35.2124843 9.20233184,35.4074439 C9.75165919,35.9567713 10.4064574,36.0886099 10.8854709,35.6095964 C11.8786547,34.6208072 9.86152466,33.6452018 10.4943498,33.0123767 C10.7887892,32.7223318 11.1271749,32.8058296 11.4304036,33.1090583 C11.7336323,33.412287 12.0104933,34.0802691 11.8259193,34.2692377 L11.7687892,34.3175785 L11.7687892,34.4054709 L12.5378475,34.1549776 L12.5026906,34.0670852 C12.4766181,34.0726658 12.4496599,34.0726658 12.4235874,34.0670852 C12.3490972,33.5790882 12.1176966,33.1286283 11.7643946,32.7838565 C11.5135042,32.5064146 11.1624177,32.3403601 10.7887892,32.3224215 C10.5086526,32.3232603 10.2407695,32.4373881 10.0460987,32.6388341 L10.0636771,32.616861 Z M7.42690583,31.026009 C7.42690583,31.3245399 7.66891299,31.5665471 7.96744395,31.5665471 C8.2659749,31.5665471 8.50798206,31.3245399 8.50798206,31.026009 C8.50798206,30.727478 8.2659749,30.4854709 7.96744395,30.4854709 C7.66891299,30.4854709 7.42690583,30.727478 7.42690583,31.026009 L7.42690583,31.026009 Z M35.3678924,32.7838565 C35.6261034,33.0035372 35.9447764,33.1398925 36.2819731,33.1749776 C36.642513,33.1420015 36.9617912,32.9285979 37.1301345,32.6080717 L37.4465471,32.1686099 L35.2756054,30.621704 L34.9591928,31.0611659 C34.4186547,31.8170404 34.6383857,32.2652915 35.3678924,32.7882511 L35.3678924,32.7838565 Z M34.5153363,30.8853812 C33.8605381,31.8082511 34.1549776,32.6432287 35.0207175,33.2540807 C36.0798206,34.0099552 36.8928251,33.7374888 37.4465471,32.9640359 L38.2375785,31.8521973 L38.1716592,31.8082511 C38.127713,31.8653812 38.0573991,31.8961435 37.9387444,31.8082511 L35.4557848,30.0504036 C35.3327354,29.9625112 35.3459193,29.8878027 35.3854709,29.8306726 L35.315157,29.7779372 L34.5153363,30.898565 L34.5153363,30.8853812 Z M40.2283408,26.1699552 L38.2331839,26.644574 L36.9587444,26.275426 C36.813722,26.2358744 36.8005381,26.1655605 36.8225112,26.090852 L36.7346188,26.0688789 L36.4973094,26.8950673 L36.5808072,26.921435 C36.5808072,26.8467265 36.6555157,26.7983857 36.8005381,26.8379372 L38.070583,27.2070852 L39.4329148,28.5034978 C39.5559641,28.6265471 39.5911211,28.661704 39.5955157,28.8111211 L39.6746188,28.8111211 L39.8987444,28.050852 L39.8152466,28.050852 C39.7932735,28.0947982 39.7844843,28.1123767 39.753722,28.1079821 C39.7320118,28.1041253 39.7128967,28.0913819 39.7009865,28.0728251 L38.6594619,27.0972197 L40.030583,26.7720179 C40.0651727,26.7630869 40.1014641,26.7630869 40.1360538,26.7720179 C40.1712108,26.7720179 40.1668161,26.7983857 40.1580269,26.8643049 L40.23713,26.8643049 L40.4744395,26.0381166 L40.3953363,26.0381166 C40.3667855,26.1084145 40.3033454,26.1584987 40.2283408,26.1699552 L40.2283408,26.1699552 Z M7.15004484,25.8623318 L7.17641256,25.941435 C7.24233184,25.9194619 7.29946188,25.941435 7.33901345,26.0469058 L7.86197309,27.6465471 L6.81605381,27.9849327 L6.46887892,26.9302242 C6.43372197,26.8115695 6.46887892,26.7764126 6.53919283,26.7544395 L6.50843049,26.6709417 L5.81847534,26.8994619 L5.84484305,26.9829596 C5.90636771,26.9609865 5.96349776,26.9829596 5.99865471,27.0840359 L6.3458296,28.1387444 L5.38340807,28.455157 L4.87802691,26.9082511 C4.83847534,26.793991 4.87802691,26.7544395 4.93955157,26.7280717 L4.91757848,26.6489686 L4.2232287,26.8774888 L4.24959641,26.9609865 C4.31112108,26.9390135 4.37264574,26.9609865 4.40780269,27.0620628 L5.13730942,29.2901345 L5.21201794,29.2637668 C5.21201794,29.1978475 5.21201794,29.123139 5.35264574,29.0747982 L8.24869955,28.1299552 C8.38932735,28.0816143 8.44206278,28.1299552 8.46403587,28.2046637 L8.55192825,28.1739013 L7.80484305,25.8930942 C7.76089686,25.7744395 7.80484305,25.7348879 7.87076233,25.7129148 L7.84439462,25.6382063 L7.15004484,25.8623318 L7.15004484,25.8623318 Z M37.0642152,24.4208969 L37.1521076,24.4208969 C37.1521076,24.3461883 37.204843,24.2846637 37.3542601,24.3022422 L40.3777578,24.6362332 C40.5271749,24.6362332 40.5579372,24.7197309 40.549148,24.7944395 L40.6326457,24.7944395 L40.7249327,23.9418834 L40.6458296,23.9418834 C40.6458296,24.0121973 40.5930942,24.0781166 40.4436771,24.0605381 L37.4377578,23.7397309 C37.2883408,23.7397309 37.2619731,23.6518386 37.2707623,23.5815247 L37.1872646,23.5815247 L37.0861883,24.4340807 L37.0642152,24.4208969 Z M6.30188341,22.6630493 C4.84286996,22.816861 5.77892377,24.8603587 4.98349776,24.9482511 C4.68466368,24.9834081 4.4341704,24.8208072 4.37704036,24.2714798 C4.32869955,23.8320179 4.46493274,23.3090583 4.72860987,23.278296 C4.74611913,23.27609 4.76383602,23.27609 4.78134529,23.278296 L4.807713,23.2035874 L4.04304933,22.9267265 L4.012287,22.9970404 C4.04876963,23.0227281 4.07270895,23.0626269 4.07820628,23.1069058 C4.04692785,23.2295934 4.00728352,23.3499947 3.95955157,23.4672646 C3.87368996,23.7321997 3.84816419,24.0129831 3.88484305,24.2890583 C3.96394619,25.0669058 4.39461883,25.5766816 5.0626009,25.5063677 C6.46008969,25.3613453 5.50206278,23.335426 6.38098655,23.243139 C6.7896861,23.1991928 6.99623318,23.4760538 7.04457399,23.8979372 C7.0929148,24.3945291 6.88636771,25.0229596 6.60511211,25.0493274 C6.58188054,25.0537263 6.55802977,25.0537263 6.53479821,25.0493274 L6.49085202,25.1328251 L7.24672646,25.4184753 L7.27309417,25.330583 C7.2531783,25.3108802 7.23813116,25.2868048 7.22914798,25.2602691 C7.47445992,24.8332605 7.57613484,24.3387507 7.51919283,23.8495964 C7.44008969,23.1200897 6.99623318,22.6498655 6.3941704,22.6498655 L6.27112108,22.6498655 L6.30188341,22.6630493 Z M40.6150673,19.9252018 C40.6150673,19.9999103 40.5799103,20.0702242 40.4304933,20.0746188 L37.3938117,20.246009 C37.2443946,20.246009 37.204843,20.1888789 37.2004484,20.1141704 L37.1169507,20.1141704 L37.1608969,20.9667265 L37.2487892,20.9667265 C37.2487892,20.8964126 37.275157,20.821704 37.424574,20.8173094 L38.4485202,20.7601794 L38.923139,21.1381166 L37.4377578,22.1576682 C37.3806278,22.1972197 37.3982063,22.1972197 37.3542601,22.1972197 C37.3103139,22.1972197 37.3059193,22.1972197 37.3015247,22.1049327 L37.2092377,22.1049327 L37.2663677,23.0453812 L37.3542601,23.0453812 C37.3542601,22.9135426 37.4201794,22.8344395 37.5827803,22.724574 L39.3406278,21.5160538 L40.698565,22.6059193 C40.7732735,22.6630493 40.7688789,22.7157848 40.7732735,22.7992825 L40.8611659,22.7992825 L40.8040359,21.8500448 L40.7205381,21.8500448 C40.7205381,21.9115695 40.7205381,21.9379372 40.6809865,21.9379372 C40.6457792,21.942673 40.6103022,21.9313849 40.5843049,21.9071749 L39.1560538,20.7426009 L40.4744395,20.6678924 C40.6238565,20.6678924 40.6678027,20.7250224 40.6721973,20.7953363 L40.7513004,20.7953363 L40.7029596,19.9427803 L40.6150673,19.9252018 Z M3.95076233,19.046278 C4.01668161,19.046278 4.06502242,19.081435 4.05183857,19.2044843 L3.81013453,21.5556054 C3.81013453,21.6786547 3.74421525,21.7006278 3.67829596,21.6918386 L3.67829596,21.7753363 L4.40340807,21.8500448 L4.40340807,21.7665471 C4.33309417,21.7665471 4.2935426,21.7269955 4.30233184,21.6083408 L4.39022422,20.729417 L7.20717489,21.0150673 C7.35659193,21.0150673 7.38295964,21.1029596 7.3741704,21.1732735 L7.46206278,21.1732735 L7.54995516,20.3163229 L7.46206278,20.3163229 C7.46206278,20.3910314 7.41372197,20.4525561 7.26430493,20.4349776 L4.4561435,20.1493274 L4.54403587,19.2704036 C4.54403587,19.1517489 4.60556054,19.1297758 4.67587444,19.138565 L4.67587444,19.0550673 L3.95076233,18.9847534 L3.95076233,19.0638565 L3.95076233,19.046278 Z M38.7869058,16.2688789 C37.4377578,16.6468161 38.7253812,18.4661883 37.8596413,18.7298655 C37.4641256,18.8441256 37.2092377,18.6024215 37.0949776,18.193722 C36.963139,17.7147085 37.0598206,17.0599103 37.3103139,16.9852018 L37.3850224,16.9852018 L37.4113901,16.8973094 L36.6247534,16.7434978 L36.6247534,16.8357848 C36.6509393,16.8476146 36.6725435,16.8676757 36.686278,16.8929148 C36.5127451,17.356655 36.4957672,17.8644488 36.6379372,18.3387444 C36.8488789,19.0858296 37.4289686,19.4769507 38.0661883,19.3011659 C39.4812556,18.9056502 38.2112108,17.0379372 38.9802691,16.8226009 C39.2703139,16.7391031 39.5427803,16.8533632 39.6965919,17.3895067 C39.8152466,17.8069955 39.7713004,18.3519283 39.5120179,18.4266368 C39.4961906,18.430932 39.4795045,18.430932 39.4636771,18.4266368 L39.4636771,18.5101345 L40.2678924,18.655157 L40.2678924,18.5760538 C40.2259105,18.5618964 40.1942937,18.5269515 40.1843946,18.4837668 C40.1913257,18.3562525 40.2104564,18.2296953 40.2415247,18.1058296 C40.2803782,17.8289309 40.2578738,17.546876 40.1756054,17.2796413 C39.9998206,16.6424215 39.6043049,16.2381166 39.0989238,16.2381166 C39.0009497,16.2388585 38.9034745,16.2521505 38.8088789,16.2776682 L38.7869058,16.2688789 Z M7.25991031,18.2420628 L7.52798206,18.3255605 L8.19596413,16.1282511 L7.92349776,16.0447534 L7.25991031,18.2420628 L7.25991031,18.2420628 Z M4.91757848,16.5852915 L6.36780269,17.0686996 L6.44690583,16.844574 C6.51407564,16.679765 6.51407564,16.4952126 6.44690583,16.3304036 C6.31698983,16.1506168 6.12390025,16.0265999 5.90636771,15.9832287 C5.76556041,15.9298362 5.61729616,15.8987007 5.46690583,15.8909417 C5.29112108,15.8909417 5.1109417,15.9480717 4.97470852,16.3567713 L4.89560538,16.5852915 L4.91757848,16.5852915 Z M4.5044843,16.1194619 L4.21883408,16.9764126 L4.21883408,17.1038565 L4.33309417,17.1434081 L4.44735426,17.2093274 L4.47811659,17.0950673 L6.40295964,17.7147085 L6.36340807,17.824574 L6.64466368,17.916861 L6.96986547,16.9412556 C7.21596413,16.2249327 6.90394619,15.6536323 6.12170404,15.3943498 C5.93628625,15.3301197 5.74215446,15.2945536 5.54600897,15.2888789 C5.04374148,15.2858349 4.60609733,15.6304797 4.49130045,16.1194619 L4.5044843,16.1194619 Z M37.7497758,12.1643049 C37.7849327,12.2258296 37.7761435,12.3049327 37.6486996,12.3752466 L34.9767713,13.8430493 C34.8493274,13.9177578 34.7834081,13.8738117 34.7526457,13.812287 L34.6735426,13.8518386 L35.0470852,14.5373991 L35.1261883,14.4934529 C35.0910314,14.4275336 35.0910314,14.3572197 35.22287,14.2869058 L37.4201794,13.0695964 L37.4201794,13.0695964 L35.9479821,15.6756054 C35.9084305,15.7459193 35.9040359,15.772287 35.8732735,15.7942601 C35.8425112,15.8162332 35.8249327,15.7942601 35.798565,15.7503139 L35.7238565,15.7898655 L36.0930045,16.4710314 L36.1721076,16.4270852 C36.1325561,16.3611659 36.1325561,16.2864574 36.2643946,16.2161435 L38.9319283,14.7483408 C39.0637668,14.6736323 39.1296861,14.7087892 39.1692377,14.7747085 L39.2395516,14.7395516 L38.8616143,14.053991 L38.7913004,14.0935426 C38.8220628,14.1550673 38.8220628,14.2341704 38.6902242,14.3044843 L36.686278,15.4075336 L36.686278,15.4075336 L38.0046637,13.0520179 C38.0442152,12.981704 38.035426,12.9597309 38.0749776,12.9377578 C38.1145291,12.9157848 38.1408969,12.9377578 38.1804484,12.9597309 L38.2507623,12.924574 L37.8113004,12.1247534 L37.7409865,12.1643049 L37.7497758,12.1643049 Z M7.47524664,11.2853812 L7.51919283,11.3205381 C7.59829596,11.2590135 7.63784753,11.2721973 7.68179372,11.3205381 C7.76746452,11.4170661 7.76746452,11.5623958 7.68179372,11.6589238 C7.6290583,11.7336323 7.57632287,11.7204484 7.51479821,11.70287 L7.45766816,11.7731839 L8.08609865,12.2478027 L8.13883408,12.1774888 C8.09087218,12.1321241 8.07836607,12.0606606 8.10807175,12.001704 L8.18278027,11.76 L10.1779372,13.2805381 C10.2438565,13.3332735 10.2482511,13.3728251 10.2086996,13.4914798 L10.261435,13.5310314 L10.7756054,12.8498655 L10.7272646,12.8103139 C10.7030637,12.8400753 10.6667448,12.8573531 10.6283857,12.8573531 C10.5900265,12.8573531 10.5537076,12.8400753 10.5295067,12.8103139 L8.02017937,10.8986547 C7.95114947,10.8584994 7.9275742,10.7700921 7.96744395,10.7008969 L7.92789238,10.6657399 L7.45327354,11.2853812 L7.47524664,11.2853812 Z M34.1769507,11.0129148 L34.8009865,11.70287 L35.5788341,10.3844843 L35.5788341,10.3844843 L34.1813453,11.0041256 L34.1769507,11.0129148 Z M35.7370404,9.69452915 C35.7678027,9.74726457 35.7721973,9.77363229 35.7370404,9.80878924 C35.7092064,9.83765658 35.6743907,9.85884869 35.6359641,9.8703139 L32.709148,11.149148 C32.524574,11.2282511 32.5026009,11.1974888 32.4410762,11.149148 L32.375157,11.2106726 L32.8717489,11.7643946 L32.9376682,11.70287 C32.9113004,11.6633184 32.8893274,11.6281614 32.9376682,11.5930045 C32.970267,11.5720887 33.004012,11.5530155 33.0387444,11.5358744 L33.7199103,11.241435 L34.5592825,12.1730942 L34.2208969,12.7487892 C34.1922797,12.7991122 34.1583975,12.8462526 34.1198206,12.889417 C34.0670852,12.9333632 34.0451121,12.924574 33.9923767,12.889417 L33.930852,12.9465471 L34.4669955,13.5486099 L34.5285202,13.4826906 C34.4757848,13.4299552 34.5285202,13.3552466 34.5592825,13.2849327 L36.1765022,10.503139 C36.1963533,10.4684498 36.2199308,10.4360307 36.2468161,10.4064574 C36.295157,10.3669058 36.3215247,10.3844843 36.3698655,10.4064574 L36.4313901,10.3493274 L35.8117489,9.6593722 L35.7502242,9.71210762 L35.7370404,9.69452915 Z M9.31219731,22.3158744 C9.31219761,17.0577556 12.4798468,12.3174677 17.3378853,10.3056835 C22.1959238,8.29389935 27.7874916,9.40686848 31.5049145,13.1255485 C35.2223374,16.8442285 36.3334158,22.4361723 34.3199891,27.2935303 C32.3065624,32.1508883 27.5652037,35.3169345 22.3070852,35.315157 C15.1325083,35.3054685 9.31945985,29.4904542 9.31219731,22.3158744 L9.31219731,22.3158744 Z M8.48161435,22.3158744 C8.48404125,14.6808503 14.6749896,8.49318071 22.310014,8.49479852 C29.9450384,8.49641632 36.133364,14.686709 36.1325553,22.3217335 C36.1317466,29.956758 29.9421098,36.1457395 22.3070852,36.1457399 C14.6737902,36.1360503 8.48887801,29.9491721 8.48161435,22.3158744 L8.48161435,22.3158744 Z M11.1974888,10.8283408 C11.2986645,10.956867 11.4514891,11.0340837 11.6149776,11.0392825 C11.8162201,11.0264293 12.0062995,10.9422958 12.1511211,10.8019731 C12.4719283,10.5251121 12.590583,10.1867265 12.313722,9.86591928 C12.036861,9.54511211 11.6852915,9.60663677 11.3600897,9.86591928 C11.0348879,10.1252018 10.9206278,10.4899552 11.1974888,10.8107623 L11.1974888,10.8283408 Z M10.226278,9.5670852 C10.304655,9.66986479 10.4266209,9.73003467 10.5558744,9.7296861 C10.7380848,9.71653895 10.9095676,9.63859221 11.0392825,9.50995516 C11.2185084,9.40872782 11.3192713,9.20964712 11.2947195,9.00527954 C11.2701677,8.80091195 11.1251191,8.63136196 10.927017,8.57546515 C10.7289149,8.51956834 10.5166342,8.58829372 10.3888789,8.7496861 C10.1252018,8.96941704 9.98017937,9.28143498 10.226278,9.5670852 L10.226278,9.5670852 Z M10.0680717,8.3761435 C9.53192825,8.81560538 9.37811659,9.46161435 9.77802691,9.91865471 C10.026499,10.195163 10.4371838,10.2543608 10.7536323,10.0592825 L10.7536323,10.0592825 C10.4846234,10.384393 10.4846234,10.8547998 10.7536323,11.1799103 C11.3029596,11.8215247 11.9753363,11.5973991 12.4719283,11.1799103 C12.9685202,10.7624215 13.2849327,10.1295964 12.7356054,9.48358744 C12.4566529,9.17262572 11.9973636,9.10097659 11.6369507,9.31219731 L11.6369507,9.31219731 C11.8437913,9.02500799 11.8293118,8.63406159 11.6017937,8.36295964 C11.4309847,8.16581166 11.1814303,8.05471969 10.9206278,8.05973094 C10.6108099,8.06625312 10.3127517,8.17957729 10.076861,8.38053812 L10.0680717,8.3761435 Z M32.1026906,8.53434978 C32.2278035,8.63642399 32.3811575,8.69776557 32.5421525,8.71013453 C32.7087556,8.69720162 32.8559792,8.59682193 32.9288789,8.4464574 C33.1925561,8.07730942 33.0914798,7.84878924 32.6695964,7.56753363 L32.0323767,7.12807175 L31.3863677,8.04215247 L32.1202691,8.55632287 L32.1026906,8.53434978 Z M31.6632287,6.3941704 C31.7027803,6.42493274 31.729148,6.49524664 31.6632287,6.61390135 L29.9053812,9.11443946 C29.8218834,9.23748879 29.7427803,9.22869955 29.6812556,9.18475336 L29.6329148,9.25946188 L30.3360538,9.74726457 L30.4063677,9.67695067 C30.344843,9.6373991 30.3096861,9.5670852 30.4063677,9.44843049 L31.1314798,8.40251121 L31.6808072,8.78923767 L31.4874439,10.2130942 C31.4853129,10.2521199 31.4732083,10.2899468 31.452287,10.3229596 C31.41713,10.3669058 31.3863677,10.3493274 31.3336323,10.3229596 L31.2852915,10.3932735 L32.0499552,10.9338117 L32.1026906,10.8634978 C32.0081378,10.8144752 31.9578268,10.7084629 31.9796413,10.6042152 L32.1949776,9.1232287 C32.673991,9.35174888 33.1090583,9.22430493 33.4869955,8.68376682 C33.7726457,8.27067265 33.7243049,7.71255605 33.078296,7.25991031 L31.7599103,6.31946188 L31.7159641,6.38538117 L31.6632287,6.3941704 Z M13.3420628,7.44887892 C13.4006529,7.62094772 13.5343644,7.75700154 13.7053899,7.81857071 C13.8764154,7.88013988 14.066165,7.86053208 14.2209865,7.76529148 C14.386702,7.68656203 14.5078693,7.53704604 14.5505563,7.35861464 C14.5932432,7.18018323 14.5528606,6.99201894 14.4407175,6.84681614 C14.2121973,6.42932735 13.9001794,6.29748879 13.5310314,6.49964126 C13.1618834,6.70179372 13.0915695,7.02699552 13.3332735,7.44887892 L13.3420628,7.44887892 Z M13.3420628,6.05139013 C13.0319411,6.1921928 12.7997105,6.4626109 12.7073749,6.79044463 C12.6150393,7.11827836 12.6720002,7.47014833 12.8630493,7.75210762 C12.988591,8.03034039 13.2259044,8.24253399 13.5163923,8.33629381 C13.8068803,8.43005362 14.1234674,8.39664055 14.3879821,8.24430493 C14.6644338,8.10893014 14.8589994,7.84896442 14.9109417,7.54556054 L14.9109417,7.54556054 C15.2844843,8.32340807 15.0999103,8.71892377 14.7219731,8.92547085 C14.3440359,9.13201794 14.1067265,9.04852018 14.053991,8.95183857 C14.0392727,8.92429975 14.0288962,8.89465278 14.0232287,8.86394619 L13.9441256,8.86394619 L13.8957848,9.60224215 L13.9660987,9.60224215 C13.9660987,9.60224215 13.9924664,9.54950673 14.0232287,9.53192825 C14.0766445,9.51888699 14.1324138,9.51888699 14.1858296,9.53192825 L14.3440359,9.53192825 C14.5736164,9.52173035 14.7977252,9.45855872 14.9988341,9.34735426 C15.8777578,8.87273543 15.7986547,7.87515695 15.2756951,6.91273543 C15.0271646,6.34769321 14.4926528,5.96109661 13.8782063,5.90197309 C13.6873494,5.90439837 13.5000893,5.95423372 13.3332735,6.04699552 L13.3420628,6.05139013 Z M27.958565,6.952287 L28.8374888,7.29506726 L28.9649327,5.78331839 L28.9649327,5.78331839 L27.9849327,6.95668161 L27.958565,6.952287 Z M28.7715695,5.07578475 C28.8243049,5.10654709 28.8374888,5.12852018 28.8155157,5.18125561 C28.8000282,5.21745706 28.7776383,5.2502956 28.7495964,5.27793722 L26.6841256,7.71695067 C26.5610762,7.86636771 26.5259193,7.84878924 26.4468161,7.82242152 L26.4116592,7.90591928 L27.1016143,8.18278027 L27.1323767,8.09928251 C27.0972197,8.0729148 27.0576682,8.05533632 27.0796413,8.0026009 C27.0996145,7.9690547 27.1216291,7.93676672 27.1455605,7.90591928 L27.6289686,7.34340807 L28.789148,7.80923767 L28.7408072,8.47282511 C28.7420874,8.53143513 28.731628,8.58970891 28.7100448,8.64421525 C28.6836771,8.71013453 28.6660987,8.71013453 28.5957848,8.68816143 L28.5650224,8.76726457 L29.307713,9.06609865 L29.3384753,8.9826009 C29.2681614,8.95623318 29.2681614,8.87273543 29.2725561,8.78923767 L29.4966816,5.58556054 C29.4967409,5.5450029 29.5041868,5.5047952 29.5186547,5.46690583 C29.5450224,5.40977578 29.5801794,5.41856502 29.6329148,5.41856502 L29.6592825,5.3438565 L28.8023318,4.99668161 L28.7715695,5.07578475 L28.7715695,5.07578475 Z M20.615157,5.46251121 C20.6151641,5.6833143 20.7484133,5.88228892 20.9525807,5.96637017 C21.1567482,6.05045142 21.3914742,6.00301814 21.5469722,5.84625595 C21.7024701,5.68949377 21.7480013,5.45439135 21.6622696,5.2509114 C21.576538,5.04743146 21.376491,4.91579781 21.1556951,4.91757848 C20.8564546,4.91999178 20.6151472,5.16326106 20.615157,5.46251121 L20.615157,5.46251121 Z M16.6819731,5.84044843 C16.7490997,6.10987219 16.9808798,6.30626598 17.2576682,6.32825112 C17.3484373,6.32651798 17.4379989,6.30711297 17.5213453,6.27112108 C17.6959261,6.21562357 17.836066,6.08418632 17.9026271,5.91351693 C17.9691881,5.74284754 17.9550369,5.55123674 17.8641256,5.39219731 C17.6927354,4.95273543 17.398296,4.78134529 17.0115695,4.92636771 C16.624843,5.07139013 16.5149776,5.39219731 16.6819731,5.84044843 L16.6819731,5.84044843 Z M16.8665471,4.4561435 C16.5402873,4.55429661 16.2736623,4.79089761 16.1374124,5.10317228 C16.0011625,5.41544695 16.0090614,5.77182665 16.1590135,6.07775785 C16.2453961,6.37089374 16.4522775,6.61351159 16.7280821,6.74512651 C17.0038866,6.87674143 17.3226277,6.88495261 17.604843,6.767713 C17.8968871,6.67497292 18.1250508,6.44516775 18.2156951,6.15246637 L18.2156951,6.15246637 C18.4881614,6.97426009 18.2464574,7.34340807 17.8421525,7.49282511 C17.5081614,7.62026906 17.2181166,7.53237668 17.178565,7.43130045 C17.175326,7.40062338 17.175326,7.36969053 17.178565,7.33901345 L17.0994619,7.31704036 L16.9588341,8.04215247 L17.0203587,8.04215247 C17.0203587,8.04215247 17.0555157,7.99381166 17.086278,7.9806278 C17.1958828,7.98055302 17.3050882,7.99383476 17.4114798,8.02017937 C17.6385813,8.03870421 17.8669326,8.00565337 18.0794619,7.92349776 C19.0067265,7.57192825 19.0726457,6.57434978 18.6859193,5.55040359 C18.4178475,4.83408072 17.8860987,4.35067265 17.2928251,4.35067265 C17.1514284,4.35135241 17.0113761,4.37817093 16.8797309,4.42977578 L16.8665471,4.4561435 Z M23.8144395,4.84286996 C23.5859193,6.23156951 25.7964126,5.84044843 25.6513901,6.72816143 C25.5898655,7.13246637 25.2646637,7.25991031 24.8427803,7.19399103 C24.3549776,7.11049327 23.8012556,6.75452915 23.8408072,6.4864574 C23.8383106,6.46161713 23.8383106,6.43658915 23.8408072,6.41174888 L23.7704933,6.35461883 L23.3002691,7.00502242 L23.3793722,7.05775785 C23.4012506,7.0389155 23.4296672,7.02944331 23.4584753,7.03139013 C23.8040933,7.38198903 24.254606,7.6103311 24.741704,7.68179372 C25.5107623,7.80923767 26.1128251,7.44887892 26.218296,6.80286996 C26.4512108,5.35704036 24.2275336,5.7173991 24.3593722,4.93076233 C24.407713,4.63192825 24.6274439,4.4341704 25.1723767,4.5264574 C25.6118386,4.5967713 26.0776682,4.86044843 26.0513004,5.12412556 C26.0578959,5.13956426 26.0578959,5.15702767 26.0513004,5.17246637 L26.1172197,5.22520179 L26.5918386,4.55721973 L26.5259193,4.50887892 C26.4930346,4.53669399 26.449994,4.54944675 26.4072646,4.54403587 C26.2964104,4.48050502 26.1906254,4.40851242 26.090852,4.32869955 C25.8550114,4.17889003 25.589748,4.08147691 25.3130045,4.04304933 C25.1981448,4.02466123 25.082133,4.01438172 24.9658296,4.012287 C24.4224068,3.93963213 23.9169227,4.30427529 23.8144395,4.84286996 Z M2.67632287,22.3290583 C2.67632287,11.4751522 11.4751522,2.67632287 22.3290583,2.67632287 C33.1829644,2.67632287 41.9817937,11.4751522 41.9817937,22.3290583 C41.9817937,33.1829644 33.1829644,41.9817937 22.3290583,41.9817937 C11.4811745,41.9672685 2.69084806,33.1769421 2.67632287,22.3290583 L2.67632287,22.3290583 Z M2.08744395,22.3290583 C2.0898709,11.1504958 11.1534247,2.09022089 22.3319874,2.09183878 C33.5105501,2.09345666 42.5714809,11.1563547 42.5706721,22.3349175 C42.5698633,33.5134802 33.5076211,42.575067 22.3290583,42.5750673 C11.1532297,42.5629528 2.09713231,33.5048893 2.08744395,22.3290583 L2.08744395,22.3290583 Z M1.20852018,22.3290583 C1.20852018,10.6572259 10.6704098,1.19533632 22.3422422,1.19533632 C34.0140745,1.19533632 43.4759641,10.6572259 43.4759641,22.3290583 C43.4759641,34.0008906 34.0140745,43.4627803 22.3422422,43.4627803 C10.6764327,43.4482525 1.22304798,33.9948677 1.20852018,22.3290583 L1.20852018,22.3290583 Z M0.026367713,22.3290583 C0.026367713,10.0043412 10.017525,0.0131838565 22.3422422,0.0131838565 C34.6669593,0.0131838565 44.6581166,10.0043412 44.6581166,22.3290583 C44.6581166,34.6537754 34.6669593,44.6449327 22.3422422,44.6449327 C10.0235484,44.6304031 0.0408973453,34.647752 0.026367713,22.3290583 L0.026367713,22.3290583 Z M15.4646637,31.7115695 L16.7259193,31.7115695 C18.4147009,32.7235629 20.3470915,33.2567933 22.3158744,33.2540807 C23.6687422,33.2521452 25.0096176,33.0003586 26.2710314,32.5113901 C26.4687892,32.5113901 26.6753363,32.5113901 26.8994619,32.5113901 L27.1147982,32.5113901 C27.4004484,32.5113901 27.6641256,32.5113901 27.9146188,32.489417 C23.9651802,34.6674891 19.1122843,34.3642901 15.4646637,31.7115695 Z M10.6833184,22.3158744 C10.6902392,17.0663194 14.205932,12.4692902 19.2704036,11.0876233 C19.2325642,11.2041325 19.2118399,11.325518 19.2088789,11.4479821 C19.210755,11.5719845 19.231501,11.6949784 19.2704036,11.8127354 C15.8834637,12.7932564 13.177979,15.34816 12.0053168,18.6734639 C10.8326545,21.9987678 11.3369987,25.6856115 13.3596413,28.5738117 L13.3596413,29.7252018 C11.6280746,27.6412231 10.6811455,25.0165659 10.6833184,22.3070852 L10.6833184,22.3158744 Z M24.8955157,11.4347982 C24.8919856,11.2631712 24.8530883,11.0941176 24.7812556,10.9382063 C28.5418541,11.7509875 31.6566252,14.3719369 33.1002249,17.9382704 C34.5438246,21.5046038 34.1291943,25.5542034 31.9928251,28.753991 C31.9928251,28.6309417 31.9928251,28.4991031 31.9928251,28.3672646 L31.9928251,28.2881614 C31.9928251,27.9805381 31.9928251,27.6992825 31.9620628,27.4443946 C33.5531391,24.4584634 33.6716183,20.9039961 32.2829097,17.8187413 C30.894201,14.7334865 28.1548967,12.4653404 24.8647534,11.6765022 C24.8822145,11.5971178 24.8910549,11.5160803 24.8911211,11.4347982 L24.8955157,11.4347982 Z M30.0899552,25.2998206 L30.0899552,24.6186547 L27.7695964,24.6186547 C27.7357962,24.6186547 27.7033803,24.6320818 27.6794799,24.6559822 C27.6555796,24.6798826 27.6421525,24.7122984 27.6421525,24.7460987 L27.6421525,25.0756951 L27.4092377,25.0756951 L27.4092377,24.7460987 C27.4092377,24.6757133 27.3521791,24.6186547 27.2817937,24.6186547 L25.0405381,24.6186547 L25.0405381,25.2822422 C24.8102816,25.3257986 24.5828236,25.3830299 24.3593722,25.4536323 C23.7979739,25.7363028 23.3668255,26.2240984 23.1552466,26.8159641 L12.9157848,26.8159641 C12.9169409,26.8882297 12.946762,26.9570751 12.9986856,27.0073503 C13.0506091,27.0576255 13.1203804,27.0852108 13.1926457,27.0840359 L14.146278,27.0840359 L14.146278,30.43713 C14.146278,30.43713 14.146278,30.5513901 14.146278,30.6876233 C14.1600086,30.8245652 14.2767535,30.9279132 14.4143498,30.9249327 L23.7529148,30.9249327 L23.853991,31.026009 C24.258296,31.3907623 24.961435,31.7203587 26.9302242,31.7467265 C28.013416,31.7768449 29.0953102,31.6510433 30.1426906,31.3731839 C30.6876233,31.2193722 31.2501345,30.4591031 31.2325561,28.2969507 C31.2325561,26.2578475 30.7930942,25.5459193 30.38,25.3965022 C30.2909768,25.3642925 30.199965,25.3378697 30.1075336,25.3173991 L30.0899552,25.2998206 Z" id="Shape"></path>
            </g>
        </g>
    </g>
</svg>